<?xml version="1.0" encoding="utf-8" standalone="no"?>
<!DOCTYPE svg PUBLIC "-//W3C//DTD SVG 1.1//EN"
  "http://www.w3.org/Graphics/SVG/1.1/DTD/svg11.dtd">
<svg xmlns:xlink="http://www.w3.org/1999/xlink" width="576pt" height="360pt" viewBox="0 0 576 360" xmlns="http://www.w3.org/2000/svg" version="1.1">
 <metadata>
  <rdf:RDF xmlns:dc="http://purl.org/dc/elements/1.1/" xmlns:cc="http://creativecommons.org/ns#" xmlns:rdf="http://www.w3.org/1999/02/22-rdf-syntax-ns#">
   <cc:Work>
    <dc:type rdf:resource="http://purl.org/dc/dcmitype/StillImage"/>
    <dc:date>2024-04-09T13:16:00.886148</dc:date>
    <dc:format>image/svg+xml</dc:format>
    <dc:creator>
     <cc:Agent>
      <dc:title>Matplotlib v3.8.4, https://matplotlib.org/</dc:title>
     </cc:Agent>
    </dc:creator>
   </cc:Work>
  </rdf:RDF>
 </metadata>
 <defs>
  <style type="text/css">*{stroke-linejoin: round; stroke-linecap: butt}</style>
 </defs>
 <g id="figure_1">
  <g id="patch_1">
   <path d="M 0 360 
L 576 360 
L 576 0 
L 0 0 
z
" style="fill: #ffffff"/>
  </g>
  <g id="axes_1">
   <g id="patch_2">
    <path d="M 72 320.4 
L 518.4 320.4 
L 518.4 43.2 
L 72 43.2 
z
" style="fill: #ffffff"/>
   </g>
   <g id="matplotlib.axis_1">
    <g id="xtick_1">
     <g id="line2d_1">
      <defs>
       <path id="mf5227c8f04" d="M 0 0 
L 0 3.5 
" style="stroke: #000000; stroke-width: 0.8"/>
      </defs>
      <g>
       <use xlink:href="#mf5227c8f04" x="72" y="320.4" style="stroke: #000000; stroke-width: 0.8"/>
      </g>
     </g>
     <g id="text_1">
      <!-- 0.0 -->
      <g transform="translate(64.048438 334.998438) scale(0.1 -0.1)">
       <defs>
        <path id="DejaVuSans-30" d="M 2034 4250 
Q 1547 4250 1301 3770 
Q 1056 3291 1056 2328 
Q 1056 1369 1301 889 
Q 1547 409 2034 409 
Q 2525 409 2770 889 
Q 3016 1369 3016 2328 
Q 3016 3291 2770 3770 
Q 2525 4250 2034 4250 
z
M 2034 4750 
Q 2819 4750 3233 4129 
Q 3647 3509 3647 2328 
Q 3647 1150 3233 529 
Q 2819 -91 2034 -91 
Q 1250 -91 836 529 
Q 422 1150 422 2328 
Q 422 3509 836 4129 
Q 1250 4750 2034 4750 
z
" transform="scale(0.015625)"/>
        <path id="DejaVuSans-2e" d="M 684 794 
L 1344 794 
L 1344 0 
L 684 0 
L 684 794 
z
" transform="scale(0.015625)"/>
       </defs>
       <use xlink:href="#DejaVuSans-30"/>
       <use xlink:href="#DejaVuSans-2e" x="63.623047"/>
       <use xlink:href="#DejaVuSans-30" x="95.410156"/>
      </g>
     </g>
    </g>
    <g id="xtick_2">
     <g id="line2d_2">
      <g>
       <use xlink:href="#mf5227c8f04" x="132.325206" y="320.4" style="stroke: #000000; stroke-width: 0.8"/>
      </g>
     </g>
     <g id="text_2">
      <!-- 0.5 -->
      <g transform="translate(124.373643 334.998438) scale(0.1 -0.1)">
       <defs>
        <path id="DejaVuSans-35" d="M 691 4666 
L 3169 4666 
L 3169 4134 
L 1269 4134 
L 1269 2991 
Q 1406 3038 1543 3061 
Q 1681 3084 1819 3084 
Q 2600 3084 3056 2656 
Q 3513 2228 3513 1497 
Q 3513 744 3044 326 
Q 2575 -91 1722 -91 
Q 1428 -91 1123 -41 
Q 819 9 494 109 
L 494 744 
Q 775 591 1075 516 
Q 1375 441 1709 441 
Q 2250 441 2565 725 
Q 2881 1009 2881 1497 
Q 2881 1984 2565 2268 
Q 2250 2553 1709 2553 
Q 1456 2553 1204 2497 
Q 953 2441 691 2322 
L 691 4666 
z
" transform="scale(0.015625)"/>
       </defs>
       <use xlink:href="#DejaVuSans-30"/>
       <use xlink:href="#DejaVuSans-2e" x="63.623047"/>
       <use xlink:href="#DejaVuSans-35" x="95.410156"/>
      </g>
     </g>
    </g>
    <g id="xtick_3">
     <g id="line2d_3">
      <g>
       <use xlink:href="#mf5227c8f04" x="192.650412" y="320.4" style="stroke: #000000; stroke-width: 0.8"/>
      </g>
     </g>
     <g id="text_3">
      <!-- 1.0 -->
      <g transform="translate(184.698849 334.998438) scale(0.1 -0.1)">
       <defs>
        <path id="DejaVuSans-31" d="M 794 531 
L 1825 531 
L 1825 4091 
L 703 3866 
L 703 4441 
L 1819 4666 
L 2450 4666 
L 2450 531 
L 3481 531 
L 3481 0 
L 794 0 
L 794 531 
z
" transform="scale(0.015625)"/>
       </defs>
       <use xlink:href="#DejaVuSans-31"/>
       <use xlink:href="#DejaVuSans-2e" x="63.623047"/>
       <use xlink:href="#DejaVuSans-30" x="95.410156"/>
      </g>
     </g>
    </g>
    <g id="xtick_4">
     <g id="line2d_4">
      <g>
       <use xlink:href="#mf5227c8f04" x="252.975618" y="320.4" style="stroke: #000000; stroke-width: 0.8"/>
      </g>
     </g>
     <g id="text_4">
      <!-- 1.5 -->
      <g transform="translate(245.024055 334.998438) scale(0.1 -0.1)">
       <use xlink:href="#DejaVuSans-31"/>
       <use xlink:href="#DejaVuSans-2e" x="63.623047"/>
       <use xlink:href="#DejaVuSans-35" x="95.410156"/>
      </g>
     </g>
    </g>
    <g id="xtick_5">
     <g id="line2d_5">
      <g>
       <use xlink:href="#mf5227c8f04" x="313.300824" y="320.4" style="stroke: #000000; stroke-width: 0.8"/>
      </g>
     </g>
     <g id="text_5">
      <!-- 2.0 -->
      <g transform="translate(305.349261 334.998438) scale(0.1 -0.1)">
       <defs>
        <path id="DejaVuSans-32" d="M 1228 531 
L 3431 531 
L 3431 0 
L 469 0 
L 469 531 
Q 828 903 1448 1529 
Q 2069 2156 2228 2338 
Q 2531 2678 2651 2914 
Q 2772 3150 2772 3378 
Q 2772 3750 2511 3984 
Q 2250 4219 1831 4219 
Q 1534 4219 1204 4116 
Q 875 4013 500 3803 
L 500 4441 
Q 881 4594 1212 4672 
Q 1544 4750 1819 4750 
Q 2544 4750 2975 4387 
Q 3406 4025 3406 3419 
Q 3406 3131 3298 2873 
Q 3191 2616 2906 2266 
Q 2828 2175 2409 1742 
Q 1991 1309 1228 531 
z
" transform="scale(0.015625)"/>
       </defs>
       <use xlink:href="#DejaVuSans-32"/>
       <use xlink:href="#DejaVuSans-2e" x="63.623047"/>
       <use xlink:href="#DejaVuSans-30" x="95.410156"/>
      </g>
     </g>
    </g>
    <g id="xtick_6">
     <g id="line2d_6">
      <g>
       <use xlink:href="#mf5227c8f04" x="373.62603" y="320.4" style="stroke: #000000; stroke-width: 0.8"/>
      </g>
     </g>
     <g id="text_6">
      <!-- 2.5 -->
      <g transform="translate(365.674467 334.998438) scale(0.1 -0.1)">
       <use xlink:href="#DejaVuSans-32"/>
       <use xlink:href="#DejaVuSans-2e" x="63.623047"/>
       <use xlink:href="#DejaVuSans-35" x="95.410156"/>
      </g>
     </g>
    </g>
    <g id="xtick_7">
     <g id="line2d_7">
      <g>
       <use xlink:href="#mf5227c8f04" x="433.951236" y="320.4" style="stroke: #000000; stroke-width: 0.8"/>
      </g>
     </g>
     <g id="text_7">
      <!-- 3.0 -->
      <g transform="translate(425.999673 334.998438) scale(0.1 -0.1)">
       <defs>
        <path id="DejaVuSans-33" d="M 2597 2516 
Q 3050 2419 3304 2112 
Q 3559 1806 3559 1356 
Q 3559 666 3084 287 
Q 2609 -91 1734 -91 
Q 1441 -91 1130 -33 
Q 819 25 488 141 
L 488 750 
Q 750 597 1062 519 
Q 1375 441 1716 441 
Q 2309 441 2620 675 
Q 2931 909 2931 1356 
Q 2931 1769 2642 2001 
Q 2353 2234 1838 2234 
L 1294 2234 
L 1294 2753 
L 1863 2753 
Q 2328 2753 2575 2939 
Q 2822 3125 2822 3475 
Q 2822 3834 2567 4026 
Q 2313 4219 1838 4219 
Q 1578 4219 1281 4162 
Q 984 4106 628 3988 
L 628 4550 
Q 988 4650 1302 4700 
Q 1616 4750 1894 4750 
Q 2613 4750 3031 4423 
Q 3450 4097 3450 3541 
Q 3450 3153 3228 2886 
Q 3006 2619 2597 2516 
z
" transform="scale(0.015625)"/>
       </defs>
       <use xlink:href="#DejaVuSans-33"/>
       <use xlink:href="#DejaVuSans-2e" x="63.623047"/>
       <use xlink:href="#DejaVuSans-30" x="95.410156"/>
      </g>
     </g>
    </g>
    <g id="xtick_8">
     <g id="line2d_8">
      <g>
       <use xlink:href="#mf5227c8f04" x="494.276442" y="320.4" style="stroke: #000000; stroke-width: 0.8"/>
      </g>
     </g>
     <g id="text_8">
      <!-- 3.5 -->
      <g transform="translate(486.324879 334.998438) scale(0.1 -0.1)">
       <use xlink:href="#DejaVuSans-33"/>
       <use xlink:href="#DejaVuSans-2e" x="63.623047"/>
       <use xlink:href="#DejaVuSans-35" x="95.410156"/>
      </g>
     </g>
    </g>
    <g id="text_9">
     <!-- Time [min] -->
     <g transform="translate(268.047656 348.676562) scale(0.1 -0.1)">
      <defs>
       <path id="DejaVuSans-54" d="M -19 4666 
L 3928 4666 
L 3928 4134 
L 2272 4134 
L 2272 0 
L 1638 0 
L 1638 4134 
L -19 4134 
L -19 4666 
z
" transform="scale(0.015625)"/>
       <path id="DejaVuSans-69" d="M 603 3500 
L 1178 3500 
L 1178 0 
L 603 0 
L 603 3500 
z
M 603 4863 
L 1178 4863 
L 1178 4134 
L 603 4134 
L 603 4863 
z
" transform="scale(0.015625)"/>
       <path id="DejaVuSans-6d" d="M 3328 2828 
Q 3544 3216 3844 3400 
Q 4144 3584 4550 3584 
Q 5097 3584 5394 3201 
Q 5691 2819 5691 2113 
L 5691 0 
L 5113 0 
L 5113 2094 
Q 5113 2597 4934 2840 
Q 4756 3084 4391 3084 
Q 3944 3084 3684 2787 
Q 3425 2491 3425 1978 
L 3425 0 
L 2847 0 
L 2847 2094 
Q 2847 2600 2669 2842 
Q 2491 3084 2119 3084 
Q 1678 3084 1418 2786 
Q 1159 2488 1159 1978 
L 1159 0 
L 581 0 
L 581 3500 
L 1159 3500 
L 1159 2956 
Q 1356 3278 1631 3431 
Q 1906 3584 2284 3584 
Q 2666 3584 2933 3390 
Q 3200 3197 3328 2828 
z
" transform="scale(0.015625)"/>
       <path id="DejaVuSans-65" d="M 3597 1894 
L 3597 1613 
L 953 1613 
Q 991 1019 1311 708 
Q 1631 397 2203 397 
Q 2534 397 2845 478 
Q 3156 559 3463 722 
L 3463 178 
Q 3153 47 2828 -22 
Q 2503 -91 2169 -91 
Q 1331 -91 842 396 
Q 353 884 353 1716 
Q 353 2575 817 3079 
Q 1281 3584 2069 3584 
Q 2775 3584 3186 3129 
Q 3597 2675 3597 1894 
z
M 3022 2063 
Q 3016 2534 2758 2815 
Q 2500 3097 2075 3097 
Q 1594 3097 1305 2825 
Q 1016 2553 972 2059 
L 3022 2063 
z
" transform="scale(0.015625)"/>
       <path id="DejaVuSans-20" transform="scale(0.015625)"/>
       <path id="DejaVuSans-5b" d="M 550 4863 
L 1875 4863 
L 1875 4416 
L 1125 4416 
L 1125 -397 
L 1875 -397 
L 1875 -844 
L 550 -844 
L 550 4863 
z
" transform="scale(0.015625)"/>
       <path id="DejaVuSans-6e" d="M 3513 2113 
L 3513 0 
L 2938 0 
L 2938 2094 
Q 2938 2591 2744 2837 
Q 2550 3084 2163 3084 
Q 1697 3084 1428 2787 
Q 1159 2491 1159 1978 
L 1159 0 
L 581 0 
L 581 3500 
L 1159 3500 
L 1159 2956 
Q 1366 3272 1645 3428 
Q 1925 3584 2291 3584 
Q 2894 3584 3203 3211 
Q 3513 2838 3513 2113 
z
" transform="scale(0.015625)"/>
       <path id="DejaVuSans-5d" d="M 1947 4863 
L 1947 -844 
L 622 -844 
L 622 -397 
L 1369 -397 
L 1369 4416 
L 622 4416 
L 622 4863 
L 1947 4863 
z
" transform="scale(0.015625)"/>
      </defs>
      <use xlink:href="#DejaVuSans-54"/>
      <use xlink:href="#DejaVuSans-69" x="57.958984"/>
      <use xlink:href="#DejaVuSans-6d" x="85.742188"/>
      <use xlink:href="#DejaVuSans-65" x="183.154297"/>
      <use xlink:href="#DejaVuSans-20" x="244.677734"/>
      <use xlink:href="#DejaVuSans-5b" x="276.464844"/>
      <use xlink:href="#DejaVuSans-6d" x="315.478516"/>
      <use xlink:href="#DejaVuSans-69" x="412.890625"/>
      <use xlink:href="#DejaVuSans-6e" x="440.673828"/>
      <use xlink:href="#DejaVuSans-5d" x="504.052734"/>
     </g>
    </g>
   </g>
   <g id="matplotlib.axis_2">
    <g id="ytick_1">
     <g id="line2d_9">
      <defs>
       <path id="m7e0d69cd8b" d="M 0 0 
L -3.5 0 
" style="stroke: #000000; stroke-width: 0.8"/>
      </defs>
      <g>
       <use xlink:href="#m7e0d69cd8b" x="72" y="302.837815" style="stroke: #000000; stroke-width: 0.8"/>
      </g>
     </g>
     <g id="text_10">
      <!-- 0 -->
      <g transform="translate(58.6375 306.637033) scale(0.1 -0.1)">
       <use xlink:href="#DejaVuSans-30"/>
      </g>
     </g>
    </g>
    <g id="ytick_2">
     <g id="line2d_10">
      <g>
       <use xlink:href="#m7e0d69cd8b" x="72" y="257.585747" style="stroke: #000000; stroke-width: 0.8"/>
      </g>
     </g>
     <g id="text_11">
      <!-- 50 -->
      <g transform="translate(52.275 261.384966) scale(0.1 -0.1)">
       <use xlink:href="#DejaVuSans-35"/>
       <use xlink:href="#DejaVuSans-30" x="63.623047"/>
      </g>
     </g>
    </g>
    <g id="ytick_3">
     <g id="line2d_11">
      <g>
       <use xlink:href="#m7e0d69cd8b" x="72" y="212.33368" style="stroke: #000000; stroke-width: 0.8"/>
      </g>
     </g>
     <g id="text_12">
      <!-- 100 -->
      <g transform="translate(45.9125 216.132898) scale(0.1 -0.1)">
       <use xlink:href="#DejaVuSans-31"/>
       <use xlink:href="#DejaVuSans-30" x="63.623047"/>
       <use xlink:href="#DejaVuSans-30" x="127.246094"/>
      </g>
     </g>
    </g>
    <g id="ytick_4">
     <g id="line2d_12">
      <g>
       <use xlink:href="#m7e0d69cd8b" x="72" y="167.081612" style="stroke: #000000; stroke-width: 0.8"/>
      </g>
     </g>
     <g id="text_13">
      <!-- 150 -->
      <g transform="translate(45.9125 170.880831) scale(0.1 -0.1)">
       <use xlink:href="#DejaVuSans-31"/>
       <use xlink:href="#DejaVuSans-35" x="63.623047"/>
       <use xlink:href="#DejaVuSans-30" x="127.246094"/>
      </g>
     </g>
    </g>
    <g id="ytick_5">
     <g id="line2d_13">
      <g>
       <use xlink:href="#m7e0d69cd8b" x="72" y="121.829544" style="stroke: #000000; stroke-width: 0.8"/>
      </g>
     </g>
     <g id="text_14">
      <!-- 200 -->
      <g transform="translate(45.9125 125.628763) scale(0.1 -0.1)">
       <use xlink:href="#DejaVuSans-32"/>
       <use xlink:href="#DejaVuSans-30" x="63.623047"/>
       <use xlink:href="#DejaVuSans-30" x="127.246094"/>
      </g>
     </g>
    </g>
    <g id="ytick_6">
     <g id="line2d_14">
      <g>
       <use xlink:href="#m7e0d69cd8b" x="72" y="76.577477" style="stroke: #000000; stroke-width: 0.8"/>
      </g>
     </g>
     <g id="text_15">
      <!-- 250 -->
      <g transform="translate(45.9125 80.376696) scale(0.1 -0.1)">
       <use xlink:href="#DejaVuSans-32"/>
       <use xlink:href="#DejaVuSans-35" x="63.623047"/>
       <use xlink:href="#DejaVuSans-30" x="127.246094"/>
      </g>
     </g>
    </g>
    <g id="text_16">
     <!-- Absorbance [mAU] -->
     <g transform="translate(39.832812 228.7875) rotate(-90) scale(0.1 -0.1)">
      <defs>
       <path id="DejaVuSans-41" d="M 2188 4044 
L 1331 1722 
L 3047 1722 
L 2188 4044 
z
M 1831 4666 
L 2547 4666 
L 4325 0 
L 3669 0 
L 3244 1197 
L 1141 1197 
L 716 0 
L 50 0 
L 1831 4666 
z
" transform="scale(0.015625)"/>
       <path id="DejaVuSans-62" d="M 3116 1747 
Q 3116 2381 2855 2742 
Q 2594 3103 2138 3103 
Q 1681 3103 1420 2742 
Q 1159 2381 1159 1747 
Q 1159 1113 1420 752 
Q 1681 391 2138 391 
Q 2594 391 2855 752 
Q 3116 1113 3116 1747 
z
M 1159 2969 
Q 1341 3281 1617 3432 
Q 1894 3584 2278 3584 
Q 2916 3584 3314 3078 
Q 3713 2572 3713 1747 
Q 3713 922 3314 415 
Q 2916 -91 2278 -91 
Q 1894 -91 1617 61 
Q 1341 213 1159 525 
L 1159 0 
L 581 0 
L 581 4863 
L 1159 4863 
L 1159 2969 
z
" transform="scale(0.015625)"/>
       <path id="DejaVuSans-73" d="M 2834 3397 
L 2834 2853 
Q 2591 2978 2328 3040 
Q 2066 3103 1784 3103 
Q 1356 3103 1142 2972 
Q 928 2841 928 2578 
Q 928 2378 1081 2264 
Q 1234 2150 1697 2047 
L 1894 2003 
Q 2506 1872 2764 1633 
Q 3022 1394 3022 966 
Q 3022 478 2636 193 
Q 2250 -91 1575 -91 
Q 1294 -91 989 -36 
Q 684 19 347 128 
L 347 722 
Q 666 556 975 473 
Q 1284 391 1588 391 
Q 1994 391 2212 530 
Q 2431 669 2431 922 
Q 2431 1156 2273 1281 
Q 2116 1406 1581 1522 
L 1381 1569 
Q 847 1681 609 1914 
Q 372 2147 372 2553 
Q 372 3047 722 3315 
Q 1072 3584 1716 3584 
Q 2034 3584 2315 3537 
Q 2597 3491 2834 3397 
z
" transform="scale(0.015625)"/>
       <path id="DejaVuSans-6f" d="M 1959 3097 
Q 1497 3097 1228 2736 
Q 959 2375 959 1747 
Q 959 1119 1226 758 
Q 1494 397 1959 397 
Q 2419 397 2687 759 
Q 2956 1122 2956 1747 
Q 2956 2369 2687 2733 
Q 2419 3097 1959 3097 
z
M 1959 3584 
Q 2709 3584 3137 3096 
Q 3566 2609 3566 1747 
Q 3566 888 3137 398 
Q 2709 -91 1959 -91 
Q 1206 -91 779 398 
Q 353 888 353 1747 
Q 353 2609 779 3096 
Q 1206 3584 1959 3584 
z
" transform="scale(0.015625)"/>
       <path id="DejaVuSans-72" d="M 2631 2963 
Q 2534 3019 2420 3045 
Q 2306 3072 2169 3072 
Q 1681 3072 1420 2755 
Q 1159 2438 1159 1844 
L 1159 0 
L 581 0 
L 581 3500 
L 1159 3500 
L 1159 2956 
Q 1341 3275 1631 3429 
Q 1922 3584 2338 3584 
Q 2397 3584 2469 3576 
Q 2541 3569 2628 3553 
L 2631 2963 
z
" transform="scale(0.015625)"/>
       <path id="DejaVuSans-61" d="M 2194 1759 
Q 1497 1759 1228 1600 
Q 959 1441 959 1056 
Q 959 750 1161 570 
Q 1363 391 1709 391 
Q 2188 391 2477 730 
Q 2766 1069 2766 1631 
L 2766 1759 
L 2194 1759 
z
M 3341 1997 
L 3341 0 
L 2766 0 
L 2766 531 
Q 2569 213 2275 61 
Q 1981 -91 1556 -91 
Q 1019 -91 701 211 
Q 384 513 384 1019 
Q 384 1609 779 1909 
Q 1175 2209 1959 2209 
L 2766 2209 
L 2766 2266 
Q 2766 2663 2505 2880 
Q 2244 3097 1772 3097 
Q 1472 3097 1187 3025 
Q 903 2953 641 2809 
L 641 3341 
Q 956 3463 1253 3523 
Q 1550 3584 1831 3584 
Q 2591 3584 2966 3190 
Q 3341 2797 3341 1997 
z
" transform="scale(0.015625)"/>
       <path id="DejaVuSans-63" d="M 3122 3366 
L 3122 2828 
Q 2878 2963 2633 3030 
Q 2388 3097 2138 3097 
Q 1578 3097 1268 2742 
Q 959 2388 959 1747 
Q 959 1106 1268 751 
Q 1578 397 2138 397 
Q 2388 397 2633 464 
Q 2878 531 3122 666 
L 3122 134 
Q 2881 22 2623 -34 
Q 2366 -91 2075 -91 
Q 1284 -91 818 406 
Q 353 903 353 1747 
Q 353 2603 823 3093 
Q 1294 3584 2113 3584 
Q 2378 3584 2631 3529 
Q 2884 3475 3122 3366 
z
" transform="scale(0.015625)"/>
       <path id="DejaVuSans-55" d="M 556 4666 
L 1191 4666 
L 1191 1831 
Q 1191 1081 1462 751 
Q 1734 422 2344 422 
Q 2950 422 3222 751 
Q 3494 1081 3494 1831 
L 3494 4666 
L 4128 4666 
L 4128 1753 
Q 4128 841 3676 375 
Q 3225 -91 2344 -91 
Q 1459 -91 1007 375 
Q 556 841 556 1753 
L 556 4666 
z
" transform="scale(0.015625)"/>
      </defs>
      <use xlink:href="#DejaVuSans-41"/>
      <use xlink:href="#DejaVuSans-62" x="68.408203"/>
      <use xlink:href="#DejaVuSans-73" x="131.884766"/>
      <use xlink:href="#DejaVuSans-6f" x="183.984375"/>
      <use xlink:href="#DejaVuSans-72" x="245.166016"/>
      <use xlink:href="#DejaVuSans-62" x="286.279297"/>
      <use xlink:href="#DejaVuSans-61" x="349.755859"/>
      <use xlink:href="#DejaVuSans-6e" x="411.035156"/>
      <use xlink:href="#DejaVuSans-63" x="474.414062"/>
      <use xlink:href="#DejaVuSans-65" x="529.394531"/>
      <use xlink:href="#DejaVuSans-20" x="590.917969"/>
      <use xlink:href="#DejaVuSans-5b" x="622.705078"/>
      <use xlink:href="#DejaVuSans-6d" x="661.71875"/>
      <use xlink:href="#DejaVuSans-41" x="759.130859"/>
      <use xlink:href="#DejaVuSans-55" x="827.539062"/>
      <use xlink:href="#DejaVuSans-5d" x="900.732422"/>
     </g>
    </g>
   </g>
   <g id="line2d_15">
    <path d="M 72 302.837815 
L 73.50813 307.547206 
L 73.809756 307.8 
L 74.010841 307.731581 
L 74.312467 307.253352 
L 74.714634 305.888911 
L 75.518969 301.802526 
L 77.027098 293.918046 
L 77.630349 292.027168 
L 78.032517 291.376895 
L 78.334143 291.238475 
L 78.635769 291.392515 
L 78.937394 291.805118 
L 79.440104 292.959407 
L 81.149317 297.484086 
L 81.85311 298.418196 
L 82.657446 299.030679 
L 83.361239 299.301856 
L 84.165579 299.400493 
L 85.271534 299.330323 
L 88.589419 299.169527 
L 92.108381 299.272127 
L 96.130058 299.074884 
L 96.934398 299.059615 
L 97.839277 299.24193 
L 98.040365 299.441974 
L 98.24144 299.980596 
L 98.543067 301.859704 
L 99.04578 305.334657 
L 99.246857 305.584987 
L 99.447944 305.268257 
L 100.051196 303.339435 
L 100.352823 301.701984 
L 100.855537 296.718347 
L 101.257701 293.788847 
L 101.559326 293.031787 
L 101.760416 293.02023 
L 102.062041 293.369743 
L 102.464204 294.184966 
L 103.167993 296.297969 
L 103.771248 297.844511 
L 104.273962 298.567982 
L 104.877213 298.98642 
L 105.78209 299.338164 
L 106.385342 299.387377 
L 108.798341 299.024612 
L 110.608095 299.221365 
L 111.814598 299.442237 
L 114.127069 299.826389 
L 115.333576 299.94135 
L 116.238439 299.871794 
L 120.059042 299.441286 
L 121.567171 299.423976 
L 125.287222 299.535539 
L 125.588847 299.338094 
L 125.789924 298.927713 
L 126.594263 296.628351 
L 126.79535 296.87238 
L 127.700228 298.513869 
L 128.303483 299.086319 
L 129.007272 299.492372 
L 129.811601 299.695971 
L 131.319729 299.923064 
L 133.431109 300.127726 
L 135.039794 300.252142 
L 137.955503 300.158891 
L 142.982591 300.329438 
L 150.221616 300.314473 
L 151.830287 300.412474 
L 157.76226 300.230941 
L 158.365511 300.157281 
L 159.169847 300.439477 
L 160.074731 300.723506 
L 161.080143 300.734462 
L 162.688814 300.746528 
L 167.514826 300.954542 
L 171.435953 301.05087 
L 172.240295 301.071265 
L 172.944089 301.158782 
L 173.748424 301.130685 
L 174.954927 301.11885 
L 176.965758 300.862781 
L 178.172268 300.964839 
L 178.976604 301.148222 
L 179.479306 301.070058 
L 180.283649 300.866056 
L 181.389617 301.045111 
L 182.093403 301.255171 
L 182.696655 301.341639 
L 186.014545 301.481883 
L 186.416705 301.298018 
L 186.818873 300.737911 
L 187.221033 300.240636 
L 187.422124 300.212337 
L 187.824285 300.498663 
L 188.528086 300.978533 
L 189.131344 301.178288 
L 191.343259 301.462507 
L 193.957421 301.24744 
L 194.962912 300.817454 
L 196.571669 301.360214 
L 197.476668 301.489325 
L 197.979414 301.557129 
L 198.783792 301.385969 
L 200.090916 300.86585 
L 200.593676 301.048973 
L 201.297549 301.373106 
L 202.403546 301.67625 
L 205.520554 301.801283 
L 206.727172 301.919818 
L 207.732677 301.887725 
L 208.235423 301.742233 
L 209.442055 300.934565 
L 210.045306 301.175214 
L 211.050812 301.514141 
L 214.368932 301.955925 
L 217.284813 301.99663 
L 218.290319 302.018257 
L 220.904567 301.826317 
L 221.708945 301.892677 
L 223.11669 301.873777 
L 224.423814 301.737116 
L 225.932065 301.252924 
L 226.635938 301.326475 
L 227.741949 301.502657 
L 229.049073 301.583263 
L 230.356197 301.874138 
L 230.858942 301.788863 
L 231.964954 301.230913 
L 232.56832 301.419789 
L 233.272078 301.602602 
L 235.685328 302.006019 
L 236.489707 301.986425 
L 237.897452 302.193815 
L 239.003449 302.155593 
L 242.019951 302.076808 
L 243.327089 302.005159 
L 244.83534 301.863478 
L 245.941337 301.571513 
L 246.24297 301.145429 
L 246.444083 300.41968 
L 246.64521 298.839238 
L 246.846221 295.686884 
L 247.147955 286.662738 
L 247.952334 255.79862 
L 248.153461 254.854276 
L 248.354472 257.182279 
L 248.857218 269.200074 
L 249.460584 281.814647 
L 249.762217 285.05566 
L 249.862723 285.27355 
L 249.963344 284.877522 
L 250.164342 281.771137 
L 250.46609 270.543298 
L 251.069341 241.97357 
L 251.270468 239.37043 
L 251.370974 239.961497 
L 251.572087 244.178773 
L 252.778719 278.767245 
L 253.080338 281.236015 
L 253.180844 281.423385 
L 253.281465 281.301605 
L 253.482477 280.212263 
L 253.784095 276.846053 
L 254.387462 269.95879 
L 254.487968 269.700387 
L 254.588589 269.837788 
L 254.789601 271.24192 
L 255.19184 277.288115 
L 255.996219 290.152289 
L 256.498979 294.519937 
L 256.901218 296.36195 
L 257.403964 297.703057 
L 258.509975 299.885807 
L 259.012721 300.418917 
L 259.414845 300.593019 
L 259.615972 300.51822 
L 259.817099 300.150773 
L 260.018226 299.308641 
L 260.319845 296.818626 
L 261.124223 288.883185 
L 261.224729 288.758773 
L 261.32535 288.886107 
L 261.526477 289.74106 
L 262.833601 297.380834 
L 263.336347 298.61416 
L 263.63798 298.913951 
L 263.939598 298.908091 
L 264.844598 298.480294 
L 265.146231 298.717408 
L 266.654482 300.497044 
L 267.358239 300.85995 
L 268.464351 301.099003 
L 269.268729 301.159772 
L 269.771489 300.997299 
L 270.575853 300.694387 
L 270.978107 300.779977 
L 272.385737 301.569743 
L 274.597861 301.619798 
L 275.703858 301.283455 
L 277.614248 301.533841 
L 278.72036 301.625503 
L 279.122499 301.485065 
L 279.424117 301.197001 
L 279.725865 300.647134 
L 280.932368 297.832572 
L 281.133495 297.872947 
L 281.435114 298.250214 
L 282.943365 300.822161 
L 283.647252 301.373945 
L 284.250503 301.60824 
L 285.255994 301.845705 
L 286.2615 302.003533 
L 288.775256 302.116305 
L 292.495501 302.123351 
L 296.215875 302.296598 
L 297.221381 302.291113 
L 299.735137 302.264442 
L 300.43888 302.171557 
L 301.746134 302.006527 
L 302.852131 302.043493 
L 303.857636 302.047301 
L 305.265266 302.043039 
L 308.382274 302.32927 
L 309.790019 302.397214 
L 310.594397 302.335375 
L 312.907027 301.894293 
L 313.510264 301.914013 
L 314.51564 301.818522 
L 315.722028 301.299346 
L 316.4258 301.098919 
L 317.129543 301.161573 
L 320.346683 302.284732 
L 321.452565 302.382334 
L 326.278231 302.460049 
L 327.786223 302.480957 
L 330.198999 302.588404 
L 333.717772 302.613398 
L 335.125287 302.696963 
L 338.442933 302.697402 
L 339.247182 302.742974 
L 340.252558 302.675036 
L 340.755174 302.500286 
L 341.157313 302.168626 
L 341.458946 301.60757 
L 341.760579 300.577272 
L 342.062183 298.766956 
L 342.363701 295.695509 
L 342.765955 288.690488 
L 343.168065 276.849699 
L 343.670709 252.978313 
L 344.273947 209.98609 
L 345.982979 75.296532 
L 346.385089 60.457312 
L 346.686722 55.98066 
L 346.787343 55.8 
L 346.887849 56.1959 
L 347.088861 58.816952 
L 347.390465 66.893468 
L 347.893225 89.271823 
L 348.79798 143.689036 
L 349.903862 205.414351 
L 350.607634 233.146351 
L 351.311377 252.36738 
L 352.01512 265.773982 
L 352.718892 275.250204 
L 353.523141 283.066094 
L 354.32739 288.620489 
L 355.131639 292.679259 
L 355.835411 295.102698 
L 356.438648 296.555378 
L 356.941293 297.281972 
L 357.54453 297.730229 
L 357.946669 297.763686 
L 358.449285 297.586163 
L 360.359445 296.552064 
L 360.761555 296.557338 
L 361.264315 296.807717 
L 361.766931 297.265368 
L 362.772307 298.621105 
L 363.978695 300.194913 
L 365.084577 301.262878 
L 366.290965 301.99708 
L 368.301717 302.564113 
L 369.307093 302.761528 
L 373.127383 303.085205 
L 374.534898 303.159108 
L 375.238641 303.145408 
L 375.942384 303.194482 
L 376.947645 303.192923 
L 378.656793 303.25179 
L 380.466418 303.218251 
L 381.974439 303.191977 
L 388.107086 303.110726 
L 391.424732 303.30126 
L 393.133764 303.309064 
L 399.66855 303.416064 
L 400.673926 303.407152 
L 403.991572 303.455874 
L 406.10283 303.469806 
L 409.822615 303.368034 
L 414.045015 303.390518 
L 414.849264 303.415612 
L 415.553007 303.43657 
L 416.457877 303.461455 
L 418.468543 303.534041 
L 420.177662 303.561016 
L 425.707072 303.514333 
L 426.91346 303.535704 
L 427.818215 303.518648 
L 429.024718 303.535385 
L 435.760515 303.687811 
L 436.966903 303.717444 
L 438.273912 303.68267 
L 445.41182 303.302922 
L 447.321951 303.317688 
L 448.830087 303.171757 
L 450.94123 302.757251 
L 452.650349 302.348519 
L 453.756231 302.247405 
L 455.364758 302.432492 
L 457.174383 302.797893 
L 461.1958 303.494379 
L 467.328447 303.812618 
L 468.635341 303.877265 
L 469.43959 303.923968 
L 476.678119 303.987405 
L 479.593655 303.997979 
L 481.302774 303.977538 
L 483.112427 303.955538 
L 485.826807 303.975899 
L 486.430073 304.005325 
L 487.636432 304.037663 
L 493.266348 304.144268 
L 493.869614 304.140607 
L 494.673863 304.150002 
L 496.181884 304.181236 
L 499.097391 304.199764 
L 500.303779 304.20752 
L 502.314531 304.25871 
L 504.526295 304.272431 
L 505.833188 304.267523 
L 509.351961 304.281855 
L 510.658826 304.297527 
L 512.367974 304.300232 
L 515.886747 304.259579 
L 517.193612 304.279677 
L 518.4 304.235725 
L 518.4 304.235725 
" clip-path="url(#p7874f041a3)" style="fill: none; stroke: #000000; stroke-width: 1.5; stroke-linecap: square"/>
   </g>
   <g id="patch_3">
    <path d="M 72 320.4 
L 72 43.2 
" style="fill: none; stroke: #000000; stroke-width: 0.8; stroke-linejoin: miter; stroke-linecap: square"/>
   </g>
   <g id="patch_4">
    <path d="M 72 320.4 
L 518.4 320.4 
" style="fill: none; stroke: #000000; stroke-width: 0.8; stroke-linejoin: miter; stroke-linecap: square"/>
   </g>
  </g>
 </g>
 <defs>
  <clipPath id="p7874f041a3">
   <rect x="72" y="43.2" width="446.4" height="277.2"/>
  </clipPath>
 </defs>
</svg>
