<?xml version="1.0" encoding="utf-8" standalone="no"?>
<!DOCTYPE svg PUBLIC "-//W3C//DTD SVG 1.1//EN"
  "http://www.w3.org/Graphics/SVG/1.1/DTD/svg11.dtd">
<svg xmlns:xlink="http://www.w3.org/1999/xlink" width="576pt" height="360pt" viewBox="0 0 576 360" xmlns="http://www.w3.org/2000/svg" version="1.1">
 <metadata>
  <rdf:RDF xmlns:dc="http://purl.org/dc/elements/1.1/" xmlns:cc="http://creativecommons.org/ns#" xmlns:rdf="http://www.w3.org/1999/02/22-rdf-syntax-ns#">
   <cc:Work>
    <dc:type rdf:resource="http://purl.org/dc/dcmitype/StillImage"/>
    <dc:date>2024-04-09T12:55:27.341832</dc:date>
    <dc:format>image/svg+xml</dc:format>
    <dc:creator>
     <cc:Agent>
      <dc:title>Matplotlib v3.8.4, https://matplotlib.org/</dc:title>
     </cc:Agent>
    </dc:creator>
   </cc:Work>
  </rdf:RDF>
 </metadata>
 <defs>
  <style type="text/css">*{stroke-linejoin: round; stroke-linecap: butt}</style>
 </defs>
 <g id="figure_1">
  <g id="patch_1">
   <path d="M 0 360 
L 576 360 
L 576 0 
L 0 0 
z
" style="fill: #ffffff"/>
  </g>
  <g id="axes_1">
   <g id="patch_2">
    <path d="M 72 320.4 
L 518.4 320.4 
L 518.4 43.2 
L 72 43.2 
z
" style="fill: #ffffff"/>
   </g>
   <g id="matplotlib.axis_1">
    <g id="xtick_1">
     <g id="line2d_1">
      <defs>
       <path id="m22d39d7916" d="M 0 0 
L 0 3.5 
" style="stroke: #000000; stroke-width: 0.8"/>
      </defs>
      <g>
       <use xlink:href="#m22d39d7916" x="72" y="320.4" style="stroke: #000000; stroke-width: 0.8"/>
      </g>
     </g>
     <g id="text_1">
      <!-- 0.0 -->
      <g transform="translate(64.048438 334.998438) scale(0.1 -0.1)">
       <defs>
        <path id="DejaVuSans-30" d="M 2034 4250 
Q 1547 4250 1301 3770 
Q 1056 3291 1056 2328 
Q 1056 1369 1301 889 
Q 1547 409 2034 409 
Q 2525 409 2770 889 
Q 3016 1369 3016 2328 
Q 3016 3291 2770 3770 
Q 2525 4250 2034 4250 
z
M 2034 4750 
Q 2819 4750 3233 4129 
Q 3647 3509 3647 2328 
Q 3647 1150 3233 529 
Q 2819 -91 2034 -91 
Q 1250 -91 836 529 
Q 422 1150 422 2328 
Q 422 3509 836 4129 
Q 1250 4750 2034 4750 
z
" transform="scale(0.015625)"/>
        <path id="DejaVuSans-2e" d="M 684 794 
L 1344 794 
L 1344 0 
L 684 0 
L 684 794 
z
" transform="scale(0.015625)"/>
       </defs>
       <use xlink:href="#DejaVuSans-30"/>
       <use xlink:href="#DejaVuSans-2e" x="63.623047"/>
       <use xlink:href="#DejaVuSans-30" x="95.410156"/>
      </g>
     </g>
    </g>
    <g id="xtick_2">
     <g id="line2d_2">
      <g>
       <use xlink:href="#m22d39d7916" x="132.325206" y="320.4" style="stroke: #000000; stroke-width: 0.8"/>
      </g>
     </g>
     <g id="text_2">
      <!-- 0.5 -->
      <g transform="translate(124.373643 334.998438) scale(0.1 -0.1)">
       <defs>
        <path id="DejaVuSans-35" d="M 691 4666 
L 3169 4666 
L 3169 4134 
L 1269 4134 
L 1269 2991 
Q 1406 3038 1543 3061 
Q 1681 3084 1819 3084 
Q 2600 3084 3056 2656 
Q 3513 2228 3513 1497 
Q 3513 744 3044 326 
Q 2575 -91 1722 -91 
Q 1428 -91 1123 -41 
Q 819 9 494 109 
L 494 744 
Q 775 591 1075 516 
Q 1375 441 1709 441 
Q 2250 441 2565 725 
Q 2881 1009 2881 1497 
Q 2881 1984 2565 2268 
Q 2250 2553 1709 2553 
Q 1456 2553 1204 2497 
Q 953 2441 691 2322 
L 691 4666 
z
" transform="scale(0.015625)"/>
       </defs>
       <use xlink:href="#DejaVuSans-30"/>
       <use xlink:href="#DejaVuSans-2e" x="63.623047"/>
       <use xlink:href="#DejaVuSans-35" x="95.410156"/>
      </g>
     </g>
    </g>
    <g id="xtick_3">
     <g id="line2d_3">
      <g>
       <use xlink:href="#m22d39d7916" x="192.650412" y="320.4" style="stroke: #000000; stroke-width: 0.8"/>
      </g>
     </g>
     <g id="text_3">
      <!-- 1.0 -->
      <g transform="translate(184.698849 334.998438) scale(0.1 -0.1)">
       <defs>
        <path id="DejaVuSans-31" d="M 794 531 
L 1825 531 
L 1825 4091 
L 703 3866 
L 703 4441 
L 1819 4666 
L 2450 4666 
L 2450 531 
L 3481 531 
L 3481 0 
L 794 0 
L 794 531 
z
" transform="scale(0.015625)"/>
       </defs>
       <use xlink:href="#DejaVuSans-31"/>
       <use xlink:href="#DejaVuSans-2e" x="63.623047"/>
       <use xlink:href="#DejaVuSans-30" x="95.410156"/>
      </g>
     </g>
    </g>
    <g id="xtick_4">
     <g id="line2d_4">
      <g>
       <use xlink:href="#m22d39d7916" x="252.975618" y="320.4" style="stroke: #000000; stroke-width: 0.8"/>
      </g>
     </g>
     <g id="text_4">
      <!-- 1.5 -->
      <g transform="translate(245.024055 334.998438) scale(0.1 -0.1)">
       <use xlink:href="#DejaVuSans-31"/>
       <use xlink:href="#DejaVuSans-2e" x="63.623047"/>
       <use xlink:href="#DejaVuSans-35" x="95.410156"/>
      </g>
     </g>
    </g>
    <g id="xtick_5">
     <g id="line2d_5">
      <g>
       <use xlink:href="#m22d39d7916" x="313.300824" y="320.4" style="stroke: #000000; stroke-width: 0.8"/>
      </g>
     </g>
     <g id="text_5">
      <!-- 2.0 -->
      <g transform="translate(305.349261 334.998438) scale(0.1 -0.1)">
       <defs>
        <path id="DejaVuSans-32" d="M 1228 531 
L 3431 531 
L 3431 0 
L 469 0 
L 469 531 
Q 828 903 1448 1529 
Q 2069 2156 2228 2338 
Q 2531 2678 2651 2914 
Q 2772 3150 2772 3378 
Q 2772 3750 2511 3984 
Q 2250 4219 1831 4219 
Q 1534 4219 1204 4116 
Q 875 4013 500 3803 
L 500 4441 
Q 881 4594 1212 4672 
Q 1544 4750 1819 4750 
Q 2544 4750 2975 4387 
Q 3406 4025 3406 3419 
Q 3406 3131 3298 2873 
Q 3191 2616 2906 2266 
Q 2828 2175 2409 1742 
Q 1991 1309 1228 531 
z
" transform="scale(0.015625)"/>
       </defs>
       <use xlink:href="#DejaVuSans-32"/>
       <use xlink:href="#DejaVuSans-2e" x="63.623047"/>
       <use xlink:href="#DejaVuSans-30" x="95.410156"/>
      </g>
     </g>
    </g>
    <g id="xtick_6">
     <g id="line2d_6">
      <g>
       <use xlink:href="#m22d39d7916" x="373.62603" y="320.4" style="stroke: #000000; stroke-width: 0.8"/>
      </g>
     </g>
     <g id="text_6">
      <!-- 2.5 -->
      <g transform="translate(365.674467 334.998438) scale(0.1 -0.1)">
       <use xlink:href="#DejaVuSans-32"/>
       <use xlink:href="#DejaVuSans-2e" x="63.623047"/>
       <use xlink:href="#DejaVuSans-35" x="95.410156"/>
      </g>
     </g>
    </g>
    <g id="xtick_7">
     <g id="line2d_7">
      <g>
       <use xlink:href="#m22d39d7916" x="433.951236" y="320.4" style="stroke: #000000; stroke-width: 0.8"/>
      </g>
     </g>
     <g id="text_7">
      <!-- 3.0 -->
      <g transform="translate(425.999673 334.998438) scale(0.1 -0.1)">
       <defs>
        <path id="DejaVuSans-33" d="M 2597 2516 
Q 3050 2419 3304 2112 
Q 3559 1806 3559 1356 
Q 3559 666 3084 287 
Q 2609 -91 1734 -91 
Q 1441 -91 1130 -33 
Q 819 25 488 141 
L 488 750 
Q 750 597 1062 519 
Q 1375 441 1716 441 
Q 2309 441 2620 675 
Q 2931 909 2931 1356 
Q 2931 1769 2642 2001 
Q 2353 2234 1838 2234 
L 1294 2234 
L 1294 2753 
L 1863 2753 
Q 2328 2753 2575 2939 
Q 2822 3125 2822 3475 
Q 2822 3834 2567 4026 
Q 2313 4219 1838 4219 
Q 1578 4219 1281 4162 
Q 984 4106 628 3988 
L 628 4550 
Q 988 4650 1302 4700 
Q 1616 4750 1894 4750 
Q 2613 4750 3031 4423 
Q 3450 4097 3450 3541 
Q 3450 3153 3228 2886 
Q 3006 2619 2597 2516 
z
" transform="scale(0.015625)"/>
       </defs>
       <use xlink:href="#DejaVuSans-33"/>
       <use xlink:href="#DejaVuSans-2e" x="63.623047"/>
       <use xlink:href="#DejaVuSans-30" x="95.410156"/>
      </g>
     </g>
    </g>
    <g id="xtick_8">
     <g id="line2d_8">
      <g>
       <use xlink:href="#m22d39d7916" x="494.276442" y="320.4" style="stroke: #000000; stroke-width: 0.8"/>
      </g>
     </g>
     <g id="text_8">
      <!-- 3.5 -->
      <g transform="translate(486.324879 334.998438) scale(0.1 -0.1)">
       <use xlink:href="#DejaVuSans-33"/>
       <use xlink:href="#DejaVuSans-2e" x="63.623047"/>
       <use xlink:href="#DejaVuSans-35" x="95.410156"/>
      </g>
     </g>
    </g>
    <g id="text_9">
     <!-- Time [min] -->
     <g transform="translate(268.047656 348.676562) scale(0.1 -0.1)">
      <defs>
       <path id="DejaVuSans-54" d="M -19 4666 
L 3928 4666 
L 3928 4134 
L 2272 4134 
L 2272 0 
L 1638 0 
L 1638 4134 
L -19 4134 
L -19 4666 
z
" transform="scale(0.015625)"/>
       <path id="DejaVuSans-69" d="M 603 3500 
L 1178 3500 
L 1178 0 
L 603 0 
L 603 3500 
z
M 603 4863 
L 1178 4863 
L 1178 4134 
L 603 4134 
L 603 4863 
z
" transform="scale(0.015625)"/>
       <path id="DejaVuSans-6d" d="M 3328 2828 
Q 3544 3216 3844 3400 
Q 4144 3584 4550 3584 
Q 5097 3584 5394 3201 
Q 5691 2819 5691 2113 
L 5691 0 
L 5113 0 
L 5113 2094 
Q 5113 2597 4934 2840 
Q 4756 3084 4391 3084 
Q 3944 3084 3684 2787 
Q 3425 2491 3425 1978 
L 3425 0 
L 2847 0 
L 2847 2094 
Q 2847 2600 2669 2842 
Q 2491 3084 2119 3084 
Q 1678 3084 1418 2786 
Q 1159 2488 1159 1978 
L 1159 0 
L 581 0 
L 581 3500 
L 1159 3500 
L 1159 2956 
Q 1356 3278 1631 3431 
Q 1906 3584 2284 3584 
Q 2666 3584 2933 3390 
Q 3200 3197 3328 2828 
z
" transform="scale(0.015625)"/>
       <path id="DejaVuSans-65" d="M 3597 1894 
L 3597 1613 
L 953 1613 
Q 991 1019 1311 708 
Q 1631 397 2203 397 
Q 2534 397 2845 478 
Q 3156 559 3463 722 
L 3463 178 
Q 3153 47 2828 -22 
Q 2503 -91 2169 -91 
Q 1331 -91 842 396 
Q 353 884 353 1716 
Q 353 2575 817 3079 
Q 1281 3584 2069 3584 
Q 2775 3584 3186 3129 
Q 3597 2675 3597 1894 
z
M 3022 2063 
Q 3016 2534 2758 2815 
Q 2500 3097 2075 3097 
Q 1594 3097 1305 2825 
Q 1016 2553 972 2059 
L 3022 2063 
z
" transform="scale(0.015625)"/>
       <path id="DejaVuSans-20" transform="scale(0.015625)"/>
       <path id="DejaVuSans-5b" d="M 550 4863 
L 1875 4863 
L 1875 4416 
L 1125 4416 
L 1125 -397 
L 1875 -397 
L 1875 -844 
L 550 -844 
L 550 4863 
z
" transform="scale(0.015625)"/>
       <path id="DejaVuSans-6e" d="M 3513 2113 
L 3513 0 
L 2938 0 
L 2938 2094 
Q 2938 2591 2744 2837 
Q 2550 3084 2163 3084 
Q 1697 3084 1428 2787 
Q 1159 2491 1159 1978 
L 1159 0 
L 581 0 
L 581 3500 
L 1159 3500 
L 1159 2956 
Q 1366 3272 1645 3428 
Q 1925 3584 2291 3584 
Q 2894 3584 3203 3211 
Q 3513 2838 3513 2113 
z
" transform="scale(0.015625)"/>
       <path id="DejaVuSans-5d" d="M 1947 4863 
L 1947 -844 
L 622 -844 
L 622 -397 
L 1369 -397 
L 1369 4416 
L 622 4416 
L 622 4863 
L 1947 4863 
z
" transform="scale(0.015625)"/>
      </defs>
      <use xlink:href="#DejaVuSans-54"/>
      <use xlink:href="#DejaVuSans-69" x="57.958984"/>
      <use xlink:href="#DejaVuSans-6d" x="85.742188"/>
      <use xlink:href="#DejaVuSans-65" x="183.154297"/>
      <use xlink:href="#DejaVuSans-20" x="244.677734"/>
      <use xlink:href="#DejaVuSans-5b" x="276.464844"/>
      <use xlink:href="#DejaVuSans-6d" x="315.478516"/>
      <use xlink:href="#DejaVuSans-69" x="412.890625"/>
      <use xlink:href="#DejaVuSans-6e" x="440.673828"/>
      <use xlink:href="#DejaVuSans-5d" x="504.052734"/>
     </g>
    </g>
   </g>
   <g id="matplotlib.axis_2">
    <g id="ytick_1">
     <g id="line2d_9">
      <defs>
       <path id="m04bf2f8562" d="M 0 0 
L -3.5 0 
" style="stroke: #000000; stroke-width: 0.8"/>
      </defs>
      <g>
       <use xlink:href="#m04bf2f8562" x="72" y="294" style="stroke: #000000; stroke-width: 0.8"/>
      </g>
     </g>
     <g id="text_10">
      <!-- −20 -->
      <g transform="translate(43.895313 297.799219) scale(0.1 -0.1)">
       <defs>
        <path id="DejaVuSans-2212" d="M 678 2272 
L 4684 2272 
L 4684 1741 
L 678 1741 
L 678 2272 
z
" transform="scale(0.015625)"/>
       </defs>
       <use xlink:href="#DejaVuSans-2212"/>
       <use xlink:href="#DejaVuSans-32" x="83.789062"/>
       <use xlink:href="#DejaVuSans-30" x="147.412109"/>
      </g>
     </g>
    </g>
    <g id="ytick_2">
     <g id="line2d_10">
      <g>
       <use xlink:href="#m04bf2f8562" x="72" y="241.2" style="stroke: #000000; stroke-width: 0.8"/>
      </g>
     </g>
     <g id="text_11">
      <!-- 0 -->
      <g transform="translate(58.6375 244.999219) scale(0.1 -0.1)">
       <use xlink:href="#DejaVuSans-30"/>
      </g>
     </g>
    </g>
    <g id="ytick_3">
     <g id="line2d_11">
      <g>
       <use xlink:href="#m04bf2f8562" x="72" y="188.4" style="stroke: #000000; stroke-width: 0.8"/>
      </g>
     </g>
     <g id="text_12">
      <!-- 20 -->
      <g transform="translate(52.275 192.199219) scale(0.1 -0.1)">
       <use xlink:href="#DejaVuSans-32"/>
       <use xlink:href="#DejaVuSans-30" x="63.623047"/>
      </g>
     </g>
    </g>
    <g id="ytick_4">
     <g id="line2d_12">
      <g>
       <use xlink:href="#m04bf2f8562" x="72" y="135.6" style="stroke: #000000; stroke-width: 0.8"/>
      </g>
     </g>
     <g id="text_13">
      <!-- 40 -->
      <g transform="translate(52.275 139.399219) scale(0.1 -0.1)">
       <defs>
        <path id="DejaVuSans-34" d="M 2419 4116 
L 825 1625 
L 2419 1625 
L 2419 4116 
z
M 2253 4666 
L 3047 4666 
L 3047 1625 
L 3713 1625 
L 3713 1100 
L 3047 1100 
L 3047 0 
L 2419 0 
L 2419 1100 
L 313 1100 
L 313 1709 
L 2253 4666 
z
" transform="scale(0.015625)"/>
       </defs>
       <use xlink:href="#DejaVuSans-34"/>
       <use xlink:href="#DejaVuSans-30" x="63.623047"/>
      </g>
     </g>
    </g>
    <g id="ytick_5">
     <g id="line2d_13">
      <g>
       <use xlink:href="#m04bf2f8562" x="72" y="82.8" style="stroke: #000000; stroke-width: 0.8"/>
      </g>
     </g>
     <g id="text_14">
      <!-- 60 -->
      <g transform="translate(52.275 86.599219) scale(0.1 -0.1)">
       <defs>
        <path id="DejaVuSans-36" d="M 2113 2584 
Q 1688 2584 1439 2293 
Q 1191 2003 1191 1497 
Q 1191 994 1439 701 
Q 1688 409 2113 409 
Q 2538 409 2786 701 
Q 3034 994 3034 1497 
Q 3034 2003 2786 2293 
Q 2538 2584 2113 2584 
z
M 3366 4563 
L 3366 3988 
Q 3128 4100 2886 4159 
Q 2644 4219 2406 4219 
Q 1781 4219 1451 3797 
Q 1122 3375 1075 2522 
Q 1259 2794 1537 2939 
Q 1816 3084 2150 3084 
Q 2853 3084 3261 2657 
Q 3669 2231 3669 1497 
Q 3669 778 3244 343 
Q 2819 -91 2113 -91 
Q 1303 -91 875 529 
Q 447 1150 447 2328 
Q 447 3434 972 4092 
Q 1497 4750 2381 4750 
Q 2619 4750 2861 4703 
Q 3103 4656 3366 4563 
z
" transform="scale(0.015625)"/>
       </defs>
       <use xlink:href="#DejaVuSans-36"/>
       <use xlink:href="#DejaVuSans-30" x="63.623047"/>
      </g>
     </g>
    </g>
    <g id="text_15">
     <!-- Absorbance [mAU] -->
     <g transform="translate(37.815625 228.7875) rotate(-90) scale(0.1 -0.1)">
      <defs>
       <path id="DejaVuSans-41" d="M 2188 4044 
L 1331 1722 
L 3047 1722 
L 2188 4044 
z
M 1831 4666 
L 2547 4666 
L 4325 0 
L 3669 0 
L 3244 1197 
L 1141 1197 
L 716 0 
L 50 0 
L 1831 4666 
z
" transform="scale(0.015625)"/>
       <path id="DejaVuSans-62" d="M 3116 1747 
Q 3116 2381 2855 2742 
Q 2594 3103 2138 3103 
Q 1681 3103 1420 2742 
Q 1159 2381 1159 1747 
Q 1159 1113 1420 752 
Q 1681 391 2138 391 
Q 2594 391 2855 752 
Q 3116 1113 3116 1747 
z
M 1159 2969 
Q 1341 3281 1617 3432 
Q 1894 3584 2278 3584 
Q 2916 3584 3314 3078 
Q 3713 2572 3713 1747 
Q 3713 922 3314 415 
Q 2916 -91 2278 -91 
Q 1894 -91 1617 61 
Q 1341 213 1159 525 
L 1159 0 
L 581 0 
L 581 4863 
L 1159 4863 
L 1159 2969 
z
" transform="scale(0.015625)"/>
       <path id="DejaVuSans-73" d="M 2834 3397 
L 2834 2853 
Q 2591 2978 2328 3040 
Q 2066 3103 1784 3103 
Q 1356 3103 1142 2972 
Q 928 2841 928 2578 
Q 928 2378 1081 2264 
Q 1234 2150 1697 2047 
L 1894 2003 
Q 2506 1872 2764 1633 
Q 3022 1394 3022 966 
Q 3022 478 2636 193 
Q 2250 -91 1575 -91 
Q 1294 -91 989 -36 
Q 684 19 347 128 
L 347 722 
Q 666 556 975 473 
Q 1284 391 1588 391 
Q 1994 391 2212 530 
Q 2431 669 2431 922 
Q 2431 1156 2273 1281 
Q 2116 1406 1581 1522 
L 1381 1569 
Q 847 1681 609 1914 
Q 372 2147 372 2553 
Q 372 3047 722 3315 
Q 1072 3584 1716 3584 
Q 2034 3584 2315 3537 
Q 2597 3491 2834 3397 
z
" transform="scale(0.015625)"/>
       <path id="DejaVuSans-6f" d="M 1959 3097 
Q 1497 3097 1228 2736 
Q 959 2375 959 1747 
Q 959 1119 1226 758 
Q 1494 397 1959 397 
Q 2419 397 2687 759 
Q 2956 1122 2956 1747 
Q 2956 2369 2687 2733 
Q 2419 3097 1959 3097 
z
M 1959 3584 
Q 2709 3584 3137 3096 
Q 3566 2609 3566 1747 
Q 3566 888 3137 398 
Q 2709 -91 1959 -91 
Q 1206 -91 779 398 
Q 353 888 353 1747 
Q 353 2609 779 3096 
Q 1206 3584 1959 3584 
z
" transform="scale(0.015625)"/>
       <path id="DejaVuSans-72" d="M 2631 2963 
Q 2534 3019 2420 3045 
Q 2306 3072 2169 3072 
Q 1681 3072 1420 2755 
Q 1159 2438 1159 1844 
L 1159 0 
L 581 0 
L 581 3500 
L 1159 3500 
L 1159 2956 
Q 1341 3275 1631 3429 
Q 1922 3584 2338 3584 
Q 2397 3584 2469 3576 
Q 2541 3569 2628 3553 
L 2631 2963 
z
" transform="scale(0.015625)"/>
       <path id="DejaVuSans-61" d="M 2194 1759 
Q 1497 1759 1228 1600 
Q 959 1441 959 1056 
Q 959 750 1161 570 
Q 1363 391 1709 391 
Q 2188 391 2477 730 
Q 2766 1069 2766 1631 
L 2766 1759 
L 2194 1759 
z
M 3341 1997 
L 3341 0 
L 2766 0 
L 2766 531 
Q 2569 213 2275 61 
Q 1981 -91 1556 -91 
Q 1019 -91 701 211 
Q 384 513 384 1019 
Q 384 1609 779 1909 
Q 1175 2209 1959 2209 
L 2766 2209 
L 2766 2266 
Q 2766 2663 2505 2880 
Q 2244 3097 1772 3097 
Q 1472 3097 1187 3025 
Q 903 2953 641 2809 
L 641 3341 
Q 956 3463 1253 3523 
Q 1550 3584 1831 3584 
Q 2591 3584 2966 3190 
Q 3341 2797 3341 1997 
z
" transform="scale(0.015625)"/>
       <path id="DejaVuSans-63" d="M 3122 3366 
L 3122 2828 
Q 2878 2963 2633 3030 
Q 2388 3097 2138 3097 
Q 1578 3097 1268 2742 
Q 959 2388 959 1747 
Q 959 1106 1268 751 
Q 1578 397 2138 397 
Q 2388 397 2633 464 
Q 2878 531 3122 666 
L 3122 134 
Q 2881 22 2623 -34 
Q 2366 -91 2075 -91 
Q 1284 -91 818 406 
Q 353 903 353 1747 
Q 353 2603 823 3093 
Q 1294 3584 2113 3584 
Q 2378 3584 2631 3529 
Q 2884 3475 3122 3366 
z
" transform="scale(0.015625)"/>
       <path id="DejaVuSans-55" d="M 556 4666 
L 1191 4666 
L 1191 1831 
Q 1191 1081 1462 751 
Q 1734 422 2344 422 
Q 2950 422 3222 751 
Q 3494 1081 3494 1831 
L 3494 4666 
L 4128 4666 
L 4128 1753 
Q 4128 841 3676 375 
Q 3225 -91 2344 -91 
Q 1459 -91 1007 375 
Q 556 841 556 1753 
L 556 4666 
z
" transform="scale(0.015625)"/>
      </defs>
      <use xlink:href="#DejaVuSans-41"/>
      <use xlink:href="#DejaVuSans-62" x="68.408203"/>
      <use xlink:href="#DejaVuSans-73" x="131.884766"/>
      <use xlink:href="#DejaVuSans-6f" x="183.984375"/>
      <use xlink:href="#DejaVuSans-72" x="245.166016"/>
      <use xlink:href="#DejaVuSans-62" x="286.279297"/>
      <use xlink:href="#DejaVuSans-61" x="349.755859"/>
      <use xlink:href="#DejaVuSans-6e" x="411.035156"/>
      <use xlink:href="#DejaVuSans-63" x="474.414062"/>
      <use xlink:href="#DejaVuSans-65" x="529.394531"/>
      <use xlink:href="#DejaVuSans-20" x="590.917969"/>
      <use xlink:href="#DejaVuSans-5b" x="622.705078"/>
      <use xlink:href="#DejaVuSans-6d" x="661.71875"/>
      <use xlink:href="#DejaVuSans-41" x="759.130859"/>
      <use xlink:href="#DejaVuSans-55" x="827.539062"/>
      <use xlink:href="#DejaVuSans-5d" x="900.732422"/>
     </g>
    </g>
   </g>
   <g id="line2d_14">
    <path d="M 72 241.2 
L 72.50271 239.949889 
L 72.804336 240.502508 
L 73.105962 240.925497 
L 73.407589 241.385565 
L 74.211924 243.591836 
L 74.312467 243.712843 
L 74.614092 243.470603 
L 75.016259 242.716721 
L 75.217343 242.231424 
L 75.820595 239.284273 
L 76.423846 233.364787 
L 78.032517 216.300658 
L 78.334143 215.249044 
L 78.434685 215.196548 
L 78.535226 215.280357 
L 78.836852 216.172358 
L 79.23902 218.687762 
L 79.641189 222.423527 
L 81.149317 238.6951 
L 81.85311 243.392805 
L 82.355819 245.229551 
L 82.657446 246.173535 
L 83.160154 247.263823 
L 83.662865 248.528495 
L 84.165579 249.241432 
L 84.467205 249.333939 
L 84.768831 249.015944 
L 85.070457 248.843693 
L 85.271534 248.827895 
L 85.472621 248.797954 
L 85.774248 248.25548 
L 86.075873 247.690247 
L 86.478037 247.361271 
L 86.779663 247.158943 
L 86.880201 247.181754 
L 87.584004 246.064709 
L 87.88563 246.103855 
L 88.689958 244.893773 
L 88.991583 244.843828 
L 89.293209 244.45068 
L 89.494298 244.158703 
L 89.896462 243.937421 
L 90.298637 242.97358 
L 90.399176 243.00439 
L 90.80134 243.756294 
L 91.203504 243.339086 
L 91.60568 242.82627 
L 91.907306 242.723532 
L 92.208932 242.979108 
L 92.410009 242.938935 
L 92.711634 242.755718 
L 93.01326 242.705936 
L 93.214347 242.413169 
L 93.515973 242.303548 
L 93.717062 242.433799 
L 93.918137 242.399405 
L 94.320314 241.915852 
L 94.420852 241.931295 
L 94.823016 242.648345 
L 94.923555 242.55496 
L 95.325729 241.676776 
L 95.727894 241.960925 
L 95.828432 241.961447 
L 96.029521 241.742033 
L 96.532234 241.521924 
L 96.934398 241.064921 
L 97.236024 240.862265 
L 97.638188 240.872355 
L 97.839277 240.935578 
L 98.040365 240.861033 
L 98.140903 240.759234 
L 98.34199 239.763506 
L 99.04578 234.27138 
L 99.246857 235.375642 
L 100.252285 242.423248 
L 100.754987 245.387465 
L 101.056613 248.105018 
L 101.458788 254.725853 
L 101.860952 260.902551 
L 102.062041 261.305626 
L 102.16258 260.898335 
L 102.464204 257.545824 
L 104.072874 235.487317 
L 104.575587 232.182931 
L 104.776664 231.498083 
L 104.977751 231.267933 
L 105.178839 231.748843 
L 105.581003 233.727935 
L 105.983167 236.400403 
L 106.988597 243.654253 
L 107.18967 244.140029 
L 107.491296 244.274643 
L 107.89346 243.689341 
L 108.295638 242.309351 
L 109.099966 238.007721 
L 109.602679 234.814005 
L 110.708644 228.848321 
L 111.412437 224.663297 
L 111.915136 221.56432 
L 112.417853 218.549747 
L 113.121643 215.064953 
L 113.724894 212.838002 
L 114.02652 212.557409 
L 114.328146 212.562452 
L 114.529233 212.739298 
L 114.730321 213.031963 
L 115.132485 213.894562 
L 115.534649 214.588344 
L 117.646033 216.976839 
L 117.84712 216.945179 
L 118.349822 216.495716 
L 118.450371 216.487373 
L 118.651448 216.309092 
L 118.751997 216.37636 
L 119.2547 216.031762 
L 119.556325 215.976557 
L 119.857951 215.666665 
L 120.260115 214.935848 
L 120.561741 214.487556 
L 121.064458 214.098589 
L 122.069873 211.886477 
L 122.170422 211.795102 
L 122.472048 211.969669 
L 123.0753 210.762999 
L 123.376925 210.402421 
L 123.678555 209.767059 
L 124.181253 209.736958 
L 124.68397 208.926739 
L 125.287222 208.446286 
L 125.588847 207.58623 
L 125.789924 206.111729 
L 126.192099 200.756565 
L 126.493725 197.864735 
L 126.594263 197.676043 
L 126.694801 197.852418 
L 127.49914 201.782777 
L 127.700228 202.400631 
L 128.001857 203.155146 
L 128.20293 203.33179 
L 128.404021 203.443578 
L 128.90672 204.270419 
L 129.007272 204.226515 
L 129.308898 203.826838 
L 129.610524 203.760559 
L 129.91215 203.811986 
L 130.113226 203.749882 
L 130.414852 203.706761 
L 130.515401 203.717867 
L 130.817027 203.3916 
L 131.219191 203.152265 
L 131.721904 202.615162 
L 132.827858 202.235707 
L 133.129484 202.474677 
L 133.230033 202.302028 
L 133.431109 202.403459 
L 133.6322 202.38911 
L 133.732735 202.639715 
L 133.833284 202.596712 
L 134.235452 202.884546 
L 134.436543 203.164134 
L 134.738169 203.201718 
L 134.939245 203.074282 
L 135.441955 202.99749 
L 135.844123 202.564171 
L 136.045206 202.694857 
L 136.950084 202.259031 
L 137.553335 201.409362 
L 138.156594 200.564553 
L 138.45822 200.657345 
L 139.162006 200.20888 
L 139.262548 200.228027 
L 139.564173 199.701712 
L 139.865799 199.491857 
L 139.966348 199.58657 
L 140.167425 199.549786 
L 140.368509 199.708074 
L 140.670134 199.691838 
L 141.273386 198.875456 
L 141.474463 198.561569 
L 141.575012 198.477201 
L 141.876637 198.876956 
L 142.278805 198.364861 
L 142.37934 198.304668 
L 142.479896 198.44585 
L 142.882057 198.137956 
L 143.183682 197.631933 
L 143.58585 197.39323 
L 144.08856 197.839331 
L 144.892902 196.432748 
L 145.194513 196.532237 
L 145.69723 195.916468 
L 145.898314 195.846048 
L 146.099391 195.571714 
L 147.607527 194.062907 
L 147.909152 193.974601 
L 148.110236 193.907097 
L 148.311327 193.649395 
L 148.411862 193.632219 
L 149.316739 192.383893 
L 149.517816 192.143961 
L 149.718907 192.189965 
L 150.020532 191.897695 
L 150.221616 191.579946 
L 151.025944 190.52004 
L 151.528661 190.449181 
L 152.031378 189.393802 
L 152.232455 189.442962 
L 152.333004 189.497677 
L 153.03679 188.454951 
L 153.237881 188.45906 
L 153.539492 187.853458 
L 153.841118 187.383413 
L 153.941667 187.472353 
L 154.343835 187.130072 
L 154.645461 186.695119 
L 154.846544 186.718579 
L 155.148177 186.315178 
L 155.349247 185.697269 
L 155.449803 185.702858 
L 155.650872 185.464679 
L 155.751429 185.528563 
L 156.153589 185.007721 
L 156.656306 184.504886 
L 156.857383 184.416016 
L 157.159008 184.027168 
L 157.460634 183.271626 
L 157.963344 181.898638 
L 158.264969 181.861603 
L 158.365511 181.882752 
L 158.466046 182.044957 
L 158.968763 181.547233 
L 159.270389 181.497821 
L 159.672549 181.009326 
L 159.87364 180.948151 
L 160.175266 180.927436 
L 160.979608 180.217464 
L 161.180685 180.038184 
L 161.281234 180.016476 
L 161.482311 179.832513 
L 161.884471 179.789672 
L 162.085562 179.620382 
L 162.487723 179.180207 
L 162.789348 179.189004 
L 163.090974 178.872806 
L 163.191523 178.953624 
L 163.292065 178.885525 
L 163.493156 179.107717 
L 164.699659 177.431151 
L 164.800194 177.416719 
L 165.001285 177.60242 
L 165.202361 177.575078 
L 165.403445 177.397534 
L 165.705071 177.005649 
L 166.006697 176.832104 
L 166.609948 176.545519 
L 166.71049 176.606196 
L 167.615367 175.421245 
L 167.816458 175.115763 
L 167.916993 175.188741 
L 168.118084 174.92049 
L 168.520245 175.144817 
L 168.721336 175.01013 
L 169.123496 174.529003 
L 169.525664 174.081592 
L 169.82729 173.853262 
L 170.028373 174.071587 
L 170.732167 173.586869 
L 171.234876 172.503316 
L 171.536502 172.372517 
L 171.637044 172.397261 
L 171.838128 172.608043 
L 172.944089 172.128411 
L 173.54734 171.262438 
L 173.748424 171.141588 
L 173.949515 170.915247 
L 174.251141 170.620182 
L 174.351676 170.745438 
L 175.055469 170.054601 
L 175.357095 169.719531 
L 176.463063 167.853658 
L 176.965758 168.437704 
L 177.971192 167.213049 
L 178.272818 167.159362 
L 178.473894 167.072068 
L 178.77552 166.8817 
L 178.976604 166.894716 
L 179.17768 166.886589 
L 179.780932 165.711221 
L 180.082558 165.213638 
L 180.685809 164.93865 
L 181.087991 164.996179 
L 181.289068 165.131259 
L 181.590693 165.210279 
L 181.691243 165.121213 
L 182.395029 165.82554 
L 182.59612 165.819205 
L 183.199357 165.152438 
L 183.500983 165.178889 
L 183.802608 164.764495 
L 183.903157 164.801017 
L 184.003699 164.585648 
L 184.305325 164.817951 
L 184.40586 164.768267 
L 184.606951 164.957688 
L 184.908577 164.720073 
L 185.109668 164.500655 
L 185.310737 164.538078 
L 185.511828 164.749223 
L 185.913996 164.301767 
L 186.718331 161.22476 
L 187.120499 158.864743 
L 187.422124 158.263965 
L 187.72375 158.918315 
L 188.025376 159.998595 
L 188.729162 161.016239 
L 189.030788 161.06483 
L 189.43297 160.910264 
L 189.634047 160.942646 
L 190.538924 160.832004 
L 190.84055 160.666364 
L 190.941099 160.733441 
L 191.041633 160.629586 
L 191.343259 160.74976 
L 191.544336 160.72053 
L 192.147587 159.715555 
L 192.449213 158.889915 
L 192.549762 158.813443 
L 192.851409 158.988745 
L 192.951915 158.983256 
L 193.354169 158.328584 
L 193.555296 158.429126 
L 193.655788 158.511983 
L 193.957421 158.182426 
L 194.661293 156.189571 
L 194.962912 156.176358 
L 195.465672 156.465763 
L 195.666799 156.807732 
L 196.27005 157.109342 
L 196.571669 156.614518 
L 197.17505 155.982968 
L 197.376047 155.813779 
L 197.979414 156.270742 
L 198.07992 156.265706 
L 198.281047 156.369214 
L 198.582665 155.845089 
L 199.085425 154.008749 
L 199.286552 153.675073 
L 199.688677 152.981427 
L 199.889804 152.788541 
L 199.990425 152.815732 
L 200.191422 152.64053 
L 200.392549 152.726494 
L 200.49317 152.617518 
L 200.895295 153.346181 
L 201.196928 153.89371 
L 201.398055 153.840788 
L 201.599167 153.995798 
L 201.699673 153.945726 
L 201.9008 154.103918 
L 202.101927 153.881635 
L 202.303054 153.96615 
L 202.504052 153.944215 
L 202.8058 153.722879 
L 203.006797 153.466336 
L 203.207924 153.358115 
L 203.409051 153.277176 
L 203.911797 153.211927 
L 204.314051 153.006453 
L 204.716175 152.384057 
L 204.917302 152.323391 
L 205.118429 152.371217 
L 205.319427 152.458782 
L 206.023299 152.743152 
L 206.224426 152.672565 
L 206.324932 152.680501 
L 206.62668 152.333109 
L 207.028805 152.088308 
L 207.330423 151.894626 
L 207.53155 152.106123 
L 207.732677 151.943016 
L 207.933804 151.559198 
L 208.537055 149.459063 
L 208.838674 148.378597 
L 209.039801 148.10734 
L 209.140307 148.248684 
L 209.643052 147.634214 
L 209.844179 147.802437 
L 210.246433 148.557112 
L 210.548052 148.277094 
L 210.749179 148.176144 
L 210.950191 148.328334 
L 211.251924 148.042938 
L 211.452936 147.837443 
L 211.754684 148.0817 
L 211.955682 148.244605 
L 212.357936 148.128036 
L 212.559063 148.278282 
L 213.061808 147.790513 
L 213.564554 148.497705 
L 213.66506 148.451762 
L 214.167805 147.385375 
L 214.670565 147.500222 
L 215.173311 146.487935 
L 215.474929 146.508842 
L 216.078195 146.229398 
L 216.379929 145.976802 
L 216.580941 145.967255 
L 216.681562 146.080662 
L 216.98318 145.824582 
L 217.385434 145.099998 
L 217.687067 145.102838 
L 217.988686 145.001787 
L 218.290319 144.75608 
L 218.491431 144.621443 
L 218.591937 144.582147 
L 218.793064 144.646087 
L 218.994191 144.598694 
L 219.094683 144.582913 
L 219.29581 144.237675 
L 219.496937 143.827643 
L 219.698064 143.592369 
L 219.899061 143.643146 
L 220.100188 144.055757 
L 220.401821 143.756523 
L 220.70344 142.973911 
L 221.005188 142.616478 
L 221.2062 142.8188 
L 221.507933 143.07904 
L 221.708945 142.826857 
L 221.910072 142.550474 
L 222.111185 142.426764 
L 222.312312 142.398093 
L 222.915563 142.338776 
L 223.11669 142.261945 
L 223.317817 142.314384 
L 223.518815 142.230122 
L 223.820563 141.776865 
L 223.921069 141.740338 
L 224.122196 141.975804 
L 224.52432 141.366752 
L 225.328699 139.721425 
L 225.630447 139.589004 
L 225.831444 139.660738 
L 226.434825 138.81889 
L 226.937571 139.08632 
L 227.138697 138.975531 
L 227.339695 139.015885 
L 227.641443 138.828225 
L 227.943076 138.143451 
L 228.144073 137.853865 
L 229.451327 139.028352 
L 229.752945 138.827531 
L 230.456703 139.089109 
L 230.65783 138.870039 
L 231.060069 137.346035 
L 231.462208 135.739259 
L 231.964954 134.512595 
L 232.266702 134.784738 
L 232.869953 135.525869 
L 232.970459 135.42358 
L 233.07108 135.498708 
L 233.272078 135.326115 
L 233.97595 135.841709 
L 234.378204 136.848387 
L 234.579331 136.927573 
L 235.182583 136.348945 
L 235.785834 136.684102 
L 235.986947 136.449029 
L 236.489707 136.397003 
L 237.294085 136.845959 
L 237.696325 136.303546 
L 238.098464 136.168154 
L 238.802336 135.30845 
L 238.902828 135.400367 
L 239.405588 134.555094 
L 239.707336 134.639195 
L 239.908333 134.5318 
L 240.310587 133.837408 
L 240.5117 133.63705 
L 240.712712 133.260201 
L 240.913839 132.807911 
L 241.718217 132.998591 
L 241.91933 133.063538 
L 242.42209 131.741876 
L 242.723708 132.097265 
L 242.924835 132.147387 
L 243.427581 131.343405 
L 243.628708 131.37822 
L 243.829835 131.413185 
L 244.734719 130.141989 
L 245.338086 128.996113 
L 245.539083 128.996858 
L 245.74021 129.153328 
L 245.840716 129.076437 
L 246.041843 128.437767 
L 246.343462 126.045519 
L 246.544589 122.590832 
L 246.745715 115.771067 
L 247.047334 94.50079 
L 247.876886 -1 
M 248.384507 -1 
L 248.756712 23.907709 
L 249.460584 67.523985 
L 249.762217 77.264222 
L 249.862723 78.03639 
L 249.963344 77.099544 
L 250.164342 68.744002 
L 250.46609 38.090901 
L 250.73448 -1 
M 251.917295 -1 
L 252.476971 45.631011 
L 252.879225 62.607561 
L 253.080338 65.088221 
L 253.180844 64.812664 
L 253.381971 61.406276 
L 253.683589 50.418992 
L 254.387462 19.874938 
L 254.487968 18.659755 
L 254.588589 18.807594 
L 254.789601 22.699495 
L 255.091349 36.333124 
L 256.096725 88.089275 
L 256.59947 101.286345 
L 257.001724 106.876968 
L 257.50447 111.063823 
L 258.00723 114.295161 
L 258.610481 116.722113 
L 259.012721 118.450695 
L 259.213848 118.528734 
L 259.414845 118.325616 
L 259.716593 116.923126 
L 259.917605 114.529186 
L 260.219353 106.51018 
L 261.124223 72.882789 
L 261.224729 72.531459 
L 261.425856 74.340759 
L 261.727475 80.438216 
L 262.632474 101.610604 
L 263.235726 108.338665 
L 263.537474 110.043641 
L 263.839107 110.544583 
L 263.939598 110.584655 
L 264.040104 110.474208 
L 264.54285 109.064689 
L 264.743977 109.050408 
L 264.945104 109.413441 
L 265.347358 111.394276 
L 265.850103 113.911342 
L 266.754987 116.538341 
L 267.056606 117.259148 
L 267.358239 118.091732 
L 267.659973 118.305776 
L 267.961605 118.610076 
L 268.162732 118.54957 
L 268.36373 118.515833 
L 268.464351 118.552642 
L 268.86649 119.096324 
L 269.268729 119.010702 
L 269.670854 118.119648 
L 270.475362 115.258523 
L 270.77698 114.498218 
L 270.877486 114.458056 
L 271.480738 115.737088 
L 271.782486 116.74443 
L 272.084104 117.221715 
L 272.586864 117.624094 
L 272.988989 117.918373 
L 273.190116 117.945846 
L 273.391243 118.089194 
L 273.592355 118.825933 
L 273.994494 119.920861 
L 274.296113 119.698377 
L 274.597861 119.457503 
L 274.698367 119.268102 
L 274.798858 119.337208 
L 274.999985 119.19809 
L 275.804364 119.016151 
L 276.508236 119.04596 
L 276.709363 119.369495 
L 277.010996 119.48691 
L 277.111488 119.445116 
L 277.81536 120.341689 
L 278.016487 120.208372 
L 278.116993 120.219903 
L 278.418741 119.960016 
L 278.72036 120.158189 
L 278.921487 120.071611 
L 279.323611 118.847364 
L 279.725865 116.035838 
L 280.731371 105.160219 
L 281.032989 104.093268 
L 281.133495 104.03813 
L 281.334622 104.561389 
L 281.937874 109.317567 
L 282.54124 113.89969 
L 283.747743 118.500616 
L 284.351124 119.590539 
L 284.552122 119.966613 
L 284.652743 119.962826 
L 285.255994 120.679897 
L 285.457121 120.497535 
L 285.557627 120.515491 
L 286.060373 121.207285 
L 286.362121 121.136447 
L 286.965372 121.62188 
L 287.166499 121.546892 
L 287.568624 121.3375 
L 287.970877 121.460978 
L 288.071369 121.413706 
L 288.976369 122.030422 
L 289.177495 122.001942 
L 289.881253 121.841987 
L 290.08238 121.938536 
L 290.383998 121.675849 
L 290.786252 121.463003 
L 292.093376 121.713977 
L 292.294503 121.59493 
L 292.596122 121.866429 
L 292.797249 121.977057 
L 293.199373 121.699072 
L 293.300009 121.69868 
L 293.501006 121.881263 
L 293.702133 121.931224 
L 293.802754 121.97332 
L 293.90326 121.793295 
L 294.406006 122.181202 
L 294.607133 122.159811 
L 295.109878 122.873972 
L 295.612624 122.405126 
L 295.914257 122.537124 
L 296.517508 121.735811 
L 296.819127 122.162682 
L 297.12076 122.343996 
L 297.221381 122.286321 
L 297.422508 122.05009 
L 297.724126 121.983512 
L 298.126265 122.325134 
L 298.528505 122.319011 
L 298.629011 122.31042 
L 299.031265 122.77556 
L 299.332883 122.574084 
L 299.634516 122.048267 
L 300.137262 121.431421 
L 300.43888 121.232381 
L 300.841134 121.053745 
L 301.444386 120.504222 
L 302.148258 121.160566 
L 302.349385 121.230558 
L 302.852131 121.445449 
L 303.25427 121.454342 
L 303.455382 121.513921 
L 303.857636 121.117645 
L 304.058763 121.129337 
L 304.360382 121.339666 
L 304.561509 121.493578 
L 304.863142 121.434019 
L 305.064139 121.286391 
L 305.566885 120.73146 
L 306.069645 121.332052 
L 306.371392 121.262513 
L 306.974644 121.945706 
L 307.075136 122.008538 
L 307.376768 122.367935 
L 307.577895 121.991649 
L 307.879514 121.219189 
L 308.080641 121.300198 
L 308.382274 121.956562 
L 308.684022 122.339535 
L 308.784513 122.349163 
L 309.186767 122.043071 
L 309.488386 121.996141 
L 309.689513 122.323391 
L 309.890525 122.419547 
L 310.091637 122.349606 
L 310.292764 122.021418 
L 310.493891 122.162208 
L 310.795524 122.098541 
L 310.996637 121.627439 
L 311.398776 121.53522 
L 311.700394 121.411732 
L 312.102648 120.710945 
L 312.20314 120.626421 
L 312.404267 120.827303 
L 312.605394 120.805148 
L 312.7059 120.802761 
L 313.007518 120.544656 
L 313.811897 120.879651 
L 314.013024 120.677984 
L 314.11353 120.718559 
L 314.214036 120.636371 
L 314.314542 120.408721 
L 314.415163 120.469125 
L 314.817273 119.60354 
L 315.118906 118.977599 
L 315.219412 118.906379 
L 315.420424 118.646381 
L 316.023661 118.226308 
L 316.325294 117.921162 
L 316.626927 118.177072 
L 316.82791 118.286753 
L 317.129543 118.295081 
L 317.230049 118.288152 
L 318.034298 119.339856 
L 318.436552 119.771843 
L 318.738069 120.230478 
L 319.240801 120.642263 
L 319.843923 121.403817 
L 320.145556 121.684379 
L 320.447189 121.59493 
L 321.251438 121.58354 
L 321.452565 121.518684 
L 321.955209 122.246622 
L 322.156336 122.168331 
L 322.558446 122.087171 
L 322.960585 122.395096 
L 323.161569 122.582553 
L 323.463201 123.001781 
L 323.664328 122.797696 
L 323.86534 122.402397 
L 324.569083 122.146931 
L 324.971222 122.837123 
L 325.071843 122.960944 
L 325.473953 122.428621 
L 325.775471 121.874939 
L 326.077104 121.878705 
L 326.278231 122.018377 
L 326.579835 122.094653 
L 326.881353 121.801623 
L 327.08248 121.729496 
L 327.786223 122.335839 
L 327.987235 122.261597 
L 328.087856 122.190135 
L 328.288868 121.94336 
L 328.791599 122.175089 
L 328.992611 122.075468 
L 329.39475 121.811644 
L 329.997987 122.374471 
L 330.601253 122.441864 
L 330.902742 122.573016 
L 331.405502 122.094885 
L 331.606514 122.171886 
L 332.109245 122.467343 
L 332.310257 122.218564 
L 332.712396 121.695477 
L 332.813017 121.651216 
L 333.014029 121.882623 
L 333.215127 121.911737 
L 333.516645 121.957096 
L 333.818278 122.520517 
L 334.019405 122.555262 
L 334.421515 122.092569 
L 334.723148 122.345205 
L 334.92416 122.34167 
L 335.024781 122.159942 
L 335.728409 122.528614 
L 336.130663 122.120404 
L 336.432152 122.346846 
L 336.834291 122.756647 
L 337.135924 122.338085 
L 337.437528 122.010693 
L 337.839667 122.222391 
L 338.442933 121.71017 
L 338.643916 121.481281 
L 338.845043 121.582402 
L 339.247182 122.554899 
L 339.448309 122.627439 
L 340.554191 121.892311 
L 340.956301 121.013281 
L 341.257819 120.174706 
L 341.458946 118.891625 
L 341.660073 116.790967 
L 342.062183 109.089805 
L 342.363701 98.809401 
L 342.765955 75.038444 
L 343.168065 36.937352 
L 343.449803 -1 
M 351.970545 -1 
L 352.618271 27.582142 
L 353.422635 53.526438 
L 354.427896 76.439111 
L 355.232145 89.475511 
L 356.438648 100.977101 
L 356.840787 103.088927 
L 357.846163 105.575549 
L 358.047175 105.704878 
L 358.248302 105.1888 
L 358.549791 104.265559 
L 358.952045 103.583867 
L 359.555167 102.330143 
L 359.8568 102.027354 
L 360.158433 101.667504 
L 360.359445 101.53467 
L 360.560543 101.747336 
L 360.761555 101.829896 
L 361.264315 102.862596 
L 361.364821 102.892043 
L 361.968058 104.719058 
L 362.470703 106.944191 
L 363.07394 110.026642 
L 363.375573 110.726401 
L 363.878189 112.518389 
L 364.280328 113.549841 
L 364.883594 115.8227 
L 365.587337 117.40732 
L 365.788348 117.487232 
L 366.492092 118.909803 
L 367.396847 119.796517 
L 367.698479 120.29774 
L 367.899606 120.455278 
L 368.10059 120.155208 
L 368.402223 120.197526 
L 368.603349 120.696766 
L 368.804361 120.956129 
L 368.904982 121.083041 
L 369.105994 120.98321 
L 369.307093 121.129266 
L 369.508104 121.191866 
L 369.60861 121.269442 
L 369.910243 121.027833 
L 370.211876 121.086113 
L 370.412974 121.423243 
L 370.51348 121.475803 
L 370.714492 121.736536 
L 370.915619 121.627076 
L 371.116746 121.492127 
L 371.418235 121.392386 
L 371.719868 121.696867 
L 372.021501 122.110706 
L 372.122007 122.099115 
L 372.42364 122.363977 
L 372.624738 122.383987 
L 373.227889 121.461522 
L 373.529522 121.65184 
L 373.831126 122.262705 
L 374.032138 122.55508 
L 374.434392 122.246158 
L 374.836502 122.630732 
L 374.937008 122.595776 
L 375.339147 121.774825 
L 375.64078 122.310138 
L 375.841763 122.749316 
L 376.445029 122.575323 
L 376.646156 122.61336 
L 377.349784 122.502974 
L 377.752038 122.185089 
L 377.95305 122.197587 
L 378.254654 121.957841 
L 378.455666 122.075317 
L 378.757299 122.713534 
L 378.85792 122.650894 
L 379.360536 121.800032 
L 379.762675 122.50669 
L 379.863181 122.562462 
L 380.064308 122.466961 
L 380.365912 122.382235 
L 380.66743 122.604216 
L 380.969063 122.636523 
L 381.17019 122.406576 
L 381.672806 122.063947 
L 381.873933 121.756486 
L 382.276072 121.951034 
L 382.778688 122.733686 
L 382.979815 122.58917 
L 383.582937 121.617479 
L 383.683558 121.630027 
L 383.88457 121.918082 
L 384.588313 121.581133 
L 384.78944 121.600741 
L 385.090958 121.720201 
L 385.694195 122.015457 
L 385.995828 122.03297 
L 386.900583 122.061329 
L 387.001204 122.126266 
L 387.10171 122.033524 
L 387.403343 122.170033 
L 387.805482 121.844001 
L 388.107086 121.73283 
L 388.408604 121.619775 
L 389.313474 122.245826 
L 389.715612 122.248706 
L 390.017245 122.276854 
L 390.218229 121.994902 
L 390.720988 122.083857 
L 391.022621 121.856862 
L 391.625743 122.062437 
L 392.027882 122.111723 
L 392.229009 122.236621 
L 392.631119 122.450445 
L 392.832246 122.651518 
L 393.033258 122.803537 
L 393.737001 122.882089 
L 394.239646 122.591063 
L 394.440773 122.437171 
L 394.742377 122.317983 
L 395.345528 122.694873 
L 395.647132 122.658286 
L 395.948765 122.3531 
L 396.350904 122.237951 
L 396.753014 122.502138 
L 397.456786 121.845854 
L 397.858896 122.238575 
L 398.060023 122.449357 
L 398.361656 122.156065 
L 398.462162 122.035477 
L 398.663174 122.252644 
L 398.964778 122.717613 
L 399.568044 122.658115 
L 399.769056 122.598526 
L 400.372293 122.569189 
L 400.472799 122.684792 
L 401.076036 122.107826 
L 401.679302 122.396858 
L 401.98082 122.161967 
L 402.181918 122.179067 
L 402.483551 122.360099 
L 402.785184 122.39434 
L 403.2878 123.141604 
L 403.488812 122.914517 
L 403.790445 122.404109 
L 404.192584 122.311266 
L 404.393682 122.415005 
L 404.695315 122.736133 
L 404.896327 122.871334 
L 405.801197 122.635989 
L 406.806458 122.651226 
L 407.208712 122.225533 
L 407.51023 122.235947 
L 408.012961 123.101149 
L 408.314594 122.875412 
L 408.917716 121.819287 
L 409.721965 121.688407 
L 410.023598 122.049919 
L 410.72737 122.593994 
L 411.431113 122.035467 
L 411.732746 121.679505 
L 411.933729 121.811442 
L 412.235362 122.001962 
L 412.335868 122.040724 
L 412.536995 121.855774 
L 412.838627 121.837576 
L 413.44175 122.273954 
L 413.844003 122.100686 
L 414.045015 122.119448 
L 414.648252 122.415046 
L 414.748758 122.43695 
L 415.351996 121.837606 
L 415.553007 122.007702 
L 415.653513 122.039334 
L 415.754134 121.951598 
L 415.85464 122.077654 
L 415.955146 121.984378 
L 416.860016 122.425227 
L 417.061028 122.408671 
L 417.161649 122.441139 
L 417.764771 122.034168 
L 417.865277 121.972978 
L 418.16691 122.168875 
L 418.368037 122.145521 
L 418.468543 122.145551 
L 418.770147 122.507073 
L 418.971159 123.041721 
L 419.272792 123.065801 
L 419.473919 122.696998 
L 419.574425 122.727291 
L 419.674902 122.615686 
L 419.876029 122.743616 
L 420.479295 122.356826 
L 420.881405 122.832138 
L 421.283544 122.55215 
L 421.685683 122.114594 
L 421.886666 122.111502 
L 422.389426 122.86377 
L 422.590438 122.821946 
L 422.992548 122.584799 
L 423.595814 122.633512 
L 423.997953 122.857033 
L 424.199051 122.57491 
L 424.60119 121.79975 
L 424.802202 121.844877 
L 425.204312 122.196419 
L 425.707072 121.859641 
L 426.310194 122.578918 
L 426.712333 122.042346 
L 426.812954 122.009203 
L 427.114587 122.277851 
L 427.215093 122.399114 
L 427.818215 122.113325 
L 428.119848 122.46263 
L 428.421452 122.676373 
L 428.924097 122.261567 
L 429.125224 122.419084 
L 429.426857 122.391571 
L 429.728461 122.520598 
L 429.828967 122.580046 
L 429.929473 122.508795 
L 430.231106 122.089064 
L 430.532739 121.853719 
L 430.733722 121.897296 
L 431.135861 122.684379 
L 431.336988 122.452378 
L 431.538115 122.132922 
L 432.040731 122.586471 
L 432.44287 122.317158 
L 432.643997 122.4896 
L 432.945486 122.501745 
L 433.247119 122.011831 
L 433.34774 122.044994 
L 433.850385 122.670743 
L 434.051368 122.574185 
L 434.554128 122.976151 
L 435.559504 122.380453 
L 435.861021 122.684138 
L 435.961642 122.610399 
L 436.363753 121.821584 
L 436.464259 121.892734 
L 436.866397 122.607539 
L 436.966903 122.696837 
L 437.16803 122.585555 
L 437.268508 122.610379 
L 437.57014 122.313039 
L 437.871773 122.448541 
L 438.072785 122.880125 
L 438.173406 122.88076 
L 438.37439 122.59768 
L 438.575516 122.052426 
L 438.676022 121.974539 
L 438.877149 122.278395 
L 439.078161 122.579089 
L 439.279288 122.553721 
L 439.580777 122.116648 
L 439.983031 122.177969 
L 440.38517 122.48103 
L 440.686659 122.142953 
L 440.988292 121.705548 
L 441.189419 121.679998 
L 441.390431 121.398207 
L 441.692035 121.247004 
L 442.094174 121.975475 
L 442.496313 121.214324 
L 442.697411 121.727552 
L 442.898423 122.349233 
L 442.999044 122.367773 
L 443.200056 121.931547 
L 443.501689 121.26639 
L 443.702816 121.19375 
L 444.004305 121.039677 
L 444.507065 121.435338 
L 444.808698 121.220357 
L 445.210808 120.77565 
L 445.512441 120.846327 
L 445.713453 121.029868 
L 445.91458 121.091078 
L 446.015057 121.17392 
L 446.216069 120.991437 
L 446.517702 121.063816 
L 446.718829 121.448893 
L 447.321951 121.15959 
L 447.523078 121.091783 
L 447.925217 120.76853 
L 448.126344 121.001951 
L 448.226821 120.927578 
L 448.427833 121.021549 
L 448.528454 120.74145 
L 448.62896 120.782599 
L 448.729466 120.846478 
L 448.930593 120.705769 
L 449.031099 120.822832 
L 449.232226 120.586883 
L 449.332703 120.666281 
L 449.835348 120.099628 
L 450.136981 119.929179 
L 450.338108 119.815561 
L 450.740218 119.280952 
L 450.94123 119.282171 
L 451.44399 118.332253 
L 451.946606 118.951848 
L 452.047112 118.976874 
L 452.951982 117.851412 
L 453.253615 117.918635 
L 453.354121 117.833103 
L 453.655754 117.27785 
L 453.856737 117.066172 
L 454.862113 117.631486 
L 455.163746 117.847102 
L 455.264252 117.759315 
L 455.967995 118.383332 
L 456.169007 118.793304 
L 456.370134 118.821834 
L 456.571261 118.902824 
L 456.671767 118.883367 
L 456.973399 119.252019 
L 457.073877 119.166598 
L 457.274889 119.237074 
L 457.476016 119.272362 
L 457.878154 119.849952 
L 458.179759 120.068801 
L 458.280265 119.894506 
L 458.581898 120.101219 
L 459.084514 120.969463 
L 459.486653 120.543005 
L 459.587274 120.445237 
L 459.888906 120.841201 
L 460.391523 121.589139 
L 460.592534 121.531544 
L 460.793661 121.195583 
L 460.894167 121.330139 
L 461.296278 121.045608 
L 461.497404 120.80696 
L 461.698416 120.907729 
L 462.301682 121.728962 
L 462.50278 121.88794 
L 462.904919 121.356615 
L 463.005425 121.372496 
L 463.206552 121.784019 
L 463.407564 121.880991 
L 463.809674 121.521655 
L 464.513446 121.977228 
L 465.016062 121.591939 
L 465.317695 121.794362 
L 465.518822 121.732538 
L 465.719805 121.662133 
L 466.222565 122.544153 
L 466.624704 121.996141 
L 466.72521 121.967379 
L 467.026814 122.313341 
L 467.227826 122.292534 
L 467.529459 122.278405 
L 467.931569 122.583953 
L 468.233202 122.842138 
L 468.333708 122.871636 
L 468.735962 122.260449 
L 468.936945 121.879531 
L 469.037451 121.831795 
L 469.43959 122.84943 
L 469.640717 123.135833 
L 469.741223 123.141563 
L 469.94235 122.734018 
L 470.143333 122.396354 
L 470.746599 122.445117 
L 471.249215 123.13403 
L 471.751975 122.73994 
L 472.053608 123.152057 
L 472.355097 122.793013 
L 472.757236 122.397402 
L 473.259996 123.015266 
L 474.064245 122.309212 
L 474.265372 122.470183 
L 474.667482 122.789861 
L 474.868494 122.596522 
L 475.170127 122.325325 
L 475.572237 122.42127 
L 475.974376 122.293531 
L 476.175503 122.439447 
L 476.477136 122.426436 
L 476.678119 122.287741 
L 476.778625 122.232704 
L 476.879246 122.305103 
L 476.979752 122.237206 
L 477.180879 122.472832 
L 477.281385 122.590801 
L 477.381891 122.497959 
L 477.482397 122.605404 
L 477.683524 122.544043 
L 478.18614 122.535221 
L 478.487773 122.232563 
L 478.789406 122.633914 
L 478.990389 122.653029 
L 479.191516 122.515905 
L 479.292022 122.526107 
L 479.694161 123.111039 
L 480.196892 122.510164 
L 480.297398 122.622545 
L 480.599031 122.920056 
L 480.900663 122.887155 
L 481.503786 122.737795 
L 481.805418 122.312938 
L 482.107051 122.397674 
L 482.509162 121.951094 
L 482.609667 122.061903 
L 482.810794 122.423817 
L 483.011806 122.861797 
L 483.313411 122.649917 
L 483.514538 122.292162 
L 483.715549 122.142047 
L 484.017182 122.368901 
L 484.218309 122.493739 
L 484.419292 122.32319 
L 484.821431 121.693513 
L 485.022558 121.928969 
L 485.324191 122.29897 
L 485.62568 121.869007 
L 485.826807 121.870165 
L 486.53055 122.634237 
L 487.133816 122.508805 
L 487.435334 122.843135 
L 487.636432 122.666816 
L 487.938065 122.510446 
L 488.139077 122.608284 
L 488.340204 122.72152 
L 488.44071 122.624257 
L 488.641837 122.774473 
L 488.84282 122.756325 
L 489.043947 122.84804 
L 489.244959 122.645083 
L 489.34558 122.544748 
L 489.647098 122.049566 
L 490.049208 122.361227 
L 490.350841 122.816206 
L 490.652474 122.984983 
L 490.75298 123.010381 
L 491.15509 122.250338 
L 491.356217 121.920187 
L 491.557344 121.93205 
L 492.160466 122.196701 
L 492.361593 122.120928 
L 492.663226 122.241486 
L 493.467475 123.077684 
L 493.769108 122.822551 
L 494.37223 122.292253 
L 494.472736 122.305103 
L 494.774369 122.875281 
L 494.975496 123.194294 
L 495.578618 122.920268 
L 495.779745 123.051843 
L 496.181884 122.867325 
L 496.583994 123.143044 
L 496.885627 122.703997 
L 496.986133 122.598556 
L 497.18726 122.884124 
L 497.488893 123.100253 
L 497.790382 122.977802 
L 498.192636 122.731974 
L 498.393648 122.478472 
L 498.695252 122.588898 
L 498.896264 122.696152 
L 499.298518 122.534687 
L 499.600007 122.505391 
L 499.90164 122.454302 
L 500.203273 122.223439 
L 500.605412 122.392014 
L 501.007522 122.666846 
L 501.309155 122.644831 
L 501.811771 122.205603 
L 502.012898 122.221918 
L 502.71667 122.726526 
L 502.917653 122.835602 
L 503.018274 122.702074 
L 503.319792 122.783083 
L 503.420413 122.639806 
L 503.520919 122.723887 
L 503.822552 122.419336 
L 504.325168 122.63043 
L 504.626801 122.538363 
L 505.230038 123.059366 
L 505.531555 123.220841 
L 506.134821 122.727271 
L 506.637437 122.882422 
L 507.441802 122.34454 
L 507.642813 122.016151 
L 507.743319 122.046152 
L 508.246079 123.188876 
L 508.447062 122.892452 
L 508.849201 122.226671 
L 509.050328 122.243057 
L 509.150834 122.146306 
L 509.351961 122.223227 
L 509.552944 122.241284 
L 509.854577 122.605757 
L 510.055704 122.740464 
L 510.558349 122.663845 
L 510.859953 122.593581 
L 511.161586 122.188644 
L 511.362598 121.954115 
L 511.664231 122.028498 
L 512.166847 122.826891 
L 512.770113 122.600711 
L 513.071717 122.876349 
L 513.574362 122.673916 
L 513.875966 122.990844 
L 514.077093 122.827667 
L 514.378611 122.303028 
L 514.680244 122.591083 
L 514.881371 122.756949 
L 515.987253 122.094079 
L 516.188236 121.900498 
L 516.489869 122.048398 
L 516.690996 122.167153 
L 517.394739 122.527839 
L 517.897384 122.280409 
L 518.4 122.424583 
L 518.4 122.424583 
" clip-path="url(#pf5298e5d8f)" style="fill: none; stroke: #000000; stroke-width: 1.5; stroke-linecap: square"/>
   </g>
   <g id="line2d_15">
    <path d="M 72 304.422526 
L 116.43953 236.094337 
L 123.98018 224.982245 
L 130.314314 216.035727 
L 135.844123 208.601623 
L 140.871211 202.209039 
L 145.496139 196.681706 
L 149.919991 191.743462 
L 154.142744 187.35558 
L 158.264969 183.38528 
L 162.387188 179.723247 
L 166.71049 176.187824 
L 171.335418 172.697845 
L 176.261972 169.256655 
L 181.590693 165.808335 
L 188.628627 161.541503 
L 197.677795 156.319743 
L 213.463933 147.54013 
L 222.412818 142.752788 
L 229.049073 139.467188 
L 235.484201 136.531409 
L 242.220963 133.702044 
L 248.555585 131.284728 
L 254.588589 129.215864 
L 260.520972 127.411748 
L 266.352734 125.868548 
L 272.084104 124.58184 
L 277.714869 123.546634 
L 283.244998 122.757417 
L 288.67475 122.208 
L 294.406006 121.857846 
L 301.746134 121.644819 
L 309.488386 121.641424 
L 320.246062 121.874031 
L 334.220388 122.154796 
L 346.988355 122.151498 
L 375.64078 122.084723 
L 420.981911 122.367496 
L 432.141237 122.20198 
L 455.364758 121.69737 
L 463.407564 121.928735 
L 479.895288 122.486 
L 494.573357 122.626625 
L 509.050328 122.57409 
L 518.4 122.46033 
L 518.4 122.46033 
" clip-path="url(#pf5298e5d8f)" style="fill: none; stroke: #1f77b4; stroke-width: 1.5; stroke-linecap: square"/>
   </g>
   <g id="line2d_16">
    <path d="M 72 290.050253 
L 95.727894 264.397453 
L 105.07829 253.940444 
L 116.741155 240.505183 
L 134.436543 220.149983 
L 143.786934 209.747973 
L 151.930829 201.011843 
L 159.47148 193.24613 
L 166.509399 186.312496 
L 173.245715 179.982111 
L 179.780932 174.141076 
L 186.215622 168.68822 
L 192.449213 163.69344 
L 198.582665 159.058279 
L 204.816681 154.631718 
L 210.950191 150.556071 
L 216.98318 146.816408 
L 222.915563 143.397552 
L 228.847946 140.232794 
L 234.780329 137.319478 
L 240.712712 134.655406 
L 246.343462 132.371603 
L 251.572087 130.488317 
L 256.700091 128.876984 
L 261.828096 127.496284 
L 267.157227 126.293267 
L 272.687356 125.275593 
L 278.519247 124.431819 
L 284.753249 123.757773 
L 291.691122 123.238303 
L 299.735137 122.86829 
L 310.493891 122.614172 
L 331.003363 122.16315 
L 353.824774 121.416679 
L 361.264315 121.58966 
L 372.82575 122.117021 
L 386.800077 122.689454 
L 400.774432 123.024031 
L 417.563759 123.193251 
L 442.094174 123.192544 
L 502.71667 123.141123 
L 518.4 123.155041 
L 518.4 123.155041 
" clip-path="url(#pf5298e5d8f)" style="fill: none; stroke: #ff7f0e; stroke-width: 1.5; stroke-linecap: square"/>
   </g>
   <g id="line2d_17">
    <path d="M 72 259.070431 
L 89.695386 244.769908 
L 96.532234 238.931183 
L 102.564742 233.483703 
L 108.597264 227.727666 
L 129.409437 207.554712 
L 135.140329 202.504227 
L 144.691811 194.449399 
L 161.58286 180.440777 
L 168.520245 175.00451 
L 174.653301 170.474234 
L 180.283649 166.588802 
L 185.813454 163.047189 
L 192.047053 159.323548 
L 199.688677 155.026085 
L 219.698064 144.191951 
L 237.394706 134.499416 
L 251.974226 126.234359 
L 256.197346 124.177516 
L 259.817099 122.657668 
L 263.034728 121.540425 
L 266.051101 120.726068 
L 268.86649 120.195128 
L 271.581359 119.911911 
L 274.396734 119.846765 
L 277.614248 119.998799 
L 281.736747 120.429879 
L 292.495501 121.669064 
L 296.718635 121.831859 
L 302.952637 121.81256 
L 312.404267 121.835215 
L 323.764834 122.129887 
L 330.802265 122.171381 
L 336.532773 121.979655 
L 347.189482 121.328186 
L 353.824774 121.057096 
L 358.650412 121.077973 
L 363.174446 121.325734 
L 376.545535 122.217772 
L 382.074945 122.118129 
L 387.202216 122.116655 
L 392.832246 122.389799 
L 398.261035 122.573289 
L 404.896327 122.554958 
L 409.520982 122.289508 
L 413.844003 122.124546 
L 419.07178 122.209576 
L 428.421452 122.326181 
L 435.257871 122.315759 
L 439.480271 122.052401 
L 449.533715 121.310783 
L 453.957243 121.27887 
L 458.581898 121.474886 
L 465.016062 121.998754 
L 471.550848 122.474184 
L 476.376515 122.568595 
L 512.166847 122.622756 
L 518.4 122.573147 
L 518.4 122.573147 
" clip-path="url(#pf5298e5d8f)" style="fill: none; stroke: #2ca02c; stroke-width: 1.5; stroke-linecap: square"/>
   </g>
   <g id="patch_3">
    <path d="M 72 320.4 
L 72 43.2 
" style="fill: none; stroke: #000000; stroke-width: 0.8; stroke-linejoin: miter; stroke-linecap: square"/>
   </g>
   <g id="patch_4">
    <path d="M 72 320.4 
L 518.4 320.4 
" style="fill: none; stroke: #000000; stroke-width: 0.8; stroke-linejoin: miter; stroke-linecap: square"/>
   </g>
   <g id="legend_1">
    <g id="patch_5">
     <path d="M 440.26875 109.9125 
L 511.4 109.9125 
Q 513.4 109.9125 513.4 107.9125 
L 513.4 50.2 
Q 513.4 48.2 511.4 48.2 
L 440.26875 48.2 
Q 438.26875 48.2 438.26875 50.2 
L 438.26875 107.9125 
Q 438.26875 109.9125 440.26875 109.9125 
z
" style="fill: #ffffff; opacity: 0.8; stroke: #cccccc; stroke-linejoin: miter"/>
    </g>
    <g id="line2d_18">
     <path d="M 442.26875 56.298437 
L 452.26875 56.298437 
L 462.26875 56.298437 
" style="fill: none; stroke: #000000; stroke-width: 1.5; stroke-linecap: square"/>
    </g>
    <g id="text_16">
     <!-- Original -->
     <g transform="translate(470.26875 59.798437) scale(0.1 -0.1)">
      <defs>
       <path id="DejaVuSans-4f" d="M 2522 4238 
Q 1834 4238 1429 3725 
Q 1025 3213 1025 2328 
Q 1025 1447 1429 934 
Q 1834 422 2522 422 
Q 3209 422 3611 934 
Q 4013 1447 4013 2328 
Q 4013 3213 3611 3725 
Q 3209 4238 2522 4238 
z
M 2522 4750 
Q 3503 4750 4090 4092 
Q 4678 3434 4678 2328 
Q 4678 1225 4090 567 
Q 3503 -91 2522 -91 
Q 1538 -91 948 565 
Q 359 1222 359 2328 
Q 359 3434 948 4092 
Q 1538 4750 2522 4750 
z
" transform="scale(0.015625)"/>
       <path id="DejaVuSans-67" d="M 2906 1791 
Q 2906 2416 2648 2759 
Q 2391 3103 1925 3103 
Q 1463 3103 1205 2759 
Q 947 2416 947 1791 
Q 947 1169 1205 825 
Q 1463 481 1925 481 
Q 2391 481 2648 825 
Q 2906 1169 2906 1791 
z
M 3481 434 
Q 3481 -459 3084 -895 
Q 2688 -1331 1869 -1331 
Q 1566 -1331 1297 -1286 
Q 1028 -1241 775 -1147 
L 775 -588 
Q 1028 -725 1275 -790 
Q 1522 -856 1778 -856 
Q 2344 -856 2625 -561 
Q 2906 -266 2906 331 
L 2906 616 
Q 2728 306 2450 153 
Q 2172 0 1784 0 
Q 1141 0 747 490 
Q 353 981 353 1791 
Q 353 2603 747 3093 
Q 1141 3584 1784 3584 
Q 2172 3584 2450 3431 
Q 2728 3278 2906 2969 
L 2906 3500 
L 3481 3500 
L 3481 434 
z
" transform="scale(0.015625)"/>
       <path id="DejaVuSans-6c" d="M 603 4863 
L 1178 4863 
L 1178 0 
L 603 0 
L 603 4863 
z
" transform="scale(0.015625)"/>
      </defs>
      <use xlink:href="#DejaVuSans-4f"/>
      <use xlink:href="#DejaVuSans-72" x="78.710938"/>
      <use xlink:href="#DejaVuSans-69" x="119.824219"/>
      <use xlink:href="#DejaVuSans-67" x="147.607422"/>
      <use xlink:href="#DejaVuSans-69" x="211.083984"/>
      <use xlink:href="#DejaVuSans-6e" x="238.867188"/>
      <use xlink:href="#DejaVuSans-61" x="302.246094"/>
      <use xlink:href="#DejaVuSans-6c" x="363.525391"/>
     </g>
    </g>
    <g id="line2d_19">
     <path d="M 442.26875 70.976562 
L 452.26875 70.976562 
L 462.26875 70.976562 
" style="fill: none; stroke: #1f77b4; stroke-width: 1.5; stroke-linecap: square"/>
    </g>
    <g id="text_17">
     <!-- AsLS -->
     <g transform="translate(470.26875 74.476562) scale(0.1 -0.1)">
      <defs>
       <path id="DejaVuSans-4c" d="M 628 4666 
L 1259 4666 
L 1259 531 
L 3531 531 
L 3531 0 
L 628 0 
L 628 4666 
z
" transform="scale(0.015625)"/>
       <path id="DejaVuSans-53" d="M 3425 4513 
L 3425 3897 
Q 3066 4069 2747 4153 
Q 2428 4238 2131 4238 
Q 1616 4238 1336 4038 
Q 1056 3838 1056 3469 
Q 1056 3159 1242 3001 
Q 1428 2844 1947 2747 
L 2328 2669 
Q 3034 2534 3370 2195 
Q 3706 1856 3706 1288 
Q 3706 609 3251 259 
Q 2797 -91 1919 -91 
Q 1588 -91 1214 -16 
Q 841 59 441 206 
L 441 856 
Q 825 641 1194 531 
Q 1563 422 1919 422 
Q 2459 422 2753 634 
Q 3047 847 3047 1241 
Q 3047 1584 2836 1778 
Q 2625 1972 2144 2069 
L 1759 2144 
Q 1053 2284 737 2584 
Q 422 2884 422 3419 
Q 422 4038 858 4394 
Q 1294 4750 2059 4750 
Q 2388 4750 2728 4690 
Q 3069 4631 3425 4513 
z
" transform="scale(0.015625)"/>
      </defs>
      <use xlink:href="#DejaVuSans-41"/>
      <use xlink:href="#DejaVuSans-73" x="68.408203"/>
      <use xlink:href="#DejaVuSans-4c" x="120.507812"/>
      <use xlink:href="#DejaVuSans-53" x="176.220703"/>
     </g>
    </g>
    <g id="line2d_20">
     <path d="M 442.26875 85.654687 
L 452.26875 85.654687 
L 462.26875 85.654687 
" style="fill: none; stroke: #ff7f0e; stroke-width: 1.5; stroke-linecap: square"/>
    </g>
    <g id="text_18">
     <!-- arPLS -->
     <g transform="translate(470.26875 89.154687) scale(0.1 -0.1)">
      <defs>
       <path id="DejaVuSans-50" d="M 1259 4147 
L 1259 2394 
L 2053 2394 
Q 2494 2394 2734 2622 
Q 2975 2850 2975 3272 
Q 2975 3691 2734 3919 
Q 2494 4147 2053 4147 
L 1259 4147 
z
M 628 4666 
L 2053 4666 
Q 2838 4666 3239 4311 
Q 3641 3956 3641 3272 
Q 3641 2581 3239 2228 
Q 2838 1875 2053 1875 
L 1259 1875 
L 1259 0 
L 628 0 
L 628 4666 
z
" transform="scale(0.015625)"/>
      </defs>
      <use xlink:href="#DejaVuSans-61"/>
      <use xlink:href="#DejaVuSans-72" x="61.279297"/>
      <use xlink:href="#DejaVuSans-50" x="102.392578"/>
      <use xlink:href="#DejaVuSans-4c" x="162.695312"/>
      <use xlink:href="#DejaVuSans-53" x="218.408203"/>
     </g>
    </g>
    <g id="line2d_21">
     <path d="M 442.26875 100.332812 
L 452.26875 100.332812 
L 462.26875 100.332812 
" style="fill: none; stroke: #2ca02c; stroke-width: 1.5; stroke-linecap: square"/>
    </g>
    <g id="text_19">
     <!-- FlatFit -->
     <g transform="translate(470.26875 103.832812) scale(0.1 -0.1)">
      <defs>
       <path id="DejaVuSans-46" d="M 628 4666 
L 3309 4666 
L 3309 4134 
L 1259 4134 
L 1259 2759 
L 3109 2759 
L 3109 2228 
L 1259 2228 
L 1259 0 
L 628 0 
L 628 4666 
z
" transform="scale(0.015625)"/>
       <path id="DejaVuSans-74" d="M 1172 4494 
L 1172 3500 
L 2356 3500 
L 2356 3053 
L 1172 3053 
L 1172 1153 
Q 1172 725 1289 603 
Q 1406 481 1766 481 
L 2356 481 
L 2356 0 
L 1766 0 
Q 1100 0 847 248 
Q 594 497 594 1153 
L 594 3053 
L 172 3053 
L 172 3500 
L 594 3500 
L 594 4494 
L 1172 4494 
z
" transform="scale(0.015625)"/>
      </defs>
      <use xlink:href="#DejaVuSans-46"/>
      <use xlink:href="#DejaVuSans-6c" x="57.519531"/>
      <use xlink:href="#DejaVuSans-61" x="85.302734"/>
      <use xlink:href="#DejaVuSans-74" x="146.582031"/>
      <use xlink:href="#DejaVuSans-46" x="185.791016"/>
      <use xlink:href="#DejaVuSans-69" x="236.060547"/>
      <use xlink:href="#DejaVuSans-74" x="263.84375"/>
     </g>
    </g>
   </g>
  </g>
 </g>
 <defs>
  <clipPath id="pf5298e5d8f">
   <rect x="72" y="43.2" width="446.4" height="277.2"/>
  </clipPath>
 </defs>
</svg>
