<?xml version="1.0" encoding="utf-8" standalone="no"?>
<!DOCTYPE svg PUBLIC "-//W3C//DTD SVG 1.1//EN"
  "http://www.w3.org/Graphics/SVG/1.1/DTD/svg11.dtd">
<svg xmlns:xlink="http://www.w3.org/1999/xlink" width="689.04pt" height="345.6pt" viewBox="0 0 689.04 345.6" xmlns="http://www.w3.org/2000/svg" version="1.1">
 <metadata>
  <rdf:RDF xmlns:dc="http://purl.org/dc/elements/1.1/" xmlns:cc="http://creativecommons.org/ns#" xmlns:rdf="http://www.w3.org/1999/02/22-rdf-syntax-ns#">
   <cc:Work>
    <dc:type rdf:resource="http://purl.org/dc/dcmitype/StillImage"/>
    <dc:date>2023-09-17T14:36:21.622764</dc:date>
    <dc:format>image/svg+xml</dc:format>
    <dc:creator>
     <cc:Agent>
      <dc:title>Matplotlib v3.7.2, https://matplotlib.org/</dc:title>
     </cc:Agent>
    </dc:creator>
   </cc:Work>
  </rdf:RDF>
 </metadata>
 <defs>
  <style type="text/css">*{stroke-linejoin: round; stroke-linecap: butt}</style>
 </defs>
 <g id="figure_1">
  <g id="patch_1">
   <path d="M 0 345.6 
L 689.04 345.6 
L 689.04 0 
L 0 0 
z
" style="fill: #ffffff"/>
  </g>
  <g id="axes_1">
   <g id="patch_2">
    <path d="M 86.13 307.584 
L 620.136 307.584 
L 620.136 41.472 
L 86.13 41.472 
z
" style="fill: #ffffff"/>
   </g>
   <g id="matplotlib.axis_1">
    <g id="xtick_1">
     <g id="line2d_1">
      <defs>
       <path id="m1b3bbe2bf0" d="M 0 0 
L 0 3.5 
" style="stroke: #000000; stroke-width: 0.8"/>
      </defs>
      <g>
       <use xlink:href="#m1b3bbe2bf0" x="86.13" y="307.584" style="stroke: #000000; stroke-width: 0.8"/>
      </g>
     </g>
     <g id="text_1">
      <!-- 0.0 -->
      <g transform="translate(78.178438 322.182437) scale(0.1 -0.1)">
       <defs>
        <path id="DejaVuSans-30" d="M 2034 4250 
Q 1547 4250 1301 3770 
Q 1056 3291 1056 2328 
Q 1056 1369 1301 889 
Q 1547 409 2034 409 
Q 2525 409 2770 889 
Q 3016 1369 3016 2328 
Q 3016 3291 2770 3770 
Q 2525 4250 2034 4250 
z
M 2034 4750 
Q 2819 4750 3233 4129 
Q 3647 3509 3647 2328 
Q 3647 1150 3233 529 
Q 2819 -91 2034 -91 
Q 1250 -91 836 529 
Q 422 1150 422 2328 
Q 422 3509 836 4129 
Q 1250 4750 2034 4750 
z
" transform="scale(0.015625)"/>
        <path id="DejaVuSans-2e" d="M 684 794 
L 1344 794 
L 1344 0 
L 684 0 
L 684 794 
z
" transform="scale(0.015625)"/>
       </defs>
       <use xlink:href="#DejaVuSans-30"/>
       <use xlink:href="#DejaVuSans-2e" x="63.623047"/>
       <use xlink:href="#DejaVuSans-30" x="95.410156"/>
      </g>
     </g>
    </g>
    <g id="xtick_2">
     <g id="line2d_2">
      <g>
       <use xlink:href="#m1b3bbe2bf0" x="158.294026" y="307.584" style="stroke: #000000; stroke-width: 0.8"/>
      </g>
     </g>
     <g id="text_2">
      <!-- 0.5 -->
      <g transform="translate(150.342464 322.182437) scale(0.1 -0.1)">
       <defs>
        <path id="DejaVuSans-35" d="M 691 4666 
L 3169 4666 
L 3169 4134 
L 1269 4134 
L 1269 2991 
Q 1406 3038 1543 3061 
Q 1681 3084 1819 3084 
Q 2600 3084 3056 2656 
Q 3513 2228 3513 1497 
Q 3513 744 3044 326 
Q 2575 -91 1722 -91 
Q 1428 -91 1123 -41 
Q 819 9 494 109 
L 494 744 
Q 775 591 1075 516 
Q 1375 441 1709 441 
Q 2250 441 2565 725 
Q 2881 1009 2881 1497 
Q 2881 1984 2565 2268 
Q 2250 2553 1709 2553 
Q 1456 2553 1204 2497 
Q 953 2441 691 2322 
L 691 4666 
z
" transform="scale(0.015625)"/>
       </defs>
       <use xlink:href="#DejaVuSans-30"/>
       <use xlink:href="#DejaVuSans-2e" x="63.623047"/>
       <use xlink:href="#DejaVuSans-35" x="95.410156"/>
      </g>
     </g>
    </g>
    <g id="xtick_3">
     <g id="line2d_3">
      <g>
       <use xlink:href="#m1b3bbe2bf0" x="230.458052" y="307.584" style="stroke: #000000; stroke-width: 0.8"/>
      </g>
     </g>
     <g id="text_3">
      <!-- 1.0 -->
      <g transform="translate(222.50649 322.182437) scale(0.1 -0.1)">
       <defs>
        <path id="DejaVuSans-31" d="M 794 531 
L 1825 531 
L 1825 4091 
L 703 3866 
L 703 4441 
L 1819 4666 
L 2450 4666 
L 2450 531 
L 3481 531 
L 3481 0 
L 794 0 
L 794 531 
z
" transform="scale(0.015625)"/>
       </defs>
       <use xlink:href="#DejaVuSans-31"/>
       <use xlink:href="#DejaVuSans-2e" x="63.623047"/>
       <use xlink:href="#DejaVuSans-30" x="95.410156"/>
      </g>
     </g>
    </g>
    <g id="xtick_4">
     <g id="line2d_4">
      <g>
       <use xlink:href="#m1b3bbe2bf0" x="302.622079" y="307.584" style="stroke: #000000; stroke-width: 0.8"/>
      </g>
     </g>
     <g id="text_4">
      <!-- 1.5 -->
      <g transform="translate(294.670516 322.182437) scale(0.1 -0.1)">
       <use xlink:href="#DejaVuSans-31"/>
       <use xlink:href="#DejaVuSans-2e" x="63.623047"/>
       <use xlink:href="#DejaVuSans-35" x="95.410156"/>
      </g>
     </g>
    </g>
    <g id="xtick_5">
     <g id="line2d_5">
      <g>
       <use xlink:href="#m1b3bbe2bf0" x="374.786105" y="307.584" style="stroke: #000000; stroke-width: 0.8"/>
      </g>
     </g>
     <g id="text_5">
      <!-- 2.0 -->
      <g transform="translate(366.834542 322.182437) scale(0.1 -0.1)">
       <defs>
        <path id="DejaVuSans-32" d="M 1228 531 
L 3431 531 
L 3431 0 
L 469 0 
L 469 531 
Q 828 903 1448 1529 
Q 2069 2156 2228 2338 
Q 2531 2678 2651 2914 
Q 2772 3150 2772 3378 
Q 2772 3750 2511 3984 
Q 2250 4219 1831 4219 
Q 1534 4219 1204 4116 
Q 875 4013 500 3803 
L 500 4441 
Q 881 4594 1212 4672 
Q 1544 4750 1819 4750 
Q 2544 4750 2975 4387 
Q 3406 4025 3406 3419 
Q 3406 3131 3298 2873 
Q 3191 2616 2906 2266 
Q 2828 2175 2409 1742 
Q 1991 1309 1228 531 
z
" transform="scale(0.015625)"/>
       </defs>
       <use xlink:href="#DejaVuSans-32"/>
       <use xlink:href="#DejaVuSans-2e" x="63.623047"/>
       <use xlink:href="#DejaVuSans-30" x="95.410156"/>
      </g>
     </g>
    </g>
    <g id="xtick_6">
     <g id="line2d_6">
      <g>
       <use xlink:href="#m1b3bbe2bf0" x="446.950131" y="307.584" style="stroke: #000000; stroke-width: 0.8"/>
      </g>
     </g>
     <g id="text_6">
      <!-- 2.5 -->
      <g transform="translate(438.998568 322.182437) scale(0.1 -0.1)">
       <use xlink:href="#DejaVuSans-32"/>
       <use xlink:href="#DejaVuSans-2e" x="63.623047"/>
       <use xlink:href="#DejaVuSans-35" x="95.410156"/>
      </g>
     </g>
    </g>
    <g id="xtick_7">
     <g id="line2d_7">
      <g>
       <use xlink:href="#m1b3bbe2bf0" x="519.114157" y="307.584" style="stroke: #000000; stroke-width: 0.8"/>
      </g>
     </g>
     <g id="text_7">
      <!-- 3.0 -->
      <g transform="translate(511.162595 322.182437) scale(0.1 -0.1)">
       <defs>
        <path id="DejaVuSans-33" d="M 2597 2516 
Q 3050 2419 3304 2112 
Q 3559 1806 3559 1356 
Q 3559 666 3084 287 
Q 2609 -91 1734 -91 
Q 1441 -91 1130 -33 
Q 819 25 488 141 
L 488 750 
Q 750 597 1062 519 
Q 1375 441 1716 441 
Q 2309 441 2620 675 
Q 2931 909 2931 1356 
Q 2931 1769 2642 2001 
Q 2353 2234 1838 2234 
L 1294 2234 
L 1294 2753 
L 1863 2753 
Q 2328 2753 2575 2939 
Q 2822 3125 2822 3475 
Q 2822 3834 2567 4026 
Q 2313 4219 1838 4219 
Q 1578 4219 1281 4162 
Q 984 4106 628 3988 
L 628 4550 
Q 988 4650 1302 4700 
Q 1616 4750 1894 4750 
Q 2613 4750 3031 4423 
Q 3450 4097 3450 3541 
Q 3450 3153 3228 2886 
Q 3006 2619 2597 2516 
z
" transform="scale(0.015625)"/>
       </defs>
       <use xlink:href="#DejaVuSans-33"/>
       <use xlink:href="#DejaVuSans-2e" x="63.623047"/>
       <use xlink:href="#DejaVuSans-30" x="95.410156"/>
      </g>
     </g>
    </g>
    <g id="xtick_8">
     <g id="line2d_8">
      <g>
       <use xlink:href="#m1b3bbe2bf0" x="591.278183" y="307.584" style="stroke: #000000; stroke-width: 0.8"/>
      </g>
     </g>
     <g id="text_8">
      <!-- 3.5 -->
      <g transform="translate(583.326621 322.182437) scale(0.1 -0.1)">
       <use xlink:href="#DejaVuSans-33"/>
       <use xlink:href="#DejaVuSans-2e" x="63.623047"/>
       <use xlink:href="#DejaVuSans-35" x="95.410156"/>
      </g>
     </g>
    </g>
    <g id="text_9">
     <!-- Time [min] -->
     <g transform="translate(325.980656 335.860562) scale(0.1 -0.1)">
      <defs>
       <path id="DejaVuSans-54" d="M -19 4666 
L 3928 4666 
L 3928 4134 
L 2272 4134 
L 2272 0 
L 1638 0 
L 1638 4134 
L -19 4134 
L -19 4666 
z
" transform="scale(0.015625)"/>
       <path id="DejaVuSans-69" d="M 603 3500 
L 1178 3500 
L 1178 0 
L 603 0 
L 603 3500 
z
M 603 4863 
L 1178 4863 
L 1178 4134 
L 603 4134 
L 603 4863 
z
" transform="scale(0.015625)"/>
       <path id="DejaVuSans-6d" d="M 3328 2828 
Q 3544 3216 3844 3400 
Q 4144 3584 4550 3584 
Q 5097 3584 5394 3201 
Q 5691 2819 5691 2113 
L 5691 0 
L 5113 0 
L 5113 2094 
Q 5113 2597 4934 2840 
Q 4756 3084 4391 3084 
Q 3944 3084 3684 2787 
Q 3425 2491 3425 1978 
L 3425 0 
L 2847 0 
L 2847 2094 
Q 2847 2600 2669 2842 
Q 2491 3084 2119 3084 
Q 1678 3084 1418 2786 
Q 1159 2488 1159 1978 
L 1159 0 
L 581 0 
L 581 3500 
L 1159 3500 
L 1159 2956 
Q 1356 3278 1631 3431 
Q 1906 3584 2284 3584 
Q 2666 3584 2933 3390 
Q 3200 3197 3328 2828 
z
" transform="scale(0.015625)"/>
       <path id="DejaVuSans-65" d="M 3597 1894 
L 3597 1613 
L 953 1613 
Q 991 1019 1311 708 
Q 1631 397 2203 397 
Q 2534 397 2845 478 
Q 3156 559 3463 722 
L 3463 178 
Q 3153 47 2828 -22 
Q 2503 -91 2169 -91 
Q 1331 -91 842 396 
Q 353 884 353 1716 
Q 353 2575 817 3079 
Q 1281 3584 2069 3584 
Q 2775 3584 3186 3129 
Q 3597 2675 3597 1894 
z
M 3022 2063 
Q 3016 2534 2758 2815 
Q 2500 3097 2075 3097 
Q 1594 3097 1305 2825 
Q 1016 2553 972 2059 
L 3022 2063 
z
" transform="scale(0.015625)"/>
       <path id="DejaVuSans-20" transform="scale(0.015625)"/>
       <path id="DejaVuSans-5b" d="M 550 4863 
L 1875 4863 
L 1875 4416 
L 1125 4416 
L 1125 -397 
L 1875 -397 
L 1875 -844 
L 550 -844 
L 550 4863 
z
" transform="scale(0.015625)"/>
       <path id="DejaVuSans-6e" d="M 3513 2113 
L 3513 0 
L 2938 0 
L 2938 2094 
Q 2938 2591 2744 2837 
Q 2550 3084 2163 3084 
Q 1697 3084 1428 2787 
Q 1159 2491 1159 1978 
L 1159 0 
L 581 0 
L 581 3500 
L 1159 3500 
L 1159 2956 
Q 1366 3272 1645 3428 
Q 1925 3584 2291 3584 
Q 2894 3584 3203 3211 
Q 3513 2838 3513 2113 
z
" transform="scale(0.015625)"/>
       <path id="DejaVuSans-5d" d="M 1947 4863 
L 1947 -844 
L 622 -844 
L 622 -397 
L 1369 -397 
L 1369 4416 
L 622 4416 
L 622 4863 
L 1947 4863 
z
" transform="scale(0.015625)"/>
      </defs>
      <use xlink:href="#DejaVuSans-54"/>
      <use xlink:href="#DejaVuSans-69" x="57.958984"/>
      <use xlink:href="#DejaVuSans-6d" x="85.742188"/>
      <use xlink:href="#DejaVuSans-65" x="183.154297"/>
      <use xlink:href="#DejaVuSans-20" x="244.677734"/>
      <use xlink:href="#DejaVuSans-5b" x="276.464844"/>
      <use xlink:href="#DejaVuSans-6d" x="315.478516"/>
      <use xlink:href="#DejaVuSans-69" x="412.890625"/>
      <use xlink:href="#DejaVuSans-6e" x="440.673828"/>
      <use xlink:href="#DejaVuSans-5d" x="504.052734"/>
     </g>
    </g>
   </g>
   <g id="matplotlib.axis_2">
    <g id="ytick_1">
     <g id="line2d_9">
      <defs>
       <path id="mcb24d26742" d="M 0 0 
L -3.5 0 
" style="stroke: #000000; stroke-width: 0.8"/>
      </defs>
      <g>
       <use xlink:href="#mcb24d26742" x="86.13" y="287.113846" style="stroke: #000000; stroke-width: 0.8"/>
      </g>
     </g>
     <g id="text_10">
      <!-- −20 -->
      <g transform="translate(58.025312 290.913065) scale(0.1 -0.1)">
       <defs>
        <path id="DejaVuSans-2212" d="M 678 2272 
L 4684 2272 
L 4684 1741 
L 678 1741 
L 678 2272 
z
" transform="scale(0.015625)"/>
       </defs>
       <use xlink:href="#DejaVuSans-2212"/>
       <use xlink:href="#DejaVuSans-32" x="83.789062"/>
       <use xlink:href="#DejaVuSans-30" x="147.412109"/>
      </g>
     </g>
    </g>
    <g id="ytick_2">
     <g id="line2d_10">
      <g>
       <use xlink:href="#mcb24d26742" x="86.13" y="246.173538" style="stroke: #000000; stroke-width: 0.8"/>
      </g>
     </g>
     <g id="text_11">
      <!-- 0 -->
      <g transform="translate(72.7675 249.972757) scale(0.1 -0.1)">
       <use xlink:href="#DejaVuSans-30"/>
      </g>
     </g>
    </g>
    <g id="ytick_3">
     <g id="line2d_11">
      <g>
       <use xlink:href="#mcb24d26742" x="86.13" y="205.233231" style="stroke: #000000; stroke-width: 0.8"/>
      </g>
     </g>
     <g id="text_12">
      <!-- 20 -->
      <g transform="translate(66.405 209.03245) scale(0.1 -0.1)">
       <use xlink:href="#DejaVuSans-32"/>
       <use xlink:href="#DejaVuSans-30" x="63.623047"/>
      </g>
     </g>
    </g>
    <g id="ytick_4">
     <g id="line2d_12">
      <g>
       <use xlink:href="#mcb24d26742" x="86.13" y="164.292923" style="stroke: #000000; stroke-width: 0.8"/>
      </g>
     </g>
     <g id="text_13">
      <!-- 40 -->
      <g transform="translate(66.405 168.092142) scale(0.1 -0.1)">
       <defs>
        <path id="DejaVuSans-34" d="M 2419 4116 
L 825 1625 
L 2419 1625 
L 2419 4116 
z
M 2253 4666 
L 3047 4666 
L 3047 1625 
L 3713 1625 
L 3713 1100 
L 3047 1100 
L 3047 0 
L 2419 0 
L 2419 1100 
L 313 1100 
L 313 1709 
L 2253 4666 
z
" transform="scale(0.015625)"/>
       </defs>
       <use xlink:href="#DejaVuSans-34"/>
       <use xlink:href="#DejaVuSans-30" x="63.623047"/>
      </g>
     </g>
    </g>
    <g id="ytick_5">
     <g id="line2d_13">
      <g>
       <use xlink:href="#mcb24d26742" x="86.13" y="123.352615" style="stroke: #000000; stroke-width: 0.8"/>
      </g>
     </g>
     <g id="text_14">
      <!-- 60 -->
      <g transform="translate(66.405 127.151834) scale(0.1 -0.1)">
       <defs>
        <path id="DejaVuSans-36" d="M 2113 2584 
Q 1688 2584 1439 2293 
Q 1191 2003 1191 1497 
Q 1191 994 1439 701 
Q 1688 409 2113 409 
Q 2538 409 2786 701 
Q 3034 994 3034 1497 
Q 3034 2003 2786 2293 
Q 2538 2584 2113 2584 
z
M 3366 4563 
L 3366 3988 
Q 3128 4100 2886 4159 
Q 2644 4219 2406 4219 
Q 1781 4219 1451 3797 
Q 1122 3375 1075 2522 
Q 1259 2794 1537 2939 
Q 1816 3084 2150 3084 
Q 2853 3084 3261 2657 
Q 3669 2231 3669 1497 
Q 3669 778 3244 343 
Q 2819 -91 2113 -91 
Q 1303 -91 875 529 
Q 447 1150 447 2328 
Q 447 3434 972 4092 
Q 1497 4750 2381 4750 
Q 2619 4750 2861 4703 
Q 3103 4656 3366 4563 
z
" transform="scale(0.015625)"/>
       </defs>
       <use xlink:href="#DejaVuSans-36"/>
       <use xlink:href="#DejaVuSans-30" x="63.623047"/>
      </g>
     </g>
    </g>
    <g id="ytick_6">
     <g id="line2d_14">
      <g>
       <use xlink:href="#mcb24d26742" x="86.13" y="82.412308" style="stroke: #000000; stroke-width: 0.8"/>
      </g>
     </g>
     <g id="text_15">
      <!-- 80 -->
      <g transform="translate(66.405 86.211526) scale(0.1 -0.1)">
       <defs>
        <path id="DejaVuSans-38" d="M 2034 2216 
Q 1584 2216 1326 1975 
Q 1069 1734 1069 1313 
Q 1069 891 1326 650 
Q 1584 409 2034 409 
Q 2484 409 2743 651 
Q 3003 894 3003 1313 
Q 3003 1734 2745 1975 
Q 2488 2216 2034 2216 
z
M 1403 2484 
Q 997 2584 770 2862 
Q 544 3141 544 3541 
Q 544 4100 942 4425 
Q 1341 4750 2034 4750 
Q 2731 4750 3128 4425 
Q 3525 4100 3525 3541 
Q 3525 3141 3298 2862 
Q 3072 2584 2669 2484 
Q 3125 2378 3379 2068 
Q 3634 1759 3634 1313 
Q 3634 634 3220 271 
Q 2806 -91 2034 -91 
Q 1263 -91 848 271 
Q 434 634 434 1313 
Q 434 1759 690 2068 
Q 947 2378 1403 2484 
z
M 1172 3481 
Q 1172 3119 1398 2916 
Q 1625 2713 2034 2713 
Q 2441 2713 2670 2916 
Q 2900 3119 2900 3481 
Q 2900 3844 2670 4047 
Q 2441 4250 2034 4250 
Q 1625 4250 1398 4047 
Q 1172 3844 1172 3481 
z
" transform="scale(0.015625)"/>
       </defs>
       <use xlink:href="#DejaVuSans-38"/>
       <use xlink:href="#DejaVuSans-30" x="63.623047"/>
      </g>
     </g>
    </g>
    <g id="ytick_7">
     <g id="line2d_15">
      <g>
       <use xlink:href="#mcb24d26742" x="86.13" y="41.472" style="stroke: #000000; stroke-width: 0.8"/>
      </g>
     </g>
     <g id="text_16">
      <!-- 100 -->
      <g transform="translate(60.0425 45.271219) scale(0.1 -0.1)">
       <use xlink:href="#DejaVuSans-31"/>
       <use xlink:href="#DejaVuSans-30" x="63.623047"/>
       <use xlink:href="#DejaVuSans-30" x="127.246094"/>
      </g>
     </g>
    </g>
    <g id="text_17">
     <!-- Average absorbance [mAU] -->
     <g transform="translate(51.945625 243.281125) rotate(-90) scale(0.1 -0.1)">
      <defs>
       <path id="DejaVuSans-41" d="M 2188 4044 
L 1331 1722 
L 3047 1722 
L 2188 4044 
z
M 1831 4666 
L 2547 4666 
L 4325 0 
L 3669 0 
L 3244 1197 
L 1141 1197 
L 716 0 
L 50 0 
L 1831 4666 
z
" transform="scale(0.015625)"/>
       <path id="DejaVuSans-76" d="M 191 3500 
L 800 3500 
L 1894 563 
L 2988 3500 
L 3597 3500 
L 2284 0 
L 1503 0 
L 191 3500 
z
" transform="scale(0.015625)"/>
       <path id="DejaVuSans-72" d="M 2631 2963 
Q 2534 3019 2420 3045 
Q 2306 3072 2169 3072 
Q 1681 3072 1420 2755 
Q 1159 2438 1159 1844 
L 1159 0 
L 581 0 
L 581 3500 
L 1159 3500 
L 1159 2956 
Q 1341 3275 1631 3429 
Q 1922 3584 2338 3584 
Q 2397 3584 2469 3576 
Q 2541 3569 2628 3553 
L 2631 2963 
z
" transform="scale(0.015625)"/>
       <path id="DejaVuSans-61" d="M 2194 1759 
Q 1497 1759 1228 1600 
Q 959 1441 959 1056 
Q 959 750 1161 570 
Q 1363 391 1709 391 
Q 2188 391 2477 730 
Q 2766 1069 2766 1631 
L 2766 1759 
L 2194 1759 
z
M 3341 1997 
L 3341 0 
L 2766 0 
L 2766 531 
Q 2569 213 2275 61 
Q 1981 -91 1556 -91 
Q 1019 -91 701 211 
Q 384 513 384 1019 
Q 384 1609 779 1909 
Q 1175 2209 1959 2209 
L 2766 2209 
L 2766 2266 
Q 2766 2663 2505 2880 
Q 2244 3097 1772 3097 
Q 1472 3097 1187 3025 
Q 903 2953 641 2809 
L 641 3341 
Q 956 3463 1253 3523 
Q 1550 3584 1831 3584 
Q 2591 3584 2966 3190 
Q 3341 2797 3341 1997 
z
" transform="scale(0.015625)"/>
       <path id="DejaVuSans-67" d="M 2906 1791 
Q 2906 2416 2648 2759 
Q 2391 3103 1925 3103 
Q 1463 3103 1205 2759 
Q 947 2416 947 1791 
Q 947 1169 1205 825 
Q 1463 481 1925 481 
Q 2391 481 2648 825 
Q 2906 1169 2906 1791 
z
M 3481 434 
Q 3481 -459 3084 -895 
Q 2688 -1331 1869 -1331 
Q 1566 -1331 1297 -1286 
Q 1028 -1241 775 -1147 
L 775 -588 
Q 1028 -725 1275 -790 
Q 1522 -856 1778 -856 
Q 2344 -856 2625 -561 
Q 2906 -266 2906 331 
L 2906 616 
Q 2728 306 2450 153 
Q 2172 0 1784 0 
Q 1141 0 747 490 
Q 353 981 353 1791 
Q 353 2603 747 3093 
Q 1141 3584 1784 3584 
Q 2172 3584 2450 3431 
Q 2728 3278 2906 2969 
L 2906 3500 
L 3481 3500 
L 3481 434 
z
" transform="scale(0.015625)"/>
       <path id="DejaVuSans-62" d="M 3116 1747 
Q 3116 2381 2855 2742 
Q 2594 3103 2138 3103 
Q 1681 3103 1420 2742 
Q 1159 2381 1159 1747 
Q 1159 1113 1420 752 
Q 1681 391 2138 391 
Q 2594 391 2855 752 
Q 3116 1113 3116 1747 
z
M 1159 2969 
Q 1341 3281 1617 3432 
Q 1894 3584 2278 3584 
Q 2916 3584 3314 3078 
Q 3713 2572 3713 1747 
Q 3713 922 3314 415 
Q 2916 -91 2278 -91 
Q 1894 -91 1617 61 
Q 1341 213 1159 525 
L 1159 0 
L 581 0 
L 581 4863 
L 1159 4863 
L 1159 2969 
z
" transform="scale(0.015625)"/>
       <path id="DejaVuSans-73" d="M 2834 3397 
L 2834 2853 
Q 2591 2978 2328 3040 
Q 2066 3103 1784 3103 
Q 1356 3103 1142 2972 
Q 928 2841 928 2578 
Q 928 2378 1081 2264 
Q 1234 2150 1697 2047 
L 1894 2003 
Q 2506 1872 2764 1633 
Q 3022 1394 3022 966 
Q 3022 478 2636 193 
Q 2250 -91 1575 -91 
Q 1294 -91 989 -36 
Q 684 19 347 128 
L 347 722 
Q 666 556 975 473 
Q 1284 391 1588 391 
Q 1994 391 2212 530 
Q 2431 669 2431 922 
Q 2431 1156 2273 1281 
Q 2116 1406 1581 1522 
L 1381 1569 
Q 847 1681 609 1914 
Q 372 2147 372 2553 
Q 372 3047 722 3315 
Q 1072 3584 1716 3584 
Q 2034 3584 2315 3537 
Q 2597 3491 2834 3397 
z
" transform="scale(0.015625)"/>
       <path id="DejaVuSans-6f" d="M 1959 3097 
Q 1497 3097 1228 2736 
Q 959 2375 959 1747 
Q 959 1119 1226 758 
Q 1494 397 1959 397 
Q 2419 397 2687 759 
Q 2956 1122 2956 1747 
Q 2956 2369 2687 2733 
Q 2419 3097 1959 3097 
z
M 1959 3584 
Q 2709 3584 3137 3096 
Q 3566 2609 3566 1747 
Q 3566 888 3137 398 
Q 2709 -91 1959 -91 
Q 1206 -91 779 398 
Q 353 888 353 1747 
Q 353 2609 779 3096 
Q 1206 3584 1959 3584 
z
" transform="scale(0.015625)"/>
       <path id="DejaVuSans-63" d="M 3122 3366 
L 3122 2828 
Q 2878 2963 2633 3030 
Q 2388 3097 2138 3097 
Q 1578 3097 1268 2742 
Q 959 2388 959 1747 
Q 959 1106 1268 751 
Q 1578 397 2138 397 
Q 2388 397 2633 464 
Q 2878 531 3122 666 
L 3122 134 
Q 2881 22 2623 -34 
Q 2366 -91 2075 -91 
Q 1284 -91 818 406 
Q 353 903 353 1747 
Q 353 2603 823 3093 
Q 1294 3584 2113 3584 
Q 2378 3584 2631 3529 
Q 2884 3475 3122 3366 
z
" transform="scale(0.015625)"/>
       <path id="DejaVuSans-55" d="M 556 4666 
L 1191 4666 
L 1191 1831 
Q 1191 1081 1462 751 
Q 1734 422 2344 422 
Q 2950 422 3222 751 
Q 3494 1081 3494 1831 
L 3494 4666 
L 4128 4666 
L 4128 1753 
Q 4128 841 3676 375 
Q 3225 -91 2344 -91 
Q 1459 -91 1007 375 
Q 556 841 556 1753 
L 556 4666 
z
" transform="scale(0.015625)"/>
      </defs>
      <use xlink:href="#DejaVuSans-41"/>
      <use xlink:href="#DejaVuSans-76" x="62.533203"/>
      <use xlink:href="#DejaVuSans-65" x="121.712891"/>
      <use xlink:href="#DejaVuSans-72" x="183.236328"/>
      <use xlink:href="#DejaVuSans-61" x="224.349609"/>
      <use xlink:href="#DejaVuSans-67" x="285.628906"/>
      <use xlink:href="#DejaVuSans-65" x="349.105469"/>
      <use xlink:href="#DejaVuSans-20" x="410.628906"/>
      <use xlink:href="#DejaVuSans-61" x="442.416016"/>
      <use xlink:href="#DejaVuSans-62" x="503.695312"/>
      <use xlink:href="#DejaVuSans-73" x="567.171875"/>
      <use xlink:href="#DejaVuSans-6f" x="619.271484"/>
      <use xlink:href="#DejaVuSans-72" x="680.453125"/>
      <use xlink:href="#DejaVuSans-62" x="721.566406"/>
      <use xlink:href="#DejaVuSans-61" x="785.042969"/>
      <use xlink:href="#DejaVuSans-6e" x="846.322266"/>
      <use xlink:href="#DejaVuSans-63" x="909.701172"/>
      <use xlink:href="#DejaVuSans-65" x="964.681641"/>
      <use xlink:href="#DejaVuSans-20" x="1026.205078"/>
      <use xlink:href="#DejaVuSans-5b" x="1057.992188"/>
      <use xlink:href="#DejaVuSans-6d" x="1097.005859"/>
      <use xlink:href="#DejaVuSans-41" x="1194.417969"/>
      <use xlink:href="#DejaVuSans-55" x="1262.826172"/>
      <use xlink:href="#DejaVuSans-5d" x="1336.019531"/>
     </g>
    </g>
   </g>
   <g id="line2d_16">
    <path d="M 86.13 246.173538 
L 86.731367 245.204221 
L 87.092187 245.632713 
L 87.332734 245.92867 
L 87.573281 246.059512 
L 88.294921 247.153819 
L 88.655741 247.802896 
L 88.896288 248.121958 
L 89.257107 247.934127 
L 89.617927 247.455171 
L 89.858474 247.195518 
L 90.219293 246.387798 
L 90.82066 244.021342 
L 91.301753 240.953815 
L 92.023392 235.147679 
L 92.624759 230.664365 
L 93.346398 226.866983 
L 93.586946 226.176556 
L 93.827491 226.010856 
L 93.947764 226.075847 
L 94.308584 226.767485 
L 94.669404 228.087531 
L 95.270772 231.614546 
L 97.07487 244.231277 
L 97.916783 247.873806 
L 98.518149 249.297991 
L 98.878969 250.029941 
L 99.480335 250.875332 
L 99.961428 251.783039 
L 100.442521 252.143451 
L 100.683074 252.408746 
L 101.043894 252.480472 
L 101.404714 252.233901 
L 101.765534 252.100338 
L 102.12634 252.092379 
L 102.366891 251.964987 
L 102.84798 251.321013 
L 103.2088 251.058165 
L 104.050724 250.669308 
L 104.411544 250.188778 
L 104.652081 249.944062 
L 105.253453 249.848548 
L 105.494004 249.5402 
L 105.734541 249.225021 
L 106.095361 249.037634 
L 106.576464 248.921785 
L 107.298105 248.362903 
L 107.538642 248.296093 
L 108.019745 247.548745 
L 108.140014 247.572636 
L 108.621102 248.15565 
L 109.463011 247.553586 
L 109.703563 247.403439 
L 109.944114 247.354861 
L 110.304934 247.553031 
L 110.545471 247.521882 
L 110.906292 247.379818 
L 111.267112 247.341217 
L 111.507663 247.114212 
L 111.868483 247.029212 
L 112.109035 247.130207 
L 112.349572 247.103539 
L 112.830675 246.7286 
L 112.950944 246.740574 
L 113.432033 247.296563 
L 113.552301 247.224154 
L 114.033404 246.543223 
L 114.634761 246.763953 
L 114.875313 246.593822 
L 115.596953 246.302748 
L 115.957773 246.068801 
L 116.318594 245.911664 
L 117.040234 245.96851 
L 117.280785 245.910709 
L 117.401054 245.831775 
L 117.641606 245.059703 
L 118.483514 240.801189 
L 118.724051 241.657421 
L 119.806512 246.694121 
L 120.648435 250.009095 
L 121.009255 252.555561 
L 121.971433 261.755292 
L 122.091716 261.763141 
L 122.211984 261.447344 
L 122.572804 258.847845 
L 124.376905 242.543521 
L 124.857994 239.917255 
L 125.339082 238.65082 
L 125.579634 238.472366 
L 125.820186 238.845259 
L 126.301274 240.379815 
L 126.782363 242.452002 
L 127.985106 248.076528 
L 128.225643 248.45319 
L 128.586464 248.557568 
L 129.067552 248.103736 
L 129.428372 247.335062 
L 130.029744 245.600453 
L 130.631116 243.10864 
L 131.352756 240.434065 
L 133.156857 233.784586 
L 134.119034 229.920245 
L 135.201495 226.188813 
L 136.163686 224.083644 
L 136.404223 223.964526 
L 136.765044 223.968435 
L 137.125864 224.207579 
L 137.606967 224.832183 
L 138.208324 225.539265 
L 140.734065 227.391264 
L 141.215154 227.30971 
L 141.575974 227.018215 
L 141.696257 227.011749 
L 141.936794 226.873497 
L 142.177346 226.860707 
L 143.259806 226.481498 
L 143.620626 226.04611 
L 144.221983 225.461118 
L 144.823355 225.159516 
L 146.026084 223.444288 
L 146.266636 223.420449 
L 146.507187 223.508805 
L 147.228827 222.573154 
L 147.589648 222.293574 
L 147.950468 221.800929 
L 148.551825 221.777599 
L 149.153197 221.149346 
L 149.874837 220.776793 
L 150.235657 220.109917 
L 150.476194 218.966625 
L 150.957297 214.814332 
L 151.318117 212.572048 
L 151.438386 212.425724 
L 151.558655 212.562498 
L 152.520846 215.610027 
L 152.761398 216.089093 
L 153.001935 216.629557 
L 153.603307 216.897789 
L 154.204664 217.538913 
L 154.445216 217.372895 
L 154.806036 217.147764 
L 156.129048 217.110466 
L 156.489868 216.857466 
L 157.091225 216.562682 
L 157.331777 216.336394 
L 157.812865 216.237563 
L 158.053417 216.137504 
L 158.534506 216.038983 
L 158.775057 215.984931 
L 159.015609 216.0399 
L 159.256146 216.146519 
L 159.376429 216.012653 
L 159.616966 216.09128 
L 159.857518 216.080181 
L 159.977786 216.274467 
L 160.218338 216.298348 
L 160.819709 216.681104 
L 161.180529 216.710219 
L 161.421067 216.611449 
L 162.022438 216.551895 
L 162.503527 216.21591 
L 162.744079 216.317237 
L 163.946808 215.88986 
L 165.149537 214.658708 
L 165.871177 214.626681 
L 166.231997 214.47939 
L 166.592817 214.404499 
L 166.953637 213.996414 
L 167.314457 213.833694 
L 167.555009 213.850449 
L 168.276649 213.988756 
L 168.998289 213.355732 
L 169.238827 213.112361 
L 169.35911 213.046943 
L 169.71993 213.356895 
L 170.201018 212.959839 
L 170.321287 212.913162 
L 170.44157 213.022628 
L 170.922659 212.783873 
L 171.283479 212.391535 
L 171.764567 212.206432 
L 172.365939 212.55235 
L 173.328131 211.461689 
L 173.688937 211.538859 
L 174.290308 211.061372 
L 174.53086 211.006768 
L 174.771397 210.794073 
L 176.575498 209.624174 
L 177.056601 209.528547 
L 177.176869 209.503348 
L 177.417421 209.303536 
L 177.657958 209.1655 
L 178.018778 208.808191 
L 178.98097 208.201117 
L 179.221507 208.119254 
L 179.943147 207.51749 
L 180.905339 206.840957 
L 181.145891 206.866447 
L 181.266159 206.822115 
L 181.867531 206.003817 
L 182.108068 206.041931 
L 182.228351 206.084328 
L 183.07026 205.275839 
L 183.310812 205.279043 
L 183.671617 204.809458 
L 184.032437 204.444964 
L 184.272989 204.466595 
L 184.633809 204.248566 
L 184.994629 203.911321 
L 185.355449 203.822412 
L 185.596001 203.616695 
L 185.836538 203.137593 
L 185.956821 203.141913 
L 186.197358 202.957231 
L 186.317641 203.006731 
L 186.79873 202.602914 
L 187.400102 202.213022 
L 187.640639 202.14411 
L 188.001459 201.842605 
L 188.24201 201.324461 
L 188.362279 201.256766 
L 188.963651 200.192156 
L 189.324471 200.163453 
L 189.80556 200.127576 
L 190.406931 199.880582 
L 190.5272 199.881386 
L 191.008288 199.502615 
L 191.369109 199.478517 
L 191.489392 199.523248 
L 192.090749 199.198327 
L 192.451569 198.996422 
L 192.812389 198.749597 
L 193.293492 198.592393 
L 194.015118 198.304982 
L 194.375938 198.084372 
L 194.736758 198.091187 
L 195.097578 197.846005 
L 195.578682 198.02808 
L 197.021962 196.728142 
L 197.142231 196.716968 
L 197.382782 196.860937 
L 199.186869 196.034564 
L 199.667972 195.980151 
L 199.908509 195.766317 
L 200.750432 194.932826 
L 200.870701 194.989448 
L 201.111252 194.781434 
L 201.592341 194.955343 
L 201.832892 194.850914 
L 202.193713 194.523873 
L 202.674801 194.291498 
L 202.915353 194.051707 
L 203.276173 194.045377 
L 203.396442 194.123231 
L 204.358619 193.561198 
L 205.080259 192.84019 
L 205.320811 192.824964 
L 205.561362 192.988408 
L 206.88436 192.616521 
L 207.606 191.945033 
L 208.087103 191.675824 
L 208.447923 191.446998 
L 208.568192 191.544187 
L 209.410101 191.008536 
L 209.770921 190.748673 
L 211.093933 189.30189 
L 211.69529 189.75477 
L 212.898033 188.805191 
L 213.379122 188.750188 
L 213.860211 188.548261 
L 214.100762 188.558385 
L 214.3413 188.552022 
L 215.06294 187.640732 
L 215.42376 187.254881 
L 216.1454 187.041655 
L 216.626503 187.08626 
L 216.86704 187.191045 
L 217.227861 187.252269 
L 217.348144 187.183244 
L 218.190052 187.729329 
L 218.550873 187.616856 
L 218.911693 187.305124 
L 219.15223 187.207446 
L 219.633333 187.108102 
L 220.114422 186.767945 
L 220.475242 186.948054 
L 220.59551 186.909568 
L 220.836062 187.056424 
L 221.196882 186.872187 
L 221.437434 186.702053 
L 221.798254 186.816219 
L 221.918522 186.894766 
L 222.399611 186.547826 
L 223.241534 184.68207 
L 223.842892 182.332008 
L 224.083443 181.923717 
L 224.203712 181.866199 
L 224.564532 182.37355 
L 224.925352 183.211247 
L 225.286172 183.546923 
L 225.526724 183.727818 
L 225.767261 184.000256 
L 226.248364 183.989655 
L 226.970004 183.939427 
L 227.330824 183.965887 
L 227.691644 183.93196 
L 227.932182 183.857414 
L 228.293002 183.72899 
L 228.413285 183.781014 
L 228.653822 183.749654 
L 228.894373 183.793643 
L 229.134911 183.770976 
L 229.856551 182.991732 
L 230.217371 182.351591 
L 230.337654 182.292297 
L 230.698503 182.428169 
L 230.818728 182.423935 
L 231.299918 181.916337 
L 231.901333 181.950086 
L 232.141928 181.554962 
L 232.743198 180.359138 
L 232.983793 180.239283 
L 233.825803 180.471893 
L 234.066398 180.737073 
L 234.788038 180.970896 
L 235.269228 180.485212 
L 235.750273 180.161816 
L 236.111094 179.966367 
L 236.832878 180.320701 
L 237.313923 180.281247 
L 237.554518 179.990677 
L 238.155933 178.566809 
L 238.396528 178.30806 
L 238.877574 177.770186 
L 239.118168 177.620622 
L 239.358763 177.5578 
L 239.599358 177.535637 
L 239.719583 177.572576 
L 239.839953 177.488027 
L 240.320998 178.053074 
L 240.561593 178.392513 
L 240.802188 178.458169 
L 240.922413 178.436558 
L 241.163008 178.556766 
L 241.403603 178.579782 
L 241.523828 178.640609 
L 241.764423 178.468201 
L 242.125243 178.562314 
L 242.606433 178.345159 
L 242.846884 178.146223 
L 244.410678 177.789607 
L 244.891724 177.307057 
L 245.132318 177.260037 
L 245.372913 177.297072 
L 245.853959 177.518679 
L 246.335148 177.604193 
L 246.936563 177.399996 
L 247.297384 177.240927 
L 248.139393 177.032856 
L 248.379844 177.066408 
L 248.740808 176.667469 
L 249.462449 175.039063 
L 249.703044 174.349828 
L 250.063864 173.990904 
L 250.184089 174.100549 
L 250.785504 173.624036 
L 251.026099 173.754491 
L 251.507288 174.339684 
L 253.070939 173.887254 
L 253.551984 174.097409 
L 254.033174 174.006961 
L 254.273769 174.123507 
L 254.875184 173.745294 
L 255.476599 174.293623 
L 255.596824 174.257994 
L 256.198239 173.431042 
L 256.799654 173.520156 
L 257.401069 172.735204 
L 257.882114 172.727633 
L 259.084944 172.331465 
L 259.325539 172.373658 
L 259.566134 172.220931 
L 260.047324 171.659086 
L 261.129784 171.392413 
L 261.370379 171.288037 
L 261.731199 171.307115 
L 261.971794 171.270365 
L 262.092019 171.258127 
L 262.332614 170.990439 
L 262.573209 170.672531 
L 262.813804 170.490065 
L 263.054254 170.529469 
L 263.294849 170.849431 
L 263.655669 170.617371 
L 263.896264 170.148559 
L 264.377454 169.733408 
L 264.617904 169.890324 
L 264.978869 170.092033 
L 265.219319 169.896481 
L 265.459914 169.682212 
L 267.384385 169.433786 
L 267.745349 169.082385 
L 267.865574 169.05409 
L 268.106169 169.236665 
L 268.587215 168.764385 
L 268.827809 168.595475 
L 269.308999 167.897946 
L 269.54945 167.488639 
L 270.030639 167.448515 
L 270.150865 167.441559 
L 270.872649 166.788797 
L 271.474064 166.996159 
L 271.714659 166.910297 
L 271.95511 166.941513 
L 272.316074 166.795997 
L 272.676894 166.265065 
L 272.917345 166.040501 
L 274.481139 166.951236 
L 274.841959 166.795407 
L 275.683825 166.998315 
L 275.92442 166.828457 
L 276.28524 166.023555 
L 276.886655 164.400894 
L 277.367845 163.514686 
L 277.608439 163.497958 
L 277.96926 163.782005 
L 278.450449 164.193532 
L 278.570675 164.235435 
L 278.6909 164.156101 
L 278.811269 164.214396 
L 279.05172 164.08054 
L 279.89373 164.480279 
L 280.37492 165.260924 
L 280.615514 165.322325 
L 281.337155 164.873661 
L 282.058795 165.133491 
L 282.29939 164.95124 
L 282.900805 164.910959 
L 283.86304 165.259005 
L 284.34423 164.838465 
L 284.945645 164.625583 
L 285.06587 164.548405 
L 285.306465 164.254103 
L 285.90788 163.9829 
L 286.388925 163.482685 
L 286.74989 163.547894 
L 286.99034 163.464674 
L 287.351305 163.003401 
L 287.83235 162.686773 
L 288.19317 162.127967 
L 289.396 162.326165 
L 289.997415 161.30143 
L 290.358235 161.576953 
L 290.59883 161.615826 
L 291.200245 160.992403 
L 291.44084 161.019421 
L 291.681435 161.046585 
L 292.763895 160.060795 
L 293.48568 159.17233 
L 293.72613 159.172896 
L 293.966725 159.294261 
L 294.086951 159.234642 
L 294.327545 158.739469 
L 294.56814 157.677268 
L 294.808735 155.815297 
L 295.04933 152.057313 
L 295.28978 144.745776 
L 295.650745 124.147486 
L 296.61298 55.033913 
L 296.853575 52.371215 
L 296.9738 53.884996 
L 297.33462 66.5072 
L 298.417225 111.507859 
L 298.778045 119.060277 
L 298.89827 119.658982 
L 299.01864 118.932574 
L 299.259091 112.453768 
L 299.620055 88.685806 
L 300.341695 28.0718 
L 300.58229 22.505358 
L 300.702515 23.804599 
L 300.94311 32.736323 
L 302.266166 102.583478 
L 302.626986 109.111369 
L 302.747355 109.619124 
L 302.867581 109.405472 
L 303.108175 106.764124 
L 303.468996 98.244878 
L 304.311005 74.56159 
L 304.431231 73.619295 
L 304.5516 73.733995 
L 304.792051 76.751691 
L 305.153015 87.322977 
L 306.355701 127.453909 
L 306.836891 136.078804 
L 307.31808 141.096974 
L 307.799126 144.181694 
L 308.641136 147.77343 
L 309.242551 149.233394 
L 309.843966 150.995591 
L 310.08456 151.056167 
L 310.325011 150.898633 
L 310.685975 149.811176 
L 310.926426 147.954931 
L 311.167021 144.367367 
L 311.648211 131.634943 
L 312.129256 118.510109 
L 312.369851 115.663007 
L 312.490076 115.390513 
L 312.610446 115.852349 
L 312.851041 118.064531 
L 313.332086 125.799893 
L 313.933501 135.411702 
L 314.414691 139.826398 
L 315.016106 143.743888 
L 315.376926 144.681437 
L 315.737746 144.896433 
L 315.857971 144.810705 
L 316.459386 143.717819 
L 316.699981 143.706747 
L 316.940576 143.988308 
L 317.421766 145.524007 
L 318.023181 147.475911 
L 319.105641 149.512879 
L 319.466461 150.071706 
L 319.827281 150.717304 
L 320.428696 151.000604 
L 320.549066 151.119205 
L 320.789661 151.072314 
L 321.030111 151.046139 
L 321.150481 151.074602 
L 321.631526 151.496203 
L 322.112716 151.429821 
L 322.593761 150.73894 
L 323.556141 148.520381 
L 323.796591 148.137715 
L 324.037186 147.899741 
L 324.758827 148.891403 
L 325.119791 149.672546 
L 325.480611 150.042726 
L 326.442846 150.52568 
L 327.164487 150.900197 
L 327.525451 151.815692 
L 327.765902 152.135555 
L 328.126722 151.963075 
L 328.487686 151.77633 
L 328.607911 151.629408 
L 328.728137 151.682971 
L 328.968732 151.575164 
L 330.532382 151.326427 
L 331.374391 151.79906 
L 331.494617 151.766665 
L 332.336627 152.461835 
L 332.577221 152.358472 
L 332.817816 152.281119 
L 333.058411 152.165907 
L 333.419231 152.319599 
L 333.659826 152.252416 
L 334.140872 151.303194 
L 334.501692 149.816289 
L 334.862512 147.255032 
L 335.584296 141.528215 
L 336.065342 140.019219 
L 336.305937 139.820265 
L 336.546532 140.226021 
L 337.027577 142.642069 
L 337.628992 145.868787 
L 338.591371 149.13123 
L 339.313012 150.863934 
L 339.673832 151.273575 
L 339.794201 151.349072 
L 340.275247 152.077162 
L 341.237482 152.724106 
L 341.478077 152.582704 
L 341.718672 152.709559 
L 342.079492 153.092671 
L 342.320087 153.089824 
L 342.560682 153.078141 
L 343.282322 153.454542 
L 343.522917 153.396326 
L 344.003962 153.233972 
L 344.485152 153.329731 
L 344.725747 153.358705 
L 345.327162 153.787664 
L 346.770442 153.625187 
L 347.011037 153.700008 
L 347.371857 153.496311 
L 347.853047 153.331311 
L 349.416697 153.525915 
L 349.657292 153.433577 
L 350.018112 153.644144 
L 350.258707 153.729836 
L 350.739752 153.514405 
L 350.860122 153.514047 
L 351.100572 153.655601 
L 351.341167 153.694361 
L 351.461537 153.727008 
L 351.581762 153.587431 
L 352.183177 153.888193 
L 352.423772 153.871608 
L 353.025187 154.425367 
L 353.626602 154.061799 
L 353.987422 154.164155 
L 354.709062 153.542905 
L 355.551072 153.969713 
L 355.791667 153.786525 
L 356.393082 153.785635 
L 356.753902 154.016813 
L 356.994497 154.109086 
L 357.234948 153.988372 
L 357.716137 154.349062 
L 358.076957 154.192844 
L 358.437778 153.785112 
L 359.039193 153.306884 
L 359.400013 153.15244 
L 360.001428 152.923582 
L 360.482617 152.560616 
L 360.723212 152.674773 
L 361.324627 153.106113 
L 361.685447 153.151006 
L 362.286862 153.31767 
L 362.767908 153.324603 
L 363.008503 153.370805 
L 363.489692 153.063548 
L 363.730287 153.072569 
L 364.091107 153.235694 
L 364.331702 153.355044 
L 364.692522 153.308855 
L 364.932973 153.194371 
L 365.534388 152.764082 
L 366.135803 153.229726 
L 366.496767 153.175858 
L 367.218408 153.705596 
L 367.459002 153.907047 
L 367.699453 154.03299 
L 367.940048 153.741226 
L 368.300868 153.142306 
L 368.541463 153.205083 
L 368.902283 153.714042 
L 369.263247 154.010912 
L 369.503698 153.931067 
L 370.345708 153.816784 
L 370.586303 154.079875 
L 370.947123 154.018789 
L 371.187718 153.764329 
L 371.428313 153.873511 
L 371.789133 153.824104 
L 372.029728 153.458826 
L 372.510773 153.387356 
L 372.871593 153.291533 
L 373.352783 152.74821 
L 373.473008 152.682587 
L 373.833828 152.795403 
L 374.074423 152.819401 
L 374.435243 152.619268 
L 375.517704 152.741151 
L 375.878524 152.690324 
L 375.998749 152.513837 
L 376.119119 152.560684 
L 376.600164 151.88947 
L 376.840615 151.508208 
L 377.44203 151.106582 
L 377.923075 150.945479 
L 378.40412 150.585046 
L 379.727031 151.108631 
L 380.087851 151.542336 
L 380.689122 151.828603 
L 381.290393 152.375639 
L 381.891808 152.694961 
L 382.613304 153.285445 
L 382.974124 153.502937 
L 383.575539 153.361709 
L 383.936215 153.520564 
L 384.176809 153.430242 
L 384.657855 153.516069 
L 385.1389 153.938929 
L 385.379495 153.878229 
L 385.86054 153.81528 
L 386.341586 154.053988 
L 386.582036 154.199398 
L 386.942857 154.524465 
L 387.183451 154.366183 
L 387.423902 154.059702 
L 388.265767 153.861606 
L 388.746813 154.396746 
L 388.867182 154.492769 
L 389.348228 154.080053 
L 389.588678 153.706385 
L 389.949499 153.630022 
L 390.791364 153.697851 
L 391.513004 153.620217 
L 392.2345 154.006166 
L 392.956141 153.729764 
L 393.316961 153.88345 
L 393.557411 153.806199 
L 394.038457 153.601659 
L 394.880322 154.032364 
L 395.241142 153.964118 
L 395.842413 154.192084 
L 396.564053 153.8294 
L 397.285693 154.11008 
L 397.526144 153.917179 
L 397.886964 153.573854 
L 398.127559 153.477265 
L 398.36801 153.656685 
L 398.608604 153.679255 
L 398.96928 153.714455 
L 399.3301 154.151284 
L 399.570695 154.178256 
L 400.051741 153.819471 
L 400.412561 154.015378 
L 400.653011 154.012624 
L 400.773381 153.871732 
L 401.615102 154.157552 
L 402.096292 153.841068 
L 402.456968 154.016644 
L 402.817788 154.265313 
L 402.938013 154.334438 
L 403.419203 153.912156 
L 403.659653 153.756029 
L 404.260924 153.867989 
L 404.862339 153.522989 
L 405.102789 153.345511 
L 405.343384 153.42389 
L 405.82443 154.178011 
L 406.065025 154.234159 
L 407.387935 153.664219 
L 407.868981 152.982618 
L 408.229657 152.332352 
L 408.470252 151.337481 
L 408.710846 149.708681 
L 409.191892 143.737284 
L 409.552568 135.766103 
L 410.033757 117.334431 
L 410.514803 87.791428 
L 410.995848 43.641319 
L 411.365638 -1 
M 419.67498 -1 
L 420.496675 37.926051 
L 421.338541 67.533914 
L 422.180406 88.933219 
L 422.902046 102.620181 
L 423.743912 115.408602 
L 424.706003 126.490923 
L 425.427643 131.81807 
L 426.149139 136.251758 
L 426.750554 138.80282 
L 427.11123 139.434816 
L 427.953095 140.790464 
L 428.19369 141.078718 
L 428.313915 141.112698 
L 428.55451 140.712482 
L 428.915186 139.996712 
L 429.396376 139.468085 
L 430.117872 138.496006 
L 430.478692 138.261209 
L 430.839512 137.982169 
L 431.079963 137.879197 
L 431.320557 138.044093 
L 431.561008 138.108084 
L 431.801603 138.325295 
L 432.763694 139.695345 
L 433.725784 142.502307 
L 434.086605 143.97636 
L 436.01093 147.877025 
L 436.371606 148.76837 
L 437.333841 150.186661 
L 437.574292 150.248594 
L 438.416157 151.351588 
L 439.498474 152.039097 
L 439.859294 152.427787 
L 440.099889 152.54996 
L 440.340339 152.317259 
L 440.701159 152.350087 
L 440.941754 152.737149 
L 441.78362 153.072565 
L 442.02407 153.121087 
L 442.144295 153.181221 
L 442.505116 152.993899 
L 442.865936 153.039078 
L 443.106531 153.300468 
L 443.346981 153.498192 
L 443.467206 153.543386 
L 443.948396 153.353877 
L 444.309072 153.276538 
L 444.790117 153.634126 
L 445.271307 153.935396 
L 445.752352 154.045428 
L 446.473848 153.330191 
L 446.834668 153.477712 
L 447.195489 153.951397 
L 447.435939 154.178082 
L 447.917129 153.938551 
L 448.398174 154.236751 
L 448.5184 154.209637 
L 448.999445 153.573101 
L 449.360265 153.988198 
L 449.600716 154.328715 
L 450.322356 154.193782 
L 450.562951 154.223272 
L 451.404672 154.137669 
L 451.885862 153.891225 
L 452.126312 153.900949 
L 452.487132 153.715005 
L 452.727583 153.80606 
L 453.088403 154.300952 
L 453.328998 154.096988 
L 453.689818 153.558674 
L 453.810043 153.592663 
L 454.291089 154.140595 
L 454.411314 154.183848 
L 454.651909 154.109757 
L 455.012729 154.044063 
L 455.373405 154.216172 
L 455.734225 154.241292 
L 455.97482 154.06297 
L 456.57609 153.797271 
L 456.816685 153.558855 
L 457.417956 153.836804 
L 457.658551 153.956442 
L 457.899001 154.31655 
L 458.139596 154.204519 
L 458.861092 153.451064 
L 458.981462 153.460858 
L 459.221912 153.684114 
L 460.063778 153.422928 
L 460.304373 153.438128 
L 460.665048 153.530712 
L 461.386689 153.759691 
L 461.867734 153.768401 
L 462.108329 153.804907 
L 462.348779 153.6983 
L 462.469149 153.785068 
L 462.7096 153.704063 
L 462.950194 153.845588 
L 463.190645 153.82591 
L 463.31087 153.933077 
L 464.633781 153.452864 
L 465.836467 153.916711 
L 465.956836 153.857061 
L 466.317512 153.957577 
L 466.558107 153.962367 
L 466.798558 153.743753 
L 467.399973 153.812687 
L 467.760793 153.636718 
L 468.482289 153.796074 
L 469.444379 153.987035 
L 469.8052 154.277429 
L 469.925569 154.252887 
L 470.16602 154.370726 
L 471.128111 154.39169 
L 471.488931 154.25742 
L 472.210571 153.994237 
L 472.932067 154.286461 
L 473.292887 154.258134 
L 473.653707 154.021474 
L 474.134753 153.932211 
L 474.615798 154.13706 
L 475.457663 153.62813 
L 475.938709 153.932724 
L 476.179304 154.096112 
L 476.540124 153.868658 
L 476.660349 153.775149 
L 476.9008 153.9436 
L 477.26162 154.304144 
L 478.825126 154.139162 
L 479.185946 154.194861 
L 479.787216 153.831302 
L 480.508857 154.055409 
L 480.869532 153.873258 
L 481.110127 153.886618 
L 481.470947 154.026959 
L 481.831768 154.053482 
L 482.433038 154.632918 
L 482.673489 154.45682 
L 482.914084 154.20844 
L 483.274904 153.930683 
L 484.35722 154.423357 
L 485.43968 154.24084 
L 486.642222 154.252582 
L 487.123411 153.92252 
L 487.484087 153.930629 
L 488.085502 154.601519 
L 488.446322 154.426505 
L 489.167818 153.607559 
L 490.129909 153.506147 
L 490.490729 153.786386 
L 491.45282 154.154678 
L 492.53528 153.499145 
L 492.775731 153.601478 
L 493.136551 153.749172 
L 493.256776 153.77928 
L 493.497371 153.635849 
L 493.858191 153.621665 
L 494.579687 153.960081 
L 495.181102 153.797757 
L 496.143193 154.086545 
L 496.864833 153.621779 
L 497.105284 153.753682 
L 497.466104 153.807948 
L 497.706699 153.782756 
L 497.947149 153.81327 
L 498.428195 154.009522 
L 498.668789 154.077378 
L 498.90924 154.064595 
L 499.27006 154.056883 
L 499.871331 153.726739 
L 500.232151 153.878624 
L 500.953791 154.140849 
L 501.194242 154.555397 
L 501.555062 154.574097 
L 501.795657 154.288153 
L 502.276702 154.324283 
L 502.998342 154.02436 
L 503.479388 154.392874 
L 503.960433 154.175797 
L 504.441479 153.836506 
L 504.681929 153.834133 
L 505.283344 154.417398 
L 505.523795 154.38503 
L 506.00484 154.201128 
L 506.846706 154.287887 
L 507.0873 154.420944 
L 507.327751 154.319747 
L 508.049391 153.57819 
L 508.410211 153.773934 
L 508.650662 153.899977 
L 509.252077 153.638793 
L 509.973573 154.19663 
L 510.334393 153.879925 
L 510.574988 153.754788 
L 511.056033 154.057153 
L 511.777529 153.835557 
L 512.619395 154.19023 
L 513.10044 153.95051 
L 513.341035 154.072718 
L 513.82208 154.060004 
L 514.062675 154.151342 
L 514.303126 154.142219 
L 514.543721 153.909738 
L 515.024766 153.634287 
L 515.265217 153.668102 
L 515.746262 154.278365 
L 515.986857 154.098474 
L 516.227452 153.850774 
L 516.828722 154.202456 
L 517.309768 153.993603 
L 517.550363 154.127281 
L 517.911038 154.13675 
L 518.151633 153.877755 
L 518.392228 153.782602 
L 518.993499 154.267788 
L 519.233949 154.192912 
L 519.835364 154.504559 
L 521.03805 154.04269 
L 521.398726 154.278202 
L 521.519095 154.220974 
L 522.000141 153.609401 
L 522.120366 153.664532 
L 522.601411 154.218705 
L 522.721637 154.287988 
L 522.962232 154.201754 
L 523.082457 154.220991 
L 523.443277 153.99041 
L 523.804097 154.095426 
L 524.044548 154.430068 
L 524.285143 154.337485 
L 524.525593 153.92707 
L 524.766188 153.727937 
L 525.006783 153.963582 
L 525.247233 154.196679 
L 525.487828 154.177037 
L 525.848504 153.838117 
L 526.449919 153.974365 
L 526.930964 154.06781 
L 527.171415 153.858543 
L 527.41201 153.583773 
L 528.374101 153.163801 
L 528.855146 153.728728 
L 529.336191 153.138498 
L 529.576786 153.536406 
L 529.817237 154.018485 
L 529.937606 154.032837 
L 530.178057 153.694671 
L 530.538877 153.178852 
L 530.779472 153.122465 
L 531.140148 153.003095 
L 531.741563 153.309831 
L 532.222608 153.041553 
L 532.703653 152.820039 
L 533.545519 153.10718 
L 533.78597 152.965677 
L 534.14679 153.0218 
L 534.387385 153.320378 
L 535.469701 152.958024 
L 535.59007 152.956541 
L 535.830521 152.792822 
L 536.071116 152.973829 
L 536.191341 152.91619 
L 536.431791 152.98903 
L 536.552161 152.771856 
L 536.792612 152.853268 
L 537.033206 152.744141 
L 537.153432 152.834915 
L 537.394027 152.65194 
L 537.514252 152.713497 
L 538.115522 152.274171 
L 538.476343 152.141995 
L 538.716937 152.053896 
L 539.197983 151.639419 
L 539.438433 151.640338 
L 540.039848 150.903764 
L 540.641119 151.38422 
L 540.761344 151.403635 
L 541.843805 150.530979 
L 542.204625 150.583042 
L 542.32485 150.516752 
L 542.68567 150.086208 
L 543.046346 149.957623 
L 543.527536 150.019887 
L 544.249032 150.423164 
L 544.489627 150.527621 
L 544.609852 150.459509 
L 545.571943 151.167576 
L 545.812538 151.26137 
L 546.413808 151.464599 
L 546.654403 151.616944 
L 546.774628 151.550755 
L 547.015079 151.605371 
L 547.255674 151.632724 
L 547.736719 152.080576 
L 548.097539 152.250284 
L 548.217764 152.115144 
L 548.578585 152.275415 
L 549.179855 152.948628 
L 549.901496 152.623897 
L 550.623136 153.447075 
L 550.983812 153.384521 
L 551.224406 153.123943 
L 551.465001 153.188051 
L 551.705452 153.043454 
L 552.306723 152.900775 
L 553.028363 153.537586 
L 553.268958 153.660791 
L 553.750003 153.248818 
L 553.870228 153.261173 
L 554.110823 153.580195 
L 554.351274 153.655461 
L 554.952544 153.433091 
L 555.553959 153.692139 
L 555.674185 153.729991 
L 556.275455 153.431297 
L 556.636275 153.588282 
L 556.87687 153.540328 
L 557.117321 153.485727 
L 557.718736 154.169587 
L 558.199781 153.744701 
L 558.320007 153.722401 
L 558.680827 153.990644 
L 558.921277 153.974526 
L 559.282097 153.96352 
L 559.883512 154.292163 
L 560.123963 154.40066 
L 560.244188 154.423506 
L 560.725378 153.949623 
L 560.965828 153.654296 
L 561.086054 153.617203 
L 561.567099 154.406362 
L 561.807694 154.628391 
L 562.048289 154.528487 
L 562.408965 154.054977 
L 563.130605 154.092774 
L 563.731875 154.627014 
L 564.33329 154.321427 
L 564.694111 154.640973 
L 565.054786 154.362596 
L 565.535832 154.055821 
L 566.137247 154.534889 
L 567.099338 153.987416 
L 567.339932 154.112245 
L 567.820978 154.360121 
L 568.061428 154.210203 
L 568.422249 153.999911 
L 569.023519 154.037953 
L 569.384339 153.975322 
L 569.745159 154.085004 
L 570.226205 153.970778 
L 570.587025 153.93165 
L 570.82762 154.114343 
L 570.947845 154.20577 
L 571.06807 154.133798 
L 571.188296 154.217081 
L 571.428891 154.169555 
L 572.030161 154.162718 
L 572.390981 153.928069 
L 572.751801 154.239199 
L 572.992252 154.254068 
L 573.232847 154.147705 
L 573.353072 154.155628 
L 573.834118 154.609194 
L 574.555758 154.23037 
L 574.916578 154.461083 
L 575.277398 154.435533 
L 575.998894 154.319733 
L 576.359714 153.990341 
L 576.720534 154.056019 
L 577.321805 153.795637 
L 577.5624 154.076368 
L 577.80285 154.415937 
L 578.16367 154.251679 
L 578.404265 153.974248 
L 578.765085 153.887089 
L 579.246131 154.13056 
L 579.486581 153.998335 
L 579.967627 153.510049 
L 580.208222 153.692717 
L 580.448672 153.983156 
L 580.569042 153.979543 
L 580.929718 153.64613 
L 581.290538 153.74199 
L 581.771583 154.001925 
L 582.132403 154.210515 
L 582.733818 154.142276 
L 583.094494 154.401432 
L 583.93636 154.219325 
L 584.176954 154.307136 
L 584.29718 154.23171 
L 584.537775 154.348222 
L 584.778225 154.334137 
L 585.01882 154.405267 
L 585.25927 154.247893 
L 585.620091 153.891446 
L 585.740316 153.786094 
L 586.221361 154.027765 
L 586.582181 154.380567 
L 586.943002 154.511448 
L 587.063227 154.531158 
L 587.544272 153.941783 
L 587.784867 153.685832 
L 588.145687 153.744179 
L 588.386138 153.885923 
L 589.588823 154.047371 
L 590.310464 154.583325 
L 590.671284 154.385452 
L 591.39278 153.974279 
L 591.633375 154.086495 
L 591.994195 154.548718 
L 592.11442 154.67371 
L 592.835916 154.461273 
L 593.196736 154.520739 
L 593.677781 154.457994 
L 594.038602 154.634031 
L 594.399422 154.293593 
L 594.519647 154.211872 
L 595.241287 154.536564 
L 595.481738 154.505849 
L 595.962927 154.315201 
L 596.203378 154.11865 
L 597.165469 154.209165 
L 597.406064 154.183645 
L 597.526289 154.23545 
L 597.766884 154.148271 
L 598.007334 154.099895 
L 598.368154 153.921028 
L 598.969425 154.128357 
L 599.691065 154.247637 
L 600.292336 153.907173 
L 600.532931 153.919738 
L 601.495022 154.347751 
L 601.615247 154.395586 
L 601.735617 154.292028 
L 602.096292 154.354858 
L 602.216662 154.243758 
L 602.336887 154.308977 
L 602.697707 154.072863 
L 603.298978 154.236497 
L 603.659798 154.165119 
L 604.501664 154.649083 
L 604.742114 154.694312 
L 605.463755 154.3116 
L 606.065025 154.431914 
L 607.02726 154.014883 
L 607.267711 153.760258 
L 607.387936 153.783503 
L 607.989351 154.6695 
L 608.229802 154.439718 
L 608.710847 153.923531 
L 609.673082 154.083582 
L 610.274353 154.293943 
L 610.755398 154.262476 
L 611.116218 154.207907 
L 611.356669 154.039036 
L 611.717489 153.712108 
L 612.078309 153.769805 
L 612.67958 154.38884 
L 613.40122 154.213484 
L 613.76204 154.427211 
L 614.48368 154.376856 
L 614.964726 154.389453 
L 615.325402 153.982619 
L 616.167267 154.277265 
L 616.528087 154.095389 
L 617.009133 153.992293 
L 617.490178 153.670546 
L 617.850998 153.78518 
L 618.211818 153.918765 
L 618.572639 154.131884 
L 619.053684 154.097491 
L 619.294134 154.058855 
L 619.534729 153.965098 
L 620.136 154.076927 
L 620.136 154.076927 
" clip-path="url(#pae14537977)" style="fill: none; stroke: #1f77b4; stroke-linecap: square"/>
   </g>
   <g id="line2d_17">
    <path d="M 86.13 246.173538 
L 86.971914 237.472818 
L 87.813828 231.353018 
L 88.054374 230.561897 
L 88.294921 230.451971 
L 88.655741 231.57659 
L 89.016561 233.802101 
L 89.858474 242.591036 
L 91.301753 261.178176 
L 92.023392 266.477068 
L 92.384212 268.186362 
L 92.745032 269.012922 
L 93.105852 269.439416 
L 93.226125 269.490841 
L 93.947764 268.981148 
L 94.188311 268.662332 
L 95.631591 267.050052 
L 96.834324 265.575215 
L 97.676237 264.900228 
L 98.15733 264.670648 
L 98.999242 264.318877 
L 99.239789 264.167657 
L 99.600609 264.152712 
L 99.841155 264.281481 
L 100.322248 264.253302 
L 101.404714 264.804939 
L 101.645251 264.832571 
L 102.006071 265.027104 
L 102.246623 264.993767 
L 102.48716 264.840105 
L 102.84798 264.737318 
L 102.968263 264.799678 
L 103.449352 264.394548 
L 103.930441 263.619194 
L 104.170992 263.583944 
L 104.531812 263.803418 
L 106.937285 261.856837 
L 107.057553 261.933901 
L 108.019745 261.4929 
L 108.500834 261.336384 
L 108.861654 261.066657 
L 109.102191 261.013351 
L 109.342743 260.780744 
L 109.823831 260.187796 
L 109.944114 260.166732 
L 110.545471 260.645071 
L 110.665754 260.568368 
L 110.786023 260.631774 
L 111.146843 260.334962 
L 111.267112 260.300043 
L 111.507663 260.102678 
L 112.109035 260.339793 
L 112.469855 259.93147 
L 113.071212 260.472946 
L 113.792853 260.422178 
L 114.514493 260.922554 
L 114.995582 261.143465 
L 115.717222 260.073267 
L 116.438862 260.176246 
L 116.919965 260.086393 
L 117.040234 259.987827 
L 117.160502 259.72327 
L 117.401054 258.242827 
L 117.641606 254.314696 
L 118.603783 233.069969 
L 118.724051 233.333705 
L 118.964603 235.497087 
L 119.926795 249.191056 
L 120.287615 258.784472 
L 121.490344 297.147918 
L 121.730896 300.656124 
L 121.971433 301.725737 
L 122.091716 301.38453 
L 122.332253 299.397022 
L 122.693073 293.332113 
L 124.016085 266.592104 
L 124.737725 258.472733 
L 125.339082 255.220072 
L 125.699903 254.226348 
L 125.940454 254.322682 
L 126.902646 256.70544 
L 127.263466 258.043734 
L 128.225643 262.489693 
L 128.466195 262.508582 
L 128.827015 262.582451 
L 129.668924 261.825011 
L 130.150013 260.138263 
L 131.232473 255.160307 
L 131.954113 252.568763 
L 132.314933 251.258846 
L 133.637945 244.899495 
L 134.119034 242.822897 
L 134.720406 240.104317 
L 135.442046 237.565527 
L 135.682583 236.420318 
L 136.043403 235.741084 
L 136.524506 235.636314 
L 136.765044 235.649976 
L 137.125864 235.794202 
L 137.967787 236.75782 
L 138.208324 236.815732 
L 138.689413 237.208362 
L 139.050233 237.308728 
L 139.771873 238.7579 
L 139.892156 238.86341 
L 140.252976 239.462285 
L 140.734065 239.946314 
L 141.215154 239.463865 
L 141.575974 239.021997 
L 141.816525 239.091579 
L 142.658434 239.68195 
L 143.139537 239.498286 
L 143.740895 239.054507 
L 144.221983 239.058328 
L 144.823355 238.349426 
L 144.943624 238.346364 
L 145.785547 236.88731 
L 146.627456 235.93316 
L 147.108544 235.069187 
L 147.469365 234.992497 
L 147.709916 235.060305 
L 148.070736 234.865409 
L 148.431556 234.414226 
L 148.792376 234.184863 
L 149.153197 234.022978 
L 150.235657 232.856683 
L 150.837014 233.053292 
L 151.077566 232.828879 
L 151.438386 232.302815 
L 151.799206 232.30612 
L 152.039758 232.292494 
L 152.520846 231.547412 
L 152.881666 231.017127 
L 153.483038 231.077107 
L 153.843844 230.463056 
L 154.445216 230.189267 
L 155.046587 229.536697 
L 155.527676 229.198956 
L 155.888496 228.595514 
L 156.008765 228.655599 
L 156.129048 228.560704 
L 156.369585 228.659096 
L 156.850688 228.016915 
L 156.970956 227.92623 
L 157.211508 227.917216 
L 157.692597 227.299594 
L 157.933148 226.863919 
L 158.293968 226.777211 
L 158.654789 226.911415 
L 159.015609 226.778915 
L 159.376429 226.480821 
L 159.977786 226.731956 
L 160.338606 226.544518 
L 160.819709 226.80407 
L 161.060246 226.954045 
L 161.421067 227.03959 
L 161.781887 226.726565 
L 162.022438 226.648322 
L 162.383258 226.95586 
L 162.98463 226.878673 
L 163.104899 226.894506 
L 163.465719 226.703044 
L 163.706256 226.657574 
L 163.946808 226.742933 
L 164.668448 226.364956 
L 165.390088 225.80251 
L 165.63064 225.725563 
L 166.231997 225.623601 
L 166.833369 224.765209 
L 167.194189 224.933912 
L 167.43474 224.91261 
L 167.555009 224.810391 
L 167.675277 224.901902 
L 168.276649 224.28497 
L 168.637469 224.270882 
L 168.757738 224.290134 
L 169.238827 224.010172 
L 169.840198 223.794583 
L 170.08075 223.670232 
L 170.321287 223.515512 
L 170.80239 222.884893 
L 171.16321 222.688002 
L 171.52403 222.784134 
L 171.88485 222.75164 
L 172.005119 222.825733 
L 172.245671 222.823927 
L 172.606491 222.723355 
L 172.726759 222.678798 
L 173.328131 221.854641 
L 173.688937 221.90265 
L 174.049757 221.981289 
L 174.651128 221.710684 
L 175.011949 222.071295 
L 175.132217 222.168357 
L 175.2525 222.117565 
L 175.853857 221.357145 
L 176.094409 221.112812 
L 176.334961 220.729835 
L 176.816049 220.639819 
L 177.176869 220.129962 
L 177.417421 219.71663 
L 177.778241 220.020233 
L 178.018778 220.255186 
L 178.860687 218.917637 
L 179.34179 219.284119 
L 179.462059 219.284781 
L 179.70261 218.82725 
L 180.303968 217.969444 
L 180.424251 217.810842 
L 180.664788 217.325372 
L 181.025608 217.246709 
L 181.145891 217.254291 
L 181.386428 216.885728 
L 181.62698 216.567748 
L 182.228351 216.892412 
L 182.829708 216.004913 
L 183.310812 215.643298 
L 183.551349 215.520474 
L 184.032437 215.004954 
L 184.633809 215.407177 
L 185.114898 214.598984 
L 185.71627 212.948718 
L 185.956821 212.717842 
L 186.678461 213.103696 
L 187.400102 212.045333 
L 187.640639 211.980085 
L 188.001459 211.772848 
L 188.24201 211.401169 
L 188.482548 210.967791 
L 188.843368 210.800857 
L 189.083919 210.978184 
L 189.444739 211.004939 
L 189.925828 210.206312 
L 190.16638 209.932325 
L 190.406931 209.859872 
L 190.647468 209.748005 
L 190.88802 209.498285 
L 191.128571 209.474415 
L 191.369109 209.585708 
L 192.090749 208.484184 
L 192.451569 208.425483 
L 192.692121 208.363136 
L 192.932672 208.291465 
L 193.413761 207.777371 
L 193.654298 207.669824 
L 194.015118 207.92251 
L 194.375938 208.355143 
L 194.857041 208.11216 
L 195.217861 207.513797 
L 195.458399 207.251222 
L 195.819219 207.124265 
L 195.939502 207.101406 
L 196.180039 206.950473 
L 196.540859 206.838145 
L 196.661142 206.912754 
L 196.901679 206.707192 
L 197.142231 206.540366 
L 197.262499 206.422943 
L 197.623319 206.786405 
L 197.863871 206.873818 
L 198.104423 206.560906 
L 198.465243 205.692622 
L 198.70578 205.355974 
L 198.946331 205.554212 
L 199.186869 205.441424 
L 199.42742 204.965139 
L 199.78824 204.364994 
L 200.389612 204.107489 
L 201.472072 204.24298 
L 201.712609 204.404234 
L 202.07343 203.971095 
L 202.313981 203.784874 
L 202.674801 204.067604 
L 202.79507 204.063983 
L 202.915353 203.932384 
L 203.276173 203.179123 
L 203.396442 202.98368 
L 203.87753 203.07763 
L 204.23835 203.394067 
L 204.478902 203.397713 
L 204.719439 202.860075 
L 205.200542 201.719052 
L 205.561362 201.591707 
L 205.922182 202.263755 
L 206.16272 202.59805 
L 206.283003 202.498776 
L 207.004643 200.694814 
L 207.24518 200.86062 
L 207.485732 201.341671 
L 207.726283 201.346385 
L 207.846552 201.239505 
L 208.447923 199.758501 
L 208.808729 199.77561 
L 209.049281 199.840381 
L 209.289832 199.767067 
L 209.650652 200.044163 
L 209.891189 200.296638 
L 210.011472 200.307009 
L 210.372293 199.781261 
L 210.733113 199.137834 
L 210.97365 199.178991 
L 211.454753 199.554254 
L 211.69529 199.439888 
L 211.935842 198.796571 
L 212.296662 198.161578 
L 212.41693 198.119844 
L 212.77775 198.465942 
L 213.018302 198.46112 
L 213.619674 197.564322 
L 213.860211 197.577287 
L 214.581851 197.223017 
L 214.942671 197.206005 
L 215.303491 197.080373 
L 215.42376 197.170387 
L 215.664312 197.060377 
L 216.025132 196.786625 
L 216.265683 196.746239 
L 216.626503 196.603136 
L 217.227861 196.387615 
L 217.468412 196.244429 
L 218.069784 195.677664 
L 218.550873 196.105253 
L 218.671141 196.042221 
L 219.031961 195.153167 
L 219.272513 194.866135 
L 219.753602 195.442583 
L 219.994153 195.463268 
L 220.23469 195.431177 
L 220.95633 195.068842 
L 221.196882 194.881043 
L 221.317151 195.033484 
L 221.918522 194.722524 
L 222.399611 194.458956 
L 222.640163 194.183999 
L 223.000983 193.598877 
L 223.121251 193.566387 
L 223.482071 193.836197 
L 223.722623 193.908618 
L 224.083443 193.654197 
L 224.6848 192.648424 
L 224.925352 192.838445 
L 225.165903 193.231569 
L 225.406441 193.354588 
L 226.007812 192.920117 
L 226.248364 193.13053 
L 226.609184 192.889261 
L 226.970004 192.216123 
L 227.330824 191.770908 
L 227.691644 191.954932 
L 228.172733 192.83809 
L 228.293002 192.935889 
L 228.533553 192.70153 
L 228.774105 192.22944 
L 229.014642 191.807628 
L 229.255194 191.835239 
L 229.495731 191.942508 
L 229.616014 191.931541 
L 229.736282 191.788354 
L 230.097102 190.969417 
L 230.337654 190.628887 
L 230.578133 190.711577 
L 231.059323 190.729886 
L 231.420143 190.697093 
L 231.901333 190.474702 
L 232.141928 190.409138 
L 232.502748 190.17029 
L 233.104163 190.413578 
L 233.585208 189.654893 
L 233.705578 189.628985 
L 234.066398 189.814431 
L 234.186623 189.879583 
L 234.788038 188.678313 
L 235.389453 189.039014 
L 237.073473 187.985949 
L 237.554518 187.618924 
L 237.915338 187.687874 
L 238.516753 187.039797 
L 238.757348 187.409332 
L 239.118168 187.167112 
L 239.478989 186.764237 
L 239.839953 186.64252 
L 240.200773 186.684523 
L 240.561593 187.065808 
L 240.802188 187.024921 
L 242.125243 185.939219 
L 242.606433 186.070509 
L 242.726658 186.033087 
L 243.087479 185.396851 
L 243.328073 185.202634 
L 243.809263 185.904354 
L 244.170083 186.48843 
L 244.410678 186.452103 
L 244.651129 185.971279 
L 245.011949 185.086846 
L 245.252544 185.012883 
L 245.853959 185.481702 
L 246.335148 184.660966 
L 246.695969 183.918392 
L 247.056789 183.653186 
L 247.658204 183.345535 
L 248.019024 183.686408 
L 248.259619 184.253222 
L 248.500214 184.343359 
L 248.740808 184.014372 
L 249.101629 183.484064 
L 249.582674 183.411941 
L 249.823269 183.329137 
L 249.943638 183.143852 
L 250.424684 183.267406 
L 250.545053 183.385057 
L 250.785504 183.229183 
L 251.026099 182.997532 
L 251.266694 182.898001 
L 251.627514 183.233592 
L 251.868109 183.297827 
L 252.589749 182.495453 
L 253.191164 181.94672 
L 253.431759 181.789981 
L 253.672354 181.824723 
L 253.912948 182.028706 
L 254.514219 181.791595 
L 254.754814 181.873098 
L 254.995409 181.569577 
L 255.356229 180.928251 
L 255.957644 181.130534 
L 256.438834 180.503906 
L 257.040249 180.507834 
L 257.160474 180.429925 
L 257.280699 180.49915 
L 258.243079 179.648827 
L 258.964719 180.152541 
L 259.205314 179.770473 
L 259.445909 179.4698 
L 260.047324 178.615587 
L 261.129784 178.120637 
L 261.370379 178.115841 
L 261.851424 177.815229 
L 262.212389 178.014691 
L 262.452839 177.876939 
L 262.813804 177.588844 
L 263.054254 177.482269 
L 263.535444 177.220736 
L 264.497679 177.236579 
L 264.738274 177.492068 
L 264.978869 177.436303 
L 265.580284 176.759815 
L 266.301924 176.98309 
L 266.903339 176.473207 
L 267.143934 176.428893 
L 267.264159 176.482989 
L 267.624979 176.319622 
L 268.106169 176.320759 
L 268.707584 176.468598 
L 268.827809 176.412632 
L 269.068404 176.064893 
L 269.429224 176.151835 
L 269.669819 176.44015 
L 269.790045 176.442586 
L 270.872649 175.482868 
L 271.113244 175.560621 
L 271.474064 175.451533 
L 272.075479 175.519376 
L 272.676894 174.881375 
L 273.037714 174.704936 
L 273.398534 174.47783 
L 273.879724 174.64324 
L 273.999949 174.600926 
L 274.72159 173.635015 
L 275.323005 173.699601 
L 276.165015 173.38495 
L 276.525835 173.377579 
L 276.886655 173.119852 
L 277.12725 172.715434 
L 277.96926 172.601318 
L 278.089485 172.429708 
L 278.33008 172.514199 
L 279.05172 171.657213 
L 279.412684 171.905019 
L 279.653135 171.960833 
L 280.37492 171.824875 
L 281.09656 171.923812 
L 281.337155 172.195114 
L 281.93857 172.482321 
L 282.419615 172.505338 
L 282.66021 172.375828 
L 283.381995 171.652941 
L 283.742815 171.542912 
L 283.98341 171.526421 
L 284.34423 171.233378 
L 284.584825 170.871837 
L 284.945645 170.588504 
L 285.42669 170.845243 
L 285.54706 170.870959 
L 285.90788 170.478569 
L 286.2687 170.032311 
L 286.870115 169.815529 
L 287.351305 169.332379 
L 287.83235 169.514861 
L 288.433765 168.585377 
L 289.75682 168.649948 
L 290.478605 167.956626 
L 290.59883 167.987681 
L 290.839425 167.806034 
L 291.44084 167.814907 
L 291.681435 167.729789 
L 291.921885 167.765253 
L 292.16248 167.657928 
L 292.884265 167.073274 
L 293.8465 167.394421 
L 294.20732 167.382135 
L 294.447915 167.42494 
L 294.808735 167.353239 
L 295.41015 166.528974 
L 296.011565 166.318271 
L 296.61298 166.253113 
L 297.214395 165.87891 
L 297.81581 166.22455 
L 298.17663 165.989678 
L 298.417225 165.721342 
L 298.778045 165.59352 
L 298.89827 165.660224 
L 299.860506 165.174367 
L 300.461921 164.973954 
L 300.702515 164.775787 
L 301.063336 164.576648 
L 301.30393 164.553884 
L 301.664751 164.693498 
L 301.905345 164.780892 
L 302.14594 164.718689 
L 302.50676 164.332046 
L 302.747355 164.358774 
L 303.108175 164.525207 
L 303.34877 164.396359 
L 304.070411 163.951357 
L 304.311005 163.927667 
L 304.431231 164.027668 
L 305.032646 163.614579 
L 305.513835 163.670581 
L 306.355701 163.12048 
L 306.716665 162.73052 
L 306.957116 162.668407 
L 307.438306 162.9251 
L 307.678901 162.679193 
L 308.159946 162.026788 
L 309.001956 162.195462 
L 309.362776 161.95828 
L 309.483145 161.950939 
L 309.723596 161.746773 
L 310.325011 161.203589 
L 310.685975 161.205925 
L 310.926426 161.292328 
L 311.407616 161.233947 
L 311.648211 161.101119 
L 311.888805 160.96563 
L 312.369851 160.914733 
L 312.730671 160.693614 
L 313.332086 160.395402 
L 313.572681 160.340543 
L 313.692906 160.358967 
L 314.053871 160.639515 
L 314.534916 160.614985 
L 314.775511 160.737056 
L 315.376926 160.95718 
L 315.857971 160.271281 
L 315.978341 160.227007 
L 316.459386 160.578656 
L 317.181171 160.372457 
L 317.421766 160.25649 
L 318.624451 160.529198 
L 319.105641 160.27146 
L 319.586831 160.369905 
L 320.067876 160.244242 
L 320.308471 160.070445 
L 320.669291 160.010548 
L 321.150481 160.486058 
L 321.391076 160.555607 
L 321.751896 160.63116 
L 321.992346 160.725309 
L 322.954726 160.166327 
L 323.074951 160.323736 
L 323.315546 160.222964 
L 323.556141 160.339536 
L 323.796591 160.109817 
L 323.916961 160.111522 
L 324.518376 158.980975 
L 324.999421 157.698866 
L 325.841431 156.700046 
L 325.961657 156.796228 
L 326.442846 157.562131 
L 327.645676 158.944269 
L 328.006496 159.529733 
L 328.367317 159.681144 
L 328.487686 159.73834 
L 328.848506 160.134803 
L 329.089101 160.189794 
L 329.329552 159.939377 
L 329.690516 159.855389 
L 329.930967 159.979819 
L 330.532382 160.120441 
L 330.893202 160.076181 
L 331.254166 160.338933 
L 331.494617 160.374391 
L 331.855581 160.156872 
L 332.096032 160.344197 
L 332.336627 160.56265 
L 333.178636 160.697971 
L 333.298862 160.556585 
L 333.539457 160.597732 
L 333.780051 160.668445 
L 333.900277 160.833506 
L 334.622061 160.549736 
L 334.982881 160.638781 
L 335.463927 160.885626 
L 335.704522 160.805145 
L 336.666757 159.896544 
L 337.027577 159.434577 
L 337.268172 159.289409 
L 338.831822 159.976534 
L 339.192786 159.806849 
L 339.553607 160.004106 
L 339.914427 160.394605 
L 340.155022 160.548205 
L 340.395472 160.386222 
L 340.515842 160.449336 
L 341.598302 159.887393 
L 341.959267 160.012855 
L 342.801132 160.681891 
L 342.921502 160.763115 
L 343.522917 160.286544 
L 344.003962 160.547558 
L 344.364782 160.58317 
L 344.966197 160.564846 
L 345.327162 160.667147 
L 345.928577 160.675385 
L 346.169027 160.748758 
L 346.409622 160.709228 
L 346.650217 160.632833 
L 347.251632 160.157921 
L 348.213867 160.69473 
L 348.334092 160.596266 
L 348.695057 160.700237 
L 348.815282 160.635768 
L 348.935507 160.804538 
L 349.176102 160.67747 
L 349.416697 160.880975 
L 349.657292 160.758699 
L 349.897742 160.605582 
L 350.138337 160.330663 
L 350.378932 160.287919 
L 351.461537 160.577933 
L 352.062952 160.526428 
L 352.784592 160.740559 
L 353.626602 160.356413 
L 353.987422 160.084255 
L 354.228017 160.11436 
L 354.709062 160.530941 
L 355.190252 160.296833 
L 355.671297 160.485427 
L 356.152487 160.184092 
L 356.393082 160.340799 
L 356.753902 160.737691 
L 356.874127 160.752985 
L 357.595912 160.20101 
L 358.317552 160.476791 
L 358.918967 160.054115 
L 359.159562 160.070773 
L 359.640608 160.357919 
L 360.001428 160.386515 
L 360.362392 160.25258 
L 360.482617 160.053908 
L 360.723212 160.110326 
L 360.963807 160.104626 
L 361.805673 160.911434 
L 362.046268 160.586768 
L 362.527457 160.01465 
L 363.008503 160.370324 
L 363.970738 160.311222 
L 364.572153 160.53829 
L 364.812748 160.615281 
L 365.414163 160.570614 
L 365.895352 160.2699 
L 366.135803 160.052731 
L 366.496767 160.073327 
L 366.737218 160.215554 
L 367.459002 160.792121 
L 367.699453 160.629969 
L 368.060417 160.161342 
L 368.300868 160.241629 
L 368.541463 160.570235 
L 368.902283 160.653825 
L 369.383473 160.279837 
L 369.624068 160.283315 
L 369.864662 160.29787 
L 370.105113 160.348947 
L 370.586303 160.21897 
L 370.826898 160.316766 
L 371.187718 160.232356 
L 371.307943 160.059029 
L 371.789133 160.19938 
L 372.029728 160.330887 
L 372.510773 160.381769 
L 372.751368 160.152163 
L 372.871593 160.05016 
L 373.112188 159.739364 
L 373.352783 159.915386 
L 373.833828 160.258492 
L 374.194793 159.929151 
L 374.315018 159.787433 
L 375.397478 160.389788 
L 375.758298 160.500264 
L 375.998749 160.712661 
L 376.359569 160.6601 
L 376.720389 160.175691 
L 376.960984 160.086369 
L 377.32166 160.383547 
L 377.68248 160.565917 
L 378.163525 160.35759 
L 378.885166 160.499673 
L 379.125616 160.473874 
L 379.245986 160.499468 
L 379.727031 160.198996 
L 380.448527 160.085993 
L 380.568897 160.002146 
L 380.689122 160.058172 
L 381.170167 160.669825 
L 381.530988 160.299715 
L 381.891808 159.871274 
L 382.132258 159.874283 
L 382.493078 160.204009 
L 382.853899 160.356934 
L 383.214719 160.207384 
L 383.455169 159.926662 
L 383.695764 159.975747 
L 384.176809 160.507937 
L 384.297035 160.503747 
L 384.657855 160.239207 
L 384.89845 160.118744 
L 385.1389 160.172186 
L 385.740171 160.500517 
L 386.100991 160.189531 
L 386.341586 160.109269 
L 386.461811 160.204931 
L 386.582036 160.095546 
L 386.822631 160.248627 
L 387.063082 160.095685 
L 387.183451 160.213661 
L 387.544272 160.0561 
L 387.784722 159.87517 
L 388.145542 159.730205 
L 388.506362 159.867899 
L 388.746813 160.028589 
L 389.708904 160.141422 
L 390.069724 160.023657 
L 390.791364 159.402485 
L 391.753455 160.244669 
L 391.99405 160.117942 
L 392.475095 159.395808 
L 392.715546 159.393926 
L 394.279051 159.965772 
L 394.760097 159.9704 
L 395.000547 160.207922 
L 395.361368 159.921759 
L 395.601962 159.597854 
L 395.842413 159.60035 
L 396.203233 160.02468 
L 396.443828 160.151012 
L 397.165324 159.997643 
L 397.405919 159.795729 
L 398.849055 159.675875 
L 399.209875 159.39579 
L 399.45047 159.37601 
L 399.931515 159.318858 
L 400.292191 159.536389 
L 400.653011 159.494996 
L 400.773381 159.437683 
L 401.134057 159.639988 
L 401.254426 159.643208 
L 401.615102 159.922509 
L 401.855697 160.099472 
L 402.577337 159.323814 
L 402.697562 159.31776 
L 403.178608 160.114642 
L 403.298833 160.204717 
L 403.659653 160.047445 
L 404.020473 159.457266 
L 404.260924 159.111404 
L 405.223159 159.745997 
L 405.82443 159.581042 
L 406.065025 159.54393 
L 406.54607 159.324252 
L 407.027115 159.35356 
L 407.267566 159.364185 
L 407.628386 159.495607 
L 408.109431 159.372934 
L 408.229657 159.403287 
L 408.590477 159.701175 
L 408.951297 159.484517 
L 409.191892 159.278773 
L 410.274208 159.437231 
L 410.514803 159.559372 
L 410.875479 159.437283 
L 411.236299 159.221223 
L 413.521445 159.481166 
L 414.00249 159.777645 
L 414.242941 159.705742 
L 414.603761 159.166868 
L 414.844356 158.981718 
L 415.205031 159.36283 
L 415.565852 159.441811 
L 415.686077 159.396814 
L 416.046897 159.540608 
L 416.527942 159.539788 
L 416.768537 159.363871 
L 417.129357 158.967823 
L 417.730628 159.344772 
L 418.091448 159.007973 
L 418.331899 158.994825 
L 418.933314 159.34445 
L 419.173764 159.415834 
L 419.65481 159.145193 
L 419.895404 159.078589 
L 420.135999 159.129983 
L 420.37645 159.150322 
L 420.617045 159.197781 
L 421.45891 159.252915 
L 422.060181 158.781862 
L 422.180406 158.86938 
L 422.421001 158.807424 
L 422.661452 158.799803 
L 422.781821 158.589477 
L 423.262867 158.841818 
L 423.503317 159.165183 
L 423.743912 159.222354 
L 424.104732 159.209344 
L 424.706003 159.146768 
L 425.427643 158.247643 
L 425.547868 158.458753 
L 425.668094 158.360511 
L 426.028914 158.566445 
L 426.149139 158.453245 
L 426.389734 158.684791 
L 427.83287 158.565758 
L 428.19369 158.704471 
L 428.674736 158.337161 
L 428.794961 158.302154 
L 429.276006 158.795389 
L 429.636826 158.789328 
L 429.997647 158.711082 
L 430.598917 158.771739 
L 431.200332 158.840274 
L 431.681378 158.44719 
L 432.643468 158.692401 
L 432.883919 158.466972 
L 433.605559 158.571319 
L 433.846154 158.765503 
L 434.447425 158.366387 
L 434.808245 158.621102 
L 435.65011 158.337753 
L 435.890561 158.269018 
L 436.251381 158.074373 
L 436.491976 158.235926 
L 437.093247 158.827388 
L 437.333841 158.739521 
L 437.935112 158.060007 
L 438.175563 158.055189 
L 438.656752 158.434451 
L 439.258023 158.573962 
L 439.498474 158.61338 
L 440.099889 158.166669 
L 440.460709 158.278146 
L 440.941754 158.435932 
L 441.422799 158.226466 
L 441.903845 157.831436 
L 442.144295 157.930878 
L 442.625485 158.261205 
L 443.226756 157.950279 
L 443.828026 158.177217 
L 444.429441 158.207519 
L 445.030712 157.917776 
L 445.271307 158.080051 
L 445.511758 158.37479 
L 445.992803 158.574552 
L 446.233398 158.625313 
L 446.834668 158.288643 
L 447.195489 158.264346 
L 447.676534 158.27299 
L 448.037354 158.082049 
L 448.398174 158.08206 
L 448.87922 158.504459 
L 449.11967 158.388877 
L 449.360265 158.231691 
L 449.600716 158.003814 
L 450.202131 158.454925 
L 450.562951 158.066821 
L 450.923626 157.924842 
L 451.645267 158.14953 
L 451.885862 158.24048 
L 452.126312 158.159122 
L 452.607358 157.781048 
L 452.968178 157.888865 
L 453.208773 158.03705 
L 453.810043 157.976219 
L 454.291089 157.936355 
L 454.531683 157.87433 
L 454.892359 157.904945 
L 455.373405 158.450243 
L 455.493774 158.602723 
L 456.095045 158.127072 
L 456.33564 158.139607 
L 456.696316 157.897858 
L 456.93691 157.903282 
L 457.297731 158.220682 
L 457.538181 158.031681 
L 457.899001 157.52655 
L 458.259821 157.790146 
L 458.500416 158.026885 
L 458.861092 158.056731 
L 459.221912 158.211966 
L 459.702958 158.511572 
L 459.823327 158.540741 
L 460.665048 157.714938 
L 461.025869 157.898977 
L 461.266463 157.896513 
L 461.506914 157.659501 
L 461.747509 157.658099 
L 462.228554 158.182335 
L 462.348779 158.228768 
L 462.829825 157.818455 
L 463.07042 157.615499 
L 463.551465 157.701703 
L 463.79206 157.874743 
L 464.032511 157.846578 
L 464.393331 157.884971 
L 464.513556 157.99339 
L 464.994601 157.700684 
L 465.114971 157.574807 
L 465.716242 157.828265 
L 466.077062 157.583597 
L 466.798558 158.105263 
L 467.520198 157.938275 
L 467.760793 158.005095 
L 468.001243 157.607513 
L 468.362063 157.525321 
L 468.722884 158.114137 
L 468.963334 158.265884 
L 469.324154 158.186987 
L 469.684974 158.185214 
L 469.925569 158.399228 
L 470.16602 158.422151 
L 470.76729 157.873887 
L 471.24848 157.695515 
L 471.609156 157.435683 
L 472.090201 157.604776 
L 472.571391 158.31629 
L 472.932067 158.147945 
L 473.413112 157.569453 
L 473.653707 157.614658 
L 473.894302 157.733448 
L 474.375347 157.706365 
L 474.976618 157.87682 
L 475.457663 157.777659 
L 475.938709 158.064704 
L 476.419754 158.225828 
L 476.660349 158.366313 
L 477.141395 157.946374 
L 477.26162 157.870142 
L 477.62244 157.953475 
L 477.98326 157.753704 
L 478.223711 157.646617 
L 479.065576 157.85478 
L 479.426396 157.762192 
L 480.508857 157.995527 
L 480.989902 158.203838 
L 481.350578 158.422884 
L 481.591173 158.583647 
L 481.831768 158.425336 
L 482.192443 157.926245 
L 482.433038 157.692771 
L 482.673489 157.726964 
L 482.914084 157.665397 
L 483.154678 157.662507 
L 483.395129 157.607845 
L 483.635724 157.682601 
L 484.236995 157.871245 
L 485.07886 157.858025 
L 485.8005 157.579196 
L 486.281546 157.300535 
L 486.521996 157.539573 
L 486.762591 157.765725 
L 487.003042 157.760433 
L 487.363862 157.537198 
L 487.604457 157.630783 
L 487.965132 157.898248 
L 488.205727 157.843321 
L 488.686773 157.594108 
L 489.288043 157.973281 
L 489.648864 157.659339 
L 489.889458 157.711286 
L 490.129909 158.069829 
L 490.370504 158.195529 
L 490.731324 157.983648 
L 490.971774 157.889423 
L 491.092144 158.053873 
L 491.573189 157.720324 
L 491.81364 157.407544 
L 492.054235 157.371194 
L 492.415055 157.489347 
L 492.8961 157.792718 
L 493.256776 157.617637 
L 493.497371 157.470035 
L 494.098642 157.919057 
L 494.820282 157.798094 
L 495.181102 157.541222 
L 495.541922 157.384108 
L 495.902598 157.175514 
L 496.263418 157.477375 
L 496.504013 157.861889 
L 496.985058 157.89578 
L 497.345879 157.549484 
L 497.586329 157.535012 
L 497.947149 157.987003 
L 498.187744 158.027695 
L 498.54842 157.653546 
L 498.90924 157.507641 
L 499.390285 157.56316 
L 499.751106 157.873227 
L 499.9917 157.929694 
L 500.352521 157.518341 
L 500.592971 157.434339 
L 501.434837 158.069238 
L 502.156477 157.889489 
L 502.396927 157.791867 
L 502.757748 157.839391 
L 502.998342 157.748131 
L 503.238793 157.614717 
L 503.599613 157.448345 
L 503.840064 157.500296 
L 503.960433 157.468858 
L 504.200884 157.618957 
L 504.441479 157.556895 
L 504.561704 157.779265 
L 504.802299 157.768025 
L 505.042749 157.777727 
L 505.162975 157.606522 
L 505.283344 157.666947 
L 505.523795 157.552838 
L 505.884615 157.468257 
L 506.36566 157.753057 
L 506.606255 157.77531 
L 506.967075 157.702957 
L 507.929166 157.37971 
L 508.891257 157.771009 
L 509.973573 157.586292 
L 510.214168 157.150975 
L 510.334393 157.099876 
L 510.574988 156.843984 
L 510.815438 157.202847 
L 511.296484 157.810688 
L 511.537079 157.605107 
L 511.897899 157.610775 
L 512.018124 157.757052 
L 512.619395 157.555173 
L 512.980215 157.72323 
L 513.341035 157.496338 
L 513.58163 157.434796 
L 513.82208 157.620519 
L 514.182901 157.643564 
L 514.423351 157.577092 
L 514.784171 157.588196 
L 515.024766 157.420377 
L 515.385586 157.136858 
L 515.626037 157.167076 
L 515.866632 157.459194 
L 515.986857 157.471679 
L 516.227452 157.656625 
L 516.467902 157.700759 
L 516.588127 157.784343 
L 516.708497 157.674626 
L 516.948948 157.706647 
L 517.189542 157.612007 
L 517.309768 157.758349 
L 517.550363 157.67953 
L 518.392228 157.358756 
L 518.873274 157.511264 
L 519.113724 157.648156 
L 519.715139 157.480241 
L 520.075815 157.524473 
L 520.196184 157.539436 
L 520.797455 157.074402 
L 520.91768 157.130604 
L 521.158275 157.521917 
L 521.879771 157.922312 
L 522.601411 157.150112 
L 523.202682 157.504341 
L 523.563502 157.297853 
L 523.683872 157.225615 
L 523.924322 157.480025 
L 524.044548 157.520859 
L 524.405368 157.312977 
L 525.127008 157.359757 
L 525.608053 156.960876 
L 526.089099 156.855858 
L 526.570144 157.341902 
L 526.810739 157.563527 
L 527.291785 157.436376 
L 527.532235 157.46678 
L 527.77283 157.439326 
L 528.13365 157.507852 
L 528.374101 157.470215 
L 528.734921 157.230623 
L 529.095741 157.350407 
L 529.336191 157.462909 
L 529.576786 157.374724 
L 529.817237 157.242566 
L 530.178057 157.376743 
L 530.418652 157.464082 
L 530.659102 157.550004 
L 531.140148 157.272368 
L 531.380743 157.128331 
L 531.621337 157.12245 
L 532.222608 157.490482 
L 532.342833 157.480206 
L 532.823879 156.996689 
L 533.665744 156.654988 
L 534.026564 156.816638 
L 534.267159 157.198955 
L 534.627835 157.394901 
L 535.830521 157.052902 
L 536.431791 157.358893 
L 537.033206 157.111931 
L 538.115522 157.520949 
L 538.596568 157.158759 
L 538.716937 157.026021 
L 539.318208 157.1565 
L 539.558803 156.986649 
L 539.799254 157.096891 
L 540.280299 157.256449 
L 540.520894 157.151854 
L 541.843805 157.068102 
L 542.204625 157.234121 
L 543.166716 156.970089 
L 543.407166 156.769228 
L 543.767986 156.90216 
L 544.008581 157.07561 
L 544.249032 157.103471 
L 544.609852 156.974582 
L 544.850447 156.778501 
L 545.331492 156.849393 
L 545.812538 157.085964 
L 546.052988 157.02015 
L 546.413808 157.26201 
L 546.654403 157.467175 
L 546.894854 157.467374 
L 547.255674 157.050725 
L 547.616494 156.955467 
L 547.977314 157.077687 
L 548.939405 157.366909 
L 549.05963 157.394957 
L 549.300225 157.155697 
L 549.660901 157.216235 
L 549.901496 157.334113 
L 550.262316 157.070881 
L 550.502766 157.007739 
L 550.743361 157.237321 
L 551.104181 157.034802 
L 551.465001 156.924212 
L 551.585227 156.923024 
L 552.066272 156.573984 
L 552.186497 156.541532 
L 552.667543 156.914217 
L 552.787912 156.993112 
L 553.028363 156.799016 
L 553.389183 156.770681 
L 553.870228 157.315193 
L 554.231048 157.339503 
L 554.712094 157.217748 
L 555.072914 157.140468 
L 555.313365 157.162719 
L 555.553959 157.209054 
L 555.91478 157.055706 
L 556.51605 156.908023 
L 556.756645 157.059609 
L 557.23769 157.292536 
L 558.199781 156.591563 
L 558.440232 156.732992 
L 558.680827 156.805578 
L 558.921277 156.90004 
L 559.522692 156.946967 
L 560.003738 156.733017 
L 560.244188 156.955983 
L 560.484783 157.272163 
L 560.725378 157.391619 
L 561.446874 156.611587 
L 562.288739 156.862566 
L 562.529334 156.837599 
L 562.769785 156.92251 
L 563.01038 157.138543 
L 563.25083 157.112975 
L 563.491425 157.065394 
L 564.212921 157.088139 
L 564.33329 157.006418 
L 564.573741 156.676313 
L 565.054786 156.771408 
L 565.295381 156.944186 
L 565.656201 156.985219 
L 566.137247 157.192307 
L 566.257472 157.326636 
L 567.820978 156.692485 
L 568.061428 156.464358 
L 568.181654 156.461725 
L 568.783069 157.04498 
L 568.903294 156.981262 
L 569.504565 157.284853 
L 569.745159 157.201965 
L 570.34643 156.438542 
L 570.587025 156.464235 
L 571.428891 156.66778 
L 571.669341 156.518035 
L 572.030161 156.045049 
L 572.150531 156.01758 
L 572.390981 156.394163 
L 572.631576 156.713779 
L 572.751801 156.80498 
L 572.992252 156.518625 
L 573.353072 156.09299 
L 573.954487 156.547427 
L 574.194938 156.334884 
L 574.555758 156.132141 
L 574.796353 156.33949 
L 575.878669 156.913329 
L 576.479939 156.544087 
L 576.84076 156.575485 
L 577.321805 156.189633 
L 577.442175 156.16663 
L 577.92322 156.70589 
L 578.043445 156.828057 
L 578.16367 156.747729 
L 578.644716 155.939832 
L 578.765085 155.9442 
L 579.486581 156.704141 
L 579.847401 156.723454 
L 580.569042 156.424912 
L 580.929718 156.707031 
L 581.170312 156.462451 
L 581.410907 155.938809 
L 581.651358 155.889358 
L 582.132403 156.268921 
L 582.493223 155.957061 
L 582.733818 156.002168 
L 583.094494 156.358024 
L 583.455314 156.32201 
L 583.575539 156.321374 
L 583.695909 156.155447 
L 583.93636 156.194453 
L 584.056729 156.111905 
L 584.176954 156.179628 
L 584.417405 156.399085 
L 584.778225 156.619108 
L 585.139045 156.436788 
L 585.37964 156.256092 
L 585.740316 156.102202 
L 586.341731 156.230148 
L 586.822776 156.159748 
L 587.063227 156.176537 
L 587.424047 156.03125 
L 587.544272 155.979354 
L 587.905092 156.103681 
L 588.386138 155.832154 
L 588.746958 155.968625 
L 588.987553 156.223321 
L 589.348373 156.578276 
L 589.588823 156.587948 
L 590.430689 155.907412 
L 591.272554 156.165845 
L 591.513005 155.997132 
L 591.994195 155.793661 
L 592.354871 156.172282 
L 592.956286 155.938718 
L 593.437331 156.241631 
L 593.918376 156.264395 
L 594.279196 156.402181 
L 594.880467 155.918346 
L 595.121062 155.937863 
L 595.602107 156.27571 
L 595.962927 156.286807 
L 596.564198 155.915307 
L 597.045244 155.775986 
L 597.646514 156.816611 
L 598.007334 156.555131 
L 598.368154 156.138504 
L 598.728975 156.226941 
L 598.969425 156.334926 
L 599.089795 156.358028 
L 600.051886 155.678186 
L 600.412706 155.733355 
L 600.653156 155.978807 
L 600.893751 156.107683 
L 601.013976 156.278586 
L 601.495022 155.944222 
L 601.735617 155.754025 
L 601.976067 155.878838 
L 602.216662 156.072393 
L 602.577482 156.130142 
L 602.938158 155.861266 
L 603.178753 155.791289 
L 603.539573 155.822085 
L 603.780023 155.692924 
L 604.140844 155.895205 
L 604.501664 156.34672 
L 604.862484 156.394412 
L 605.58398 155.874968 
L 605.824575 155.880946 
L 606.546215 156.244164 
L 607.147486 155.671539 
L 607.628531 155.728538 
L 607.869126 155.73283 
L 608.229802 155.641931 
L 608.350171 155.617952 
L 609.192037 156.332811 
L 609.432487 156.269147 
L 609.793307 156.119057 
L 610.033758 156.119044 
L 610.875624 155.852711 
L 611.116218 155.655955 
L 611.958084 155.729032 
L 612.198534 155.687662 
L 612.67958 155.387316 
L 613.40122 155.877233 
L 613.76204 155.452006 
L 613.882265 155.356123 
L 614.12286 155.581784 
L 614.363311 155.832112 
L 614.964726 155.80766 
L 615.325402 156.048655 
L 615.565997 155.981027 
L 616.407862 155.610358 
L 616.648313 155.715979 
L 617.009133 155.927563 
L 617.610548 155.750619 
L 617.850998 155.807345 
L 618.091593 155.753879 
L 618.572639 155.786122 
L 618.813089 155.975395 
L 619.294134 155.883879 
L 620.015775 156.355243 
L 620.136 156.337184 
L 620.136 156.337184 
" clip-path="url(#pae14537977)" style="fill: none; stroke: #ff7f0e; stroke-linecap: square"/>
   </g>
   <g id="line2d_18">
    <path d="M 86.13 284.051275 
L 114.995582 263.817062 
L 126.421543 255.519701 
L 141.696257 244.097538 
L 161.060246 229.675527 
L 172.606491 221.360626 
L 182.589171 214.439537 
L 191.850212 208.285987 
L 200.630149 202.718032 
L 209.049281 197.640295 
L 217.227861 192.964519 
L 225.286172 188.612523 
L 233.224388 184.577171 
L 241.042783 180.849012 
L 248.861034 177.365279 
L 256.559059 174.173098 
L 264.377454 171.171131 
L 272.075479 168.449689 
L 279.773505 165.958268 
L 287.47153 163.694328 
L 294.808735 161.759873 
L 301.78512 160.147132 
L 308.641136 158.790428 
L 315.617521 157.636574 
L 322.834356 156.667535 
L 330.532382 155.86132 
L 338.831822 155.221849 
L 347.973272 154.746218 
L 358.798598 154.415699 
L 374.074423 154.19633 
L 396.564053 153.859445 
L 423.503317 153.29675 
L 433.725784 153.46769 
L 480.629082 154.554388 
L 504.080658 154.683424 
L 545.692168 154.642817 
L 619.173909 154.642748 
L 620.136 154.643285 
L 620.136 154.643285 
" clip-path="url(#pae14537977)" style="fill: none; stroke: #2ca02c; stroke-linecap: square"/>
   </g>
   <g id="line2d_19">
    <path d="M 86.13 295.195324 
L 139.170516 242.331627 
L 148.311288 233.598541 
L 155.888496 226.661547 
L 162.503527 220.897257 
L 168.637469 215.844457 
L 174.290308 211.474849 
L 179.70261 207.574457 
L 184.994629 204.035032 
L 190.16638 200.843421 
L 195.33813 197.912717 
L 200.870701 195.03736 
L 206.88436 192.164107 
L 213.379122 189.306549 
L 220.95633 186.228675 
L 231.780963 182.089835 
L 246.094554 176.878419 
L 264.497679 170.364273 
L 273.15794 167.551961 
L 281.697975 165.015121 
L 290.59883 162.60363 
L 299.01864 160.556579 
L 307.077486 158.824229 
L 315.016106 157.34374 
L 322.714131 156.130557 
L 330.291931 155.157996 
L 337.749362 154.42294 
L 345.086567 153.921635 
L 352.904817 153.617463 
L 363.008503 153.457415 
L 374.435243 153.51115 
L 412.438984 153.874557 
L 455.97482 153.850038 
L 506.245435 154.021219 
L 520.797455 153.829759 
L 541.362759 153.492416 
L 551.825677 153.630294 
L 580.689267 154.180807 
L 603.419203 154.223088 
L 620.136 154.104629 
L 620.136 154.104629 
" clip-path="url(#pae14537977)" style="fill: none; stroke: #d62728; stroke-linecap: square"/>
   </g>
   <g id="line2d_20">
    <path d="M 86.13 260.029996 
L 108.019745 248.551291 
L 116.559145 243.795728 
L 124.016085 239.389302 
L 131.954113 234.427691 
L 152.160026 221.659883 
L 159.256146 217.518982 
L 168.517186 212.406781 
L 193.052941 199.187197 
L 201.953161 194.668755 
L 209.770921 190.945516 
L 216.86704 187.806578 
L 224.203712 184.81134 
L 232.863568 181.526479 
L 244.170083 177.488913 
L 286.62952 162.446303 
L 300.1011 157.480078 
L 305.874656 155.614689 
L 310.685975 154.287652 
L 315.016106 153.31997 
L 318.985416 152.65664 
L 322.714131 152.255268 
L 326.322621 152.086692 
L 330.412156 152.124857 
L 335.463927 152.408564 
L 352.664222 153.580694 
L 359.279787 153.621561 
L 375.758298 153.644466 
L 398.36801 153.842953 
L 407.147341 153.561356 
L 423.142497 153.018015 
L 429.636826 153.045651 
L 436.131156 153.310691 
L 449.360265 153.908897 
L 455.253179 153.866432 
L 463.67169 153.847758 
L 484.116769 154.182852 
L 490.610954 153.943378 
L 496.022968 153.843945 
L 513.341035 154.008615 
L 521.398726 153.973851 
L 527.532235 153.685315 
L 537.153432 153.226985 
L 543.166716 153.190001 
L 549.540675 153.38232 
L 569.624934 154.187801 
L 614.363311 154.226005 
L 620.136 154.192105 
L 620.136 154.192105 
" clip-path="url(#pae14537977)" style="fill: none; stroke: #9467bd; stroke-linecap: square"/>
   </g>
   <g id="patch_3">
    <path d="M 86.13 307.584 
L 86.13 41.472 
" style="fill: none; stroke: #000000; stroke-width: 0.8; stroke-linejoin: miter; stroke-linecap: square"/>
   </g>
   <g id="patch_4">
    <path d="M 620.136 307.584 
L 620.136 41.472 
" style="fill: none; stroke: #000000; stroke-width: 0.8; stroke-linejoin: miter; stroke-linecap: square"/>
   </g>
   <g id="patch_5">
    <path d="M 86.13 307.584 
L 620.136 307.584 
" style="fill: none; stroke: #000000; stroke-width: 0.8; stroke-linejoin: miter; stroke-linecap: square"/>
   </g>
   <g id="patch_6">
    <path d="M 86.13 41.472 
L 620.136 41.472 
" style="fill: none; stroke: #000000; stroke-width: 0.8; stroke-linejoin: miter; stroke-linecap: square"/>
   </g>
   <g id="legend_1">
    <g id="patch_7">
     <path d="M 505.768812 122.862625 
L 613.136 122.862625 
Q 615.136 122.862625 615.136 120.862625 
L 615.136 48.472 
Q 615.136 46.472 613.136 46.472 
L 505.768812 46.472 
Q 503.768812 46.472 503.768812 48.472 
L 503.768812 120.862625 
Q 503.768812 122.862625 505.768812 122.862625 
z
" style="fill: #ffffff; opacity: 0.8; stroke: #cccccc; stroke-linejoin: miter"/>
    </g>
    <g id="line2d_21">
     <path d="M 507.768812 54.570438 
L 517.768812 54.570438 
L 527.768812 54.570438 
" style="fill: none; stroke: #1f77b4; stroke-linecap: square"/>
    </g>
    <g id="text_18">
     <!-- Raw data -->
     <g transform="translate(535.768812 58.070438) scale(0.1 -0.1)">
      <defs>
       <path id="DejaVuSans-52" d="M 2841 2188 
Q 3044 2119 3236 1894 
Q 3428 1669 3622 1275 
L 4263 0 
L 3584 0 
L 2988 1197 
Q 2756 1666 2539 1819 
Q 2322 1972 1947 1972 
L 1259 1972 
L 1259 0 
L 628 0 
L 628 4666 
L 2053 4666 
Q 2853 4666 3247 4331 
Q 3641 3997 3641 3322 
Q 3641 2881 3436 2590 
Q 3231 2300 2841 2188 
z
M 1259 4147 
L 1259 2491 
L 2053 2491 
Q 2509 2491 2742 2702 
Q 2975 2913 2975 3322 
Q 2975 3731 2742 3939 
Q 2509 4147 2053 4147 
L 1259 4147 
z
" transform="scale(0.015625)"/>
       <path id="DejaVuSans-77" d="M 269 3500 
L 844 3500 
L 1563 769 
L 2278 3500 
L 2956 3500 
L 3675 769 
L 4391 3500 
L 4966 3500 
L 4050 0 
L 3372 0 
L 2619 2869 
L 1863 0 
L 1184 0 
L 269 3500 
z
" transform="scale(0.015625)"/>
       <path id="DejaVuSans-64" d="M 2906 2969 
L 2906 4863 
L 3481 4863 
L 3481 0 
L 2906 0 
L 2906 525 
Q 2725 213 2448 61 
Q 2172 -91 1784 -91 
Q 1150 -91 751 415 
Q 353 922 353 1747 
Q 353 2572 751 3078 
Q 1150 3584 1784 3584 
Q 2172 3584 2448 3432 
Q 2725 3281 2906 2969 
z
M 947 1747 
Q 947 1113 1208 752 
Q 1469 391 1925 391 
Q 2381 391 2643 752 
Q 2906 1113 2906 1747 
Q 2906 2381 2643 2742 
Q 2381 3103 1925 3103 
Q 1469 3103 1208 2742 
Q 947 2381 947 1747 
z
" transform="scale(0.015625)"/>
       <path id="DejaVuSans-74" d="M 1172 4494 
L 1172 3500 
L 2356 3500 
L 2356 3053 
L 1172 3053 
L 1172 1153 
Q 1172 725 1289 603 
Q 1406 481 1766 481 
L 2356 481 
L 2356 0 
L 1766 0 
Q 1100 0 847 248 
Q 594 497 594 1153 
L 594 3053 
L 172 3053 
L 172 3500 
L 594 3500 
L 594 4494 
L 1172 4494 
z
" transform="scale(0.015625)"/>
      </defs>
      <use xlink:href="#DejaVuSans-52"/>
      <use xlink:href="#DejaVuSans-61" x="67.232422"/>
      <use xlink:href="#DejaVuSans-77" x="128.511719"/>
      <use xlink:href="#DejaVuSans-20" x="210.298828"/>
      <use xlink:href="#DejaVuSans-64" x="242.085938"/>
      <use xlink:href="#DejaVuSans-61" x="305.5625"/>
      <use xlink:href="#DejaVuSans-74" x="366.841797"/>
      <use xlink:href="#DejaVuSans-61" x="406.050781"/>
     </g>
    </g>
    <g id="line2d_22">
     <path d="M 507.768812 69.248563 
L 517.768812 69.248563 
L 527.768812 69.248563 
" style="fill: none; stroke: #ff7f0e; stroke-linecap: square"/>
    </g>
    <g id="text_19">
     <!-- Blank -->
     <g transform="translate(535.768812 72.748563) scale(0.1 -0.1)">
      <defs>
       <path id="DejaVuSans-42" d="M 1259 2228 
L 1259 519 
L 2272 519 
Q 2781 519 3026 730 
Q 3272 941 3272 1375 
Q 3272 1813 3026 2020 
Q 2781 2228 2272 2228 
L 1259 2228 
z
M 1259 4147 
L 1259 2741 
L 2194 2741 
Q 2656 2741 2882 2914 
Q 3109 3088 3109 3444 
Q 3109 3797 2882 3972 
Q 2656 4147 2194 4147 
L 1259 4147 
z
M 628 4666 
L 2241 4666 
Q 2963 4666 3353 4366 
Q 3744 4066 3744 3513 
Q 3744 3084 3544 2831 
Q 3344 2578 2956 2516 
Q 3422 2416 3680 2098 
Q 3938 1781 3938 1306 
Q 3938 681 3513 340 
Q 3088 0 2303 0 
L 628 0 
L 628 4666 
z
" transform="scale(0.015625)"/>
       <path id="DejaVuSans-6c" d="M 603 4863 
L 1178 4863 
L 1178 0 
L 603 0 
L 603 4863 
z
" transform="scale(0.015625)"/>
       <path id="DejaVuSans-6b" d="M 581 4863 
L 1159 4863 
L 1159 1991 
L 2875 3500 
L 3609 3500 
L 1753 1863 
L 3688 0 
L 2938 0 
L 1159 1709 
L 1159 0 
L 581 0 
L 581 4863 
z
" transform="scale(0.015625)"/>
      </defs>
      <use xlink:href="#DejaVuSans-42"/>
      <use xlink:href="#DejaVuSans-6c" x="68.603516"/>
      <use xlink:href="#DejaVuSans-61" x="96.386719"/>
      <use xlink:href="#DejaVuSans-6e" x="157.666016"/>
      <use xlink:href="#DejaVuSans-6b" x="221.044922"/>
     </g>
    </g>
    <g id="line2d_23">
     <path d="M 507.768812 83.926688 
L 517.768812 83.926688 
L 527.768812 83.926688 
" style="fill: none; stroke: #2ca02c; stroke-linecap: square"/>
    </g>
    <g id="text_20">
     <!-- ASLS baseline -->
     <g transform="translate(535.768812 87.426688) scale(0.1 -0.1)">
      <defs>
       <path id="DejaVuSans-53" d="M 3425 4513 
L 3425 3897 
Q 3066 4069 2747 4153 
Q 2428 4238 2131 4238 
Q 1616 4238 1336 4038 
Q 1056 3838 1056 3469 
Q 1056 3159 1242 3001 
Q 1428 2844 1947 2747 
L 2328 2669 
Q 3034 2534 3370 2195 
Q 3706 1856 3706 1288 
Q 3706 609 3251 259 
Q 2797 -91 1919 -91 
Q 1588 -91 1214 -16 
Q 841 59 441 206 
L 441 856 
Q 825 641 1194 531 
Q 1563 422 1919 422 
Q 2459 422 2753 634 
Q 3047 847 3047 1241 
Q 3047 1584 2836 1778 
Q 2625 1972 2144 2069 
L 1759 2144 
Q 1053 2284 737 2584 
Q 422 2884 422 3419 
Q 422 4038 858 4394 
Q 1294 4750 2059 4750 
Q 2388 4750 2728 4690 
Q 3069 4631 3425 4513 
z
" transform="scale(0.015625)"/>
       <path id="DejaVuSans-4c" d="M 628 4666 
L 1259 4666 
L 1259 531 
L 3531 531 
L 3531 0 
L 628 0 
L 628 4666 
z
" transform="scale(0.015625)"/>
      </defs>
      <use xlink:href="#DejaVuSans-41"/>
      <use xlink:href="#DejaVuSans-53" x="68.408203"/>
      <use xlink:href="#DejaVuSans-4c" x="131.884766"/>
      <use xlink:href="#DejaVuSans-53" x="187.597656"/>
      <use xlink:href="#DejaVuSans-20" x="251.074219"/>
      <use xlink:href="#DejaVuSans-62" x="282.861328"/>
      <use xlink:href="#DejaVuSans-61" x="346.337891"/>
      <use xlink:href="#DejaVuSans-73" x="407.617188"/>
      <use xlink:href="#DejaVuSans-65" x="459.716797"/>
      <use xlink:href="#DejaVuSans-6c" x="521.240234"/>
      <use xlink:href="#DejaVuSans-69" x="549.023438"/>
      <use xlink:href="#DejaVuSans-6e" x="576.806641"/>
      <use xlink:href="#DejaVuSans-65" x="640.185547"/>
     </g>
    </g>
    <g id="line2d_24">
     <path d="M 507.768812 98.604813 
L 517.768812 98.604813 
L 527.768812 98.604813 
" style="fill: none; stroke: #d62728; stroke-linecap: square"/>
    </g>
    <g id="text_21">
     <!-- arPLS baseline -->
     <g transform="translate(535.768812 102.104813) scale(0.1 -0.1)">
      <defs>
       <path id="DejaVuSans-50" d="M 1259 4147 
L 1259 2394 
L 2053 2394 
Q 2494 2394 2734 2622 
Q 2975 2850 2975 3272 
Q 2975 3691 2734 3919 
Q 2494 4147 2053 4147 
L 1259 4147 
z
M 628 4666 
L 2053 4666 
Q 2838 4666 3239 4311 
Q 3641 3956 3641 3272 
Q 3641 2581 3239 2228 
Q 2838 1875 2053 1875 
L 1259 1875 
L 1259 0 
L 628 0 
L 628 4666 
z
" transform="scale(0.015625)"/>
      </defs>
      <use xlink:href="#DejaVuSans-61"/>
      <use xlink:href="#DejaVuSans-72" x="61.279297"/>
      <use xlink:href="#DejaVuSans-50" x="102.392578"/>
      <use xlink:href="#DejaVuSans-4c" x="162.695312"/>
      <use xlink:href="#DejaVuSans-53" x="218.408203"/>
      <use xlink:href="#DejaVuSans-20" x="281.884766"/>
      <use xlink:href="#DejaVuSans-62" x="313.671875"/>
      <use xlink:href="#DejaVuSans-61" x="377.148438"/>
      <use xlink:href="#DejaVuSans-73" x="438.427734"/>
      <use xlink:href="#DejaVuSans-65" x="490.527344"/>
      <use xlink:href="#DejaVuSans-6c" x="552.050781"/>
      <use xlink:href="#DejaVuSans-69" x="579.833984"/>
      <use xlink:href="#DejaVuSans-6e" x="607.617188"/>
      <use xlink:href="#DejaVuSans-65" x="670.996094"/>
     </g>
    </g>
    <g id="line2d_25">
     <path d="M 507.768812 113.282938 
L 517.768812 113.282938 
L 527.768812 113.282938 
" style="fill: none; stroke: #9467bd; stroke-linecap: square"/>
    </g>
    <g id="text_22">
     <!-- FlatFit baseline -->
     <g transform="translate(535.768812 116.782938) scale(0.1 -0.1)">
      <defs>
       <path id="DejaVuSans-46" d="M 628 4666 
L 3309 4666 
L 3309 4134 
L 1259 4134 
L 1259 2759 
L 3109 2759 
L 3109 2228 
L 1259 2228 
L 1259 0 
L 628 0 
L 628 4666 
z
" transform="scale(0.015625)"/>
      </defs>
      <use xlink:href="#DejaVuSans-46"/>
      <use xlink:href="#DejaVuSans-6c" x="57.519531"/>
      <use xlink:href="#DejaVuSans-61" x="85.302734"/>
      <use xlink:href="#DejaVuSans-74" x="146.582031"/>
      <use xlink:href="#DejaVuSans-46" x="185.791016"/>
      <use xlink:href="#DejaVuSans-69" x="236.060547"/>
      <use xlink:href="#DejaVuSans-74" x="263.84375"/>
      <use xlink:href="#DejaVuSans-20" x="303.052734"/>
      <use xlink:href="#DejaVuSans-62" x="334.839844"/>
      <use xlink:href="#DejaVuSans-61" x="398.316406"/>
      <use xlink:href="#DejaVuSans-73" x="459.595703"/>
      <use xlink:href="#DejaVuSans-65" x="511.695312"/>
      <use xlink:href="#DejaVuSans-6c" x="573.21875"/>
      <use xlink:href="#DejaVuSans-69" x="601.001953"/>
      <use xlink:href="#DejaVuSans-6e" x="628.785156"/>
      <use xlink:href="#DejaVuSans-65" x="692.164062"/>
     </g>
    </g>
   </g>
  </g>
 </g>
 <defs>
  <clipPath id="pae14537977">
   <rect x="86.13" y="41.472" width="534.006" height="266.112"/>
  </clipPath>
 </defs>
</svg>
