<?xml version="1.0" encoding="utf-8" standalone="no"?>
<!DOCTYPE svg PUBLIC "-//W3C//DTD SVG 1.1//EN"
  "http://www.w3.org/Graphics/SVG/1.1/DTD/svg11.dtd">
<svg xmlns:xlink="http://www.w3.org/1999/xlink" width="576pt" height="360pt" viewBox="0 0 576 360" xmlns="http://www.w3.org/2000/svg" version="1.1">
 <metadata>
  <rdf:RDF xmlns:dc="http://purl.org/dc/elements/1.1/" xmlns:cc="http://creativecommons.org/ns#" xmlns:rdf="http://www.w3.org/1999/02/22-rdf-syntax-ns#">
   <cc:Work>
    <dc:type rdf:resource="http://purl.org/dc/dcmitype/StillImage"/>
    <dc:date>2024-04-09T12:55:24.865831</dc:date>
    <dc:format>image/svg+xml</dc:format>
    <dc:creator>
     <cc:Agent>
      <dc:title>Matplotlib v3.8.4, https://matplotlib.org/</dc:title>
     </cc:Agent>
    </dc:creator>
   </cc:Work>
  </rdf:RDF>
 </metadata>
 <defs>
  <style type="text/css">*{stroke-linejoin: round; stroke-linecap: butt}</style>
 </defs>
 <g id="figure_1">
  <g id="patch_1">
   <path d="M 0 360 
L 576 360 
L 576 0 
L 0 0 
z
" style="fill: #ffffff"/>
  </g>
  <g id="axes_1">
   <g id="patch_2">
    <path d="M 72 320.4 
L 518.4 320.4 
L 518.4 43.2 
L 72 43.2 
z
" style="fill: #ffffff"/>
   </g>
   <g id="matplotlib.axis_1">
    <g id="xtick_1">
     <g id="line2d_1">
      <defs>
       <path id="ma33f528189" d="M 0 0 
L 0 3.5 
" style="stroke: #000000; stroke-width: 0.8"/>
      </defs>
      <g>
       <use xlink:href="#ma33f528189" x="72" y="320.4" style="stroke: #000000; stroke-width: 0.8"/>
      </g>
     </g>
     <g id="text_1">
      <!-- 0.0 -->
      <g transform="translate(64.048438 334.998438) scale(0.1 -0.1)">
       <defs>
        <path id="DejaVuSans-30" d="M 2034 4250 
Q 1547 4250 1301 3770 
Q 1056 3291 1056 2328 
Q 1056 1369 1301 889 
Q 1547 409 2034 409 
Q 2525 409 2770 889 
Q 3016 1369 3016 2328 
Q 3016 3291 2770 3770 
Q 2525 4250 2034 4250 
z
M 2034 4750 
Q 2819 4750 3233 4129 
Q 3647 3509 3647 2328 
Q 3647 1150 3233 529 
Q 2819 -91 2034 -91 
Q 1250 -91 836 529 
Q 422 1150 422 2328 
Q 422 3509 836 4129 
Q 1250 4750 2034 4750 
z
" transform="scale(0.015625)"/>
        <path id="DejaVuSans-2e" d="M 684 794 
L 1344 794 
L 1344 0 
L 684 0 
L 684 794 
z
" transform="scale(0.015625)"/>
       </defs>
       <use xlink:href="#DejaVuSans-30"/>
       <use xlink:href="#DejaVuSans-2e" x="63.623047"/>
       <use xlink:href="#DejaVuSans-30" x="95.410156"/>
      </g>
     </g>
    </g>
    <g id="xtick_2">
     <g id="line2d_2">
      <g>
       <use xlink:href="#ma33f528189" x="132.325206" y="320.4" style="stroke: #000000; stroke-width: 0.8"/>
      </g>
     </g>
     <g id="text_2">
      <!-- 0.5 -->
      <g transform="translate(124.373643 334.998438) scale(0.1 -0.1)">
       <defs>
        <path id="DejaVuSans-35" d="M 691 4666 
L 3169 4666 
L 3169 4134 
L 1269 4134 
L 1269 2991 
Q 1406 3038 1543 3061 
Q 1681 3084 1819 3084 
Q 2600 3084 3056 2656 
Q 3513 2228 3513 1497 
Q 3513 744 3044 326 
Q 2575 -91 1722 -91 
Q 1428 -91 1123 -41 
Q 819 9 494 109 
L 494 744 
Q 775 591 1075 516 
Q 1375 441 1709 441 
Q 2250 441 2565 725 
Q 2881 1009 2881 1497 
Q 2881 1984 2565 2268 
Q 2250 2553 1709 2553 
Q 1456 2553 1204 2497 
Q 953 2441 691 2322 
L 691 4666 
z
" transform="scale(0.015625)"/>
       </defs>
       <use xlink:href="#DejaVuSans-30"/>
       <use xlink:href="#DejaVuSans-2e" x="63.623047"/>
       <use xlink:href="#DejaVuSans-35" x="95.410156"/>
      </g>
     </g>
    </g>
    <g id="xtick_3">
     <g id="line2d_3">
      <g>
       <use xlink:href="#ma33f528189" x="192.650412" y="320.4" style="stroke: #000000; stroke-width: 0.8"/>
      </g>
     </g>
     <g id="text_3">
      <!-- 1.0 -->
      <g transform="translate(184.698849 334.998438) scale(0.1 -0.1)">
       <defs>
        <path id="DejaVuSans-31" d="M 794 531 
L 1825 531 
L 1825 4091 
L 703 3866 
L 703 4441 
L 1819 4666 
L 2450 4666 
L 2450 531 
L 3481 531 
L 3481 0 
L 794 0 
L 794 531 
z
" transform="scale(0.015625)"/>
       </defs>
       <use xlink:href="#DejaVuSans-31"/>
       <use xlink:href="#DejaVuSans-2e" x="63.623047"/>
       <use xlink:href="#DejaVuSans-30" x="95.410156"/>
      </g>
     </g>
    </g>
    <g id="xtick_4">
     <g id="line2d_4">
      <g>
       <use xlink:href="#ma33f528189" x="252.975618" y="320.4" style="stroke: #000000; stroke-width: 0.8"/>
      </g>
     </g>
     <g id="text_4">
      <!-- 1.5 -->
      <g transform="translate(245.024055 334.998438) scale(0.1 -0.1)">
       <use xlink:href="#DejaVuSans-31"/>
       <use xlink:href="#DejaVuSans-2e" x="63.623047"/>
       <use xlink:href="#DejaVuSans-35" x="95.410156"/>
      </g>
     </g>
    </g>
    <g id="xtick_5">
     <g id="line2d_5">
      <g>
       <use xlink:href="#ma33f528189" x="313.300824" y="320.4" style="stroke: #000000; stroke-width: 0.8"/>
      </g>
     </g>
     <g id="text_5">
      <!-- 2.0 -->
      <g transform="translate(305.349261 334.998438) scale(0.1 -0.1)">
       <defs>
        <path id="DejaVuSans-32" d="M 1228 531 
L 3431 531 
L 3431 0 
L 469 0 
L 469 531 
Q 828 903 1448 1529 
Q 2069 2156 2228 2338 
Q 2531 2678 2651 2914 
Q 2772 3150 2772 3378 
Q 2772 3750 2511 3984 
Q 2250 4219 1831 4219 
Q 1534 4219 1204 4116 
Q 875 4013 500 3803 
L 500 4441 
Q 881 4594 1212 4672 
Q 1544 4750 1819 4750 
Q 2544 4750 2975 4387 
Q 3406 4025 3406 3419 
Q 3406 3131 3298 2873 
Q 3191 2616 2906 2266 
Q 2828 2175 2409 1742 
Q 1991 1309 1228 531 
z
" transform="scale(0.015625)"/>
       </defs>
       <use xlink:href="#DejaVuSans-32"/>
       <use xlink:href="#DejaVuSans-2e" x="63.623047"/>
       <use xlink:href="#DejaVuSans-30" x="95.410156"/>
      </g>
     </g>
    </g>
    <g id="xtick_6">
     <g id="line2d_6">
      <g>
       <use xlink:href="#ma33f528189" x="373.62603" y="320.4" style="stroke: #000000; stroke-width: 0.8"/>
      </g>
     </g>
     <g id="text_6">
      <!-- 2.5 -->
      <g transform="translate(365.674467 334.998438) scale(0.1 -0.1)">
       <use xlink:href="#DejaVuSans-32"/>
       <use xlink:href="#DejaVuSans-2e" x="63.623047"/>
       <use xlink:href="#DejaVuSans-35" x="95.410156"/>
      </g>
     </g>
    </g>
    <g id="xtick_7">
     <g id="line2d_7">
      <g>
       <use xlink:href="#ma33f528189" x="433.951236" y="320.4" style="stroke: #000000; stroke-width: 0.8"/>
      </g>
     </g>
     <g id="text_7">
      <!-- 3.0 -->
      <g transform="translate(425.999673 334.998438) scale(0.1 -0.1)">
       <defs>
        <path id="DejaVuSans-33" d="M 2597 2516 
Q 3050 2419 3304 2112 
Q 3559 1806 3559 1356 
Q 3559 666 3084 287 
Q 2609 -91 1734 -91 
Q 1441 -91 1130 -33 
Q 819 25 488 141 
L 488 750 
Q 750 597 1062 519 
Q 1375 441 1716 441 
Q 2309 441 2620 675 
Q 2931 909 2931 1356 
Q 2931 1769 2642 2001 
Q 2353 2234 1838 2234 
L 1294 2234 
L 1294 2753 
L 1863 2753 
Q 2328 2753 2575 2939 
Q 2822 3125 2822 3475 
Q 2822 3834 2567 4026 
Q 2313 4219 1838 4219 
Q 1578 4219 1281 4162 
Q 984 4106 628 3988 
L 628 4550 
Q 988 4650 1302 4700 
Q 1616 4750 1894 4750 
Q 2613 4750 3031 4423 
Q 3450 4097 3450 3541 
Q 3450 3153 3228 2886 
Q 3006 2619 2597 2516 
z
" transform="scale(0.015625)"/>
       </defs>
       <use xlink:href="#DejaVuSans-33"/>
       <use xlink:href="#DejaVuSans-2e" x="63.623047"/>
       <use xlink:href="#DejaVuSans-30" x="95.410156"/>
      </g>
     </g>
    </g>
    <g id="xtick_8">
     <g id="line2d_8">
      <g>
       <use xlink:href="#ma33f528189" x="494.276442" y="320.4" style="stroke: #000000; stroke-width: 0.8"/>
      </g>
     </g>
     <g id="text_8">
      <!-- 3.5 -->
      <g transform="translate(486.324879 334.998438) scale(0.1 -0.1)">
       <use xlink:href="#DejaVuSans-33"/>
       <use xlink:href="#DejaVuSans-2e" x="63.623047"/>
       <use xlink:href="#DejaVuSans-35" x="95.410156"/>
      </g>
     </g>
    </g>
    <g id="text_9">
     <!-- Time [min] -->
     <g transform="translate(268.047656 348.676562) scale(0.1 -0.1)">
      <defs>
       <path id="DejaVuSans-54" d="M -19 4666 
L 3928 4666 
L 3928 4134 
L 2272 4134 
L 2272 0 
L 1638 0 
L 1638 4134 
L -19 4134 
L -19 4666 
z
" transform="scale(0.015625)"/>
       <path id="DejaVuSans-69" d="M 603 3500 
L 1178 3500 
L 1178 0 
L 603 0 
L 603 3500 
z
M 603 4863 
L 1178 4863 
L 1178 4134 
L 603 4134 
L 603 4863 
z
" transform="scale(0.015625)"/>
       <path id="DejaVuSans-6d" d="M 3328 2828 
Q 3544 3216 3844 3400 
Q 4144 3584 4550 3584 
Q 5097 3584 5394 3201 
Q 5691 2819 5691 2113 
L 5691 0 
L 5113 0 
L 5113 2094 
Q 5113 2597 4934 2840 
Q 4756 3084 4391 3084 
Q 3944 3084 3684 2787 
Q 3425 2491 3425 1978 
L 3425 0 
L 2847 0 
L 2847 2094 
Q 2847 2600 2669 2842 
Q 2491 3084 2119 3084 
Q 1678 3084 1418 2786 
Q 1159 2488 1159 1978 
L 1159 0 
L 581 0 
L 581 3500 
L 1159 3500 
L 1159 2956 
Q 1356 3278 1631 3431 
Q 1906 3584 2284 3584 
Q 2666 3584 2933 3390 
Q 3200 3197 3328 2828 
z
" transform="scale(0.015625)"/>
       <path id="DejaVuSans-65" d="M 3597 1894 
L 3597 1613 
L 953 1613 
Q 991 1019 1311 708 
Q 1631 397 2203 397 
Q 2534 397 2845 478 
Q 3156 559 3463 722 
L 3463 178 
Q 3153 47 2828 -22 
Q 2503 -91 2169 -91 
Q 1331 -91 842 396 
Q 353 884 353 1716 
Q 353 2575 817 3079 
Q 1281 3584 2069 3584 
Q 2775 3584 3186 3129 
Q 3597 2675 3597 1894 
z
M 3022 2063 
Q 3016 2534 2758 2815 
Q 2500 3097 2075 3097 
Q 1594 3097 1305 2825 
Q 1016 2553 972 2059 
L 3022 2063 
z
" transform="scale(0.015625)"/>
       <path id="DejaVuSans-20" transform="scale(0.015625)"/>
       <path id="DejaVuSans-5b" d="M 550 4863 
L 1875 4863 
L 1875 4416 
L 1125 4416 
L 1125 -397 
L 1875 -397 
L 1875 -844 
L 550 -844 
L 550 4863 
z
" transform="scale(0.015625)"/>
       <path id="DejaVuSans-6e" d="M 3513 2113 
L 3513 0 
L 2938 0 
L 2938 2094 
Q 2938 2591 2744 2837 
Q 2550 3084 2163 3084 
Q 1697 3084 1428 2787 
Q 1159 2491 1159 1978 
L 1159 0 
L 581 0 
L 581 3500 
L 1159 3500 
L 1159 2956 
Q 1366 3272 1645 3428 
Q 1925 3584 2291 3584 
Q 2894 3584 3203 3211 
Q 3513 2838 3513 2113 
z
" transform="scale(0.015625)"/>
       <path id="DejaVuSans-5d" d="M 1947 4863 
L 1947 -844 
L 622 -844 
L 622 -397 
L 1369 -397 
L 1369 4416 
L 622 4416 
L 622 4863 
L 1947 4863 
z
" transform="scale(0.015625)"/>
      </defs>
      <use xlink:href="#DejaVuSans-54"/>
      <use xlink:href="#DejaVuSans-69" x="57.958984"/>
      <use xlink:href="#DejaVuSans-6d" x="85.742188"/>
      <use xlink:href="#DejaVuSans-65" x="183.154297"/>
      <use xlink:href="#DejaVuSans-20" x="244.677734"/>
      <use xlink:href="#DejaVuSans-5b" x="276.464844"/>
      <use xlink:href="#DejaVuSans-6d" x="315.478516"/>
      <use xlink:href="#DejaVuSans-69" x="412.890625"/>
      <use xlink:href="#DejaVuSans-6e" x="440.673828"/>
      <use xlink:href="#DejaVuSans-5d" x="504.052734"/>
     </g>
    </g>
   </g>
   <g id="matplotlib.axis_2">
    <g id="ytick_1">
     <g id="line2d_9">
      <defs>
       <path id="m433e2c3083" d="M 0 0 
L -3.5 0 
" style="stroke: #000000; stroke-width: 0.8"/>
      </defs>
      <g>
       <use xlink:href="#m433e2c3083" x="72" y="320.4" style="stroke: #000000; stroke-width: 0.8"/>
      </g>
     </g>
     <g id="text_10">
      <!-- 0 -->
      <g transform="translate(58.6375 324.199219) scale(0.1 -0.1)">
       <use xlink:href="#DejaVuSans-30"/>
      </g>
     </g>
    </g>
    <g id="ytick_2">
     <g id="line2d_10">
      <g>
       <use xlink:href="#m433e2c3083" x="72" y="278.425886" style="stroke: #000000; stroke-width: 0.8"/>
      </g>
     </g>
     <g id="text_11">
      <!-- 50 -->
      <g transform="translate(52.275 282.225105) scale(0.1 -0.1)">
       <use xlink:href="#DejaVuSans-35"/>
       <use xlink:href="#DejaVuSans-30" x="63.623047"/>
      </g>
     </g>
    </g>
    <g id="ytick_3">
     <g id="line2d_11">
      <g>
       <use xlink:href="#m433e2c3083" x="72" y="236.451772" style="stroke: #000000; stroke-width: 0.8"/>
      </g>
     </g>
     <g id="text_12">
      <!-- 100 -->
      <g transform="translate(45.9125 240.250991) scale(0.1 -0.1)">
       <use xlink:href="#DejaVuSans-31"/>
       <use xlink:href="#DejaVuSans-30" x="63.623047"/>
       <use xlink:href="#DejaVuSans-30" x="127.246094"/>
      </g>
     </g>
    </g>
    <g id="ytick_4">
     <g id="line2d_12">
      <g>
       <use xlink:href="#m433e2c3083" x="72" y="194.477658" style="stroke: #000000; stroke-width: 0.8"/>
      </g>
     </g>
     <g id="text_13">
      <!-- 150 -->
      <g transform="translate(45.9125 198.276877) scale(0.1 -0.1)">
       <use xlink:href="#DejaVuSans-31"/>
       <use xlink:href="#DejaVuSans-35" x="63.623047"/>
       <use xlink:href="#DejaVuSans-30" x="127.246094"/>
      </g>
     </g>
    </g>
    <g id="ytick_5">
     <g id="line2d_13">
      <g>
       <use xlink:href="#m433e2c3083" x="72" y="152.503544" style="stroke: #000000; stroke-width: 0.8"/>
      </g>
     </g>
     <g id="text_14">
      <!-- 200 -->
      <g transform="translate(45.9125 156.302762) scale(0.1 -0.1)">
       <use xlink:href="#DejaVuSans-32"/>
       <use xlink:href="#DejaVuSans-30" x="63.623047"/>
       <use xlink:href="#DejaVuSans-30" x="127.246094"/>
      </g>
     </g>
    </g>
    <g id="ytick_6">
     <g id="line2d_14">
      <g>
       <use xlink:href="#m433e2c3083" x="72" y="110.52943" style="stroke: #000000; stroke-width: 0.8"/>
      </g>
     </g>
     <g id="text_15">
      <!-- 250 -->
      <g transform="translate(45.9125 114.328648) scale(0.1 -0.1)">
       <use xlink:href="#DejaVuSans-32"/>
       <use xlink:href="#DejaVuSans-35" x="63.623047"/>
       <use xlink:href="#DejaVuSans-30" x="127.246094"/>
      </g>
     </g>
    </g>
    <g id="ytick_7">
     <g id="line2d_15">
      <g>
       <use xlink:href="#m433e2c3083" x="72" y="68.555316" style="stroke: #000000; stroke-width: 0.8"/>
      </g>
     </g>
     <g id="text_16">
      <!-- 300 -->
      <g transform="translate(45.9125 72.354534) scale(0.1 -0.1)">
       <use xlink:href="#DejaVuSans-33"/>
       <use xlink:href="#DejaVuSans-30" x="63.623047"/>
       <use xlink:href="#DejaVuSans-30" x="127.246094"/>
      </g>
     </g>
    </g>
    <g id="text_17">
     <!-- Absorbance [mAU] -->
     <g transform="translate(39.832812 228.7875) rotate(-90) scale(0.1 -0.1)">
      <defs>
       <path id="DejaVuSans-41" d="M 2188 4044 
L 1331 1722 
L 3047 1722 
L 2188 4044 
z
M 1831 4666 
L 2547 4666 
L 4325 0 
L 3669 0 
L 3244 1197 
L 1141 1197 
L 716 0 
L 50 0 
L 1831 4666 
z
" transform="scale(0.015625)"/>
       <path id="DejaVuSans-62" d="M 3116 1747 
Q 3116 2381 2855 2742 
Q 2594 3103 2138 3103 
Q 1681 3103 1420 2742 
Q 1159 2381 1159 1747 
Q 1159 1113 1420 752 
Q 1681 391 2138 391 
Q 2594 391 2855 752 
Q 3116 1113 3116 1747 
z
M 1159 2969 
Q 1341 3281 1617 3432 
Q 1894 3584 2278 3584 
Q 2916 3584 3314 3078 
Q 3713 2572 3713 1747 
Q 3713 922 3314 415 
Q 2916 -91 2278 -91 
Q 1894 -91 1617 61 
Q 1341 213 1159 525 
L 1159 0 
L 581 0 
L 581 4863 
L 1159 4863 
L 1159 2969 
z
" transform="scale(0.015625)"/>
       <path id="DejaVuSans-73" d="M 2834 3397 
L 2834 2853 
Q 2591 2978 2328 3040 
Q 2066 3103 1784 3103 
Q 1356 3103 1142 2972 
Q 928 2841 928 2578 
Q 928 2378 1081 2264 
Q 1234 2150 1697 2047 
L 1894 2003 
Q 2506 1872 2764 1633 
Q 3022 1394 3022 966 
Q 3022 478 2636 193 
Q 2250 -91 1575 -91 
Q 1294 -91 989 -36 
Q 684 19 347 128 
L 347 722 
Q 666 556 975 473 
Q 1284 391 1588 391 
Q 1994 391 2212 530 
Q 2431 669 2431 922 
Q 2431 1156 2273 1281 
Q 2116 1406 1581 1522 
L 1381 1569 
Q 847 1681 609 1914 
Q 372 2147 372 2553 
Q 372 3047 722 3315 
Q 1072 3584 1716 3584 
Q 2034 3584 2315 3537 
Q 2597 3491 2834 3397 
z
" transform="scale(0.015625)"/>
       <path id="DejaVuSans-6f" d="M 1959 3097 
Q 1497 3097 1228 2736 
Q 959 2375 959 1747 
Q 959 1119 1226 758 
Q 1494 397 1959 397 
Q 2419 397 2687 759 
Q 2956 1122 2956 1747 
Q 2956 2369 2687 2733 
Q 2419 3097 1959 3097 
z
M 1959 3584 
Q 2709 3584 3137 3096 
Q 3566 2609 3566 1747 
Q 3566 888 3137 398 
Q 2709 -91 1959 -91 
Q 1206 -91 779 398 
Q 353 888 353 1747 
Q 353 2609 779 3096 
Q 1206 3584 1959 3584 
z
" transform="scale(0.015625)"/>
       <path id="DejaVuSans-72" d="M 2631 2963 
Q 2534 3019 2420 3045 
Q 2306 3072 2169 3072 
Q 1681 3072 1420 2755 
Q 1159 2438 1159 1844 
L 1159 0 
L 581 0 
L 581 3500 
L 1159 3500 
L 1159 2956 
Q 1341 3275 1631 3429 
Q 1922 3584 2338 3584 
Q 2397 3584 2469 3576 
Q 2541 3569 2628 3553 
L 2631 2963 
z
" transform="scale(0.015625)"/>
       <path id="DejaVuSans-61" d="M 2194 1759 
Q 1497 1759 1228 1600 
Q 959 1441 959 1056 
Q 959 750 1161 570 
Q 1363 391 1709 391 
Q 2188 391 2477 730 
Q 2766 1069 2766 1631 
L 2766 1759 
L 2194 1759 
z
M 3341 1997 
L 3341 0 
L 2766 0 
L 2766 531 
Q 2569 213 2275 61 
Q 1981 -91 1556 -91 
Q 1019 -91 701 211 
Q 384 513 384 1019 
Q 384 1609 779 1909 
Q 1175 2209 1959 2209 
L 2766 2209 
L 2766 2266 
Q 2766 2663 2505 2880 
Q 2244 3097 1772 3097 
Q 1472 3097 1187 3025 
Q 903 2953 641 2809 
L 641 3341 
Q 956 3463 1253 3523 
Q 1550 3584 1831 3584 
Q 2591 3584 2966 3190 
Q 3341 2797 3341 1997 
z
" transform="scale(0.015625)"/>
       <path id="DejaVuSans-63" d="M 3122 3366 
L 3122 2828 
Q 2878 2963 2633 3030 
Q 2388 3097 2138 3097 
Q 1578 3097 1268 2742 
Q 959 2388 959 1747 
Q 959 1106 1268 751 
Q 1578 397 2138 397 
Q 2388 397 2633 464 
Q 2878 531 3122 666 
L 3122 134 
Q 2881 22 2623 -34 
Q 2366 -91 2075 -91 
Q 1284 -91 818 406 
Q 353 903 353 1747 
Q 353 2603 823 3093 
Q 1294 3584 2113 3584 
Q 2378 3584 2631 3529 
Q 2884 3475 3122 3366 
z
" transform="scale(0.015625)"/>
       <path id="DejaVuSans-55" d="M 556 4666 
L 1191 4666 
L 1191 1831 
Q 1191 1081 1462 751 
Q 1734 422 2344 422 
Q 2950 422 3222 751 
Q 3494 1081 3494 1831 
L 3494 4666 
L 4128 4666 
L 4128 1753 
Q 4128 841 3676 375 
Q 3225 -91 2344 -91 
Q 1459 -91 1007 375 
Q 556 841 556 1753 
L 556 4666 
z
" transform="scale(0.015625)"/>
      </defs>
      <use xlink:href="#DejaVuSans-41"/>
      <use xlink:href="#DejaVuSans-62" x="68.408203"/>
      <use xlink:href="#DejaVuSans-73" x="131.884766"/>
      <use xlink:href="#DejaVuSans-6f" x="183.984375"/>
      <use xlink:href="#DejaVuSans-72" x="245.166016"/>
      <use xlink:href="#DejaVuSans-62" x="286.279297"/>
      <use xlink:href="#DejaVuSans-61" x="349.755859"/>
      <use xlink:href="#DejaVuSans-6e" x="411.035156"/>
      <use xlink:href="#DejaVuSans-63" x="474.414062"/>
      <use xlink:href="#DejaVuSans-65" x="529.394531"/>
      <use xlink:href="#DejaVuSans-20" x="590.917969"/>
      <use xlink:href="#DejaVuSans-5b" x="622.705078"/>
      <use xlink:href="#DejaVuSans-6d" x="661.71875"/>
      <use xlink:href="#DejaVuSans-41" x="759.130859"/>
      <use xlink:href="#DejaVuSans-55" x="827.539062"/>
      <use xlink:href="#DejaVuSans-5d" x="900.732422"/>
     </g>
    </g>
   </g>
   <g id="line2d_16">
    <path d="M 72 320.4 
L 72.50271 320.002482 
L 73.50813 320.55583 
L 74.312467 321.199048 
L 74.714634 321.039446 
L 75.217343 320.727978 
L 75.820595 319.790826 
L 76.423846 317.908514 
L 78.032517 312.482365 
L 78.334143 312.147967 
L 78.535226 312.157924 
L 78.937394 312.601086 
L 79.339562 313.488442 
L 79.842272 315.184213 
L 80.948233 319.152034 
L 81.85311 321.097281 
L 83.763407 322.785854 
L 84.467205 322.986476 
L 84.969907 322.824045 
L 85.573159 322.775077 
L 86.075873 322.463806 
L 87.08129 322.195197 
L 87.483453 321.946295 
L 88.086706 321.859397 
L 88.589419 321.568283 
L 89.092134 321.527057 
L 89.795924 321.282539 
L 89.997012 321.173687 
L 90.399176 320.97377 
L 90.901878 321.184487 
L 92.108381 320.948066 
L 92.611096 320.931699 
L 93.415437 320.729955 
L 93.918137 320.781394 
L 94.420852 320.632541 
L 94.823016 320.860553 
L 95.124642 320.655971 
L 95.325729 320.551608 
L 95.828432 320.642129 
L 96.331147 320.505707 
L 96.532234 320.502367 
L 97.135486 320.30905 
L 97.738739 320.317672 
L 98.140903 320.259843 
L 98.34199 319.943215 
L 99.04578 318.196798 
L 99.347406 318.795391 
L 100.252285 320.788975 
L 100.754987 321.731554 
L 101.056613 322.595697 
L 101.458788 324.701028 
L 101.860952 326.66513 
L 102.062041 326.793302 
L 102.263116 326.369213 
L 102.765829 324.062138 
L 103.570157 320.304255 
L 104.3745 317.834294 
L 104.776664 317.314929 
L 105.07829 317.293968 
L 105.480465 317.830912 
L 106.184254 319.408239 
L 106.888044 321.03809 
L 107.18967 321.334887 
L 107.591834 321.343996 
L 107.89346 321.191575 
L 108.295638 320.752758 
L 109.099966 319.384901 
L 109.703218 318.212159 
L 111.010273 315.880127 
L 112.116227 313.734517 
L 113.021105 312.204253 
L 113.925982 311.29569 
L 114.529233 311.349903 
L 115.132485 311.717261 
L 115.73574 312.010323 
L 117.84712 312.687313 
L 118.651448 312.485047 
L 118.953074 312.467636 
L 119.857951 312.280764 
L 121.768247 311.279076 
L 122.069873 311.078719 
L 122.371499 311.104926 
L 122.572586 311.032371 
L 123.678555 310.404774 
L 124.382344 310.299838 
L 125.086134 310.03463 
L 125.38776 309.911598 
L 125.689386 309.520542 
L 125.991011 308.485219 
L 126.493725 306.620005 
L 126.694801 306.616088 
L 127.49914 307.865886 
L 127.800766 308.188867 
L 128.102392 308.356008 
L 128.504556 308.458894 
L 128.806185 308.635487 
L 129.107811 308.588829 
L 129.509975 308.497529 
L 131.018104 308.357875 
L 132.224606 308.078645 
L 133.6322 308.058692 
L 133.833284 308.124706 
L 134.939245 308.276566 
L 135.743581 308.16199 
L 135.944672 308.157518 
L 136.849535 308.04451 
L 137.553335 307.747146 
L 138.257129 307.494194 
L 138.558754 307.485109 
L 140.267974 307.204933 
L 140.97176 307.104612 
L 141.675554 306.863227 
L 141.977179 306.886412 
L 142.278805 306.779038 
L 143.887476 306.558369 
L 144.189101 306.5525 
L 144.390185 306.467646 
L 144.792353 306.186804 
L 146.803198 305.651304 
L 147.305894 305.479764 
L 149.115655 304.96701 
L 149.517816 304.800881 
L 149.819441 304.793917 
L 151.025944 304.284497 
L 151.729752 304.132645 
L 152.031378 303.926369 
L 152.333004 303.9594 
L 153.137332 303.643204 
L 153.438958 303.490783 
L 153.941667 303.315376 
L 155.047621 302.991318 
L 156.656306 302.371764 
L 157.058466 302.269996 
L 157.460634 301.979605 
L 158.063886 301.529004 
L 158.767672 301.490708 
L 160.677983 301.118367 
L 161.180685 300.951416 
L 162.085562 300.818561 
L 162.588272 300.691011 
L 163.3926 300.634113 
L 163.593691 300.60756 
L 164.297477 300.287321 
L 164.800194 300.117828 
L 165.202361 300.168184 
L 167.2132 299.673345 
L 168.41971 299.369833 
L 168.721336 299.352567 
L 169.224038 299.174613 
L 171.134327 298.631906 
L 171.435953 298.527963 
L 171.737579 298.583447 
L 172.541921 298.514601 
L 172.944089 298.436221 
L 173.848966 298.050209 
L 174.452218 297.958047 
L 175.357095 297.670232 
L 176.463063 297.076911 
L 177.066315 297.221066 
L 178.172268 296.857523 
L 179.17768 296.769397 
L 180.48474 296.189361 
L 181.087991 296.168274 
L 181.389617 296.225073 
L 181.791777 296.245689 
L 182.797196 296.358469 
L 183.098822 296.212367 
L 183.601532 296.177224 
L 184.104234 296.072289 
L 184.808042 296.104996 
L 185.411293 296.057513 
L 185.712919 296.044914 
L 186.014545 295.840079 
L 186.517247 295.395213 
L 187.221033 294.120217 
L 187.422124 294.027526 
L 187.824285 294.377758 
L 188.125911 294.634862 
L 189.030788 294.918161 
L 189.734596 294.87775 
L 190.337847 294.874682 
L 190.84055 294.791454 
L 191.443801 294.817046 
L 191.845962 294.687427 
L 192.750788 294.25233 
L 193.052536 294.201591 
L 193.354169 294.048074 
L 193.957421 294.001598 
L 194.661293 293.367898 
L 195.264545 293.407463 
L 196.370671 293.624209 
L 196.772796 293.415908 
L 197.778301 293.332563 
L 198.180541 293.434104 
L 198.482174 293.321118 
L 198.683301 293.114767 
L 199.286552 292.568324 
L 199.789298 292.309367 
L 200.49317 292.232036 
L 201.599167 292.67031 
L 202.303054 292.660882 
L 202.705179 292.596735 
L 204.414557 292.288818 
L 204.917302 292.138508 
L 205.520554 292.244599 
L 206.12392 292.25127 
L 206.727172 292.130697 
L 207.933804 291.895506 
L 209.140307 290.84281 
L 209.643052 290.647417 
L 209.944685 290.780543 
L 210.246433 290.940885 
L 211.754684 290.789711 
L 212.156809 290.821959 
L 213.262806 290.790512 
L 213.66506 290.907385 
L 214.268311 290.576673 
L 214.670565 290.604809 
L 215.173311 290.282917 
L 215.776562 290.237507 
L 217.184307 289.916133 
L 217.586446 289.817686 
L 217.988686 289.810343 
L 219.396316 289.522584 
L 219.698064 289.362168 
L 219.999682 289.47679 
L 220.200694 289.49098 
L 220.804061 289.117984 
L 221.005188 289.051848 
L 221.708945 289.118746 
L 222.010693 289.026579 
L 222.412818 288.981736 
L 224.52432 288.654453 
L 225.42932 288.116385 
L 226.032571 287.991566 
L 226.535317 287.865402 
L 227.239189 287.92079 
L 227.741949 287.746018 
L 228.244694 287.568536 
L 229.049073 287.818683 
L 229.451327 287.910876 
L 229.853451 287.864461 
L 230.758451 287.766289 
L 231.361702 286.988138 
L 231.864448 286.501554 
L 232.166081 286.520589 
L 233.07108 286.788499 
L 233.372699 286.756287 
L 234.679823 287.209111 
L 235.283074 287.075669 
L 235.685328 287.175823 
L 236.791325 287.136828 
L 237.193579 287.229997 
L 237.595704 287.092811 
L 237.897452 287.051625 
L 239.204576 286.589952 
L 239.506209 286.510216 
L 239.807827 286.508644 
L 240.008954 286.402402 
L 240.210081 286.291879 
L 240.813333 285.989312 
L 241.114966 285.940729 
L 242.019951 285.933585 
L 242.42209 285.59388 
L 242.924835 285.722827 
L 243.528087 285.456941 
L 243.930341 285.448579 
L 244.533592 285.197363 
L 245.036338 284.883515 
L 245.338086 284.720767 
L 245.941337 284.666496 
L 246.142464 284.353404 
L 246.444083 283.344023 
L 246.64521 281.802866 
L 246.946842 276.552739 
L 247.348967 262.352713 
L 247.851713 243.841082 
L 248.052839 241.009873 
L 248.153461 240.921519 
L 248.253966 241.542337 
L 248.555585 246.71872 
L 249.56109 266.491399 
L 249.862723 268.516303 
L 249.963344 268.2184 
L 250.164342 265.561457 
L 250.46609 255.814209 
L 251.169847 229.257287 
L 251.270468 228.673489 
L 251.370974 229.206344 
L 251.572087 232.869318 
L 252.678098 261.513634 
L 252.979717 264.190695 
L 253.080338 264.39897 
L 253.180844 264.311347 
L 253.381971 263.228164 
L 253.683589 259.734365 
L 254.387462 250.021792 
L 254.487968 249.635381 
L 254.588589 249.682392 
L 254.789601 250.919961 
L 255.091349 255.25526 
L 256.096725 271.712977 
L 256.59947 275.909457 
L 257.001724 277.687195 
L 257.50447 279.018555 
L 258.107721 280.155288 
L 259.213848 281.39229 
L 259.414845 281.327701 
L 259.716593 280.88173 
L 259.917605 280.120491 
L 260.219353 277.570562 
L 261.124223 266.877532 
L 261.224729 266.765814 
L 261.425856 267.341145 
L 261.727475 269.28005 
L 262.632474 276.012567 
L 263.235726 278.151994 
L 263.537474 278.694152 
L 263.839107 278.853444 
L 264.040104 278.831066 
L 264.643485 278.375522 
L 264.945104 278.493757 
L 265.347358 279.123634 
L 265.850103 279.924025 
L 266.855479 280.81668 
L 267.659973 281.321393 
L 268.062111 281.385472 
L 269.369235 281.488768 
L 269.670854 281.262206 
L 270.877486 280.097873 
L 271.480738 280.504586 
L 271.882992 280.891843 
L 272.285231 281.037269 
L 273.592355 281.486795 
L 273.994494 281.834967 
L 274.899494 281.611054 
L 276.508236 281.556761 
L 276.809869 281.686226 
L 277.212109 281.732385 
L 278.016487 281.926391 
L 278.921487 281.882903 
L 279.323611 281.49361 
L 279.725865 280.599585 
L 280.731371 277.141293 
L 281.032989 276.802018 
L 281.234116 276.837904 
L 281.435114 277.164789 
L 282.943365 280.510392 
L 283.446125 281.075371 
L 283.747743 281.383349 
L 285.255994 282.076329 
L 285.557627 282.02405 
L 286.160994 282.226299 
L 286.563118 282.282933 
L 287.166499 282.352021 
L 287.76975 282.322905 
L 289.378507 282.487808 
L 289.780747 282.451234 
L 292.395009 282.412235 
L 292.797249 282.488807 
L 293.300009 282.400287 
L 293.702133 282.474233 
L 294.908751 282.689577 
L 295.109878 282.774014 
L 295.71313 282.646332 
L 295.914257 282.666901 
L 296.517508 282.412095 
L 297.221381 282.587149 
L 297.523014 282.505687 
L 298.025759 282.562049 
L 298.428013 282.644314 
L 298.629011 282.594812 
L 299.131756 282.725014 
L 299.735137 282.459864 
L 300.338389 282.278325 
L 301.545007 282.05609 
L 302.148258 282.229175 
L 302.550512 282.310432 
L 302.952637 282.312462 
L 303.757015 282.259902 
L 304.058763 282.219245 
L 304.963633 282.264424 
L 305.16476 282.230245 
L 305.466393 282.113835 
L 305.66752 282.136742 
L 305.969139 282.275558 
L 306.773517 282.433083 
L 307.47739 282.567182 
L 307.980135 282.250215 
L 308.281768 282.369349 
L 308.583387 282.571627 
L 308.885019 282.5713 
L 309.588892 282.52444 
L 309.890525 282.629513 
L 310.091637 282.607273 
L 310.292764 282.502914 
L 310.694889 282.55916 
L 312.404267 282.123202 
L 313.309281 282.03294 
L 313.61077 282.084162 
L 314.214036 282.062489 
L 315.118906 281.535023 
L 316.626927 281.280466 
L 317.129543 281.317992 
L 317.431176 281.413829 
L 317.833286 281.606269 
L 320.145556 282.39574 
L 320.748821 282.36216 
L 321.150932 282.365913 
L 321.653576 282.457229 
L 322.35732 282.54108 
L 322.558446 282.523822 
L 323.563707 282.791038 
L 324.26745 282.610805 
L 324.669589 282.617389 
L 325.172349 282.767314 
L 326.177725 282.505719 
L 327.585096 282.533295 
L 327.987235 282.579287 
L 328.590501 282.510503 
L 328.892105 282.513008 
L 329.193738 282.465107 
L 329.495371 282.468761 
L 330.701759 282.649903 
L 331.204375 282.585987 
L 331.606514 282.55076 
L 332.209751 282.61613 
L 332.813017 282.385195 
L 333.215127 282.468037 
L 333.717772 282.595792 
L 334.019405 282.672668 
L 334.421515 282.525539 
L 334.823654 282.620066 
L 335.32627 282.614062 
L 335.728409 282.664195 
L 336.331646 282.55591 
L 336.834291 282.736706 
L 337.739161 282.55183 
L 338.1413 282.508022 
L 338.845043 282.363313 
L 339.247182 282.672553 
L 339.548815 282.677453 
L 340.051431 282.568422 
L 340.353064 282.555141 
L 340.755174 282.336032 
L 341.35844 281.749886 
L 341.660073 280.839705 
L 342.062183 278.390846 
L 342.363701 275.121824 
L 342.765955 267.562999 
L 343.168065 255.447396 
L 343.670709 231.790087 
L 344.273947 191.146526 
L 345.781967 82.983507 
L 346.284584 63.376826 
L 346.586216 57.816255 
L 346.787343 56.704443 
L 346.887849 56.968472 
L 347.088861 59.143907 
L 347.390465 66.13791 
L 347.792604 80.663479 
L 348.596853 121.071544 
L 349.903862 186.855465 
L 350.708111 215.677166 
L 351.411883 232.962251 
L 352.216132 247.139761 
L 352.919875 255.915602 
L 353.623647 262.365478 
L 354.528517 268.595604 
L 355.131639 271.738199 
L 355.835411 274.181403 
L 356.539154 276.037548 
L 356.941293 276.568309 
L 357.645036 277.083491 
L 357.946669 277.300531 
L 358.147681 277.248931 
L 358.851424 276.688321 
L 360.460066 276.037327 
L 361.063188 276.235452 
L 361.565948 276.575197 
L 361.968058 277.00101 
L 362.571209 277.884407 
L 362.973319 278.583388 
L 364.079201 279.581445 
L 364.481455 280.088531 
L 364.883594 280.53181 
L 365.587337 281.035696 
L 365.888826 281.135559 
L 366.592597 281.540489 
L 367.095357 281.658561 
L 367.698479 281.954809 
L 368.000112 281.940725 
L 368.402223 281.922942 
L 368.703855 282.106749 
L 369.005488 282.185661 
L 369.407598 282.217057 
L 369.709231 282.219331 
L 370.11137 282.162489 
L 370.815113 282.381153 
L 371.820374 282.449533 
L 372.42364 282.611842 
L 372.725244 282.56487 
L 373.32851 282.337326 
L 373.529522 282.385393 
L 373.931632 282.64834 
L 374.233265 282.645326 
L 374.534898 282.617014 
L 374.937008 282.685551 
L 375.339147 282.424501 
L 376.143396 282.705762 
L 376.545535 282.704192 
L 378.455666 282.520053 
L 378.757299 282.722997 
L 379.058932 282.557133 
L 379.26003 282.418586 
L 379.561548 282.534729 
L 379.863181 282.674958 
L 380.164785 282.625017 
L 381.672806 282.516437 
L 381.974439 282.432939 
L 383.080321 282.622849 
L 383.482431 282.360645 
L 384.286709 282.40577 
L 384.588313 282.362909 
L 385.191579 282.428952 
L 386.096334 282.504579 
L 387.403343 282.550171 
L 388.308098 282.379888 
L 388.911363 282.456889 
L 389.514601 282.540939 
L 390.017245 282.584139 
L 390.419356 282.489704 
L 390.922 282.483719 
L 391.223605 282.485631 
L 391.927376 282.549748 
L 392.329487 282.589567 
L 392.832246 282.703277 
L 393.133764 282.757381 
L 393.535874 282.772592 
L 393.938128 282.753179 
L 395.04401 282.648212 
L 395.647132 282.705429 
L 396.149892 282.531255 
L 396.85352 282.623445 
L 397.35628 282.498325 
L 397.557292 282.471409 
L 398.361656 282.54573 
L 398.562668 282.528504 
L 399.165905 282.704058 
L 400.57342 282.679473 
L 401.176542 282.552451 
L 401.779808 282.586694 
L 402.785184 282.621498 
L 403.388306 282.825082 
L 404.192584 282.595081 
L 404.695315 282.730183 
L 405.097454 282.747223 
L 406.806458 282.703184 
L 407.309218 282.556672 
L 407.51023 282.571131 
L 408.113467 282.830488 
L 409.219349 282.423345 
L 409.721965 282.397021 
L 410.124104 282.537073 
L 410.425737 282.585625 
L 410.72737 282.684985 
L 412.034378 282.468277 
L 412.335868 282.509053 
L 412.6375 282.44016 
L 414.849264 282.604045 
L 415.351996 282.444464 
L 415.653513 282.508611 
L 416.055767 282.510497 
L 416.357256 282.532036 
L 416.860016 282.631319 
L 418.066404 282.516995 
L 419.272792 282.835012 
L 419.574425 282.727371 
L 419.876029 282.732562 
L 420.579801 282.662017 
L 420.981911 282.744267 
L 421.786189 282.527691 
L 421.987287 282.587703 
L 422.389426 282.77077 
L 422.892071 282.701819 
L 423.495308 282.676674 
L 424.09843 282.730724 
L 424.802202 282.446776 
L 425.304933 282.538326 
L 425.807578 282.498053 
L 426.310194 282.680191 
L 426.812954 282.499029 
L 427.215093 282.623016 
L 427.918836 282.557511 
L 428.723085 282.628572 
L 429.326351 282.596666 
L 429.929473 282.657893 
L 430.331612 282.479729 
L 430.633216 282.444624 
L 430.834343 282.535978 
L 431.135861 282.713726 
L 431.638621 282.569469 
L 432.040731 282.682592 
L 432.543376 282.644824 
L 433.046107 282.574151 
L 433.448246 282.559605 
L 433.850385 282.70939 
L 434.151989 282.712935 
L 434.956266 282.721565 
L 435.458883 282.581647 
L 435.961642 282.690201 
L 436.363753 282.439369 
L 436.765891 282.612646 
L 436.966903 282.717687 
L 437.57014 282.595645 
L 437.871773 282.638733 
L 438.173406 282.776172 
L 438.877149 282.584629 
L 439.178667 282.684399 
L 441.390431 282.304741 
L 441.692035 282.256661 
L 442.094174 282.488305 
L 442.596934 282.301674 
L 442.999044 282.61305 
L 444.004305 282.190734 
L 444.708077 282.31693 
L 445.210808 282.106777 
L 447.523078 282.207303 
L 447.925217 282.104513 
L 448.226821 282.155088 
L 448.427833 282.18497 
L 448.62896 282.108987 
L 449.031099 282.12178 
L 449.433209 282.045132 
L 451.644973 281.451425 
L 452.047112 281.534792 
L 453.052488 281.194492 
L 453.354121 281.171089 
L 453.756231 280.959426 
L 454.057864 280.937486 
L 454.962619 281.132693 
L 455.163746 281.175541 
L 455.364758 281.177731 
L 457.174383 281.62606 
L 457.576522 281.687264 
L 458.682403 281.956452 
L 458.984036 282.154749 
L 459.285641 282.088043 
L 459.687779 282.03523 
L 460.391523 282.365455 
L 461.1958 282.207303 
L 461.799037 282.201055 
L 462.603286 282.407743 
L 463.005425 282.296566 
L 463.307058 282.454987 
L 463.608662 282.367108 
L 464.010801 282.39842 
L 464.513446 282.488862 
L 465.116683 282.401229 
L 466.524198 282.538825 
L 466.72521 282.48573 
L 467.12732 282.608541 
L 467.63008 282.602328 
L 468.333708 282.773271 
L 469.238578 282.535203 
L 469.640717 282.857282 
L 469.841844 282.816317 
L 470.143333 282.622138 
L 470.847105 282.693689 
L 471.249215 282.856709 
L 471.751975 282.731393 
L 472.154114 282.837302 
L 472.958363 282.662421 
L 473.360473 282.785389 
L 473.662106 282.676495 
L 473.963739 282.585874 
L 475.572237 282.630061 
L 476.276009 282.634448 
L 477.784001 282.674343 
L 478.085634 282.687623 
L 478.6889 282.647168 
L 478.990389 282.703757 
L 479.292022 282.663397 
L 479.794782 282.818139 
L 480.196892 282.658328 
L 480.800042 282.78665 
L 482.308035 282.567422 
L 482.609667 282.515787 
L 482.9113 282.721748 
L 483.212933 282.757413 
L 483.81617 282.553265 
L 484.318815 282.637862 
L 485.022558 282.473516 
L 485.324191 282.591171 
L 485.726301 282.454395 
L 486.12844 282.565443 
L 487.736938 282.676184 
L 488.44071 282.694608 
L 488.943326 282.778065 
L 489.34558 282.669325 
L 489.647098 282.511864 
L 490.451462 282.784982 
L 490.75298 282.81739 
L 491.65785 282.494658 
L 491.959483 282.557476 
L 493.165842 282.744104 
L 493.567981 282.790548 
L 494.070626 282.69911 
L 494.37223 282.589035 
L 494.573357 282.635034 
L 494.975496 282.875872 
L 495.679239 282.812292 
L 495.980872 282.801474 
L 496.282361 282.7874 
L 496.6845 282.794237 
L 496.986133 282.686435 
L 497.790382 282.80703 
L 498.795758 282.719397 
L 500.102767 282.590896 
L 500.504906 282.596795 
L 501.309155 282.70115 
L 502.012898 282.56667 
L 502.917653 282.761813 
L 503.11878 282.7419 
L 503.319792 282.745112 
L 503.822552 282.629446 
L 505.632177 282.854794 
L 507.84394 282.585746 
L 508.246079 282.874149 
L 508.648189 282.664333 
L 508.949822 282.573392 
L 509.754071 282.660807 
L 510.256716 282.706751 
L 511.060965 282.615576 
L 511.463219 282.48688 
L 511.664231 282.505165 
L 512.166847 282.759043 
L 512.87059 282.732383 
L 513.976472 282.789171 
L 514.680244 282.684059 
L 515.082354 282.713265 
L 515.484493 282.634342 
L 515.886747 282.548192 
L 516.489869 282.511493 
L 517.193612 282.660954 
L 517.595751 282.643485 
L 518.199017 282.620876 
L 518.4 282.631114 
L 518.4 282.631114 
" clip-path="url(#p51c48db763)" style="fill: none; stroke: #008000; stroke-width: 1.5; stroke-linecap: square"/>
   </g>
   <g id="line2d_17">
    <path d="M 72 320.4 
L 73.206504 325.849982 
L 73.608672 327.054151 
L 73.910298 327.251435 
L 74.211924 326.914018 
L 74.51355 325.772455 
L 75.116802 322.288301 
L 77.529808 304.381791 
L 78.032517 302.95004 
L 78.233601 302.703075 
L 78.535226 302.804519 
L 79.138478 303.988181 
L 79.942814 307.014448 
L 81.048775 311.473798 
L 81.953652 313.586008 
L 82.858529 314.70351 
L 83.059613 314.840544 
L 83.461781 315.210536 
L 83.863949 315.411199 
L 84.768831 315.244615 
L 85.975323 314.897963 
L 86.176412 314.840375 
L 86.478037 314.886747 
L 86.980751 315.094854 
L 87.181827 314.930234 
L 87.483453 314.757808 
L 87.785079 314.949262 
L 87.986168 314.950581 
L 88.891045 314.950552 
L 89.092134 315.019431 
L 90.499714 314.753635 
L 90.901878 315.044996 
L 92.510558 315.013968 
L 92.812183 315.039646 
L 93.01326 315.085572 
L 94.320314 314.849024 
L 94.521391 314.839668 
L 94.823016 315.015222 
L 95.024104 314.889305 
L 95.526806 314.628127 
L 96.331147 314.524283 
L 96.632773 314.773989 
L 97.437113 314.544379 
L 97.839277 314.650667 
L 98.040365 314.975963 
L 98.24144 315.851595 
L 98.543067 318.592867 
L 99.04578 323.362908 
L 99.246857 323.81356 
L 99.447944 323.424071 
L 99.850108 321.773668 
L 100.252285 319.551489 
L 100.654449 314.682717 
L 101.257701 306.461668 
L 101.559326 304.399939 
L 101.760416 303.99665 
L 102.062041 304.151246 
L 102.363665 304.82432 
L 104.072874 312.636686 
L 104.575587 313.376994 
L 105.279377 314.183094 
L 105.480465 314.275755 
L 106.083716 314.809169 
L 106.385342 315.107315 
L 106.586418 315.022526 
L 107.18967 314.643622 
L 107.792925 314.571971 
L 108.597264 314.167062 
L 110.306469 314.669309 
L 110.708644 314.644821 
L 111.211346 314.892562 
L 111.915136 315.068068 
L 112.116227 315.108616 
L 112.518391 315.326306 
L 112.920566 315.225333 
L 113.423269 315.706314 
L 113.925982 315.592157 
L 114.931397 315.677544 
L 115.132485 315.66103 
L 115.534649 315.775512 
L 116.037366 315.817973 
L 116.238439 315.880174 
L 117.042781 315.372508 
L 117.344407 315.318844 
L 117.646033 315.251167 
L 118.450371 315.477914 
L 118.953074 315.180246 
L 119.455787 315.035825 
L 119.857951 315.101626 
L 120.059042 315.058682 
L 120.662294 314.867901 
L 121.164996 314.917126 
L 121.868797 314.964309 
L 122.170422 314.949566 
L 122.572586 315.231953 
L 122.97475 315.306687 
L 123.376925 315.169708 
L 123.678555 315.002386 
L 124.382344 315.21641 
L 124.68397 315.120518 
L 125.38776 315.319776 
L 125.689386 314.956878 
L 125.991011 313.858607 
L 126.393175 312.374074 
L 126.594263 312.248394 
L 126.79535 312.494194 
L 127.901304 314.487845 
L 128.20293 314.523247 
L 128.404021 314.677722 
L 128.705647 315.077581 
L 130.113226 315.555864 
L 130.414852 315.661799 
L 130.515401 315.704254 
L 130.716478 315.588395 
L 131.219191 315.784604 
L 131.520817 315.709863 
L 132.425698 315.957129 
L 132.928407 315.995923 
L 133.330575 316.109055 
L 134.838703 316.136985 
L 135.039794 316.184574 
L 135.34142 316.280455 
L 135.542497 316.175616 
L 135.844123 316.010752 
L 136.648458 316.071685 
L 138.257129 315.848363 
L 138.45822 315.893754 
L 138.960915 315.829753 
L 139.363097 316.040663 
L 139.966348 315.886643 
L 140.469051 316.068883 
L 140.670134 316.177513 
L 141.172837 316.017045 
L 141.675554 315.980523 
L 142.077714 316.108508 
L 142.37934 316.051965 
L 142.680966 316.253938 
L 142.882057 316.29455 
L 143.183682 316.158458 
L 143.786934 316.088039 
L 144.08856 316.188191 
L 144.490727 316.085029 
L 144.691811 316.091038 
L 145.194513 316.149802 
L 145.596688 315.989277 
L 145.998856 315.939878 
L 146.401016 315.644341 
L 147.205359 315.819872 
L 147.607527 315.872589 
L 148.110236 316.042019 
L 148.411862 316.093182 
L 148.914579 315.752451 
L 149.21619 315.885997 
L 149.417281 315.962667 
L 149.618365 315.961966 
L 150.020532 315.74966 
L 150.121067 315.724417 
L 150.422693 315.896818 
L 151.025944 316.115146 
L 151.729752 316.230796 
L 152.232455 315.934996 
L 152.735164 315.994954 
L 153.640041 316.084709 
L 153.841118 316.069341 
L 154.042209 316.010084 
L 154.444369 315.824533 
L 154.745995 316.017349 
L 155.148177 316.442312 
L 155.449803 316.472902 
L 156.053055 316.134552 
L 156.857383 316.366257 
L 157.360092 316.267535 
L 157.561169 316.318926 
L 158.16442 315.970854 
L 158.466046 316.07556 
L 159.572014 316.315409 
L 160.175266 316.412667 
L 160.476892 316.628401 
L 161.180685 316.469051 
L 161.683394 316.616729 
L 161.884471 316.662791 
L 162.186097 316.455848 
L 162.487723 316.187948 
L 163.292065 316.523172 
L 163.493156 316.620676 
L 164.800194 316.371417 
L 165.001285 316.41327 
L 165.503987 316.216882 
L 165.906162 316.524539 
L 166.107239 316.650355 
L 166.408864 316.525886 
L 166.609948 316.609926 
L 166.911574 316.911081 
L 167.112651 316.904058 
L 168.218619 316.594742 
L 168.41971 316.56558 
L 168.82187 316.532113 
L 169.224038 316.511966 
L 169.525664 316.326461 
L 169.726748 316.463948 
L 170.128915 316.736184 
L 171.134327 316.394802 
L 171.637044 316.777644 
L 171.838128 316.871781 
L 172.441386 316.429115 
L 173.044638 317.034638 
L 173.346264 316.69378 
L 173.54734 316.523674 
L 173.848966 316.601064 
L 174.150592 316.934059 
L 174.452218 316.988231 
L 175.156004 316.729665 
L 175.759255 316.315113 
L 176.261972 316.463296 
L 176.865224 316.315754 
L 177.36794 316.728379 
L 177.669566 316.588001 
L 177.971192 316.424797 
L 178.172268 316.509006 
L 178.473894 316.727078 
L 179.579855 316.629196 
L 179.982023 316.403348 
L 180.183107 316.36922 
L 180.48474 316.391844 
L 181.590693 316.653587 
L 181.791777 316.721662 
L 182.495571 317.07219 
L 182.797196 316.917355 
L 183.299906 317.258983 
L 183.802608 316.875898 
L 184.908577 317.115567 
L 185.109668 316.999616 
L 185.813454 317.188919 
L 186.517247 316.969427 
L 187.019957 315.728556 
L 187.422124 315.647071 
L 188.025376 316.451884 
L 188.327002 316.378012 
L 188.528086 316.487334 
L 188.829718 316.748356 
L 189.030788 316.709197 
L 189.231879 316.667952 
L 189.43297 316.720913 
L 189.83513 317.115957 
L 190.036221 317.199156 
L 190.337847 317.109773 
L 190.740008 316.667278 
L 190.941099 316.674877 
L 191.142175 316.794071 
L 191.443801 317.112535 
L 191.644885 317.046151 
L 192.047053 316.874747 
L 192.348678 316.949955 
L 193.153042 316.866183 
L 193.454661 316.80541 
L 193.756294 316.913647 
L 193.957421 316.843469 
L 194.86242 316.241343 
L 195.465672 316.603154 
L 195.666799 316.677371 
L 195.76729 316.668735 
L 196.27005 317.239184 
L 196.973923 316.848807 
L 197.677795 316.99562 
L 198.281047 317.342217 
L 198.582665 317.271651 
L 198.984919 316.8247 
L 199.487665 316.620096 
L 199.789298 316.447636 
L 201.196928 316.878482 
L 201.498676 317.003969 
L 202.504052 317.337246 
L 203.006797 317.272388 
L 203.308545 317.397225 
L 203.509557 317.38968 
L 204.314051 316.847503 
L 204.515048 316.925194 
L 204.816681 317.180459 
L 205.017808 317.220917 
L 205.520554 317.134358 
L 206.425553 317.817026 
L 206.827678 317.793693 
L 207.028805 317.829566 
L 207.933804 317.387031 
L 208.235423 317.334086 
L 209.039801 316.638167 
L 209.240928 316.598014 
L 209.643052 316.460923 
L 210.145812 316.838535 
L 210.648558 316.679398 
L 211.251924 316.927786 
L 211.654063 317.120261 
L 211.955682 317.253773 
L 212.357936 317.133831 
L 212.659554 317.229787 
L 213.162314 317.2473 
L 213.564554 317.659678 
L 214.167805 317.420592 
L 214.469438 317.515625 
L 214.670565 317.507836 
L 215.07269 317.259052 
L 215.374438 317.364022 
L 216.078195 317.353783 
L 216.379929 317.168051 
L 216.480435 317.173379 
L 216.782068 317.412659 
L 217.083686 317.483415 
L 217.284813 317.502316 
L 217.988686 317.717683 
L 218.290319 317.640749 
L 218.491431 317.599913 
L 218.994191 317.684624 
L 219.698064 317.488787 
L 219.899061 317.548653 
L 220.200694 317.773734 
L 221.306821 317.326064 
L 221.809566 317.458379 
L 222.111185 317.435999 
L 222.513439 317.333289 
L 223.418323 317.536813 
L 223.619436 317.512495 
L 223.921069 317.455303 
L 224.122196 317.494807 
L 224.826068 317.227015 
L 225.127687 317.027441 
L 225.529826 316.706497 
L 226.233698 316.833268 
L 226.535317 316.832414 
L 227.842455 316.879303 
L 228.244694 316.87786 
L 228.74744 317.068111 
L 229.049073 317.170644 
L 229.551818 317.597452 
L 230.758451 317.607013 
L 231.060069 317.229781 
L 231.361702 316.879405 
L 231.964954 316.620774 
L 232.266702 316.728287 
L 233.473205 317.323558 
L 233.674332 317.24104 
L 233.97595 317.358212 
L 234.378204 317.70812 
L 234.679823 317.71772 
L 234.981456 317.532732 
L 235.182583 317.39747 
L 236.28858 317.306005 
L 237.092958 317.807218 
L 237.394706 317.778932 
L 237.796831 317.875564 
L 238.098464 317.957735 
L 238.299576 317.884215 
L 238.601209 317.68295 
L 238.902828 317.718674 
L 240.008954 317.842235 
L 240.913839 317.634006 
L 241.316078 317.800684 
L 241.718217 317.790092 
L 242.019951 317.673109 
L 242.42209 317.520367 
L 242.824329 317.793682 
L 243.226468 317.657915 
L 243.528087 317.584901 
L 243.930341 317.583491 
L 244.33258 317.501018 
L 244.533592 317.570084 
L 244.83534 317.455039 
L 245.338086 317.065838 
L 245.639704 317.061782 
L 245.840716 317.06085 
L 246.041843 316.831471 
L 246.343462 316.068493 
L 246.544589 315.085724 
L 246.745715 313.033579 
L 247.047334 306.439974 
L 248.052839 273.824489 
L 248.153461 273.755468 
L 248.354472 275.764014 
L 248.857218 286.406828 
L 249.460584 298.167027 
L 249.762217 301.316688 
L 249.862723 301.53485 
L 249.963344 301.266882 
L 250.164342 298.673778 
L 250.46609 289.026924 
L 251.069341 264.229597 
L 251.270468 261.995738 
L 251.370974 262.587633 
L 251.572087 266.298501 
L 252.678098 294.982191 
L 252.979717 297.758505 
L 253.080338 297.951227 
L 253.180844 297.826208 
L 253.381971 296.712153 
L 253.683589 293.310704 
L 254.387462 283.750923 
L 254.487968 283.323454 
L 254.588589 283.412579 
L 254.789601 284.697784 
L 255.19184 290.903523 
L 256.197346 306.90279 
L 256.700091 310.670176 
L 257.303343 312.884776 
L 257.806103 314.152703 
L 258.208342 314.727456 
L 258.9121 315.852611 
L 259.213848 316.19726 
L 259.414845 316.173929 
L 259.716593 315.727007 
L 259.917605 314.930326 
L 260.219353 312.350478 
L 261.124223 301.842241 
L 261.224729 301.781155 
L 261.425856 302.396529 
L 261.727475 304.361571 
L 262.531968 310.600126 
L 263.034728 312.58135 
L 263.436853 313.463238 
L 263.939598 314.082429 
L 264.140725 313.982642 
L 264.54285 313.485361 
L 264.844598 313.579717 
L 265.146231 313.938851 
L 265.648976 314.883348 
L 266.051101 315.255941 
L 266.754987 315.987896 
L 267.056606 316.201746 
L 267.860984 316.689329 
L 268.062111 316.720964 
L 268.564857 316.56206 
L 268.967111 316.651687 
L 269.972602 316.265066 
L 270.475362 315.552956 
L 270.77698 315.404746 
L 271.078613 315.70239 
L 271.279726 316.078519 
L 271.782486 317.174832 
L 272.285231 317.752065 
L 272.486243 317.725696 
L 272.988989 317.484066 
L 273.491734 317.369036 
L 273.793482 317.55077 
L 273.994494 317.505814 
L 274.296113 317.259499 
L 274.597861 317.134775 
L 274.899494 316.895599 
L 275.100606 316.855688 
L 275.301618 316.925801 
L 275.904985 316.873994 
L 277.111488 316.869968 
L 277.513742 317.145753 
L 278.418741 316.899689 
L 278.921487 316.968527 
L 279.524738 316.230348 
L 279.725865 315.71397 
L 280.731371 312.193435 
L 281.032989 311.952477 
L 281.234116 312.101175 
L 281.435114 312.547072 
L 282.239492 314.827991 
L 283.345619 316.358065 
L 283.848364 316.771095 
L 284.149997 316.784156 
L 284.451616 316.968478 
L 285.255994 317.401328 
L 285.557627 317.410041 
L 285.959867 317.515725 
L 286.764245 317.41022 
L 287.166499 317.574316 
L 287.568624 317.400694 
L 288.272496 317.49602 
L 288.775256 317.578546 
L 289.680126 317.4926 
L 290.283507 317.682318 
L 291.087871 317.392994 
L 291.288998 317.474497 
L 291.490125 317.450091 
L 291.791758 317.464198 
L 292.495501 317.535868 
L 292.797249 317.717511 
L 293.4005 317.573928 
L 293.802754 317.590431 
L 294.003752 317.571709 
L 294.406006 317.657671 
L 294.607133 317.592616 
L 295.210384 317.822235 
L 295.612624 317.818574 
L 295.914257 317.972165 
L 296.115384 317.837092 
L 296.517508 317.534201 
L 297.020254 317.799886 
L 297.422508 317.693388 
L 297.824632 317.782729 
L 298.126265 317.671301 
L 298.327378 317.652426 
L 298.930759 317.961222 
L 299.131756 317.948716 
L 299.53401 317.68701 
L 300.036756 317.66449 
L 301.444386 317.312969 
L 301.947131 317.422623 
L 302.349385 317.198271 
L 302.651018 317.438056 
L 303.053258 317.649482 
L 304.058763 317.422977 
L 304.662015 317.487066 
L 305.566885 317.229034 
L 306.170266 317.594744 
L 306.673011 317.621929 
L 307.276263 317.632533 
L 307.577895 317.747197 
L 308.080641 317.379546 
L 308.382274 317.553991 
L 308.784513 317.832205 
L 309.588892 317.747007 
L 309.790019 317.882352 
L 310.292764 317.747458 
L 310.493891 317.849708 
L 310.795524 317.785493 
L 310.996637 317.581761 
L 311.499397 317.557454 
L 311.901521 317.620583 
L 312.504773 317.339384 
L 312.907027 317.449713 
L 314.51564 317.005761 
L 314.716652 316.926129 
L 314.917779 316.897838 
L 315.219412 316.79123 
L 315.621522 316.519176 
L 316.023661 316.46451 
L 316.626927 316.401377 
L 316.928416 316.450553 
L 317.129543 316.496347 
L 317.33067 316.581231 
L 317.732809 316.830072 
L 318.235425 317.025049 
L 318.637564 316.979551 
L 319.743445 317.545912 
L 320.04505 317.542606 
L 320.547695 317.737864 
L 321.351944 317.517396 
L 322.055687 317.813154 
L 322.457825 317.635059 
L 322.860079 317.878952 
L 323.563707 318.091603 
L 323.86534 317.950218 
L 324.166973 317.989006 
L 324.468577 318.001567 
L 324.870716 318.043077 
L 325.172349 318.063596 
L 325.775471 317.738164 
L 326.077104 317.787663 
L 326.579835 318.133962 
L 327.182986 317.817016 
L 327.484619 317.749507 
L 327.886729 318.064249 
L 328.087856 318.144164 
L 328.590501 317.99943 
L 328.992611 317.935437 
L 329.495371 317.788502 
L 329.997987 317.967154 
L 330.29962 317.861997 
L 330.500632 317.984206 
L 330.802265 318.171 
L 330.902742 318.182068 
L 331.304881 317.842555 
L 331.606514 317.821496 
L 332.008624 317.987134 
L 332.209751 318.039699 
L 332.813017 317.852889 
L 333.315633 317.937622 
L 333.516645 318.008779 
L 333.818278 318.240501 
L 334.019405 318.280589 
L 334.522021 318.101888 
L 335.426891 318.127386 
L 336.231169 318.018722 
L 336.633279 318.318231 
L 337.337051 317.826217 
L 337.437528 317.819887 
L 337.839667 318.197683 
L 338.040794 318.188959 
L 338.442933 317.883153 
L 338.643916 317.768673 
L 338.945549 317.962819 
L 339.247182 318.184212 
L 339.749798 318.225012 
L 340.554191 318.031973 
L 340.755174 317.882718 
L 341.257819 317.500205 
L 341.660073 316.319006 
L 342.062183 314.026425 
L 342.363701 310.749905 
L 342.765955 303.145524 
L 343.168065 290.967923 
L 343.670709 267.419568 
L 344.273947 226.786953 
L 345.781967 118.498798 
L 346.284584 98.83742 
L 346.586216 93.49789 
L 346.787343 92.461961 
L 346.887849 92.646008 
L 347.088861 94.745072 
L 347.390465 101.70677 
L 347.792604 116.191657 
L 348.496347 151.297685 
L 349.903862 222.536075 
L 350.708111 251.361677 
L 351.411883 268.650585 
L 352.216132 282.773284 
L 353.020381 292.835834 
L 353.925251 300.402282 
L 354.729529 305.414362 
L 355.433272 308.823936 
L 355.935917 310.481402 
L 356.740281 312.221589 
L 357.041799 312.530779 
L 358.147681 313.201282 
L 358.650412 312.745958 
L 359.052551 312.392775 
L 359.354184 312.236853 
L 359.8568 311.967886 
L 360.359445 311.78808 
L 361.264315 312.279772 
L 361.465327 312.371168 
L 361.968058 312.969168 
L 363.274952 314.826208 
L 363.476079 314.948627 
L 363.878189 315.504425 
L 364.481455 316.172817 
L 364.883594 316.59509 
L 365.486716 316.803629 
L 366.492092 317.558983 
L 367.195835 317.654484 
L 367.497468 317.821191 
L 367.7991 318.066858 
L 368.000112 318.031009 
L 368.301717 317.930436 
L 368.502728 318.000278 
L 369.407598 318.446216 
L 369.60861 318.452164 
L 370.010864 318.238108 
L 370.211876 318.33237 
L 370.412974 318.502697 
L 371.016125 318.459082 
L 371.418235 318.341285 
L 372.122007 318.690176 
L 372.42364 318.61815 
L 372.82575 318.433756 
L 373.127383 318.25577 
L 374.132759 318.694546 
L 374.635404 318.788274 
L 374.836502 318.823037 
L 375.439653 318.470709 
L 375.64078 318.659741 
L 375.841763 318.89284 
L 376.344523 318.652583 
L 376.847168 318.865563 
L 377.349784 318.835044 
L 377.752038 318.61637 
L 378.35516 318.738076 
L 378.85792 318.8479 
L 379.360536 318.602301 
L 379.863181 318.903874 
L 380.164785 318.818986 
L 380.466418 318.738362 
L 381.17019 318.666001 
L 381.371173 318.679568 
L 381.5723 318.692129 
L 381.773312 318.646884 
L 382.376549 318.636505 
L 382.678182 318.977291 
L 382.879194 319.045289 
L 383.080321 318.868942 
L 383.381954 318.532984 
L 383.784064 318.538584 
L 384.085697 318.447283 
L 384.688819 318.440443 
L 385.090958 318.684045 
L 385.493212 318.66461 
L 385.995828 318.806846 
L 386.498473 318.542051 
L 386.800077 318.697393 
L 387.302722 318.887002 
L 388.207592 318.593801 
L 388.408604 318.556661 
L 389.011841 318.758653 
L 389.816118 318.840916 
L 390.218229 318.611341 
L 390.821494 318.664801 
L 391.022621 318.608523 
L 391.324111 318.844077 
L 391.525237 318.893162 
L 391.82687 318.650566 
L 392.229009 318.629816 
L 392.731625 318.740548 
L 392.932752 318.732545 
L 393.234385 318.858963 
L 393.435368 318.955711 
L 394.239646 319.075488 
L 394.742377 318.846982 
L 395.345528 318.816403 
L 395.647132 319.01376 
L 396.45141 318.890614 
L 396.753014 318.869771 
L 397.456786 318.698276 
L 397.858896 318.705472 
L 398.060023 318.72283 
L 398.261035 318.661873 
L 398.462162 318.517162 
L 399.065284 318.906582 
L 399.467538 318.929528 
L 399.869677 318.969168 
L 400.271787 318.879077 
L 400.57342 318.919827 
L 401.277048 318.776887 
L 401.679302 318.784156 
L 402.081441 318.619637 
L 402.785184 318.607101 
L 403.2878 319.145153 
L 403.891066 318.90949 
L 404.594694 318.90739 
L 404.896327 318.981118 
L 406.10283 319.027368 
L 406.705952 319.058435 
L 407.108091 318.866499 
L 408.213973 319.034728 
L 408.314594 319.098561 
L 409.018222 318.602183 
L 409.319855 318.704095 
L 409.520982 318.643764 
L 409.721965 318.52843 
L 410.626864 318.828051 
L 411.028974 318.956057 
L 411.330607 318.942584 
L 411.63224 318.775265 
L 411.933729 318.725277 
L 412.235362 318.788869 
L 412.536995 318.827598 
L 412.939133 318.671641 
L 414.34662 319.054752 
L 414.547631 319.147014 
L 414.949885 318.838452 
L 415.150897 318.699018 
L 415.452501 318.688693 
L 415.85464 318.892499 
L 416.357256 318.668151 
L 417.161649 318.99511 
L 417.664265 318.762364 
L 417.965898 318.710658 
L 418.468543 318.934397 
L 420.579801 318.982634 
L 421.082417 319.059628 
L 421.38405 318.966982 
L 421.786189 318.778252 
L 422.188299 318.944022 
L 422.489932 319.11388 
L 423.796941 319.035329 
L 424.09843 319.052902 
L 424.500569 318.896704 
L 424.802202 318.826471 
L 425.405439 318.768485 
L 425.707072 318.736557 
L 426.109211 319.016884 
L 426.410815 319.053925 
L 426.91346 319.13477 
L 427.416076 318.811891 
L 427.617203 318.844894 
L 428.019342 318.836883 
L 428.320975 319.034545 
L 430.633216 318.900732 
L 431.135861 319.140089 
L 431.638621 318.872713 
L 432.241743 318.949807 
L 432.543376 318.941489 
L 433.649258 319.01086 
L 433.850385 319.018128 
L 434.051368 319.005165 
L 434.554128 319.187554 
L 434.956266 319.112484 
L 435.458883 319.098198 
L 435.760515 319.015604 
L 436.062148 318.837707 
L 436.363753 318.68539 
L 436.966903 319.191242 
L 437.369014 319.002356 
L 437.871773 319.050621 
L 438.273912 319.131593 
L 438.37439 319.127923 
L 438.676022 318.889899 
L 438.877149 318.954937 
L 439.178667 319.192171 
L 439.480271 319.17234 
L 439.681398 319.139177 
L 440.083537 319.099521 
L 440.38517 318.988112 
L 440.686659 318.890569 
L 441.692035 318.633938 
L 442.094174 318.959283 
L 442.295301 318.775912 
L 442.496313 318.626558 
L 442.697411 318.825903 
L 442.898423 319.077802 
L 443.09955 319.022351 
L 443.501689 318.615487 
L 443.702816 318.607957 
L 444.004305 318.649171 
L 444.305938 318.801757 
L 444.507065 318.800393 
L 444.808698 318.581888 
L 445.210808 318.592424 
L 445.612947 318.83609 
L 446.216069 318.868582 
L 447.925217 318.652938 
L 448.126344 318.648844 
L 448.528454 318.545109 
L 448.729466 318.638702 
L 450.136981 318.288975 
L 450.338108 318.36093 
L 450.840724 318.145522 
L 451.041851 318.141545 
L 451.44399 317.816377 
L 452.147733 318.020922 
L 452.650349 317.768216 
L 453.152994 317.711247 
L 453.957243 317.4914 
L 454.560509 317.606902 
L 454.761636 317.617116 
L 455.264252 317.728164 
L 455.465379 317.869791 
L 455.565885 317.853215 
L 455.766868 317.99243 
L 456.169007 318.02335 
L 457.174383 318.004506 
L 457.878154 318.367285 
L 458.783025 318.432467 
L 459.084514 318.648808 
L 459.285641 318.600909 
L 459.587274 318.442827 
L 459.788285 318.581854 
L 460.190396 318.901555 
L 461.095294 318.822104 
L 461.497404 318.861562 
L 462.603286 319.07191 
L 463.005425 318.737445 
L 463.307058 318.885892 
L 465.418316 318.976361 
L 465.719805 318.824405 
L 466.423577 319.269472 
L 467.730586 319.227088 
L 468.233202 319.41743 
L 468.534835 319.153509 
L 468.836468 318.969197 
L 469.138072 319.172235 
L 469.640717 319.502504 
L 469.94235 319.324414 
L 470.646093 319.154975 
L 470.947726 319.278482 
L 471.148709 319.372516 
L 471.751975 319.298882 
L 472.053608 319.565794 
L 472.455718 319.314054 
L 472.757236 319.187964 
L 473.15949 319.293935 
L 473.360473 319.221541 
L 473.662106 319.172915 
L 473.863118 319.157981 
L 474.265372 319.231105 
L 474.868494 319.475571 
L 475.87387 319.112078 
L 476.175503 319.110041 
L 476.376515 319.198194 
L 476.678119 319.356722 
L 477.482397 319.396663 
L 477.683524 319.375477 
L 477.884507 319.481666 
L 478.18614 319.628054 
L 478.387267 319.506114 
L 478.588279 319.350395 
L 478.889883 319.397994 
L 479.292022 319.605487 
L 480.096271 319.559608 
L 480.397904 319.597577 
L 480.900663 319.534653 
L 481.40328 319.363108 
L 482.107051 319.370495 
L 482.408656 319.353543 
L 482.710289 319.460978 
L 483.011806 319.51557 
L 483.313411 319.376367 
L 483.615043 319.476318 
L 483.81617 319.556376 
L 484.318815 319.353656 
L 484.821431 319.104651 
L 485.324191 319.397155 
L 485.62568 319.144723 
L 485.826807 319.245395 
L 486.12844 319.582511 
L 486.329452 319.571457 
L 486.631056 319.555847 
L 487.133816 319.637259 
L 487.736938 319.52435 
L 488.139077 319.59 
L 488.340204 319.63209 
L 488.541216 319.545896 
L 489.043947 319.501608 
L 489.34558 319.544542 
L 489.747719 319.455755 
L 490.049208 319.467431 
L 490.350841 319.676414 
L 490.75298 319.725229 
L 491.054584 319.594104 
L 491.255711 319.44488 
L 491.456723 319.403299 
L 492.05996 319.555662 
L 492.260972 319.485497 
L 492.663226 319.315956 
L 493.065365 319.523684 
L 493.366854 319.825137 
L 493.668487 319.786742 
L 494.37223 319.513541 
L 494.975496 319.868397 
L 495.377606 319.721248 
L 495.880251 319.737063 
L 496.181884 319.660326 
L 496.583994 319.697312 
L 496.885627 319.584419 
L 496.986133 319.566346 
L 497.388243 319.834435 
L 497.58937 319.779104 
L 498.092015 319.590923 
L 498.695252 319.698298 
L 499.097391 319.789984 
L 499.49953 319.41913 
L 499.700657 319.329477 
L 501.610788 319.727342 
L 502.415037 319.551976 
L 503.018274 319.800433 
L 503.219286 319.81819 
L 503.520919 319.660569 
L 503.722046 319.545124 
L 504.224662 319.76398 
L 504.626801 319.758968 
L 504.928433 319.816985 
L 505.129417 319.76363 
L 505.43105 319.712645 
L 505.833188 319.70853 
L 506.134821 319.746363 
L 506.536931 319.81396 
L 506.93907 319.561333 
L 507.944446 319.774426 
L 508.346585 319.988099 
L 509.150834 319.362046 
L 510.055704 319.67637 
L 510.357337 319.654645 
L 510.859953 319.806157 
L 511.362598 319.529492 
L 511.764708 319.678001 
L 512.166847 319.990523 
L 512.770113 319.717696 
L 513.071717 319.979731 
L 513.272729 319.972683 
L 513.574362 319.759469 
L 513.976472 319.895204 
L 514.479232 319.569048 
L 515.182975 319.838068 
L 515.68562 319.654778 
L 516.188236 319.535096 
L 516.489869 319.570708 
L 516.791502 319.653014 
L 517.093135 319.721595 
L 517.394739 319.671241 
L 517.99789 319.482163 
L 518.4 319.473067 
L 518.4 319.473067 
" clip-path="url(#p51c48db763)" style="fill: none; stroke: #ff0000; stroke-width: 1.5; stroke-linecap: square"/>
   </g>
   <g id="line2d_18">
    <path d="M 72 326.278224 
L 73.206504 331.7074 
L 73.608672 332.904625 
L 73.910298 333.09673 
L 74.211924 332.754097 
L 74.51355 331.60734 
L 75.116802 328.112775 
L 77.529808 310.164609 
L 78.032517 308.724159 
L 78.233601 308.473732 
L 78.535226 308.569952 
L 79.138478 309.743225 
L 79.942814 312.75565 
L 81.048775 317.196098 
L 81.953652 319.292976 
L 82.858529 320.395302 
L 83.059613 320.529003 
L 83.461781 320.892324 
L 83.863949 321.086361 
L 84.869369 320.879973 
L 85.372071 320.740111 
L 85.774248 320.661099 
L 86.276949 320.464489 
L 86.578576 320.56801 
L 86.980751 320.720093 
L 87.181827 320.552338 
L 87.483453 320.375233 
L 87.785079 320.562017 
L 87.986168 320.560247 
L 88.891045 320.546423 
L 89.092134 320.612264 
L 90.499714 320.325338 
L 90.901878 320.610677 
L 92.510558 320.555145 
L 92.812183 320.576111 
L 93.01326 320.618869 
L 94.320314 320.361181 
L 94.521391 320.348499 
L 94.823016 320.519012 
L 95.024104 320.389695 
L 95.526806 320.119951 
L 96.331147 320.002102 
L 96.632773 320.246453 
L 97.437113 320.002344 
L 97.839277 320.101237 
L 98.040365 320.422802 
L 98.24144 321.294681 
L 98.543067 324.030278 
L 99.04578 328.790749 
L 99.246857 329.237531 
L 99.447944 328.844147 
L 99.850108 327.185892 
L 100.252285 324.955753 
L 100.654449 320.078926 
L 101.257701 311.845581 
L 101.559326 309.777626 
L 101.760416 309.370148 
L 102.062041 309.518412 
L 102.363665 310.185096 
L 104.072874 317.960286 
L 104.575587 318.689411 
L 105.279377 319.479711 
L 105.480465 319.567829 
L 106.083716 320.08755 
L 106.385342 320.378823 
L 106.586418 320.289439 
L 107.18967 319.89671 
L 107.792925 319.811195 
L 108.597264 319.387747 
L 110.306469 319.850708 
L 110.708644 319.817061 
L 111.211346 320.053408 
L 111.915136 320.213101 
L 112.116227 320.249162 
L 112.518391 320.457923 
L 112.920566 320.348074 
L 113.423269 320.818041 
L 114.02652 320.708077 
L 114.730321 320.716647 
L 114.931397 320.75671 
L 115.132485 320.73589 
L 115.534649 320.841778 
L 116.037366 320.873496 
L 116.238439 320.93139 
L 117.042781 320.406427 
L 117.344407 320.346232 
L 117.646033 320.271992 
L 118.450371 320.481051 
L 118.953074 320.172176 
L 119.455787 320.016441 
L 119.857951 320.07311 
L 120.059042 320.025571 
L 120.662294 319.820906 
L 121.064458 319.934481 
L 121.265545 319.87688 
L 121.667709 320.054806 
L 122.170422 319.867288 
L 122.572586 320.140167 
L 122.97475 320.205345 
L 123.376925 320.058798 
L 123.678555 319.884281 
L 124.382344 320.081471 
L 124.784508 320.010543 
L 125.488298 320.077256 
L 125.588847 320.008574 
L 125.890473 319.134355 
L 126.393175 317.190528 
L 126.594263 317.059911 
L 126.79535 317.300761 
L 127.901304 319.266903 
L 128.20293 319.294739 
L 128.404021 319.444152 
L 128.705647 319.836407 
L 130.113226 320.279145 
L 130.414852 320.37748 
L 130.515401 320.417399 
L 130.716478 320.296486 
L 131.219191 320.4801 
L 131.520817 320.397839 
L 132.425698 320.622768 
L 132.928407 320.649318 
L 133.330575 320.752769 
L 134.838703 320.745502 
L 135.039794 320.78855 
L 135.34142 320.877684 
L 135.542497 320.768387 
L 135.844123 320.596894 
L 136.648458 320.640461 
L 138.257129 320.383503 
L 138.45822 320.424785 
L 138.960915 320.350606 
L 139.363097 320.553477 
L 139.966348 320.387591 
L 140.469051 320.560134 
L 140.670134 320.664945 
L 141.172837 320.49506 
L 141.675554 320.449351 
L 142.077714 320.570162 
L 142.37934 320.508354 
L 142.580431 320.631806 
L 142.882057 320.742363 
L 143.183682 320.601247 
L 143.786934 320.52105 
L 144.08856 320.61642 
L 144.591276 320.45871 
L 145.093979 320.600388 
L 145.797765 320.426619 
L 145.998856 320.338902 
L 146.401016 320.037351 
L 147.205359 320.200852 
L 147.607527 320.247486 
L 148.110236 320.409187 
L 148.411862 320.455607 
L 148.914579 320.106759 
L 149.21619 320.235268 
L 149.417281 320.308498 
L 149.618365 320.304299 
L 150.020532 320.084785 
L 150.121067 320.057697 
L 150.422693 320.224467 
L 151.025944 320.431103 
L 151.729752 320.532437 
L 152.232455 320.226002 
L 152.735164 320.274968 
L 153.640041 320.344023 
L 153.841118 320.323893 
L 154.042209 320.259809 
L 154.444369 320.06442 
L 154.745995 320.249699 
L 155.148177 320.664384 
L 155.449803 320.687097 
L 156.053055 320.332535 
L 156.857383 320.541725 
L 157.360092 320.428424 
L 157.561169 320.473876 
L 158.16442 320.107663 
L 158.466046 320.203109 
L 159.572014 320.408164 
L 160.175266 320.486034 
L 160.476892 320.692003 
L 161.180685 320.50977 
L 161.683394 320.64106 
L 161.884471 320.680571 
L 162.186097 320.463801 
L 162.487723 320.186103 
L 163.292065 320.495344 
L 163.493156 320.586407 
L 164.800194 320.295996 
L 165.001285 320.331658 
L 165.503987 320.11998 
L 165.906162 320.415635 
L 166.107239 320.535534 
L 166.408864 320.402302 
L 166.609948 320.480579 
L 166.911574 320.773207 
L 167.112651 320.760584 
L 168.218619 320.421737 
L 168.41971 320.387441 
L 168.82187 320.343917 
L 169.224038 320.313997 
L 169.525664 320.121346 
L 169.726748 320.254152 
L 170.128915 320.517236 
L 171.134327 320.154146 
L 171.637044 320.526757 
L 171.838128 320.616918 
L 172.441386 320.16272 
L 173.044638 320.757297 
L 173.346264 320.411181 
L 173.54734 320.237645 
L 173.848966 320.309999 
L 174.150592 320.638091 
L 174.452218 320.687479 
L 175.156004 320.418174 
L 175.759255 319.994829 
L 176.261972 320.135918 
L 176.865224 319.980106 
L 177.36794 320.386015 
L 177.669566 320.241686 
L 177.971192 320.074589 
L 178.172268 320.156236 
L 178.473894 320.370509 
L 179.579855 320.259223 
L 179.982023 320.02871 
L 180.183107 319.992294 
L 180.48474 320.011547 
L 181.590693 320.261538 
L 181.791777 320.327585 
L 182.495571 320.67132 
L 182.797196 320.513719 
L 183.299906 320.850948 
L 183.802608 320.463738 
L 184.908577 320.695326 
L 185.109668 320.578059 
L 185.813454 320.763081 
L 186.517247 320.539751 
L 187.019957 319.296323 
L 187.422124 319.212842 
L 188.025376 320.0147 
L 188.327002 319.939356 
L 188.528086 320.047691 
L 188.829718 320.307218 
L 189.030788 320.267053 
L 189.231879 320.224786 
L 189.43297 320.276718 
L 189.83513 320.66966 
L 190.036221 320.751784 
L 190.337847 320.660757 
L 190.740008 320.215997 
L 190.941099 320.222432 
L 191.142175 320.340434 
L 191.443801 320.657057 
L 191.644885 320.589406 
L 192.047053 320.415374 
L 192.348678 320.488514 
L 193.153042 320.39874 
L 193.454661 320.335508 
L 193.756294 320.44116 
L 193.957421 320.369183 
L 194.86242 319.758123 
L 195.465672 320.113151 
L 195.666799 320.184952 
L 195.76729 320.175083 
L 196.27005 320.739055 
L 196.973923 320.338794 
L 197.677795 320.474757 
L 198.281047 320.811256 
L 198.582665 320.735348 
L 198.984919 320.28096 
L 199.487665 320.066534 
L 199.789298 319.887876 
L 201.196928 320.286824 
L 201.498676 320.404896 
L 202.504052 320.712256 
L 203.006797 320.633865 
L 203.308545 320.75044 
L 203.509557 320.737331 
L 204.314051 320.172556 
L 204.515048 320.244527 
L 204.816681 320.491175 
L 205.017808 320.52587 
L 205.520554 320.424856 
L 206.425553 321.081483 
L 206.827678 321.046628 
L 207.028805 321.076765 
L 207.933804 320.608649 
L 208.235423 320.547278 
L 209.039801 319.829137 
L 209.240928 319.783487 
L 209.643052 319.635472 
L 210.145812 319.999573 
L 210.648558 319.827112 
L 211.251924 320.059826 
L 211.654063 320.242076 
L 211.955682 320.368072 
L 212.357936 320.238311 
L 212.659554 320.327085 
L 213.162314 320.333017 
L 213.463933 320.708489 
L 213.66506 320.675445 
L 213.966678 320.454817 
L 214.871678 320.415901 
L 215.474929 320.410272 
L 215.776562 320.529405 
L 215.977689 320.492852 
L 216.379929 320.195073 
L 216.480435 320.199097 
L 216.782068 320.43469 
L 217.083686 320.502111 
L 217.284813 320.518988 
L 217.988686 320.728584 
L 218.290319 320.649818 
L 218.491431 320.60797 
L 218.994191 320.690885 
L 219.698064 320.49419 
L 219.899061 320.554138 
L 220.200694 320.77959 
L 221.306821 320.335461 
L 221.809566 320.470303 
L 222.111185 320.449647 
L 222.513439 320.349433 
L 223.418323 320.559125 
L 223.619436 320.536227 
L 223.921069 320.481181 
L 224.122196 320.522105 
L 224.826068 320.259124 
L 225.127687 320.061483 
L 225.529826 319.742934 
L 226.233698 319.873245 
L 226.535317 319.873608 
L 227.842455 319.923536 
L 228.244694 319.922299 
L 228.74744 320.112368 
L 229.049073 320.214557 
L 229.551818 320.64042 
L 230.758451 320.645998 
L 231.060069 320.267415 
L 231.361702 319.915549 
L 231.964954 319.653541 
L 232.266702 319.759185 
L 233.473205 320.346086 
L 233.674332 320.262084 
L 233.97595 320.377007 
L 234.378204 320.723911 
L 234.679823 320.731275 
L 234.981456 320.544077 
L 235.182583 320.407372 
L 236.28858 320.308603 
L 237.092958 320.805478 
L 237.394706 320.775846 
L 237.796831 320.870951 
L 238.098464 320.952197 
L 238.299576 320.878172 
L 238.601209 320.676333 
L 238.902828 320.711702 
L 240.008954 320.835965 
L 240.913839 320.630598 
L 241.316078 320.79917 
L 241.718217 320.790829 
L 242.019951 320.675763 
L 242.42209 320.525866 
L 242.824329 320.802345 
L 243.226468 320.670042 
L 243.528087 320.599818 
L 243.930341 320.602367 
L 244.33258 320.524115 
L 244.533592 320.595382 
L 244.83534 320.483756 
L 245.338086 320.100532 
L 245.639704 320.100223 
L 245.840716 320.101845 
L 246.041843 319.875072 
L 246.343462 319.116091 
L 246.544589 318.136041 
L 246.745715 316.086644 
L 247.047334 309.497254 
L 248.052839 276.896338 
L 248.153461 276.828841 
L 248.354472 278.84034 
L 248.857218 289.490833 
L 249.460584 301.260352 
L 249.762217 304.414737 
L 249.862723 304.634487 
L 249.963344 304.368096 
L 250.164342 301.778155 
L 250.46609 292.136071 
L 251.069341 267.348312 
L 251.270468 265.117659 
L 251.370974 265.711161 
L 251.572087 269.425194 
L 252.678098 298.126391 
L 252.979717 300.907435 
L 253.080338 301.101752 
L 253.180844 300.978292 
L 253.381971 299.867353 
L 253.683589 296.470568 
L 254.387462 286.921484 
L 254.487968 286.495553 
L 254.588589 286.586145 
L 254.789601 287.874327 
L 255.19184 294.086019 
L 256.197346 310.09956 
L 256.700091 313.873801 
L 257.303343 316.096348 
L 257.806103 317.370632 
L 258.208342 317.950288 
L 258.9121 319.083608 
L 259.213848 319.431583 
L 259.414845 319.410416 
L 259.716593 318.966636 
L 259.917605 318.171989 
L 260.219353 315.595094 
L 261.124223 305.094985 
L 261.224729 305.034716 
L 261.425856 305.65171 
L 261.727475 307.619081 
L 262.531968 313.863116 
L 263.034728 315.847259 
L 263.436853 316.73118 
L 263.939598 317.352515 
L 264.140725 317.253467 
L 264.54285 316.757441 
L 264.844598 316.852548 
L 265.146231 317.212265 
L 265.648976 318.157365 
L 266.051101 318.53009 
L 266.754987 319.261536 
L 267.056606 319.47487 
L 267.860984 319.960229 
L 268.062111 319.991112 
L 268.564857 319.829976 
L 268.967111 319.917466 
L 269.972602 319.524143 
L 270.475362 318.807956 
L 270.77698 318.657079 
L 271.078613 318.951877 
L 271.279726 319.326023 
L 271.782486 320.41706 
L 272.285231 320.988584 
L 272.486243 320.959821 
L 272.988989 320.711917 
L 273.491734 320.590236 
L 273.793482 320.7678 
L 273.994494 320.719996 
L 274.296113 320.469298 
L 274.597861 320.340063 
L 274.899494 320.096257 
L 275.100606 320.053188 
L 275.301618 320.120095 
L 275.904985 320.058346 
L 277.111488 320.033092 
L 277.513742 320.301426 
L 278.418741 320.037951 
L 278.921487 320.096753 
L 279.524738 319.34621 
L 279.725865 318.825641 
L 280.731371 315.283608 
L 281.032989 315.036046 
L 281.234116 315.180302 
L 281.435114 315.621728 
L 282.239492 317.884541 
L 283.345619 319.389321 
L 283.848364 319.790799 
L 284.149997 319.79693 
L 284.451616 319.97434 
L 285.255994 320.388868 
L 285.557627 320.39078 
L 285.959867 320.487479 
L 286.764245 320.364327 
L 287.166499 320.519808 
L 287.568624 320.337723 
L 288.272496 320.418671 
L 288.775256 320.491296 
L 289.680126 320.388367 
L 290.283507 320.567379 
L 291.087871 320.264561 
L 291.288998 320.342829 
L 291.490125 320.315246 
L 291.791758 320.324699 
L 292.495501 320.386028 
L 292.797249 320.56347 
L 293.4005 320.411904 
L 293.802754 320.423415 
L 294.003752 320.402292 
L 294.406006 320.483666 
L 294.607133 320.416419 
L 295.210384 320.639892 
L 295.612624 320.632485 
L 295.914257 320.783448 
L 296.115384 320.646715 
L 296.517508 320.340702 
L 297.020254 320.602851 
L 297.422508 320.493809 
L 297.824632 320.580841 
L 298.126265 320.467828 
L 298.327378 320.447963 
L 298.930759 320.75406 
L 299.131756 320.740743 
L 299.53401 320.477524 
L 300.036756 320.453278 
L 301.444386 320.09751 
L 301.947131 320.205705 
L 302.349385 319.980152 
L 302.651018 320.219015 
L 303.053258 320.429168 
L 304.058763 320.199213 
L 304.662015 320.261025 
L 305.566885 319.999281 
L 306.170266 320.362323 
L 306.673011 320.387167 
L 307.276263 320.394842 
L 307.577895 320.507996 
L 308.080641 320.137765 
L 308.382274 320.310627 
L 308.784513 320.586697 
L 309.588892 320.497084 
L 309.790019 320.6313 
L 310.292764 320.493511 
L 310.493891 320.594577 
L 310.795524 320.528548 
L 310.996637 320.323581 
L 311.499397 320.296082 
L 311.901521 320.356542 
L 312.504773 320.071118 
L 312.907027 320.178468 
L 314.51564 319.721093 
L 314.716652 319.639604 
L 314.917779 319.609408 
L 315.219412 319.499863 
L 315.621522 319.223735 
L 316.023661 319.164825 
L 316.626927 319.094984 
L 316.928416 319.140667 
L 317.129543 319.184079 
L 317.33067 319.266543 
L 317.732809 319.510421 
L 318.235425 319.699004 
L 318.637564 319.648251 
L 319.743445 320.199702 
L 320.04505 320.19225 
L 320.547695 320.380563 
L 321.351944 320.148983 
L 322.055687 320.435136 
L 322.457825 320.251647 
L 322.860079 320.490246 
L 323.563707 320.693916 
L 323.86534 320.548817 
L 324.166973 320.583985 
L 324.468577 320.593023 
L 324.870716 320.630001 
L 325.172349 320.647234 
L 325.775471 320.315505 
L 326.077104 320.361973 
L 326.579835 320.703361 
L 327.182986 320.380689 
L 327.484619 320.310364 
L 327.886729 320.621411 
L 328.087856 320.699508 
L 328.590501 320.550357 
L 328.992611 320.483019 
L 329.495371 320.332229 
L 329.997987 320.507487 
L 330.29962 320.40055 
L 330.500632 320.521683 
L 330.802265 320.707051 
L 330.902742 320.717692 
L 331.304881 320.376722 
L 331.606514 320.354834 
L 332.008624 320.519719 
L 332.209751 320.572063 
L 332.813017 320.385186 
L 333.315633 320.470568 
L 333.516645 320.542165 
L 333.818278 320.774729 
L 334.019405 320.815505 
L 334.522021 320.638957 
L 335.426891 320.669795 
L 336.231169 320.567323 
L 336.633279 320.870381 
L 337.337051 320.38524 
L 337.437528 320.379958 
L 337.839667 320.762086 
L 338.040794 320.75561 
L 338.442933 320.454456 
L 338.643916 320.342375 
L 338.945549 320.540205 
L 339.247182 320.765376 
L 339.749798 320.812652 
L 340.554191 320.630373 
L 340.755174 320.483866 
L 341.257819 320.108312 
L 341.660073 318.932737 
L 342.062183 316.645816 
L 342.363701 313.373546 
L 342.765955 305.77485 
L 343.168065 293.602883 
L 343.670709 270.061556 
L 344.273947 229.437196 
L 345.781967 121.168564 
L 346.284584 101.513116 
L 346.586216 96.177224 
L 346.787343 95.143422 
L 346.887849 95.328647 
L 347.088861 97.429735 
L 347.390465 104.39461 
L 347.792604 118.883813 
L 348.496347 153.99572 
L 349.903862 225.244288 
L 350.708111 254.073521 
L 351.411883 271.364232 
L 352.216132 285.487325 
L 353.020381 295.548407 
L 353.925251 303.110712 
L 354.729529 308.116716 
L 355.433272 311.519006 
L 355.935917 313.170079 
L 356.740281 314.897901 
L 357.041799 315.201735 
L 358.147681 315.849133 
L 358.650412 315.381432 
L 359.052551 315.01746 
L 359.354184 314.852935 
L 359.8568 314.568624 
L 360.359445 314.372261 
L 361.264315 314.831316 
L 361.465327 314.915002 
L 361.968058 315.493033 
L 363.274952 317.294093 
L 363.476079 317.407437 
L 363.878189 317.94477 
L 364.481455 318.584751 
L 364.883594 318.987655 
L 365.486716 319.166616 
L 366.492092 319.871614 
L 367.195835 319.931366 
L 367.497468 320.082693 
L 367.7991 320.312971 
L 368.000112 320.266867 
L 368.301717 320.150926 
L 368.502728 320.210542 
L 369.407598 320.610815 
L 369.60861 320.606722 
L 370.010864 320.372747 
L 370.211876 320.457141 
L 370.412974 320.617665 
L 371.016125 320.545102 
L 371.418235 320.408438 
L 372.122007 320.725292 
L 372.42364 320.639964 
L 372.82575 320.43827 
L 373.127383 320.247661 
L 374.132759 320.646722 
L 374.635404 320.722078 
L 374.836502 320.749787 
L 375.439653 320.377352 
L 375.64078 320.560042 
L 375.841763 320.786982 
L 376.344523 320.532134 
L 376.847168 320.731689 
L 377.349784 320.688904 
L 377.752038 320.46124 
L 378.35516 320.570782 
L 378.85792 320.671618 
L 379.360536 320.417991 
L 379.863181 320.712413 
L 380.164785 320.623611 
L 380.466418 320.539333 
L 381.17019 320.459312 
L 381.371173 320.470879 
L 381.5723 320.481508 
L 381.773312 320.434396 
L 382.376549 320.418713 
L 382.678182 320.756967 
L 382.879194 320.823302 
L 383.080321 320.645307 
L 383.381954 320.306884 
L 383.784064 320.30917 
L 384.085697 320.215338 
L 384.688819 320.203229 
L 385.090958 320.443119 
L 385.493212 320.419774 
L 385.995828 320.556828 
L 386.498473 320.286506 
L 386.800077 320.438361 
L 387.302722 320.621888 
L 388.207592 320.316974 
L 388.408604 320.277112 
L 389.011841 320.47075 
L 389.816118 320.541567 
L 390.218229 320.306207 
L 390.821494 320.350998 
L 391.022621 320.291853 
L 391.324111 320.523123 
L 391.525237 320.569376 
L 391.82687 320.322575 
L 392.229009 320.296301 
L 392.731625 320.400296 
L 392.932752 320.389651 
L 393.234385 320.512175 
L 393.435368 320.606365 
L 394.239646 320.716234 
L 394.742377 320.481764 
L 395.345528 320.444199 
L 395.647132 320.638117 
L 396.45141 320.505902 
L 396.753014 320.481679 
L 397.456786 320.302314 
L 397.858896 320.305022 
L 398.060023 320.320142 
L 398.261035 320.256954 
L 398.462162 320.110022 
L 399.065284 320.49287 
L 399.467538 320.511536 
L 399.869677 320.547015 
L 400.271787 320.452892 
L 400.57342 320.490715 
L 401.277048 320.341325 
L 401.679302 320.345174 
L 402.081441 320.177444 
L 402.785184 320.159826 
L 403.2878 320.69473 
L 403.891066 320.455878 
L 404.594694 320.450893 
L 404.896327 320.523655 
L 406.10283 320.567606 
L 406.705952 320.598356 
L 407.108091 320.406444 
L 408.213973 320.575369 
L 408.314594 320.639287 
L 409.018222 320.14348 
L 409.319855 320.245584 
L 409.520982 320.185345 
L 409.721965 320.070068 
L 410.626864 320.369393 
L 411.028974 320.4969 
L 411.330607 320.482879 
L 411.63224 320.314849 
L 411.933729 320.263986 
L 412.235362 320.326528 
L 412.536995 320.364028 
L 412.939133 320.206156 
L 414.34662 320.580263 
L 414.547631 320.670983 
L 414.949885 320.359188 
L 415.150897 320.21807 
L 415.452501 320.205147 
L 415.85464 320.405388 
L 416.357256 320.176473 
L 417.161649 320.496073 
L 417.664265 320.258827 
L 417.965898 320.204497 
L 418.468543 320.424045 
L 420.579801 320.458402 
L 421.082417 320.533166 
L 421.38405 320.439374 
L 421.786189 320.249339 
L 422.188299 320.414025 
L 422.489932 320.583197 
L 423.796941 320.502495 
L 424.09843 320.519667 
L 424.500569 320.362931 
L 424.802202 320.292272 
L 425.405439 320.2333 
L 425.707072 320.200786 
L 426.109211 320.480217 
L 426.410815 320.516494 
L 426.91346 320.595867 
L 427.416076 320.271265 
L 427.617203 320.303511 
L 428.019342 320.293864 
L 428.320975 320.490206 
L 430.633216 320.345306 
L 431.135861 320.58248 
L 431.638621 320.31319 
L 432.241743 320.388473 
L 432.543376 320.379493 
L 433.649258 320.448191 
L 433.850385 320.455687 
L 434.051368 320.443069 
L 434.554128 320.626902 
L 434.956266 320.553614 
L 435.458883 320.542393 
L 435.760515 320.462099 
L 436.062148 320.286856 
L 436.363753 320.137548 
L 436.966903 320.650459 
L 437.369014 320.467029 
L 437.871773 320.522921 
L 438.273912 320.610598 
L 438.37439 320.608682 
L 438.676022 320.376103 
L 438.877149 320.444907 
L 439.178667 320.687992 
L 439.480271 320.67423 
L 439.681398 320.645224 
L 440.083537 320.614124 
L 440.38517 320.509311 
L 440.686659 320.418497 
L 441.692035 320.184926 
L 442.094174 320.519628 
L 442.295301 320.340934 
L 442.496313 320.196247 
L 442.697411 320.400245 
L 442.898423 320.65677 
L 443.09955 320.605915 
L 443.501689 320.20812 
L 443.702816 320.205049 
L 444.004305 320.252843 
L 444.305938 320.411859 
L 444.507065 320.414685 
L 444.808698 320.202313 
L 445.210808 320.220707 
L 445.612947 320.471832 
L 446.216069 320.5147 
L 447.925217 320.322522 
L 448.126344 320.320568 
L 448.528454 320.220697 
L 448.729466 320.316011 
L 450.136981 319.974198 
L 450.338108 320.046672 
L 450.840724 319.831866 
L 451.041851 319.827854 
L 451.44399 319.502111 
L 452.147733 319.704063 
L 452.650349 319.448246 
L 453.152994 319.387112 
L 453.957243 319.158425 
L 454.560509 319.265562 
L 454.761636 319.272667 
L 455.264252 319.375253 
L 455.465379 319.513226 
L 455.666391 319.589203 
L 455.867518 319.608472 
L 456.068501 319.662009 
L 457.174383 319.611116 
L 457.878154 319.956007 
L 458.783025 319.996185 
L 459.084514 320.203738 
L 459.285641 320.149873 
L 459.687779 320.005108 
L 460.190396 320.422647 
L 461.095294 320.313933 
L 461.497404 320.340031 
L 462.603286 320.51284 
L 463.005425 320.164521 
L 463.307058 320.302537 
L 465.418316 320.320003 
L 465.719805 320.157757 
L 466.423577 320.579107 
L 467.730586 320.494109 
L 468.233202 320.668698 
L 468.534835 320.395521 
L 468.836468 320.202114 
L 469.138072 320.39622 
L 469.640717 320.711994 
L 469.94235 320.525453 
L 470.646093 320.337065 
L 470.947726 320.452789 
L 471.148709 320.541753 
L 471.751975 320.453482 
L 472.053608 320.7134 
L 472.455718 320.452687 
L 472.757236 320.320128 
L 473.15949 320.41782 
L 473.360473 320.341438 
L 473.662106 320.287014 
L 473.863118 320.268338 
L 474.265372 320.334291 
L 474.868494 320.568775 
L 475.773364 320.239143 
L 476.074882 320.151869 
L 477.281385 320.495951 
L 477.583018 320.407951 
L 477.884507 320.538703 
L 478.18614 320.682543 
L 478.387267 320.558984 
L 478.588279 320.401698 
L 478.889883 320.447051 
L 479.292022 320.65169 
L 480.096271 320.600445 
L 480.397904 320.63646 
L 480.900663 320.570275 
L 481.40328 320.395377 
L 482.107051 320.397696 
L 482.408656 320.378382 
L 482.710289 320.483305 
L 483.011806 320.535224 
L 483.313411 320.393172 
L 483.615043 320.49008 
L 483.81617 320.567998 
L 484.318815 320.359506 
L 484.821431 320.104127 
L 485.324191 320.389658 
L 485.62568 320.132771 
L 485.826807 320.230368 
L 486.12844 320.562711 
L 486.329452 320.548384 
L 486.631056 320.527724 
L 487.133816 320.600396 
L 487.736938 320.47654 
L 488.139077 320.534662 
L 488.340204 320.572931 
L 488.541216 320.482884 
L 489.043947 320.428842 
L 489.34558 320.465858 
L 489.747719 320.369127 
L 490.049208 320.374822 
L 490.350841 320.577819 
L 490.75298 320.618658 
L 491.054584 320.481573 
L 491.255711 320.328396 
L 491.456723 320.282876 
L 492.05996 320.423551 
L 492.260972 320.349539 
L 492.663226 320.172393 
L 493.065365 320.372637 
L 493.366854 320.668561 
L 493.668487 320.624726 
L 494.37223 320.339156 
L 494.975496 320.683781 
L 495.377606 320.530004 
L 495.880251 320.537742 
L 496.282361 320.488727 
L 496.6845 320.410903 
L 496.885627 320.369624 
L 496.986133 320.350054 
L 497.388243 320.612232 
L 497.58937 320.554001 
L 498.092015 320.358704 
L 498.695252 320.457803 
L 499.097391 320.544117 
L 499.49953 320.168014 
L 499.700657 320.075775 
L 501.610788 320.450616 
L 502.415037 320.266447 
L 503.018274 320.508629 
L 503.219286 320.524356 
L 503.520919 320.363751 
L 503.722046 320.246357 
L 504.224662 320.460474 
L 504.626801 320.451811 
L 504.928433 320.507161 
L 505.129417 320.452063 
L 505.43105 320.398514 
L 505.833188 320.391076 
L 506.134821 320.426491 
L 506.536931 320.490968 
L 506.93907 320.235352 
L 507.944446 320.441589 
L 508.346585 320.652793 
L 509.150834 320.022319 
L 510.055704 320.33253 
L 510.357337 320.309648 
L 510.859953 320.459472 
L 511.362598 320.181423 
L 511.764708 320.329023 
L 512.166847 320.640803 
L 512.770113 320.36712 
L 513.071717 320.628816 
L 513.272729 320.621563 
L 513.574362 320.408068 
L 513.976472 320.543446 
L 514.479232 320.21684 
L 515.182975 320.485142 
L 515.68562 320.301245 
L 516.188236 320.180869 
L 516.489869 320.216031 
L 516.791502 320.297864 
L 517.093135 320.365958 
L 517.394739 320.315105 
L 517.99789 320.125015 
L 518.4 320.115241 
L 518.4 320.115241 
" clip-path="url(#p51c48db763)" style="fill: none; stroke: #000000; stroke-width: 1.5; stroke-linecap: square"/>
   </g>
   <g id="patch_3">
    <path d="M 72 320.4 
L 72 43.2 
" style="fill: none; stroke: #000000; stroke-width: 0.8; stroke-linejoin: miter; stroke-linecap: square"/>
   </g>
   <g id="patch_4">
    <path d="M 72 320.4 
L 518.4 320.4 
" style="fill: none; stroke: #000000; stroke-width: 0.8; stroke-linejoin: miter; stroke-linecap: square"/>
   </g>
   <g id="legend_1">
    <g id="patch_5">
     <path d="M 367.3125 95.234375 
L 511.4 95.234375 
Q 513.4 95.234375 513.4 93.234375 
L 513.4 50.2 
Q 513.4 48.2 511.4 48.2 
L 367.3125 48.2 
Q 365.3125 48.2 365.3125 50.2 
L 365.3125 93.234375 
Q 365.3125 95.234375 367.3125 95.234375 
z
" style="fill: #ffffff; opacity: 0.8; stroke: #cccccc; stroke-linejoin: miter"/>
    </g>
    <g id="line2d_19">
     <path d="M 369.3125 56.298437 
L 379.3125 56.298437 
L 389.3125 56.298437 
" style="fill: none; stroke: #008000; stroke-width: 1.5; stroke-linecap: square"/>
    </g>
    <g id="text_18">
     <!-- No blank subtraction -->
     <g transform="translate(397.3125 59.798437) scale(0.1 -0.1)">
      <defs>
       <path id="DejaVuSans-4e" d="M 628 4666 
L 1478 4666 
L 3547 763 
L 3547 4666 
L 4159 4666 
L 4159 0 
L 3309 0 
L 1241 3903 
L 1241 0 
L 628 0 
L 628 4666 
z
" transform="scale(0.015625)"/>
       <path id="DejaVuSans-6c" d="M 603 4863 
L 1178 4863 
L 1178 0 
L 603 0 
L 603 4863 
z
" transform="scale(0.015625)"/>
       <path id="DejaVuSans-6b" d="M 581 4863 
L 1159 4863 
L 1159 1991 
L 2875 3500 
L 3609 3500 
L 1753 1863 
L 3688 0 
L 2938 0 
L 1159 1709 
L 1159 0 
L 581 0 
L 581 4863 
z
" transform="scale(0.015625)"/>
       <path id="DejaVuSans-75" d="M 544 1381 
L 544 3500 
L 1119 3500 
L 1119 1403 
Q 1119 906 1312 657 
Q 1506 409 1894 409 
Q 2359 409 2629 706 
Q 2900 1003 2900 1516 
L 2900 3500 
L 3475 3500 
L 3475 0 
L 2900 0 
L 2900 538 
Q 2691 219 2414 64 
Q 2138 -91 1772 -91 
Q 1169 -91 856 284 
Q 544 659 544 1381 
z
M 1991 3584 
L 1991 3584 
z
" transform="scale(0.015625)"/>
       <path id="DejaVuSans-74" d="M 1172 4494 
L 1172 3500 
L 2356 3500 
L 2356 3053 
L 1172 3053 
L 1172 1153 
Q 1172 725 1289 603 
Q 1406 481 1766 481 
L 2356 481 
L 2356 0 
L 1766 0 
Q 1100 0 847 248 
Q 594 497 594 1153 
L 594 3053 
L 172 3053 
L 172 3500 
L 594 3500 
L 594 4494 
L 1172 4494 
z
" transform="scale(0.015625)"/>
      </defs>
      <use xlink:href="#DejaVuSans-4e"/>
      <use xlink:href="#DejaVuSans-6f" x="74.804688"/>
      <use xlink:href="#DejaVuSans-20" x="135.986328"/>
      <use xlink:href="#DejaVuSans-62" x="167.773438"/>
      <use xlink:href="#DejaVuSans-6c" x="231.25"/>
      <use xlink:href="#DejaVuSans-61" x="259.033203"/>
      <use xlink:href="#DejaVuSans-6e" x="320.3125"/>
      <use xlink:href="#DejaVuSans-6b" x="383.691406"/>
      <use xlink:href="#DejaVuSans-20" x="441.601562"/>
      <use xlink:href="#DejaVuSans-73" x="473.388672"/>
      <use xlink:href="#DejaVuSans-75" x="525.488281"/>
      <use xlink:href="#DejaVuSans-62" x="588.867188"/>
      <use xlink:href="#DejaVuSans-74" x="652.34375"/>
      <use xlink:href="#DejaVuSans-72" x="691.552734"/>
      <use xlink:href="#DejaVuSans-61" x="732.666016"/>
      <use xlink:href="#DejaVuSans-63" x="793.945312"/>
      <use xlink:href="#DejaVuSans-74" x="848.925781"/>
      <use xlink:href="#DejaVuSans-69" x="888.134766"/>
      <use xlink:href="#DejaVuSans-6f" x="915.917969"/>
      <use xlink:href="#DejaVuSans-6e" x="977.099609"/>
     </g>
    </g>
    <g id="line2d_20">
     <path d="M 369.3125 70.976562 
L 379.3125 70.976562 
L 389.3125 70.976562 
" style="fill: none; stroke: #ff0000; stroke-width: 1.5; stroke-linecap: square"/>
    </g>
    <g id="text_19">
     <!-- No baseline correction -->
     <g transform="translate(397.3125 74.476562) scale(0.1 -0.1)">
      <use xlink:href="#DejaVuSans-4e"/>
      <use xlink:href="#DejaVuSans-6f" x="74.804688"/>
      <use xlink:href="#DejaVuSans-20" x="135.986328"/>
      <use xlink:href="#DejaVuSans-62" x="167.773438"/>
      <use xlink:href="#DejaVuSans-61" x="231.25"/>
      <use xlink:href="#DejaVuSans-73" x="292.529297"/>
      <use xlink:href="#DejaVuSans-65" x="344.628906"/>
      <use xlink:href="#DejaVuSans-6c" x="406.152344"/>
      <use xlink:href="#DejaVuSans-69" x="433.935547"/>
      <use xlink:href="#DejaVuSans-6e" x="461.71875"/>
      <use xlink:href="#DejaVuSans-65" x="525.097656"/>
      <use xlink:href="#DejaVuSans-20" x="586.621094"/>
      <use xlink:href="#DejaVuSans-63" x="618.408203"/>
      <use xlink:href="#DejaVuSans-6f" x="673.388672"/>
      <use xlink:href="#DejaVuSans-72" x="734.570312"/>
      <use xlink:href="#DejaVuSans-72" x="773.933594"/>
      <use xlink:href="#DejaVuSans-65" x="812.796875"/>
      <use xlink:href="#DejaVuSans-63" x="874.320312"/>
      <use xlink:href="#DejaVuSans-74" x="929.300781"/>
      <use xlink:href="#DejaVuSans-69" x="968.509766"/>
      <use xlink:href="#DejaVuSans-6f" x="996.292969"/>
      <use xlink:href="#DejaVuSans-6e" x="1057.474609"/>
     </g>
    </g>
    <g id="line2d_21">
     <path d="M 369.3125 85.654687 
L 379.3125 85.654687 
L 389.3125 85.654687 
" style="fill: none; stroke: #000000; stroke-width: 1.5; stroke-linecap: square"/>
    </g>
    <g id="text_20">
     <!-- Corrected -->
     <g transform="translate(397.3125 89.154687) scale(0.1 -0.1)">
      <defs>
       <path id="DejaVuSans-43" d="M 4122 4306 
L 4122 3641 
Q 3803 3938 3442 4084 
Q 3081 4231 2675 4231 
Q 1875 4231 1450 3742 
Q 1025 3253 1025 2328 
Q 1025 1406 1450 917 
Q 1875 428 2675 428 
Q 3081 428 3442 575 
Q 3803 722 4122 1019 
L 4122 359 
Q 3791 134 3420 21 
Q 3050 -91 2638 -91 
Q 1578 -91 968 557 
Q 359 1206 359 2328 
Q 359 3453 968 4101 
Q 1578 4750 2638 4750 
Q 3056 4750 3426 4639 
Q 3797 4528 4122 4306 
z
" transform="scale(0.015625)"/>
       <path id="DejaVuSans-64" d="M 2906 2969 
L 2906 4863 
L 3481 4863 
L 3481 0 
L 2906 0 
L 2906 525 
Q 2725 213 2448 61 
Q 2172 -91 1784 -91 
Q 1150 -91 751 415 
Q 353 922 353 1747 
Q 353 2572 751 3078 
Q 1150 3584 1784 3584 
Q 2172 3584 2448 3432 
Q 2725 3281 2906 2969 
z
M 947 1747 
Q 947 1113 1208 752 
Q 1469 391 1925 391 
Q 2381 391 2643 752 
Q 2906 1113 2906 1747 
Q 2906 2381 2643 2742 
Q 2381 3103 1925 3103 
Q 1469 3103 1208 2742 
Q 947 2381 947 1747 
z
" transform="scale(0.015625)"/>
      </defs>
      <use xlink:href="#DejaVuSans-43"/>
      <use xlink:href="#DejaVuSans-6f" x="69.824219"/>
      <use xlink:href="#DejaVuSans-72" x="131.005859"/>
      <use xlink:href="#DejaVuSans-72" x="170.369141"/>
      <use xlink:href="#DejaVuSans-65" x="209.232422"/>
      <use xlink:href="#DejaVuSans-63" x="270.755859"/>
      <use xlink:href="#DejaVuSans-74" x="325.736328"/>
      <use xlink:href="#DejaVuSans-65" x="364.945312"/>
      <use xlink:href="#DejaVuSans-64" x="426.46875"/>
     </g>
    </g>
   </g>
  </g>
 </g>
 <defs>
  <clipPath id="p51c48db763">
   <rect x="72" y="43.2" width="446.4" height="277.2"/>
  </clipPath>
 </defs>
</svg>
