<?xml version="1.0" encoding="utf-8" standalone="no"?>
<!DOCTYPE svg PUBLIC "-//W3C//DTD SVG 1.1//EN"
  "http://www.w3.org/Graphics/SVG/1.1/DTD/svg11.dtd">
<svg xmlns:xlink="http://www.w3.org/1999/xlink" width="690.48pt" height="345.6pt" viewBox="0 0 690.48 345.6" xmlns="http://www.w3.org/2000/svg" version="1.1">
 <metadata>
  <rdf:RDF xmlns:dc="http://purl.org/dc/elements/1.1/" xmlns:cc="http://creativecommons.org/ns#" xmlns:rdf="http://www.w3.org/1999/02/22-rdf-syntax-ns#">
   <cc:Work>
    <dc:type rdf:resource="http://purl.org/dc/dcmitype/StillImage"/>
    <dc:date>2023-09-17T14:36:03.002301</dc:date>
    <dc:format>image/svg+xml</dc:format>
    <dc:creator>
     <cc:Agent>
      <dc:title>Matplotlib v3.7.2, https://matplotlib.org/</dc:title>
     </cc:Agent>
    </dc:creator>
   </cc:Work>
  </rdf:RDF>
 </metadata>
 <defs>
  <style type="text/css">*{stroke-linejoin: round; stroke-linecap: butt}</style>
 </defs>
 <g id="figure_1">
  <g id="patch_1">
   <path d="M 0 345.6 
L 690.48 345.6 
L 690.48 0 
L 0 0 
z
" style="fill: #ffffff"/>
  </g>
  <g id="axes_1">
   <g id="patch_2">
    <path d="M 86.31 307.584 
L 621.432 307.584 
L 621.432 41.472 
L 86.31 41.472 
z
" style="fill: #ffffff"/>
   </g>
   <g id="matplotlib.axis_1">
    <g id="xtick_1">
     <g id="line2d_1">
      <defs>
       <path id="m279e427f1b" d="M 0 0 
L 0 3.5 
" style="stroke: #000000; stroke-width: 0.8"/>
      </defs>
      <g>
       <use xlink:href="#m279e427f1b" x="86.31" y="307.584" style="stroke: #000000; stroke-width: 0.8"/>
      </g>
     </g>
     <g id="text_1">
      <!-- 0.0 -->
      <g transform="translate(78.358438 322.182437) scale(0.1 -0.1)">
       <defs>
        <path id="DejaVuSans-30" d="M 2034 4250 
Q 1547 4250 1301 3770 
Q 1056 3291 1056 2328 
Q 1056 1369 1301 889 
Q 1547 409 2034 409 
Q 2525 409 2770 889 
Q 3016 1369 3016 2328 
Q 3016 3291 2770 3770 
Q 2525 4250 2034 4250 
z
M 2034 4750 
Q 2819 4750 3233 4129 
Q 3647 3509 3647 2328 
Q 3647 1150 3233 529 
Q 2819 -91 2034 -91 
Q 1250 -91 836 529 
Q 422 1150 422 2328 
Q 422 3509 836 4129 
Q 1250 4750 2034 4750 
z
" transform="scale(0.015625)"/>
        <path id="DejaVuSans-2e" d="M 684 794 
L 1344 794 
L 1344 0 
L 684 0 
L 684 794 
z
" transform="scale(0.015625)"/>
       </defs>
       <use xlink:href="#DejaVuSans-30"/>
       <use xlink:href="#DejaVuSans-2e" x="63.623047"/>
       <use xlink:href="#DejaVuSans-30" x="95.410156"/>
      </g>
     </g>
    </g>
    <g id="xtick_2">
     <g id="line2d_2">
      <g>
       <use xlink:href="#m279e427f1b" x="158.624839" y="307.584" style="stroke: #000000; stroke-width: 0.8"/>
      </g>
     </g>
     <g id="text_2">
      <!-- 0.5 -->
      <g transform="translate(150.673277 322.182437) scale(0.1 -0.1)">
       <defs>
        <path id="DejaVuSans-35" d="M 691 4666 
L 3169 4666 
L 3169 4134 
L 1269 4134 
L 1269 2991 
Q 1406 3038 1543 3061 
Q 1681 3084 1819 3084 
Q 2600 3084 3056 2656 
Q 3513 2228 3513 1497 
Q 3513 744 3044 326 
Q 2575 -91 1722 -91 
Q 1428 -91 1123 -41 
Q 819 9 494 109 
L 494 744 
Q 775 591 1075 516 
Q 1375 441 1709 441 
Q 2250 441 2565 725 
Q 2881 1009 2881 1497 
Q 2881 1984 2565 2268 
Q 2250 2553 1709 2553 
Q 1456 2553 1204 2497 
Q 953 2441 691 2322 
L 691 4666 
z
" transform="scale(0.015625)"/>
       </defs>
       <use xlink:href="#DejaVuSans-30"/>
       <use xlink:href="#DejaVuSans-2e" x="63.623047"/>
       <use xlink:href="#DejaVuSans-35" x="95.410156"/>
      </g>
     </g>
    </g>
    <g id="xtick_3">
     <g id="line2d_3">
      <g>
       <use xlink:href="#m279e427f1b" x="230.939678" y="307.584" style="stroke: #000000; stroke-width: 0.8"/>
      </g>
     </g>
     <g id="text_3">
      <!-- 1.0 -->
      <g transform="translate(222.988116 322.182437) scale(0.1 -0.1)">
       <defs>
        <path id="DejaVuSans-31" d="M 794 531 
L 1825 531 
L 1825 4091 
L 703 3866 
L 703 4441 
L 1819 4666 
L 2450 4666 
L 2450 531 
L 3481 531 
L 3481 0 
L 794 0 
L 794 531 
z
" transform="scale(0.015625)"/>
       </defs>
       <use xlink:href="#DejaVuSans-31"/>
       <use xlink:href="#DejaVuSans-2e" x="63.623047"/>
       <use xlink:href="#DejaVuSans-30" x="95.410156"/>
      </g>
     </g>
    </g>
    <g id="xtick_4">
     <g id="line2d_4">
      <g>
       <use xlink:href="#m279e427f1b" x="303.254518" y="307.584" style="stroke: #000000; stroke-width: 0.8"/>
      </g>
     </g>
     <g id="text_4">
      <!-- 1.5 -->
      <g transform="translate(295.302955 322.182437) scale(0.1 -0.1)">
       <use xlink:href="#DejaVuSans-31"/>
       <use xlink:href="#DejaVuSans-2e" x="63.623047"/>
       <use xlink:href="#DejaVuSans-35" x="95.410156"/>
      </g>
     </g>
    </g>
    <g id="xtick_5">
     <g id="line2d_5">
      <g>
       <use xlink:href="#m279e427f1b" x="375.569357" y="307.584" style="stroke: #000000; stroke-width: 0.8"/>
      </g>
     </g>
     <g id="text_5">
      <!-- 2.0 -->
      <g transform="translate(367.617794 322.182437) scale(0.1 -0.1)">
       <defs>
        <path id="DejaVuSans-32" d="M 1228 531 
L 3431 531 
L 3431 0 
L 469 0 
L 469 531 
Q 828 903 1448 1529 
Q 2069 2156 2228 2338 
Q 2531 2678 2651 2914 
Q 2772 3150 2772 3378 
Q 2772 3750 2511 3984 
Q 2250 4219 1831 4219 
Q 1534 4219 1204 4116 
Q 875 4013 500 3803 
L 500 4441 
Q 881 4594 1212 4672 
Q 1544 4750 1819 4750 
Q 2544 4750 2975 4387 
Q 3406 4025 3406 3419 
Q 3406 3131 3298 2873 
Q 3191 2616 2906 2266 
Q 2828 2175 2409 1742 
Q 1991 1309 1228 531 
z
" transform="scale(0.015625)"/>
       </defs>
       <use xlink:href="#DejaVuSans-32"/>
       <use xlink:href="#DejaVuSans-2e" x="63.623047"/>
       <use xlink:href="#DejaVuSans-30" x="95.410156"/>
      </g>
     </g>
    </g>
    <g id="xtick_6">
     <g id="line2d_6">
      <g>
       <use xlink:href="#m279e427f1b" x="447.884196" y="307.584" style="stroke: #000000; stroke-width: 0.8"/>
      </g>
     </g>
     <g id="text_6">
      <!-- 2.5 -->
      <g transform="translate(439.932633 322.182437) scale(0.1 -0.1)">
       <use xlink:href="#DejaVuSans-32"/>
       <use xlink:href="#DejaVuSans-2e" x="63.623047"/>
       <use xlink:href="#DejaVuSans-35" x="95.410156"/>
      </g>
     </g>
    </g>
    <g id="xtick_7">
     <g id="line2d_7">
      <g>
       <use xlink:href="#m279e427f1b" x="520.199035" y="307.584" style="stroke: #000000; stroke-width: 0.8"/>
      </g>
     </g>
     <g id="text_7">
      <!-- 3.0 -->
      <g transform="translate(512.247473 322.182437) scale(0.1 -0.1)">
       <defs>
        <path id="DejaVuSans-33" d="M 2597 2516 
Q 3050 2419 3304 2112 
Q 3559 1806 3559 1356 
Q 3559 666 3084 287 
Q 2609 -91 1734 -91 
Q 1441 -91 1130 -33 
Q 819 25 488 141 
L 488 750 
Q 750 597 1062 519 
Q 1375 441 1716 441 
Q 2309 441 2620 675 
Q 2931 909 2931 1356 
Q 2931 1769 2642 2001 
Q 2353 2234 1838 2234 
L 1294 2234 
L 1294 2753 
L 1863 2753 
Q 2328 2753 2575 2939 
Q 2822 3125 2822 3475 
Q 2822 3834 2567 4026 
Q 2313 4219 1838 4219 
Q 1578 4219 1281 4162 
Q 984 4106 628 3988 
L 628 4550 
Q 988 4650 1302 4700 
Q 1616 4750 1894 4750 
Q 2613 4750 3031 4423 
Q 3450 4097 3450 3541 
Q 3450 3153 3228 2886 
Q 3006 2619 2597 2516 
z
" transform="scale(0.015625)"/>
       </defs>
       <use xlink:href="#DejaVuSans-33"/>
       <use xlink:href="#DejaVuSans-2e" x="63.623047"/>
       <use xlink:href="#DejaVuSans-30" x="95.410156"/>
      </g>
     </g>
    </g>
    <g id="xtick_8">
     <g id="line2d_8">
      <g>
       <use xlink:href="#m279e427f1b" x="592.513874" y="307.584" style="stroke: #000000; stroke-width: 0.8"/>
      </g>
     </g>
     <g id="text_8">
      <!-- 3.5 -->
      <g transform="translate(584.562312 322.182437) scale(0.1 -0.1)">
       <use xlink:href="#DejaVuSans-33"/>
       <use xlink:href="#DejaVuSans-2e" x="63.623047"/>
       <use xlink:href="#DejaVuSans-35" x="95.410156"/>
      </g>
     </g>
    </g>
    <g id="text_9">
     <!-- Time [min] -->
     <g transform="translate(326.718656 335.860562) scale(0.1 -0.1)">
      <defs>
       <path id="DejaVuSans-54" d="M -19 4666 
L 3928 4666 
L 3928 4134 
L 2272 4134 
L 2272 0 
L 1638 0 
L 1638 4134 
L -19 4134 
L -19 4666 
z
" transform="scale(0.015625)"/>
       <path id="DejaVuSans-69" d="M 603 3500 
L 1178 3500 
L 1178 0 
L 603 0 
L 603 3500 
z
M 603 4863 
L 1178 4863 
L 1178 4134 
L 603 4134 
L 603 4863 
z
" transform="scale(0.015625)"/>
       <path id="DejaVuSans-6d" d="M 3328 2828 
Q 3544 3216 3844 3400 
Q 4144 3584 4550 3584 
Q 5097 3584 5394 3201 
Q 5691 2819 5691 2113 
L 5691 0 
L 5113 0 
L 5113 2094 
Q 5113 2597 4934 2840 
Q 4756 3084 4391 3084 
Q 3944 3084 3684 2787 
Q 3425 2491 3425 1978 
L 3425 0 
L 2847 0 
L 2847 2094 
Q 2847 2600 2669 2842 
Q 2491 3084 2119 3084 
Q 1678 3084 1418 2786 
Q 1159 2488 1159 1978 
L 1159 0 
L 581 0 
L 581 3500 
L 1159 3500 
L 1159 2956 
Q 1356 3278 1631 3431 
Q 1906 3584 2284 3584 
Q 2666 3584 2933 3390 
Q 3200 3197 3328 2828 
z
" transform="scale(0.015625)"/>
       <path id="DejaVuSans-65" d="M 3597 1894 
L 3597 1613 
L 953 1613 
Q 991 1019 1311 708 
Q 1631 397 2203 397 
Q 2534 397 2845 478 
Q 3156 559 3463 722 
L 3463 178 
Q 3153 47 2828 -22 
Q 2503 -91 2169 -91 
Q 1331 -91 842 396 
Q 353 884 353 1716 
Q 353 2575 817 3079 
Q 1281 3584 2069 3584 
Q 2775 3584 3186 3129 
Q 3597 2675 3597 1894 
z
M 3022 2063 
Q 3016 2534 2758 2815 
Q 2500 3097 2075 3097 
Q 1594 3097 1305 2825 
Q 1016 2553 972 2059 
L 3022 2063 
z
" transform="scale(0.015625)"/>
       <path id="DejaVuSans-20" transform="scale(0.015625)"/>
       <path id="DejaVuSans-5b" d="M 550 4863 
L 1875 4863 
L 1875 4416 
L 1125 4416 
L 1125 -397 
L 1875 -397 
L 1875 -844 
L 550 -844 
L 550 4863 
z
" transform="scale(0.015625)"/>
       <path id="DejaVuSans-6e" d="M 3513 2113 
L 3513 0 
L 2938 0 
L 2938 2094 
Q 2938 2591 2744 2837 
Q 2550 3084 2163 3084 
Q 1697 3084 1428 2787 
Q 1159 2491 1159 1978 
L 1159 0 
L 581 0 
L 581 3500 
L 1159 3500 
L 1159 2956 
Q 1366 3272 1645 3428 
Q 1925 3584 2291 3584 
Q 2894 3584 3203 3211 
Q 3513 2838 3513 2113 
z
" transform="scale(0.015625)"/>
       <path id="DejaVuSans-5d" d="M 1947 4863 
L 1947 -844 
L 622 -844 
L 622 -397 
L 1369 -397 
L 1369 4416 
L 622 4416 
L 622 4863 
L 1947 4863 
z
" transform="scale(0.015625)"/>
      </defs>
      <use xlink:href="#DejaVuSans-54"/>
      <use xlink:href="#DejaVuSans-69" x="57.958984"/>
      <use xlink:href="#DejaVuSans-6d" x="85.742188"/>
      <use xlink:href="#DejaVuSans-65" x="183.154297"/>
      <use xlink:href="#DejaVuSans-20" x="244.677734"/>
      <use xlink:href="#DejaVuSans-5b" x="276.464844"/>
      <use xlink:href="#DejaVuSans-6d" x="315.478516"/>
      <use xlink:href="#DejaVuSans-69" x="412.890625"/>
      <use xlink:href="#DejaVuSans-6e" x="440.673828"/>
      <use xlink:href="#DejaVuSans-5d" x="504.052734"/>
     </g>
    </g>
   </g>
   <g id="matplotlib.axis_2">
    <g id="ytick_1">
     <g id="line2d_9">
      <defs>
       <path id="m0be9d40a48" d="M 0 0 
L -3.5 0 
" style="stroke: #000000; stroke-width: 0.8"/>
      </defs>
      <g>
       <use xlink:href="#m0be9d40a48" x="86.31" y="282.579616" style="stroke: #000000; stroke-width: 0.8"/>
      </g>
     </g>
     <g id="text_10">
      <!-- 0 -->
      <g transform="translate(72.9475 286.378834) scale(0.1 -0.1)">
       <use xlink:href="#DejaVuSans-30"/>
      </g>
     </g>
    </g>
    <g id="ytick_2">
     <g id="line2d_10">
      <g>
       <use xlink:href="#m0be9d40a48" x="86.31" y="239.905767" style="stroke: #000000; stroke-width: 0.8"/>
      </g>
     </g>
     <g id="text_11">
      <!-- 50 -->
      <g transform="translate(66.585 243.704985) scale(0.1 -0.1)">
       <use xlink:href="#DejaVuSans-35"/>
       <use xlink:href="#DejaVuSans-30" x="63.623047"/>
      </g>
     </g>
    </g>
    <g id="ytick_3">
     <g id="line2d_11">
      <g>
       <use xlink:href="#m0be9d40a48" x="86.31" y="197.231918" style="stroke: #000000; stroke-width: 0.8"/>
      </g>
     </g>
     <g id="text_12">
      <!-- 100 -->
      <g transform="translate(60.2225 201.031136) scale(0.1 -0.1)">
       <use xlink:href="#DejaVuSans-31"/>
       <use xlink:href="#DejaVuSans-30" x="63.623047"/>
       <use xlink:href="#DejaVuSans-30" x="127.246094"/>
      </g>
     </g>
    </g>
    <g id="ytick_4">
     <g id="line2d_12">
      <g>
       <use xlink:href="#m0be9d40a48" x="86.31" y="154.558069" style="stroke: #000000; stroke-width: 0.8"/>
      </g>
     </g>
     <g id="text_13">
      <!-- 150 -->
      <g transform="translate(60.2225 158.357288) scale(0.1 -0.1)">
       <use xlink:href="#DejaVuSans-31"/>
       <use xlink:href="#DejaVuSans-35" x="63.623047"/>
       <use xlink:href="#DejaVuSans-30" x="127.246094"/>
      </g>
     </g>
    </g>
    <g id="ytick_5">
     <g id="line2d_13">
      <g>
       <use xlink:href="#m0be9d40a48" x="86.31" y="111.88422" style="stroke: #000000; stroke-width: 0.8"/>
      </g>
     </g>
     <g id="text_14">
      <!-- 200 -->
      <g transform="translate(60.2225 115.683439) scale(0.1 -0.1)">
       <use xlink:href="#DejaVuSans-32"/>
       <use xlink:href="#DejaVuSans-30" x="63.623047"/>
       <use xlink:href="#DejaVuSans-30" x="127.246094"/>
      </g>
     </g>
    </g>
    <g id="ytick_6">
     <g id="line2d_14">
      <g>
       <use xlink:href="#m0be9d40a48" x="86.31" y="69.210371" style="stroke: #000000; stroke-width: 0.8"/>
      </g>
     </g>
     <g id="text_15">
      <!-- 250 -->
      <g transform="translate(60.2225 73.00959) scale(0.1 -0.1)">
       <use xlink:href="#DejaVuSans-32"/>
       <use xlink:href="#DejaVuSans-35" x="63.623047"/>
       <use xlink:href="#DejaVuSans-30" x="127.246094"/>
      </g>
     </g>
    </g>
    <g id="text_16">
     <!-- Average absorbance [mAU] -->
     <g transform="translate(54.142812 243.281125) rotate(-90) scale(0.1 -0.1)">
      <defs>
       <path id="DejaVuSans-41" d="M 2188 4044 
L 1331 1722 
L 3047 1722 
L 2188 4044 
z
M 1831 4666 
L 2547 4666 
L 4325 0 
L 3669 0 
L 3244 1197 
L 1141 1197 
L 716 0 
L 50 0 
L 1831 4666 
z
" transform="scale(0.015625)"/>
       <path id="DejaVuSans-76" d="M 191 3500 
L 800 3500 
L 1894 563 
L 2988 3500 
L 3597 3500 
L 2284 0 
L 1503 0 
L 191 3500 
z
" transform="scale(0.015625)"/>
       <path id="DejaVuSans-72" d="M 2631 2963 
Q 2534 3019 2420 3045 
Q 2306 3072 2169 3072 
Q 1681 3072 1420 2755 
Q 1159 2438 1159 1844 
L 1159 0 
L 581 0 
L 581 3500 
L 1159 3500 
L 1159 2956 
Q 1341 3275 1631 3429 
Q 1922 3584 2338 3584 
Q 2397 3584 2469 3576 
Q 2541 3569 2628 3553 
L 2631 2963 
z
" transform="scale(0.015625)"/>
       <path id="DejaVuSans-61" d="M 2194 1759 
Q 1497 1759 1228 1600 
Q 959 1441 959 1056 
Q 959 750 1161 570 
Q 1363 391 1709 391 
Q 2188 391 2477 730 
Q 2766 1069 2766 1631 
L 2766 1759 
L 2194 1759 
z
M 3341 1997 
L 3341 0 
L 2766 0 
L 2766 531 
Q 2569 213 2275 61 
Q 1981 -91 1556 -91 
Q 1019 -91 701 211 
Q 384 513 384 1019 
Q 384 1609 779 1909 
Q 1175 2209 1959 2209 
L 2766 2209 
L 2766 2266 
Q 2766 2663 2505 2880 
Q 2244 3097 1772 3097 
Q 1472 3097 1187 3025 
Q 903 2953 641 2809 
L 641 3341 
Q 956 3463 1253 3523 
Q 1550 3584 1831 3584 
Q 2591 3584 2966 3190 
Q 3341 2797 3341 1997 
z
" transform="scale(0.015625)"/>
       <path id="DejaVuSans-67" d="M 2906 1791 
Q 2906 2416 2648 2759 
Q 2391 3103 1925 3103 
Q 1463 3103 1205 2759 
Q 947 2416 947 1791 
Q 947 1169 1205 825 
Q 1463 481 1925 481 
Q 2391 481 2648 825 
Q 2906 1169 2906 1791 
z
M 3481 434 
Q 3481 -459 3084 -895 
Q 2688 -1331 1869 -1331 
Q 1566 -1331 1297 -1286 
Q 1028 -1241 775 -1147 
L 775 -588 
Q 1028 -725 1275 -790 
Q 1522 -856 1778 -856 
Q 2344 -856 2625 -561 
Q 2906 -266 2906 331 
L 2906 616 
Q 2728 306 2450 153 
Q 2172 0 1784 0 
Q 1141 0 747 490 
Q 353 981 353 1791 
Q 353 2603 747 3093 
Q 1141 3584 1784 3584 
Q 2172 3584 2450 3431 
Q 2728 3278 2906 2969 
L 2906 3500 
L 3481 3500 
L 3481 434 
z
" transform="scale(0.015625)"/>
       <path id="DejaVuSans-62" d="M 3116 1747 
Q 3116 2381 2855 2742 
Q 2594 3103 2138 3103 
Q 1681 3103 1420 2742 
Q 1159 2381 1159 1747 
Q 1159 1113 1420 752 
Q 1681 391 2138 391 
Q 2594 391 2855 752 
Q 3116 1113 3116 1747 
z
M 1159 2969 
Q 1341 3281 1617 3432 
Q 1894 3584 2278 3584 
Q 2916 3584 3314 3078 
Q 3713 2572 3713 1747 
Q 3713 922 3314 415 
Q 2916 -91 2278 -91 
Q 1894 -91 1617 61 
Q 1341 213 1159 525 
L 1159 0 
L 581 0 
L 581 4863 
L 1159 4863 
L 1159 2969 
z
" transform="scale(0.015625)"/>
       <path id="DejaVuSans-73" d="M 2834 3397 
L 2834 2853 
Q 2591 2978 2328 3040 
Q 2066 3103 1784 3103 
Q 1356 3103 1142 2972 
Q 928 2841 928 2578 
Q 928 2378 1081 2264 
Q 1234 2150 1697 2047 
L 1894 2003 
Q 2506 1872 2764 1633 
Q 3022 1394 3022 966 
Q 3022 478 2636 193 
Q 2250 -91 1575 -91 
Q 1294 -91 989 -36 
Q 684 19 347 128 
L 347 722 
Q 666 556 975 473 
Q 1284 391 1588 391 
Q 1994 391 2212 530 
Q 2431 669 2431 922 
Q 2431 1156 2273 1281 
Q 2116 1406 1581 1522 
L 1381 1569 
Q 847 1681 609 1914 
Q 372 2147 372 2553 
Q 372 3047 722 3315 
Q 1072 3584 1716 3584 
Q 2034 3584 2315 3537 
Q 2597 3491 2834 3397 
z
" transform="scale(0.015625)"/>
       <path id="DejaVuSans-6f" d="M 1959 3097 
Q 1497 3097 1228 2736 
Q 959 2375 959 1747 
Q 959 1119 1226 758 
Q 1494 397 1959 397 
Q 2419 397 2687 759 
Q 2956 1122 2956 1747 
Q 2956 2369 2687 2733 
Q 2419 3097 1959 3097 
z
M 1959 3584 
Q 2709 3584 3137 3096 
Q 3566 2609 3566 1747 
Q 3566 888 3137 398 
Q 2709 -91 1959 -91 
Q 1206 -91 779 398 
Q 353 888 353 1747 
Q 353 2609 779 3096 
Q 1206 3584 1959 3584 
z
" transform="scale(0.015625)"/>
       <path id="DejaVuSans-63" d="M 3122 3366 
L 3122 2828 
Q 2878 2963 2633 3030 
Q 2388 3097 2138 3097 
Q 1578 3097 1268 2742 
Q 959 2388 959 1747 
Q 959 1106 1268 751 
Q 1578 397 2138 397 
Q 2388 397 2633 464 
Q 2878 531 3122 666 
L 3122 134 
Q 2881 22 2623 -34 
Q 2366 -91 2075 -91 
Q 1284 -91 818 406 
Q 353 903 353 1747 
Q 353 2603 823 3093 
Q 1294 3584 2113 3584 
Q 2378 3584 2631 3529 
Q 2884 3475 3122 3366 
z
" transform="scale(0.015625)"/>
       <path id="DejaVuSans-55" d="M 556 4666 
L 1191 4666 
L 1191 1831 
Q 1191 1081 1462 751 
Q 1734 422 2344 422 
Q 2950 422 3222 751 
Q 3494 1081 3494 1831 
L 3494 4666 
L 4128 4666 
L 4128 1753 
Q 4128 841 3676 375 
Q 3225 -91 2344 -91 
Q 1459 -91 1007 375 
Q 556 841 556 1753 
L 556 4666 
z
" transform="scale(0.015625)"/>
      </defs>
      <use xlink:href="#DejaVuSans-41"/>
      <use xlink:href="#DejaVuSans-76" x="62.533203"/>
      <use xlink:href="#DejaVuSans-65" x="121.712891"/>
      <use xlink:href="#DejaVuSans-72" x="183.236328"/>
      <use xlink:href="#DejaVuSans-61" x="224.349609"/>
      <use xlink:href="#DejaVuSans-67" x="285.628906"/>
      <use xlink:href="#DejaVuSans-65" x="349.105469"/>
      <use xlink:href="#DejaVuSans-20" x="410.628906"/>
      <use xlink:href="#DejaVuSans-61" x="442.416016"/>
      <use xlink:href="#DejaVuSans-62" x="503.695312"/>
      <use xlink:href="#DejaVuSans-73" x="567.171875"/>
      <use xlink:href="#DejaVuSans-6f" x="619.271484"/>
      <use xlink:href="#DejaVuSans-72" x="680.453125"/>
      <use xlink:href="#DejaVuSans-62" x="721.566406"/>
      <use xlink:href="#DejaVuSans-61" x="785.042969"/>
      <use xlink:href="#DejaVuSans-6e" x="846.322266"/>
      <use xlink:href="#DejaVuSans-63" x="909.701172"/>
      <use xlink:href="#DejaVuSans-65" x="964.681641"/>
      <use xlink:href="#DejaVuSans-20" x="1026.205078"/>
      <use xlink:href="#DejaVuSans-5b" x="1057.992188"/>
      <use xlink:href="#DejaVuSans-6d" x="1097.005859"/>
      <use xlink:href="#DejaVuSans-41" x="1194.417969"/>
      <use xlink:href="#DejaVuSans-55" x="1262.826172"/>
      <use xlink:href="#DejaVuSans-5d" x="1336.019531"/>
     </g>
    </g>
   </g>
   <g id="line2d_15">
    <path d="M 86.31 288.555827 
L 87.635772 293.681967 
L 88.238395 295.29271 
L 88.599969 295.488 
L 88.961544 295.139671 
L 89.323118 293.973785 
L 90.046266 290.420971 
L 91.251512 281.833674 
L 92.336234 274.636915 
L 92.818333 272.55863 
L 93.420955 270.884553 
L 93.78253 270.454522 
L 94.144102 270.552352 
L 94.867251 271.745183 
L 95.710923 274.338576 
L 96.91617 278.774032 
L 98.24194 281.454136 
L 99.326662 282.57484 
L 99.567711 282.710769 
L 99.929285 282.975266 
L 100.290859 283.155795 
L 100.652432 283.267771 
L 101.255062 283.223248 
L 101.97821 282.975454 
L 102.580824 282.951326 
L 103.183453 282.645376 
L 103.906601 282.822741 
L 104.268175 282.905045 
L 104.509215 282.734493 
L 104.870789 282.554436 
L 105.232364 282.744334 
L 105.473418 282.742534 
L 106.558141 282.72848 
L 106.799195 282.795418 
L 108.486531 282.503709 
L 108.968626 282.793805 
L 110.897031 282.737347 
L 111.258605 282.758663 
L 111.499645 282.802133 
L 113.066476 282.54015 
L 113.307516 282.527256 
L 113.66909 282.700611 
L 113.910144 282.569139 
L 114.512758 282.294898 
L 115.476961 282.175084 
L 115.718015 282.362727 
L 115.959055 282.381026 
L 116.802738 282.175331 
L 117.284832 282.275872 
L 117.525886 282.602798 
L 117.766926 283.489211 
L 118.1285 286.270413 
L 118.610609 290.508424 
L 118.851649 291.465726 
L 118.972169 291.564474 
L 119.092703 291.444276 
L 119.454277 290.350166 
L 120.056891 287.91692 
L 120.297945 286.229756 
L 120.78004 280.662495 
L 121.382668 273.882589 
L 121.744242 271.78017 
L 121.985297 271.365886 
L 122.346871 271.516619 
L 122.708445 272.194413 
L 123.672633 276.566363 
L 124.395782 279.35926 
L 124.877876 280.289187 
L 125.480504 280.97223 
L 127.649949 282.564125 
L 128.373098 282.087996 
L 129.57834 281.823378 
L 129.939914 281.571566 
L 130.422009 281.643014 
L 130.904117 281.766286 
L 131.265691 281.80281 
L 132.350414 281.994806 
L 132.832508 282.062272 
L 133.073562 282.189238 
L 133.676176 282.372427 
L 133.917231 282.447565 
L 134.399325 282.426263 
L 134.881419 282.638504 
L 135.363527 282.526824 
L 135.966141 283.004625 
L 136.56877 282.877455 
L 137.774012 282.942272 
L 138.015067 282.921105 
L 138.497161 283.028758 
L 139.099789 283.061005 
L 139.340829 283.119864 
L 140.305032 282.586149 
L 140.666606 282.524951 
L 141.02818 282.449474 
L 141.992383 282.662018 
L 142.474477 282.390498 
L 143.197625 282.189663 
L 143.679719 282.247275 
L 143.920774 282.198944 
L 144.643922 281.990867 
L 145.126016 282.106337 
L 145.36707 282.047775 
L 145.849165 282.228667 
L 146.451793 282.038023 
L 146.933887 282.315451 
L 147.415981 282.381715 
L 147.89809 282.232725 
L 148.259664 282.055299 
L 149.103332 282.255777 
L 149.464907 282.150931 
L 150.308575 282.336294 
L 150.670149 281.959923 
L 151.031723 280.835908 
L 151.513817 279.31664 
L 151.754872 279.183845 
L 151.995926 279.42871 
L 153.321688 281.427629 
L 153.562743 281.435216 
L 153.924317 281.607833 
L 154.285891 282.006628 
L 155.973228 282.456746 
L 156.334802 282.55672 
L 156.455336 282.597304 
L 156.696376 282.474376 
L 157.299004 282.661051 
L 157.660579 282.577419 
L 158.022153 282.721133 
L 158.263207 282.863187 
L 158.624781 282.880289 
L 158.986356 282.746444 
L 159.46845 282.885682 
L 159.709504 282.938623 
L 160.553172 282.983534 
L 160.794227 283.052666 
L 162.119989 283.038715 
L 162.361043 283.041635 
L 162.843137 282.779792 
L 163.686806 282.821463 
L 164.168914 282.733301 
L 165.253637 282.466552 
L 167.302548 282.632268 
L 168.025696 282.555607 
L 168.38727 282.742418 
L 168.628324 282.848978 
L 169.230938 282.67626 
L 169.833567 282.629789 
L 170.315661 282.752614 
L 170.677235 282.689776 
L 170.91829 282.815286 
L 171.279864 282.927686 
L 171.641438 282.784217 
L 172.364586 282.702683 
L 172.726161 282.799643 
L 173.208255 282.688374 
L 173.449309 282.691326 
L 174.051923 282.743249 
L 174.413497 282.610311 
L 174.775071 282.606678 
L 175.016126 282.517499 
L 175.49822 282.210921 
L 176.462422 282.377147 
L 176.944516 282.424559 
L 177.547145 282.588955 
L 177.908719 282.636149 
L 178.511348 282.281486 
L 178.872907 282.412137 
L 179.113962 282.486588 
L 179.355016 282.482318 
L 179.83711 282.259145 
L 179.95763 282.231606 
L 180.198684 282.382357 
L 180.801313 282.501596 
L 181.042353 282.611236 
L 181.886035 282.714261 
L 182.488649 282.402717 
L 183.091278 282.452499 
L 184.176 282.522705 
L 184.41704 282.502239 
L 184.658095 282.437087 
L 185.140189 282.238441 
L 185.501763 282.426808 
L 185.863337 282.776466 
L 186.104391 282.867999 
L 186.82754 282.597209 
L 187.068594 282.511026 
L 188.032782 282.723703 
L 188.635411 282.608513 
L 188.87645 282.654723 
L 189.479079 282.27717 
L 190.081707 282.408665 
L 190.684321 282.627258 
L 191.045896 282.584187 
L 191.28695 282.587916 
L 192.010098 282.667083 
L 192.371673 282.876487 
L 193.215341 282.691215 
L 193.817969 282.824694 
L 194.059009 282.864863 
L 194.420583 282.64448 
L 194.782158 282.362153 
L 195.74636 282.676549 
L 195.987415 282.76913 
L 197.554231 282.473878 
L 197.674751 282.56287 
L 198.3979 282.294927 
L 198.880008 282.595511 
L 199.121048 282.717409 
L 199.362102 282.580941 
L 199.723676 282.661537 
L 200.085251 282.959043 
L 200.32629 282.94621 
L 201.652067 282.601714 
L 201.893122 282.566847 
L 202.375216 282.522597 
L 202.85731 282.492178 
L 203.218884 282.296316 
L 203.459938 282.431336 
L 203.821512 282.73175 
L 204.665181 282.388187 
L 205.026755 282.255731 
L 205.990958 282.800149 
L 206.714106 282.33838 
L 207.437254 282.942868 
L 207.798829 282.590983 
L 208.039868 282.414554 
L 208.401443 282.488113 
L 208.763017 282.821676 
L 209.124591 282.871887 
L 209.968259 282.598093 
L 210.691408 282.16769 
L 211.294036 282.311131 
L 212.017185 282.152722 
L 212.619813 282.565397 
L 212.981387 282.418662 
L 213.342961 282.24878 
L 213.584001 282.331788 
L 213.945575 282.549633 
L 215.271352 282.436492 
L 215.632927 282.224462 
L 216.356075 282.184686 
L 217.681837 282.438845 
L 217.922892 282.505993 
L 218.76656 282.855458 
L 219.128134 282.69523 
L 219.730763 283.038081 
L 220.333377 282.644416 
L 221.659153 282.879865 
L 221.900208 282.760643 
L 222.743876 282.948748 
L 223.587544 282.721697 
L 224.190173 281.45754 
L 224.672267 281.372668 
L 225.274895 282.19097 
L 225.998044 282.221434 
L 226.239084 282.442549 
L 226.480138 282.500065 
L 226.841712 282.401481 
L 227.082766 282.454278 
L 227.444341 282.742237 
L 227.805915 282.937264 
L 228.167489 282.84472 
L 228.649583 282.392545 
L 228.890637 282.399087 
L 229.131677 282.519056 
L 229.493251 282.840958 
L 229.734306 282.772179 
L 230.2164 282.595246 
L 230.577974 282.669606 
L 231.421729 282.650789 
L 231.783303 282.492376 
L 232.506452 282.548284 
L 233.591319 281.927039 
L 234.193991 282.307581 
L 234.555565 282.360983 
L 234.676041 282.350949 
L 235.278713 282.924322 
L 236.122483 282.517389 
L 236.966252 282.655619 
L 237.689401 282.997727 
L 238.050975 282.920555 
L 238.53317 282.458591 
L 239.135842 282.24059 
L 239.376795 282.086833 
L 239.617893 282.094766 
L 239.858991 282.222492 
L 240.341186 282.244749 
L 240.943858 282.415892 
L 241.54653 282.584593 
L 242.751729 282.897077 
L 243.354401 282.817379 
L 243.71612 282.935897 
L 243.957073 282.92257 
L 244.921463 282.34838 
L 245.162416 282.42155 
L 245.523991 282.672311 
L 245.765088 282.707584 
L 246.36776 282.604886 
L 247.452627 283.27246 
L 247.934678 283.237024 
L 248.175776 283.267664 
L 249.260643 282.791743 
L 249.622217 282.729349 
L 250.465987 282.057128 
L 251.189135 281.793988 
L 251.430233 281.899219 
L 252.032905 282.118195 
L 252.514955 281.997177 
L 253.238248 282.23377 
L 253.720299 282.419059 
L 254.081873 282.547155 
L 254.564069 282.415231 
L 254.925643 282.505484 
L 255.528315 282.511516 
L 255.889889 282.893247 
L 256.130986 282.859652 
L 256.492561 282.635346 
L 257.577428 282.595782 
L 258.300576 282.590058 
L 258.662151 282.711177 
L 258.903248 282.674015 
L 259.385444 282.371272 
L 259.50592 282.375362 
L 259.867494 282.614884 
L 260.229068 282.683429 
L 260.470166 282.700587 
L 261.313936 282.913678 
L 261.67551 282.833598 
L 261.916608 282.791053 
L 262.519279 282.87535 
L 263.363049 282.675376 
L 263.604002 282.736323 
L 263.8451 282.958434 
L 264.206674 282.887569 
L 264.447772 282.677234 
L 265.17092 282.520553 
L 265.532639 282.578049 
L 266.135311 282.687623 
L 266.617361 282.526399 
L 266.978936 282.624685 
L 267.461131 282.725484 
L 267.822705 282.741393 
L 268.063803 282.718113 
L 268.425377 282.662149 
L 268.666475 282.703756 
L 269.389623 282.402331 
L 269.630721 282.391755 
L 269.992295 282.111319 
L 270.233393 281.918744 
L 270.47449 281.941503 
L 270.956541 282.100069 
L 271.679834 282.05675 
L 272.282506 282.117612 
L 273.487705 282.020844 
L 274.090377 282.311254 
L 274.452096 282.335174 
L 274.693049 282.507098 
L 275.054768 282.802088 
L 276.259967 282.941616 
L 276.742162 282.732313 
L 277.46531 282.030581 
L 277.706408 282.00951 
L 278.067982 281.820711 
L 278.429701 281.928117 
L 279.875998 282.524802 
L 280.117096 282.4394 
L 280.47867 282.556239 
L 280.960865 282.908926 
L 281.322439 282.916412 
L 281.684013 282.726094 
L 281.925111 282.58711 
L 283.250931 282.486694 
L 284.215177 282.991853 
L 284.456275 282.991393 
L 284.93847 282.959015 
L 285.300045 283.125746 
L 285.661619 283.065759 
L 286.023193 282.860555 
L 286.264291 282.825586 
L 286.625865 282.936493 
L 287.710732 283.022848 
L 288.795455 282.814058 
L 289.27765 282.98544 
L 289.639224 282.956802 
L 290.000798 282.937946 
L 290.482994 282.680303 
L 290.844568 282.865498 
L 291.206142 282.982621 
L 291.567716 282.854159 
L 291.929291 282.782764 
L 292.291009 282.861308 
L 292.77306 282.687899 
L 293.375732 282.711482 
L 293.857927 282.422256 
L 294.339978 282.234354 
L 294.701552 282.27649 
L 294.94265 282.045936 
L 295.183748 281.613363 
L 295.545322 280.277914 
L 295.786419 278.194351 
L 296.027517 274.315022 
L 296.389091 264.193204 
L 297.11224 241.182167 
L 297.353337 238.350723 
L 297.473959 238.282065 
L 297.594435 238.95331 
L 297.956009 244.247946 
L 299.040877 263.120894 
L 299.402451 266.327866 
L 299.522927 266.551281 
L 299.643548 266.280448 
L 299.884501 263.647335 
L 300.24622 253.844502 
L 300.969369 228.643513 
L 301.210466 226.375685 
L 301.330943 226.979062 
L 301.572041 230.755047 
L 302.897861 259.934688 
L 303.259435 262.762099 
L 303.380056 262.959649 
L 303.500533 262.834133 
L 303.74163 261.70467 
L 304.103205 258.251266 
L 304.946974 248.542989 
L 305.067451 248.109951 
L 305.188072 248.202076 
L 305.429025 249.511723 
L 305.790744 253.989954 
L 306.995943 270.957534 
L 307.478138 274.749806 
L 307.839712 276.387993 
L 308.924579 279.299972 
L 309.527251 280.089064 
L 310.129923 280.905308 
L 310.491497 281.434098 
L 310.853072 281.586567 
L 310.973548 281.573533 
L 311.335267 281.122356 
L 311.57622 280.314461 
L 311.817318 278.774483 
L 312.299513 273.595656 
L 312.902185 267.417811 
L 313.143138 266.958187 
L 313.384236 267.585466 
L 313.74581 269.585626 
L 314.589579 275.404784 
L 315.192251 277.606826 
L 315.674447 278.742358 
L 316.518071 279.458512 
L 316.759169 279.235837 
L 317.120743 278.876333 
L 317.482462 278.973025 
L 317.844036 279.338741 
L 318.326087 280.124735 
L 318.687806 280.483508 
L 319.169857 280.948466 
L 319.772529 281.422173 
L 320.134103 281.639063 
L 321.098349 282.132513 
L 321.339446 282.163911 
L 321.942118 282.000089 
L 322.424314 282.089037 
L 323.629657 281.689157 
L 324.232329 280.961032 
L 324.593903 280.807637 
L 324.955478 281.107352 
L 325.196575 281.487734 
L 325.799247 282.596959 
L 326.401919 283.178012 
L 326.642872 283.148768 
L 327.245544 282.896732 
L 327.848216 282.773022 
L 328.209935 282.953547 
L 328.450888 282.904945 
L 328.812462 282.650068 
L 329.174181 282.518679 
L 329.415134 282.352533 
L 329.776853 282.227022 
L 330.017806 282.295045 
L 330.620478 282.255721 
L 331.343771 282.195406 
L 332.066919 282.211204 
L 332.308017 282.304487 
L 332.910688 282.392695 
L 333.392739 282.345601 
L 334.477606 282.164317 
L 335.321376 280.979011 
L 336.52672 277.377931 
L 336.888294 277.126242 
L 337.129392 277.272901 
L 337.370345 277.721688 
L 338.214114 279.808709 
L 338.816786 280.706661 
L 339.419458 281.297129 
L 339.781032 281.642744 
L 340.02213 281.907106 
L 340.263227 281.960258 
L 340.624802 281.966492 
L 340.986376 282.146859 
L 341.950622 282.568297 
L 342.312196 282.570242 
L 342.794391 282.668552 
L 343.758638 282.543347 
L 344.240833 282.70142 
L 344.722884 282.5163 
L 345.566653 282.598598 
L 346.169325 282.672433 
L 347.133571 282.556781 
L 347.615766 282.702796 
L 347.856719 282.741182 
L 348.218438 282.656869 
L 348.941587 282.441919 
L 349.182684 282.521491 
L 349.423782 282.493448 
L 349.664735 282.469306 
L 350.026309 282.473155 
L 350.388028 282.426101 
L 351.111176 282.703795 
L 351.593372 282.555508 
L 352.075423 282.602814 
L 353.401243 282.677927 
L 353.883438 282.823506 
L 354.365634 282.815976 
L 354.727208 282.969456 
L 354.968305 282.830443 
L 355.450356 282.519328 
L 356.053028 282.785848 
L 356.535223 282.674989 
L 357.017274 282.763471 
L 357.378848 282.648574 
L 357.619946 282.628378 
L 358.343239 282.939578 
L 358.584192 282.926039 
L 359.066387 282.658431 
L 359.669059 282.633782 
L 361.356454 282.272083 
L 361.959126 282.382082 
L 362.441321 282.152768 
L 362.682419 282.272546 
L 363.043993 282.530358 
L 363.405567 282.578358 
L 364.128715 282.436006 
L 364.731387 282.422441 
L 365.334059 282.407776 
L 365.936731 282.178591 
L 366.660024 282.418084 
L 366.900977 282.549029 
L 368.226942 282.517835 
L 368.708993 282.689412 
L 369.311664 282.313009 
L 369.673239 282.488753 
L 370.155434 282.769425 
L 371.11968 282.678319 
L 371.360778 282.814771 
L 371.96345 282.674685 
L 372.204547 282.777436 
L 372.566121 282.710307 
L 372.807219 282.501923 
L 373.409891 282.473966 
L 373.891942 282.535434 
L 374.61509 282.245251 
L 375.097285 282.354391 
L 377.025633 281.889392 
L 377.266586 281.806543 
L 377.507684 281.775844 
L 377.869258 281.664473 
L 378.230832 281.416636 
L 379.31541 281.215818 
L 379.797461 281.316663 
L 380.279511 281.358109 
L 381.364234 281.861121 
L 382.207859 281.954252 
L 382.810386 282.34783 
L 384.618113 282.499064 
L 385.100163 282.304995 
L 385.461737 282.44914 
L 385.823312 282.622725 
L 386.064265 282.615337 
L 386.546315 282.42879 
L 387.028511 282.671366 
L 387.871991 282.878432 
L 388.233565 282.730914 
L 388.595139 282.766668 
L 388.956714 282.775857 
L 389.197667 282.795343 
L 389.679862 282.887748 
L 390.643964 282.494797 
L 391.005538 282.640383 
L 391.487588 282.888034 
L 392.210592 282.559983 
L 392.572166 282.488486 
L 393.054217 282.804718 
L 393.295315 282.884117 
L 393.897842 282.732479 
L 394.379893 282.664019 
L 394.982565 282.510715 
L 395.585092 282.688895 
L 395.946666 282.580174 
L 396.067143 282.586077 
L 396.428717 282.875622 
L 396.66967 282.902604 
L 397.151721 282.55595 
L 397.513295 282.533698 
L 397.995345 282.70133 
L 398.236443 282.754547 
L 398.959591 282.564554 
L 399.562119 282.651361 
L 399.803072 282.72415 
L 400.164646 282.960591 
L 400.405744 283.002048 
L 401.008271 282.822556 
L 402.092993 282.853908 
L 403.057095 282.749728 
L 403.539146 283.057838 
L 404.382771 282.564609 
L 404.503247 282.55924 
L 404.985298 282.947738 
L 405.226395 282.941154 
L 405.708446 282.63498 
L 405.949399 282.521031 
L 406.310973 282.722158 
L 406.672548 282.951082 
L 407.275075 282.999147 
L 408.239321 282.813829 
L 408.480274 282.66488 
L 408.962325 282.417516 
L 409.203422 282.051599 
L 409.685473 280.597352 
L 410.047047 278.762848 
L 410.408477 275.436029 
L 410.890672 267.710643 
L 411.372723 255.335774 
L 411.854774 237.029245 
L 412.457301 205.08536 
L 414.747078 70.353768 
L 415.229129 57.759092 
L 415.590703 53.787057 
L 415.711324 53.568 
L 415.831801 53.75631 
L 416.072754 55.892424 
L 416.434328 62.973355 
L 416.916378 77.704066 
L 417.760003 113.401431 
L 419.326777 181.473562 
L 420.170402 208.624964 
L 420.893405 225.968252 
L 421.73703 240.573609 
L 422.460179 249.963082 
L 423.303804 258.288473 
L 424.147429 264.346065 
L 425.593581 271.70864 
L 426.316729 274.297664 
L 427.762881 277.147843 
L 428.244932 277.465223 
L 428.606506 277.66029 
L 428.96808 277.922641 
L 429.450131 277.879261 
L 431.137236 276.757053 
L 431.980861 276.451392 
L 433.065584 276.918098 
L 433.306537 277.003179 
L 433.788587 277.457308 
L 434.87331 278.808335 
L 435.234884 279.299107 
L 435.716935 279.537164 
L 436.198986 280.083456 
L 436.801513 280.565663 
L 437.283564 281.12262 
L 438.127189 281.325671 
L 439.332388 282.042421 
L 440.176013 282.103169 
L 440.537587 282.257018 
L 440.899161 282.491135 
L 441.140114 282.444264 
L 441.501688 282.326389 
L 441.742641 282.386998 
L 442.827364 282.793945 
L 443.068317 282.789784 
L 443.550512 282.55191 
L 443.791465 282.63771 
L 444.032563 282.80091 
L 444.755567 282.727136 
L 445.237617 282.588194 
L 446.081242 282.910329 
L 446.442817 282.823581 
L 446.924867 282.618525 
L 447.286441 282.424737 
L 448.491641 282.83045 
L 449.094168 282.907063 
L 449.335266 282.935234 
L 449.696695 282.654056 
L 449.937793 282.471585 
L 450.660941 282.906283 
L 451.142992 282.713953 
L 451.625043 282.90375 
L 452.348046 282.873335 
L 452.830242 282.641877 
L 453.553245 282.753246 
L 454.155917 282.855762 
L 454.758445 282.597907 
L 455.360972 282.897237 
L 455.722546 282.806954 
L 456.08412 282.721272 
L 456.927745 282.639917 
L 457.168698 282.651676 
L 457.409796 282.662483 
L 457.650749 282.614585 
L 458.373897 282.598641 
L 458.614995 282.792143 
L 458.855948 283.049744 
L 459.217522 282.829012 
L 459.579096 282.484947 
L 460.061147 282.487271 
L 460.422721 282.391875 
L 461.145725 282.379565 
L 461.627776 282.623453 
L 462.109971 282.59972 
L 462.712498 282.739059 
L 463.315026 282.46423 
L 463.6766 282.618617 
L 464.279127 282.805203 
L 465.36385 282.495205 
L 465.604803 282.454679 
L 466.327951 282.651545 
L 467.292052 282.723543 
L 467.774103 282.484259 
L 468.497252 282.529797 
L 468.738349 282.469666 
L 469.099779 282.704791 
L 469.340877 282.751815 
L 469.702451 282.5009 
L 470.184501 282.474189 
L 470.787029 282.579918 
L 471.028126 282.569095 
L 471.389701 282.693661 
L 471.630654 282.789421 
L 472.594755 282.901122 
L 472.835853 282.865851 
L 473.317903 282.64046 
L 473.559001 282.487914 
L 474.041052 282.710144 
L 474.282005 282.821702 
L 475.246106 282.687283 
L 475.60768 282.662657 
L 476.451305 282.480301 
L 476.933356 282.483055 
L 477.174454 282.498427 
L 477.415407 282.434186 
L 477.656505 282.284804 
L 478.379508 282.674035 
L 478.741082 282.649918 
L 479.223133 282.752699 
L 480.307856 282.641034 
L 481.633531 282.454258 
L 482.597633 282.255237 
L 482.838731 282.335439 
L 483.320781 282.806182 
L 483.441258 282.879259 
L 484.164406 282.636426 
L 485.007886 282.631358 
L 485.369461 282.705332 
L 486.815757 282.750016 
L 487.538761 282.781279 
L 488.020812 282.586168 
L 489.346488 282.757909 
L 489.467109 282.822892 
L 490.310589 282.31882 
L 490.672163 282.422626 
L 490.913261 282.361383 
L 491.154214 282.244184 
L 492.238936 282.548499 
L 492.720987 282.678132 
L 493.082561 282.663877 
L 493.444136 282.493045 
L 493.805565 282.441335 
L 494.167139 282.50492 
L 494.528714 282.543045 
L 495.010764 282.382541 
L 496.698014 282.762884 
L 496.938967 282.855117 
L 497.421162 282.538124 
L 497.662116 282.394653 
L 498.02369 282.381515 
L 498.50574 282.585094 
L 499.108268 282.352363 
L 499.951893 282.670995 
L 500.433943 282.607233 
L 500.915994 282.355881 
L 501.277568 282.533362 
L 501.639142 282.604062 
L 504.049541 282.527914 
L 504.41097 282.716338 
L 504.652068 282.787487 
L 504.893021 282.704745 
L 505.134119 282.619647 
L 505.616169 282.426443 
L 506.09822 282.593876 
L 506.339318 282.71879 
L 506.580271 282.752438 
L 507.905946 282.631223 
L 508.267521 282.71939 
L 508.870048 282.541929 
L 509.231622 282.470092 
L 509.95477 282.410136 
L 510.316345 282.377081 
L 510.798395 282.661171 
L 511.159969 282.698052 
L 511.762497 282.778748 
L 512.365024 282.448735 
L 512.606122 282.481519 
L 513.088172 282.47171 
L 513.449747 282.671326 
L 516.221574 282.524011 
L 516.824102 282.765137 
L 517.306297 282.45767 
L 518.029301 282.554732 
L 518.270398 282.536142 
L 518.390875 282.472134 
L 518.631973 282.560344 
L 519.114023 282.566005 
L 519.837027 282.628611 
L 520.078125 282.636231 
L 520.319078 282.623403 
L 520.92175 282.810301 
L 521.283324 282.677152 
L 521.644753 282.771912 
L 522.006328 282.724382 
L 522.367902 282.64275 
L 522.729476 282.464586 
L 523.09105 282.312788 
L 523.814054 282.834249 
L 524.296105 282.647763 
L 524.898777 282.704587 
L 525.380827 282.793725 
L 525.501304 282.791776 
L 525.862878 282.55532 
L 526.103976 282.625272 
L 526.465405 282.87241 
L 526.826979 282.858417 
L 527.068077 282.828928 
L 527.550128 282.797309 
L 527.911702 282.69075 
L 528.273132 282.598421 
L 529.478331 282.360957 
L 529.960381 282.701238 
L 530.201479 282.519565 
L 530.442432 282.372466 
L 530.68353 282.579864 
L 530.924483 282.840666 
L 531.165581 282.788963 
L 531.647631 282.384537 
L 531.888729 282.381415 
L 532.250158 282.430006 
L 532.611733 282.591672 
L 532.85283 282.594546 
L 533.214405 282.378633 
L 533.696455 282.397333 
L 534.178506 282.652645 
L 534.90151 282.696228 
L 536.950334 282.500846 
L 537.191431 282.498859 
L 537.673482 282.397323 
L 537.914435 282.494227 
L 539.601685 282.146715 
L 539.842783 282.220396 
L 540.44531 282.002011 
L 540.686408 281.997932 
L 541.168458 281.666758 
L 542.012083 281.872077 
L 542.61461 281.611995 
L 543.217138 281.549843 
L 544.181239 281.317342 
L 544.904388 281.426266 
L 545.145485 281.433489 
L 545.748012 281.537785 
L 545.98911 281.678059 
L 546.109587 281.659292 
L 546.35054 281.796888 
L 546.83259 281.819996 
L 548.03779 281.77758 
L 548.881414 282.128221 
L 549.966137 282.169069 
L 550.327567 282.380082 
L 550.568664 282.325318 
L 550.930238 282.155333 
L 551.171192 282.290399 
L 551.653242 282.602639 
L 552.376391 282.50616 
L 552.617488 282.541932 
L 552.858441 282.525427 
L 554.545691 282.694336 
L 555.027742 282.34021 
L 555.389316 282.480528 
L 557.920191 282.498285 
L 558.28162 282.333334 
L 559.125245 282.761708 
L 560.692019 282.675293 
L 561.294546 282.852792 
L 561.65612 282.575061 
L 562.017694 282.37843 
L 562.379268 282.575772 
L 562.981796 282.89681 
L 563.34337 282.70716 
L 564.186995 282.515631 
L 564.548569 282.633284 
L 564.789522 282.723731 
L 565.51267 282.633987 
L 565.874245 282.898239 
L 566.356295 282.633181 
L 566.717725 282.498411 
L 567.19992 282.597732 
L 567.440873 282.520077 
L 567.802447 282.464745 
L 568.043401 282.445758 
L 568.525596 282.512811 
L 569.2486 282.751203 
L 570.212701 282.422201 
L 571.056326 282.448055 
L 571.4179 282.605697 
L 572.382002 282.637909 
L 572.623099 282.614482 
L 572.864052 282.72063 
L 573.10515 282.873411 
L 573.346248 282.829548 
L 573.828298 282.564587 
L 574.189728 282.701242 
L 574.7924 282.835603 
L 575.515404 282.783401 
L 575.876978 282.820017 
L 576.47965 282.752729 
L 577.082177 282.574915 
L 577.925802 282.577273 
L 578.287376 282.557637 
L 578.64895 282.664308 
L 579.01038 282.717093 
L 579.371954 282.572674 
L 579.733528 282.671197 
L 579.974626 282.750414 
L 580.577153 282.538446 
L 581.17968 282.27881 
L 581.782352 282.5691 
L 582.143782 282.307931 
L 582.384879 282.407156 
L 582.746454 282.745039 
L 582.987407 282.730473 
L 583.348981 282.709469 
L 583.951653 282.783351 
L 584.674656 282.65743 
L 585.156707 282.716521 
L 585.397805 282.755429 
L 585.638758 282.663881 
L 586.24143 282.608938 
L 586.603004 282.646571 
L 587.085055 282.548228 
L 587.446484 282.554017 
L 587.808058 282.760399 
L 588.290109 282.801918 
L 588.651683 282.662548 
L 588.892781 282.506817 
L 589.133734 282.460539 
L 589.856883 282.603559 
L 590.097836 282.528314 
L 590.580031 282.348214 
L 591.062082 282.551796 
L 591.423511 282.852653 
L 591.664609 282.832291 
L 592.267136 282.627601 
L 592.508234 282.526079 
L 592.749187 282.577998 
L 593.351859 282.868127 
L 593.713433 282.728679 
L 594.074862 282.789384 
L 594.31596 282.777332 
L 594.798011 282.636824 
L 595.280062 282.668136 
L 595.641636 282.548733 
L 595.762112 282.528836 
L 596.244163 282.795385 
L 596.485261 282.736184 
L 597.087788 282.537631 
L 597.810936 282.638382 
L 598.292987 282.726134 
L 598.654561 282.426338 
L 599.016135 282.249985 
L 601.305912 282.631075 
L 602.270014 282.443836 
L 602.993162 282.690056 
L 603.234115 282.706043 
L 603.475213 282.533097 
L 603.716166 282.467924 
L 603.957264 282.490532 
L 604.559791 282.624102 
L 604.921365 282.63229 
L 605.282939 282.688563 
L 605.523892 282.632546 
L 605.885467 282.578104 
L 606.367517 282.570543 
L 606.729092 282.606549 
L 607.211142 282.672099 
L 607.572716 282.470547 
L 607.813814 282.424158 
L 608.175244 282.495573 
L 608.536818 282.464884 
L 608.777916 282.522053 
L 609.259966 282.840017 
L 609.500919 282.753544 
L 609.862494 282.485676 
L 610.224068 282.267655 
L 610.465165 282.240316 
L 611.429267 282.51102 
L 611.790841 282.487758 
L 612.393368 282.640079 
L 612.995895 282.357395 
L 613.477946 282.507455 
L 613.83952 282.802415 
L 614.080618 282.768617 
L 614.442192 282.531208 
L 614.683145 282.546188 
L 615.04472 282.812246 
L 615.285673 282.804871 
L 615.647247 282.587818 
L 616.129297 282.725453 
L 616.731969 282.393403 
L 617.575594 282.666177 
L 618.178121 282.479215 
L 618.660172 282.363521 
L 619.262699 282.386476 
L 619.744895 282.548735 
L 620.588375 282.472778 
L 621.191047 282.241539 
L 621.432 282.29011 
L 621.432 282.29011 
" clip-path="url(#ped9f915162)" style="fill: none; stroke: #1f77b4; stroke-width: 1.5; stroke-linecap: square"/>
   </g>
   <g id="patch_3">
    <path d="M 86.31 307.584 
L 86.31 41.472 
" style="fill: none; stroke: #000000; stroke-width: 0.8; stroke-linejoin: miter; stroke-linecap: square"/>
   </g>
   <g id="patch_4">
    <path d="M 621.432 307.584 
L 621.432 41.472 
" style="fill: none; stroke: #000000; stroke-width: 0.8; stroke-linejoin: miter; stroke-linecap: square"/>
   </g>
   <g id="patch_5">
    <path d="M 86.31 307.584 
L 621.432 307.584 
" style="fill: none; stroke: #000000; stroke-width: 0.8; stroke-linejoin: miter; stroke-linecap: square"/>
   </g>
   <g id="patch_6">
    <path d="M 86.31 41.472 
L 621.432 41.472 
" style="fill: none; stroke: #000000; stroke-width: 0.8; stroke-linejoin: miter; stroke-linecap: square"/>
   </g>
  </g>
 </g>
 <defs>
  <clipPath id="ped9f915162">
   <rect x="86.31" y="41.472" width="535.122" height="266.112"/>
  </clipPath>
 </defs>
</svg>
