<?xml version="1.0" encoding="utf-8" standalone="no"?>
<!DOCTYPE svg PUBLIC "-//W3C//DTD SVG 1.1//EN"
  "http://www.w3.org/Graphics/SVG/1.1/DTD/svg11.dtd">
<svg xmlns:xlink="http://www.w3.org/1999/xlink" width="756pt" height="345.6pt" viewBox="0 0 756 345.6" xmlns="http://www.w3.org/2000/svg" version="1.1">
 <metadata>
  <rdf:RDF xmlns:dc="http://purl.org/dc/elements/1.1/" xmlns:cc="http://creativecommons.org/ns#" xmlns:rdf="http://www.w3.org/1999/02/22-rdf-syntax-ns#">
   <cc:Work>
    <dc:type rdf:resource="http://purl.org/dc/dcmitype/StillImage"/>
    <dc:date>2023-09-17T14:21:40.706120</dc:date>
    <dc:format>image/svg+xml</dc:format>
    <dc:creator>
     <cc:Agent>
      <dc:title>Matplotlib v3.7.2, https://matplotlib.org/</dc:title>
     </cc:Agent>
    </dc:creator>
   </cc:Work>
  </rdf:RDF>
 </metadata>
 <defs>
  <style type="text/css">*{stroke-linejoin: round; stroke-linecap: butt}</style>
 </defs>
 <g id="figure_1">
  <g id="patch_1">
   <path d="M 0 345.6 
L 756 345.6 
L 756 0 
L 0 0 
z
" style="fill: #ffffff"/>
  </g>
  <g id="axes_1">
   <g id="patch_2">
    <path d="M 94.5 307.584 
L 680.4 307.584 
L 680.4 41.472 
L 94.5 41.472 
z
" style="fill: #ffffff"/>
   </g>
   <g id="matplotlib.axis_1">
    <g id="xtick_1">
     <g id="line2d_1">
      <defs>
       <path id="mf801235c00" d="M 0 0 
L 0 3.5 
" style="stroke: #000000; stroke-width: 0.8"/>
      </defs>
      <g>
       <use xlink:href="#mf801235c00" x="94.5" y="307.584" style="stroke: #000000; stroke-width: 0.8"/>
      </g>
     </g>
     <g id="text_1">
      <!-- 0.0 -->
      <g transform="translate(86.548438 322.182437) scale(0.1 -0.1)">
       <defs>
        <path id="DejaVuSans-30" d="M 2034 4250 
Q 1547 4250 1301 3770 
Q 1056 3291 1056 2328 
Q 1056 1369 1301 889 
Q 1547 409 2034 409 
Q 2525 409 2770 889 
Q 3016 1369 3016 2328 
Q 3016 3291 2770 3770 
Q 2525 4250 2034 4250 
z
M 2034 4750 
Q 2819 4750 3233 4129 
Q 3647 3509 3647 2328 
Q 3647 1150 3233 529 
Q 2819 -91 2034 -91 
Q 1250 -91 836 529 
Q 422 1150 422 2328 
Q 422 3509 836 4129 
Q 1250 4750 2034 4750 
z
" transform="scale(0.015625)"/>
        <path id="DejaVuSans-2e" d="M 684 794 
L 1344 794 
L 1344 0 
L 684 0 
L 684 794 
z
" transform="scale(0.015625)"/>
       </defs>
       <use xlink:href="#DejaVuSans-30"/>
       <use xlink:href="#DejaVuSans-2e" x="63.623047"/>
       <use xlink:href="#DejaVuSans-30" x="95.410156"/>
      </g>
     </g>
    </g>
    <g id="xtick_2">
     <g id="line2d_2">
      <g>
       <use xlink:href="#mf801235c00" x="173.676831" y="307.584" style="stroke: #000000; stroke-width: 0.8"/>
      </g>
     </g>
     <g id="text_2">
      <!-- 0.5 -->
      <g transform="translate(165.725269 322.182437) scale(0.1 -0.1)">
       <defs>
        <path id="DejaVuSans-35" d="M 691 4666 
L 3169 4666 
L 3169 4134 
L 1269 4134 
L 1269 2991 
Q 1406 3038 1543 3061 
Q 1681 3084 1819 3084 
Q 2600 3084 3056 2656 
Q 3513 2228 3513 1497 
Q 3513 744 3044 326 
Q 2575 -91 1722 -91 
Q 1428 -91 1123 -41 
Q 819 9 494 109 
L 494 744 
Q 775 591 1075 516 
Q 1375 441 1709 441 
Q 2250 441 2565 725 
Q 2881 1009 2881 1497 
Q 2881 1984 2565 2268 
Q 2250 2553 1709 2553 
Q 1456 2553 1204 2497 
Q 953 2441 691 2322 
L 691 4666 
z
" transform="scale(0.015625)"/>
       </defs>
       <use xlink:href="#DejaVuSans-30"/>
       <use xlink:href="#DejaVuSans-2e" x="63.623047"/>
       <use xlink:href="#DejaVuSans-35" x="95.410156"/>
      </g>
     </g>
    </g>
    <g id="xtick_3">
     <g id="line2d_3">
      <g>
       <use xlink:href="#mf801235c00" x="252.853662" y="307.584" style="stroke: #000000; stroke-width: 0.8"/>
      </g>
     </g>
     <g id="text_3">
      <!-- 1.0 -->
      <g transform="translate(244.9021 322.182437) scale(0.1 -0.1)">
       <defs>
        <path id="DejaVuSans-31" d="M 794 531 
L 1825 531 
L 1825 4091 
L 703 3866 
L 703 4441 
L 1819 4666 
L 2450 4666 
L 2450 531 
L 3481 531 
L 3481 0 
L 794 0 
L 794 531 
z
" transform="scale(0.015625)"/>
       </defs>
       <use xlink:href="#DejaVuSans-31"/>
       <use xlink:href="#DejaVuSans-2e" x="63.623047"/>
       <use xlink:href="#DejaVuSans-30" x="95.410156"/>
      </g>
     </g>
    </g>
    <g id="xtick_4">
     <g id="line2d_4">
      <g>
       <use xlink:href="#mf801235c00" x="332.030494" y="307.584" style="stroke: #000000; stroke-width: 0.8"/>
      </g>
     </g>
     <g id="text_4">
      <!-- 1.5 -->
      <g transform="translate(324.078931 322.182437) scale(0.1 -0.1)">
       <use xlink:href="#DejaVuSans-31"/>
       <use xlink:href="#DejaVuSans-2e" x="63.623047"/>
       <use xlink:href="#DejaVuSans-35" x="95.410156"/>
      </g>
     </g>
    </g>
    <g id="xtick_5">
     <g id="line2d_5">
      <g>
       <use xlink:href="#mf801235c00" x="411.207325" y="307.584" style="stroke: #000000; stroke-width: 0.8"/>
      </g>
     </g>
     <g id="text_5">
      <!-- 2.0 -->
      <g transform="translate(403.255762 322.182437) scale(0.1 -0.1)">
       <defs>
        <path id="DejaVuSans-32" d="M 1228 531 
L 3431 531 
L 3431 0 
L 469 0 
L 469 531 
Q 828 903 1448 1529 
Q 2069 2156 2228 2338 
Q 2531 2678 2651 2914 
Q 2772 3150 2772 3378 
Q 2772 3750 2511 3984 
Q 2250 4219 1831 4219 
Q 1534 4219 1204 4116 
Q 875 4013 500 3803 
L 500 4441 
Q 881 4594 1212 4672 
Q 1544 4750 1819 4750 
Q 2544 4750 2975 4387 
Q 3406 4025 3406 3419 
Q 3406 3131 3298 2873 
Q 3191 2616 2906 2266 
Q 2828 2175 2409 1742 
Q 1991 1309 1228 531 
z
" transform="scale(0.015625)"/>
       </defs>
       <use xlink:href="#DejaVuSans-32"/>
       <use xlink:href="#DejaVuSans-2e" x="63.623047"/>
       <use xlink:href="#DejaVuSans-30" x="95.410156"/>
      </g>
     </g>
    </g>
    <g id="xtick_6">
     <g id="line2d_6">
      <g>
       <use xlink:href="#mf801235c00" x="490.384156" y="307.584" style="stroke: #000000; stroke-width: 0.8"/>
      </g>
     </g>
     <g id="text_6">
      <!-- 2.5 -->
      <g transform="translate(482.432594 322.182437) scale(0.1 -0.1)">
       <use xlink:href="#DejaVuSans-32"/>
       <use xlink:href="#DejaVuSans-2e" x="63.623047"/>
       <use xlink:href="#DejaVuSans-35" x="95.410156"/>
      </g>
     </g>
    </g>
    <g id="xtick_7">
     <g id="line2d_7">
      <g>
       <use xlink:href="#mf801235c00" x="569.560987" y="307.584" style="stroke: #000000; stroke-width: 0.8"/>
      </g>
     </g>
     <g id="text_7">
      <!-- 3.0 -->
      <g transform="translate(561.609425 322.182437) scale(0.1 -0.1)">
       <defs>
        <path id="DejaVuSans-33" d="M 2597 2516 
Q 3050 2419 3304 2112 
Q 3559 1806 3559 1356 
Q 3559 666 3084 287 
Q 2609 -91 1734 -91 
Q 1441 -91 1130 -33 
Q 819 25 488 141 
L 488 750 
Q 750 597 1062 519 
Q 1375 441 1716 441 
Q 2309 441 2620 675 
Q 2931 909 2931 1356 
Q 2931 1769 2642 2001 
Q 2353 2234 1838 2234 
L 1294 2234 
L 1294 2753 
L 1863 2753 
Q 2328 2753 2575 2939 
Q 2822 3125 2822 3475 
Q 2822 3834 2567 4026 
Q 2313 4219 1838 4219 
Q 1578 4219 1281 4162 
Q 984 4106 628 3988 
L 628 4550 
Q 988 4650 1302 4700 
Q 1616 4750 1894 4750 
Q 2613 4750 3031 4423 
Q 3450 4097 3450 3541 
Q 3450 3153 3228 2886 
Q 3006 2619 2597 2516 
z
" transform="scale(0.015625)"/>
       </defs>
       <use xlink:href="#DejaVuSans-33"/>
       <use xlink:href="#DejaVuSans-2e" x="63.623047"/>
       <use xlink:href="#DejaVuSans-30" x="95.410156"/>
      </g>
     </g>
    </g>
    <g id="xtick_8">
     <g id="line2d_8">
      <g>
       <use xlink:href="#mf801235c00" x="648.737819" y="307.584" style="stroke: #000000; stroke-width: 0.8"/>
      </g>
     </g>
     <g id="text_8">
      <!-- 3.5 -->
      <g transform="translate(640.786256 322.182437) scale(0.1 -0.1)">
       <use xlink:href="#DejaVuSans-33"/>
       <use xlink:href="#DejaVuSans-2e" x="63.623047"/>
       <use xlink:href="#DejaVuSans-35" x="95.410156"/>
      </g>
     </g>
    </g>
    <g id="text_9">
     <!-- Time [min] -->
     <g transform="translate(360.297656 335.860562) scale(0.1 -0.1)">
      <defs>
       <path id="DejaVuSans-54" d="M -19 4666 
L 3928 4666 
L 3928 4134 
L 2272 4134 
L 2272 0 
L 1638 0 
L 1638 4134 
L -19 4134 
L -19 4666 
z
" transform="scale(0.015625)"/>
       <path id="DejaVuSans-69" d="M 603 3500 
L 1178 3500 
L 1178 0 
L 603 0 
L 603 3500 
z
M 603 4863 
L 1178 4863 
L 1178 4134 
L 603 4134 
L 603 4863 
z
" transform="scale(0.015625)"/>
       <path id="DejaVuSans-6d" d="M 3328 2828 
Q 3544 3216 3844 3400 
Q 4144 3584 4550 3584 
Q 5097 3584 5394 3201 
Q 5691 2819 5691 2113 
L 5691 0 
L 5113 0 
L 5113 2094 
Q 5113 2597 4934 2840 
Q 4756 3084 4391 3084 
Q 3944 3084 3684 2787 
Q 3425 2491 3425 1978 
L 3425 0 
L 2847 0 
L 2847 2094 
Q 2847 2600 2669 2842 
Q 2491 3084 2119 3084 
Q 1678 3084 1418 2786 
Q 1159 2488 1159 1978 
L 1159 0 
L 581 0 
L 581 3500 
L 1159 3500 
L 1159 2956 
Q 1356 3278 1631 3431 
Q 1906 3584 2284 3584 
Q 2666 3584 2933 3390 
Q 3200 3197 3328 2828 
z
" transform="scale(0.015625)"/>
       <path id="DejaVuSans-65" d="M 3597 1894 
L 3597 1613 
L 953 1613 
Q 991 1019 1311 708 
Q 1631 397 2203 397 
Q 2534 397 2845 478 
Q 3156 559 3463 722 
L 3463 178 
Q 3153 47 2828 -22 
Q 2503 -91 2169 -91 
Q 1331 -91 842 396 
Q 353 884 353 1716 
Q 353 2575 817 3079 
Q 1281 3584 2069 3584 
Q 2775 3584 3186 3129 
Q 3597 2675 3597 1894 
z
M 3022 2063 
Q 3016 2534 2758 2815 
Q 2500 3097 2075 3097 
Q 1594 3097 1305 2825 
Q 1016 2553 972 2059 
L 3022 2063 
z
" transform="scale(0.015625)"/>
       <path id="DejaVuSans-20" transform="scale(0.015625)"/>
       <path id="DejaVuSans-5b" d="M 550 4863 
L 1875 4863 
L 1875 4416 
L 1125 4416 
L 1125 -397 
L 1875 -397 
L 1875 -844 
L 550 -844 
L 550 4863 
z
" transform="scale(0.015625)"/>
       <path id="DejaVuSans-6e" d="M 3513 2113 
L 3513 0 
L 2938 0 
L 2938 2094 
Q 2938 2591 2744 2837 
Q 2550 3084 2163 3084 
Q 1697 3084 1428 2787 
Q 1159 2491 1159 1978 
L 1159 0 
L 581 0 
L 581 3500 
L 1159 3500 
L 1159 2956 
Q 1366 3272 1645 3428 
Q 1925 3584 2291 3584 
Q 2894 3584 3203 3211 
Q 3513 2838 3513 2113 
z
" transform="scale(0.015625)"/>
       <path id="DejaVuSans-5d" d="M 1947 4863 
L 1947 -844 
L 622 -844 
L 622 -397 
L 1369 -397 
L 1369 4416 
L 622 4416 
L 622 4863 
L 1947 4863 
z
" transform="scale(0.015625)"/>
      </defs>
      <use xlink:href="#DejaVuSans-54"/>
      <use xlink:href="#DejaVuSans-69" x="57.958984"/>
      <use xlink:href="#DejaVuSans-6d" x="85.742188"/>
      <use xlink:href="#DejaVuSans-65" x="183.154297"/>
      <use xlink:href="#DejaVuSans-20" x="244.677734"/>
      <use xlink:href="#DejaVuSans-5b" x="276.464844"/>
      <use xlink:href="#DejaVuSans-6d" x="315.478516"/>
      <use xlink:href="#DejaVuSans-69" x="412.890625"/>
      <use xlink:href="#DejaVuSans-6e" x="440.673828"/>
      <use xlink:href="#DejaVuSans-5d" x="504.052734"/>
     </g>
    </g>
   </g>
   <g id="matplotlib.axis_2">
    <g id="ytick_1">
     <g id="line2d_9">
      <defs>
       <path id="md5dcac845f" d="M 0 0 
L -3.5 0 
" style="stroke: #000000; stroke-width: 0.8"/>
      </defs>
      <g>
       <use xlink:href="#md5dcac845f" x="94.5" y="292.053855" style="stroke: #000000; stroke-width: 0.8"/>
      </g>
     </g>
     <g id="text_10">
      <!-- 0 -->
      <g transform="translate(81.1375 295.853074) scale(0.1 -0.1)">
       <use xlink:href="#DejaVuSans-30"/>
      </g>
     </g>
    </g>
    <g id="ytick_2">
     <g id="line2d_10">
      <g>
       <use xlink:href="#md5dcac845f" x="94.5" y="255.252739" style="stroke: #000000; stroke-width: 0.8"/>
      </g>
     </g>
     <g id="text_11">
      <!-- 50 -->
      <g transform="translate(74.775 259.051958) scale(0.1 -0.1)">
       <use xlink:href="#DejaVuSans-35"/>
       <use xlink:href="#DejaVuSans-30" x="63.623047"/>
      </g>
     </g>
    </g>
    <g id="ytick_3">
     <g id="line2d_11">
      <g>
       <use xlink:href="#md5dcac845f" x="94.5" y="218.451623" style="stroke: #000000; stroke-width: 0.8"/>
      </g>
     </g>
     <g id="text_12">
      <!-- 100 -->
      <g transform="translate(68.4125 222.250841) scale(0.1 -0.1)">
       <use xlink:href="#DejaVuSans-31"/>
       <use xlink:href="#DejaVuSans-30" x="63.623047"/>
       <use xlink:href="#DejaVuSans-30" x="127.246094"/>
      </g>
     </g>
    </g>
    <g id="ytick_4">
     <g id="line2d_12">
      <g>
       <use xlink:href="#md5dcac845f" x="94.5" y="181.650506" style="stroke: #000000; stroke-width: 0.8"/>
      </g>
     </g>
     <g id="text_13">
      <!-- 150 -->
      <g transform="translate(68.4125 185.449725) scale(0.1 -0.1)">
       <use xlink:href="#DejaVuSans-31"/>
       <use xlink:href="#DejaVuSans-35" x="63.623047"/>
       <use xlink:href="#DejaVuSans-30" x="127.246094"/>
      </g>
     </g>
    </g>
    <g id="ytick_5">
     <g id="line2d_13">
      <g>
       <use xlink:href="#md5dcac845f" x="94.5" y="144.84939" style="stroke: #000000; stroke-width: 0.8"/>
      </g>
     </g>
     <g id="text_14">
      <!-- 200 -->
      <g transform="translate(68.4125 148.648608) scale(0.1 -0.1)">
       <use xlink:href="#DejaVuSans-32"/>
       <use xlink:href="#DejaVuSans-30" x="63.623047"/>
       <use xlink:href="#DejaVuSans-30" x="127.246094"/>
      </g>
     </g>
    </g>
    <g id="ytick_6">
     <g id="line2d_14">
      <g>
       <use xlink:href="#md5dcac845f" x="94.5" y="108.048273" style="stroke: #000000; stroke-width: 0.8"/>
      </g>
     </g>
     <g id="text_15">
      <!-- 250 -->
      <g transform="translate(68.4125 111.847492) scale(0.1 -0.1)">
       <use xlink:href="#DejaVuSans-32"/>
       <use xlink:href="#DejaVuSans-35" x="63.623047"/>
       <use xlink:href="#DejaVuSans-30" x="127.246094"/>
      </g>
     </g>
    </g>
    <g id="ytick_7">
     <g id="line2d_15">
      <g>
       <use xlink:href="#md5dcac845f" x="94.5" y="71.247157" style="stroke: #000000; stroke-width: 0.8"/>
      </g>
     </g>
     <g id="text_16">
      <!-- 300 -->
      <g transform="translate(68.4125 75.046376) scale(0.1 -0.1)">
       <use xlink:href="#DejaVuSans-33"/>
       <use xlink:href="#DejaVuSans-30" x="63.623047"/>
       <use xlink:href="#DejaVuSans-30" x="127.246094"/>
      </g>
     </g>
    </g>
    <g id="text_17">
     <!-- Average absorbance [mAU] -->
     <g transform="translate(62.332812 243.281125) rotate(-90) scale(0.1 -0.1)">
      <defs>
       <path id="DejaVuSans-41" d="M 2188 4044 
L 1331 1722 
L 3047 1722 
L 2188 4044 
z
M 1831 4666 
L 2547 4666 
L 4325 0 
L 3669 0 
L 3244 1197 
L 1141 1197 
L 716 0 
L 50 0 
L 1831 4666 
z
" transform="scale(0.015625)"/>
       <path id="DejaVuSans-76" d="M 191 3500 
L 800 3500 
L 1894 563 
L 2988 3500 
L 3597 3500 
L 2284 0 
L 1503 0 
L 191 3500 
z
" transform="scale(0.015625)"/>
       <path id="DejaVuSans-72" d="M 2631 2963 
Q 2534 3019 2420 3045 
Q 2306 3072 2169 3072 
Q 1681 3072 1420 2755 
Q 1159 2438 1159 1844 
L 1159 0 
L 581 0 
L 581 3500 
L 1159 3500 
L 1159 2956 
Q 1341 3275 1631 3429 
Q 1922 3584 2338 3584 
Q 2397 3584 2469 3576 
Q 2541 3569 2628 3553 
L 2631 2963 
z
" transform="scale(0.015625)"/>
       <path id="DejaVuSans-61" d="M 2194 1759 
Q 1497 1759 1228 1600 
Q 959 1441 959 1056 
Q 959 750 1161 570 
Q 1363 391 1709 391 
Q 2188 391 2477 730 
Q 2766 1069 2766 1631 
L 2766 1759 
L 2194 1759 
z
M 3341 1997 
L 3341 0 
L 2766 0 
L 2766 531 
Q 2569 213 2275 61 
Q 1981 -91 1556 -91 
Q 1019 -91 701 211 
Q 384 513 384 1019 
Q 384 1609 779 1909 
Q 1175 2209 1959 2209 
L 2766 2209 
L 2766 2266 
Q 2766 2663 2505 2880 
Q 2244 3097 1772 3097 
Q 1472 3097 1187 3025 
Q 903 2953 641 2809 
L 641 3341 
Q 956 3463 1253 3523 
Q 1550 3584 1831 3584 
Q 2591 3584 2966 3190 
Q 3341 2797 3341 1997 
z
" transform="scale(0.015625)"/>
       <path id="DejaVuSans-67" d="M 2906 1791 
Q 2906 2416 2648 2759 
Q 2391 3103 1925 3103 
Q 1463 3103 1205 2759 
Q 947 2416 947 1791 
Q 947 1169 1205 825 
Q 1463 481 1925 481 
Q 2391 481 2648 825 
Q 2906 1169 2906 1791 
z
M 3481 434 
Q 3481 -459 3084 -895 
Q 2688 -1331 1869 -1331 
Q 1566 -1331 1297 -1286 
Q 1028 -1241 775 -1147 
L 775 -588 
Q 1028 -725 1275 -790 
Q 1522 -856 1778 -856 
Q 2344 -856 2625 -561 
Q 2906 -266 2906 331 
L 2906 616 
Q 2728 306 2450 153 
Q 2172 0 1784 0 
Q 1141 0 747 490 
Q 353 981 353 1791 
Q 353 2603 747 3093 
Q 1141 3584 1784 3584 
Q 2172 3584 2450 3431 
Q 2728 3278 2906 2969 
L 2906 3500 
L 3481 3500 
L 3481 434 
z
" transform="scale(0.015625)"/>
       <path id="DejaVuSans-62" d="M 3116 1747 
Q 3116 2381 2855 2742 
Q 2594 3103 2138 3103 
Q 1681 3103 1420 2742 
Q 1159 2381 1159 1747 
Q 1159 1113 1420 752 
Q 1681 391 2138 391 
Q 2594 391 2855 752 
Q 3116 1113 3116 1747 
z
M 1159 2969 
Q 1341 3281 1617 3432 
Q 1894 3584 2278 3584 
Q 2916 3584 3314 3078 
Q 3713 2572 3713 1747 
Q 3713 922 3314 415 
Q 2916 -91 2278 -91 
Q 1894 -91 1617 61 
Q 1341 213 1159 525 
L 1159 0 
L 581 0 
L 581 4863 
L 1159 4863 
L 1159 2969 
z
" transform="scale(0.015625)"/>
       <path id="DejaVuSans-73" d="M 2834 3397 
L 2834 2853 
Q 2591 2978 2328 3040 
Q 2066 3103 1784 3103 
Q 1356 3103 1142 2972 
Q 928 2841 928 2578 
Q 928 2378 1081 2264 
Q 1234 2150 1697 2047 
L 1894 2003 
Q 2506 1872 2764 1633 
Q 3022 1394 3022 966 
Q 3022 478 2636 193 
Q 2250 -91 1575 -91 
Q 1294 -91 989 -36 
Q 684 19 347 128 
L 347 722 
Q 666 556 975 473 
Q 1284 391 1588 391 
Q 1994 391 2212 530 
Q 2431 669 2431 922 
Q 2431 1156 2273 1281 
Q 2116 1406 1581 1522 
L 1381 1569 
Q 847 1681 609 1914 
Q 372 2147 372 2553 
Q 372 3047 722 3315 
Q 1072 3584 1716 3584 
Q 2034 3584 2315 3537 
Q 2597 3491 2834 3397 
z
" transform="scale(0.015625)"/>
       <path id="DejaVuSans-6f" d="M 1959 3097 
Q 1497 3097 1228 2736 
Q 959 2375 959 1747 
Q 959 1119 1226 758 
Q 1494 397 1959 397 
Q 2419 397 2687 759 
Q 2956 1122 2956 1747 
Q 2956 2369 2687 2733 
Q 2419 3097 1959 3097 
z
M 1959 3584 
Q 2709 3584 3137 3096 
Q 3566 2609 3566 1747 
Q 3566 888 3137 398 
Q 2709 -91 1959 -91 
Q 1206 -91 779 398 
Q 353 888 353 1747 
Q 353 2609 779 3096 
Q 1206 3584 1959 3584 
z
" transform="scale(0.015625)"/>
       <path id="DejaVuSans-63" d="M 3122 3366 
L 3122 2828 
Q 2878 2963 2633 3030 
Q 2388 3097 2138 3097 
Q 1578 3097 1268 2742 
Q 959 2388 959 1747 
Q 959 1106 1268 751 
Q 1578 397 2138 397 
Q 2388 397 2633 464 
Q 2878 531 3122 666 
L 3122 134 
Q 2881 22 2623 -34 
Q 2366 -91 2075 -91 
Q 1284 -91 818 406 
Q 353 903 353 1747 
Q 353 2603 823 3093 
Q 1294 3584 2113 3584 
Q 2378 3584 2631 3529 
Q 2884 3475 3122 3366 
z
" transform="scale(0.015625)"/>
       <path id="DejaVuSans-55" d="M 556 4666 
L 1191 4666 
L 1191 1831 
Q 1191 1081 1462 751 
Q 1734 422 2344 422 
Q 2950 422 3222 751 
Q 3494 1081 3494 1831 
L 3494 4666 
L 4128 4666 
L 4128 1753 
Q 4128 841 3676 375 
Q 3225 -91 2344 -91 
Q 1459 -91 1007 375 
Q 556 841 556 1753 
L 556 4666 
z
" transform="scale(0.015625)"/>
      </defs>
      <use xlink:href="#DejaVuSans-41"/>
      <use xlink:href="#DejaVuSans-76" x="62.533203"/>
      <use xlink:href="#DejaVuSans-65" x="121.712891"/>
      <use xlink:href="#DejaVuSans-72" x="183.236328"/>
      <use xlink:href="#DejaVuSans-61" x="224.349609"/>
      <use xlink:href="#DejaVuSans-67" x="285.628906"/>
      <use xlink:href="#DejaVuSans-65" x="349.105469"/>
      <use xlink:href="#DejaVuSans-20" x="410.628906"/>
      <use xlink:href="#DejaVuSans-61" x="442.416016"/>
      <use xlink:href="#DejaVuSans-62" x="503.695312"/>
      <use xlink:href="#DejaVuSans-73" x="567.171875"/>
      <use xlink:href="#DejaVuSans-6f" x="619.271484"/>
      <use xlink:href="#DejaVuSans-72" x="680.453125"/>
      <use xlink:href="#DejaVuSans-62" x="721.566406"/>
      <use xlink:href="#DejaVuSans-61" x="785.042969"/>
      <use xlink:href="#DejaVuSans-6e" x="846.322266"/>
      <use xlink:href="#DejaVuSans-63" x="909.701172"/>
      <use xlink:href="#DejaVuSans-65" x="964.681641"/>
      <use xlink:href="#DejaVuSans-20" x="1026.205078"/>
      <use xlink:href="#DejaVuSans-5b" x="1057.992188"/>
      <use xlink:href="#DejaVuSans-6d" x="1097.005859"/>
      <use xlink:href="#DejaVuSans-41" x="1194.417969"/>
      <use xlink:href="#DejaVuSans-55" x="1262.826172"/>
      <use xlink:href="#DejaVuSans-5d" x="1336.019531"/>
     </g>
    </g>
   </g>
   <g id="line2d_16">
    <path d="M 94.5 292.053855 
L 95.159807 291.878309 
L 95.819614 291.986737 
L 97.535112 292.42518 
L 98.326879 292.333605 
L 99.118647 292.060542 
L 99.646492 291.599944 
L 100.306298 290.642805 
L 102.021794 287.914049 
L 102.549639 287.471342 
L 102.945523 287.374842 
L 103.341408 287.478345 
L 103.869253 287.909199 
L 104.52906 288.82878 
L 106.112595 291.223078 
L 106.904362 291.959499 
L 107.828091 292.484492 
L 109.015742 292.885359 
L 110.335355 293.118042 
L 111.654975 293.14734 
L 113.10654 292.981413 
L 116.273613 292.565538 
L 120.892251 292.254789 
L 128.94189 291.951378 
L 129.337774 291.494986 
L 129.86563 290.898178 
L 130.129542 290.920005 
L 130.525427 291.274934 
L 131.449151 292.157046 
L 132.504847 293.013879 
L 132.900731 293.755013 
L 133.560544 295.298554 
L 133.824456 295.488 
L 134.088384 295.337995 
L 134.484268 294.693423 
L 136.067805 291.644039 
L 136.727601 290.948884 
L 137.387413 290.550536 
L 137.915254 290.477985 
L 138.311138 290.623105 
L 138.838994 291.075838 
L 140.158602 292.391894 
L 140.818415 292.621747 
L 141.346255 292.578807 
L 142.138023 292.230307 
L 143.061748 291.601006 
L 145.041168 290.052097 
L 146.888617 288.56871 
L 148.340198 287.392436 
L 149.131966 287.003485 
L 149.923734 286.877773 
L 150.847459 286.977972 
L 153.618648 287.445569 
L 155.070228 287.388682 
L 157.841402 286.909106 
L 160.480635 286.168492 
L 163.38378 285.495891 
L 164.703388 285.109649 
L 164.967316 284.835407 
L 165.363201 283.997938 
L 165.891041 282.717144 
L 166.154969 282.522404 
L 166.418897 282.66313 
L 167.474577 283.632942 
L 168.266346 283.914016 
L 169.19007 284.013477 
L 170.377723 283.912521 
L 173.544796 283.423463 
L 174.732448 283.281607 
L 179.483058 282.939362 
L 184.497596 282.075378 
L 191.491539 280.887949 
L 195.318409 280.056929 
L 196.638017 279.775653 
L 199.673134 279.070492 
L 206.799033 277.174246 
L 207.722774 276.791768 
L 222.238515 274.269969 
L 230.288139 272.651333 
L 231.607763 272.247387 
L 235.830517 271.537279 
L 236.754241 271.267905 
L 238.733662 271.18468 
L 239.789359 271.147013 
L 242.956432 270.765598 
L 244.407997 270.459124 
L 244.935853 270.065349 
L 245.727605 269.299033 
L 246.123489 269.234062 
L 247.04723 269.533749 
L 247.970954 269.647252 
L 249.158606 269.544236 
L 251.929796 269.16154 
L 254.964992 268.335062 
L 255.624852 268.022147 
L 256.152803 268.02696 
L 257.340455 268.141223 
L 258.92415 267.940653 
L 260.375778 267.712469 
L 261.563589 267.204507 
L 262.487424 266.803023 
L 263.147284 266.813236 
L 264.467003 266.979454 
L 265.918631 266.922838 
L 273.308997 265.730942 
L 275.0246 264.836543 
L 278.587874 264.85578 
L 281.359222 264.521117 
L 283.602618 264.064143 
L 284.658521 263.886963 
L 288.221636 263.190316 
L 290.992984 262.71515 
L 294.688166 262.113249 
L 296.799813 261.459144 
L 297.591581 261.428018 
L 298.779392 261.383987 
L 300.758812 261.143527 
L 302.210599 261.127983 
L 303.002367 260.925005 
L 304.717971 260.120222 
L 306.69755 260.105882 
L 309.204922 260.208859 
L 313.296147 259.538341 
L 322.402116 257.399037 
L 322.929909 257.134736 
L 323.193884 256.827028 
L 323.45786 256.198508 
L 323.721835 254.869067 
L 323.985653 252.258899 
L 324.381695 244.85989 
L 325.437439 219.599685 
L 325.569348 218.806906 
L 325.701415 218.784025 
L 325.965232 220.624303 
L 326.493183 228.226445 
L 327.284951 239.090927 
L 327.680835 242.412271 
L 327.944811 243.135329 
L 328.076878 242.793042 
L 328.340695 240.218477 
L 328.604671 234.756974 
L 329.660414 206.023548 
L 329.792481 205.464815 
L 329.92439 205.918837 
L 330.188366 209.305683 
L 331.639994 236.008103 
L 332.035878 238.739208 
L 332.299853 239.257993 
L 332.43192 239.137395 
L 332.695737 238.200654 
L 333.091622 235.394003 
L 333.751481 230.184689 
L 334.015457 229.420544 
L 334.147524 229.508184 
L 334.411341 230.602373 
L 334.807384 234.025435 
L 335.995036 245.703075 
L 336.522987 248.621744 
L 337.05078 250.274409 
L 337.578731 251.170711 
L 339.030359 252.854061 
L 339.822127 253.364519 
L 340.350078 253.515562 
L 340.745963 253.40809 
L 341.009938 253.086546 
L 341.273914 252.382478 
L 341.669798 250.319428 
L 342.593633 244.108805 
L 342.85745 243.663146 
L 342.989517 243.761235 
L 343.253493 244.439867 
L 344.837029 250.309162 
L 345.496889 251.436441 
L 345.892932 251.774108 
L 346.288816 251.829801 
L 346.816609 251.625623 
L 347.476468 251.417014 
L 347.872352 251.533011 
L 348.532212 252.067925 
L 349.587956 252.858388 
L 350.379883 253.209438 
L 351.435627 253.446932 
L 353.019322 253.603739 
L 353.942998 253.5227 
L 355.526693 253.119042 
L 356.450529 253.246769 
L 359.353943 253.758123 
L 360.145711 253.827058 
L 362.653083 253.68257 
L 366.216357 253.881039 
L 366.612242 253.703211 
L 367.140193 253.148652 
L 367.931961 251.764026 
L 368.459912 251.007938 
L 368.855796 250.844074 
L 369.25168 251.038496 
L 369.91154 251.794771 
L 370.967284 252.927986 
L 371.891119 253.491497 
L 372.814955 253.806918 
L 374.002607 254.053498 
L 377.03793 254.278653 
L 386.803759 254.383265 
L 388.783338 254.423395 
L 390.63085 254.420205 
L 393.79824 254.324431 
L 396.701496 254.138699 
L 400.132862 254.187353 
L 402.7723 254.251601 
L 406.7313 254.412712 
L 407.919111 254.308452 
L 409.89869 254.004047 
L 413.329581 253.790411 
L 415.572819 253.320739 
L 416.496496 253.433596 
L 420.322953 254.251516 
L 423.621777 254.384427 
L 427.052509 254.403242 
L 429.559723 254.327169 
L 434.83765 254.424359 
L 437.212797 254.393771 
L 442.094999 254.471112 
L 445.393822 254.454161 
L 447.109267 254.309002 
L 447.63706 254.07135 
L 448.032944 253.710948 
L 448.428828 253.024495 
L 448.824554 251.791839 
L 449.220438 249.683117 
L 449.616322 246.262264 
L 450.012207 241.023698 
L 450.539999 230.205261 
L 451.067792 213.963211 
L 451.727493 185.601495 
L 454.234707 65.672769 
L 454.630433 57.387409 
L 454.894408 54.42734 
L 455.158384 53.568 
L 455.290293 53.891109 
L 455.55411 56.02225 
L 455.949994 62.593396 
L 456.477787 76.588564 
L 457.269555 104.581761 
L 458.984842 167.314601 
L 459.77661 189.031667 
L 460.568378 205.18327 
L 461.359988 216.874404 
L 462.151757 225.516337 
L 462.943525 231.943752 
L 463.867202 237.59723 
L 464.790721 241.808362 
L 465.714397 244.981146 
L 466.506166 246.985626 
L 467.429843 248.68721 
L 468.089544 249.492649 
L 468.749404 249.966623 
L 469.409105 250.170533 
L 470.068806 250.138675 
L 470.992483 249.821164 
L 472.312044 249.302777 
L 473.36763 249.158933 
L 474.159398 249.397918 
L 474.951008 249.836794 
L 476.270569 250.967807 
L 477.853948 252.191045 
L 479.437484 253.097879 
L 480.624978 253.518836 
L 482.604241 253.911617 
L 485.639247 254.251321 
L 500.54967 254.470597 
L 506.22364 254.352578 
L 514.404665 254.481645 
L 525.092745 254.549333 
L 529.843038 254.564027 
L 531.426417 254.565555 
L 539.607442 254.441632 
L 545.281412 254.491431 
L 548.580236 254.555486 
L 577.47772 254.511643 
L 584.998886 254.247408 
L 587.374033 254.215135 
L 590.804765 253.911181 
L 594.895356 253.377358 
L 596.478735 253.351117 
L 598.853881 253.610814 
L 603.340199 254.160798 
L 605.715345 254.299584 
L 618.514597 254.620318 
L 622.869006 254.632931 
L 626.695622 254.626949 
L 628.93886 254.578525 
L 634.480763 254.529097 
L 646.620472 254.579243 
L 648.467667 254.577342 
L 650.183112 254.597336 
L 659.947516 254.622218 
L 674.198396 254.590398 
L 678.288829 254.576416 
L 680.4 254.568191 
L 680.4 254.568191 
" clip-path="url(#p7e8d46a091)" style="fill: none; stroke: #1f77b4; stroke-width: 1.5; stroke-linecap: square"/>
   </g>
   <g id="patch_3">
    <path d="M 94.5 307.584 
L 94.5 41.472 
" style="fill: none; stroke: #000000; stroke-width: 0.8; stroke-linejoin: miter; stroke-linecap: square"/>
   </g>
   <g id="patch_4">
    <path d="M 680.4 307.584 
L 680.4 41.472 
" style="fill: none; stroke: #000000; stroke-width: 0.8; stroke-linejoin: miter; stroke-linecap: square"/>
   </g>
   <g id="patch_5">
    <path d="M 94.5 307.584 
L 680.4 307.584 
" style="fill: none; stroke: #000000; stroke-width: 0.8; stroke-linejoin: miter; stroke-linecap: square"/>
   </g>
   <g id="patch_6">
    <path d="M 94.5 41.472 
L 680.4 41.472 
" style="fill: none; stroke: #000000; stroke-width: 0.8; stroke-linejoin: miter; stroke-linecap: square"/>
   </g>
  </g>
 </g>
 <defs>
  <clipPath id="p7e8d46a091">
   <rect x="94.5" y="41.472" width="585.9" height="266.112"/>
  </clipPath>
 </defs>
</svg>
