<?xml version="1.0" encoding="utf-8" standalone="no"?>
<!DOCTYPE svg PUBLIC "-//W3C//DTD SVG 1.1//EN"
  "http://www.w3.org/Graphics/SVG/1.1/DTD/svg11.dtd">
<svg xmlns:xlink="http://www.w3.org/1999/xlink" width="460.8pt" height="345.6pt" viewBox="0 0 460.8 345.6" xmlns="http://www.w3.org/2000/svg" version="1.1">
 <metadata>
  <rdf:RDF xmlns:dc="http://purl.org/dc/elements/1.1/" xmlns:cc="http://creativecommons.org/ns#" xmlns:rdf="http://www.w3.org/1999/02/22-rdf-syntax-ns#">
   <cc:Work>
    <dc:type rdf:resource="http://purl.org/dc/dcmitype/StillImage"/>
    <dc:date>2024-04-10T15:46:35.647491</dc:date>
    <dc:format>image/svg+xml</dc:format>
    <dc:creator>
     <cc:Agent>
      <dc:title>Matplotlib v3.8.4, https://matplotlib.org/</dc:title>
     </cc:Agent>
    </dc:creator>
   </cc:Work>
  </rdf:RDF>
 </metadata>
 <defs>
  <style type="text/css">*{stroke-linejoin: round; stroke-linecap: butt}</style>
 </defs>
 <g id="figure_1">
  <g id="patch_1">
   <path d="M 0 345.6 
L 460.8 345.6 
L 460.8 0 
L 0 0 
z
" style="fill: #ffffff"/>
  </g>
  <g id="axes_1">
   <g id="patch_2">
    <path d="M 57.6 307.584 
L 414.72 307.584 
L 414.72 41.472 
L 57.6 41.472 
z
" style="fill: #ffffff"/>
   </g>
   <g id="matplotlib.axis_1">
    <g id="xtick_1">
     <g id="line2d_1">
      <defs>
       <path id="m1361d43440" d="M 0 0 
L 0 3.5 
" style="stroke: #000000; stroke-width: 0.8"/>
      </defs>
      <g>
       <use xlink:href="#m1361d43440" x="97.276211" y="307.584" style="stroke: #000000; stroke-width: 0.8"/>
      </g>
     </g>
     <g id="text_1">
      <!-- 1.75 -->
      <g transform="translate(86.143399 322.182437) scale(0.1 -0.1)">
       <defs>
        <path id="DejaVuSans-31" d="M 794 531 
L 1825 531 
L 1825 4091 
L 703 3866 
L 703 4441 
L 1819 4666 
L 2450 4666 
L 2450 531 
L 3481 531 
L 3481 0 
L 794 0 
L 794 531 
z
" transform="scale(0.015625)"/>
        <path id="DejaVuSans-2e" d="M 684 794 
L 1344 794 
L 1344 0 
L 684 0 
L 684 794 
z
" transform="scale(0.015625)"/>
        <path id="DejaVuSans-37" d="M 525 4666 
L 3525 4666 
L 3525 4397 
L 1831 0 
L 1172 0 
L 2766 4134 
L 525 4134 
L 525 4666 
z
" transform="scale(0.015625)"/>
        <path id="DejaVuSans-35" d="M 691 4666 
L 3169 4666 
L 3169 4134 
L 1269 4134 
L 1269 2991 
Q 1406 3038 1543 3061 
Q 1681 3084 1819 3084 
Q 2600 3084 3056 2656 
Q 3513 2228 3513 1497 
Q 3513 744 3044 326 
Q 2575 -91 1722 -91 
Q 1428 -91 1123 -41 
Q 819 9 494 109 
L 494 744 
Q 775 591 1075 516 
Q 1375 441 1709 441 
Q 2250 441 2565 725 
Q 2881 1009 2881 1497 
Q 2881 1984 2565 2268 
Q 2250 2553 1709 2553 
Q 1456 2553 1204 2497 
Q 953 2441 691 2322 
L 691 4666 
z
" transform="scale(0.015625)"/>
       </defs>
       <use xlink:href="#DejaVuSans-31"/>
       <use xlink:href="#DejaVuSans-2e" x="63.623047"/>
       <use xlink:href="#DejaVuSans-37" x="95.410156"/>
       <use xlink:href="#DejaVuSans-35" x="159.033203"/>
      </g>
     </g>
    </g>
    <g id="xtick_2">
     <g id="line2d_2">
      <g>
       <use xlink:href="#m1361d43440" x="136.957816" y="307.584" style="stroke: #000000; stroke-width: 0.8"/>
      </g>
     </g>
     <g id="text_2">
      <!-- 2.00 -->
      <g transform="translate(125.825003 322.182437) scale(0.1 -0.1)">
       <defs>
        <path id="DejaVuSans-32" d="M 1228 531 
L 3431 531 
L 3431 0 
L 469 0 
L 469 531 
Q 828 903 1448 1529 
Q 2069 2156 2228 2338 
Q 2531 2678 2651 2914 
Q 2772 3150 2772 3378 
Q 2772 3750 2511 3984 
Q 2250 4219 1831 4219 
Q 1534 4219 1204 4116 
Q 875 4013 500 3803 
L 500 4441 
Q 881 4594 1212 4672 
Q 1544 4750 1819 4750 
Q 2544 4750 2975 4387 
Q 3406 4025 3406 3419 
Q 3406 3131 3298 2873 
Q 3191 2616 2906 2266 
Q 2828 2175 2409 1742 
Q 1991 1309 1228 531 
z
" transform="scale(0.015625)"/>
        <path id="DejaVuSans-30" d="M 2034 4250 
Q 1547 4250 1301 3770 
Q 1056 3291 1056 2328 
Q 1056 1369 1301 889 
Q 1547 409 2034 409 
Q 2525 409 2770 889 
Q 3016 1369 3016 2328 
Q 3016 3291 2770 3770 
Q 2525 4250 2034 4250 
z
M 2034 4750 
Q 2819 4750 3233 4129 
Q 3647 3509 3647 2328 
Q 3647 1150 3233 529 
Q 2819 -91 2034 -91 
Q 1250 -91 836 529 
Q 422 1150 422 2328 
Q 422 3509 836 4129 
Q 1250 4750 2034 4750 
z
" transform="scale(0.015625)"/>
       </defs>
       <use xlink:href="#DejaVuSans-32"/>
       <use xlink:href="#DejaVuSans-2e" x="63.623047"/>
       <use xlink:href="#DejaVuSans-30" x="95.410156"/>
       <use xlink:href="#DejaVuSans-30" x="159.033203"/>
      </g>
     </g>
    </g>
    <g id="xtick_3">
     <g id="line2d_3">
      <g>
       <use xlink:href="#m1361d43440" x="176.63942" y="307.584" style="stroke: #000000; stroke-width: 0.8"/>
      </g>
     </g>
     <g id="text_3">
      <!-- 2.25 -->
      <g transform="translate(165.506607 322.182437) scale(0.1 -0.1)">
       <use xlink:href="#DejaVuSans-32"/>
       <use xlink:href="#DejaVuSans-2e" x="63.623047"/>
       <use xlink:href="#DejaVuSans-32" x="95.410156"/>
       <use xlink:href="#DejaVuSans-35" x="159.033203"/>
      </g>
     </g>
    </g>
    <g id="xtick_4">
     <g id="line2d_4">
      <g>
       <use xlink:href="#m1361d43440" x="216.321024" y="307.584" style="stroke: #000000; stroke-width: 0.8"/>
      </g>
     </g>
     <g id="text_4">
      <!-- 2.50 -->
      <g transform="translate(205.188211 322.182437) scale(0.1 -0.1)">
       <use xlink:href="#DejaVuSans-32"/>
       <use xlink:href="#DejaVuSans-2e" x="63.623047"/>
       <use xlink:href="#DejaVuSans-35" x="95.410156"/>
       <use xlink:href="#DejaVuSans-30" x="159.033203"/>
      </g>
     </g>
    </g>
    <g id="xtick_5">
     <g id="line2d_5">
      <g>
       <use xlink:href="#m1361d43440" x="256.002628" y="307.584" style="stroke: #000000; stroke-width: 0.8"/>
      </g>
     </g>
     <g id="text_5">
      <!-- 2.75 -->
      <g transform="translate(244.869816 322.182437) scale(0.1 -0.1)">
       <use xlink:href="#DejaVuSans-32"/>
       <use xlink:href="#DejaVuSans-2e" x="63.623047"/>
       <use xlink:href="#DejaVuSans-37" x="95.410156"/>
       <use xlink:href="#DejaVuSans-35" x="159.033203"/>
      </g>
     </g>
    </g>
    <g id="xtick_6">
     <g id="line2d_6">
      <g>
       <use xlink:href="#m1361d43440" x="295.684232" y="307.584" style="stroke: #000000; stroke-width: 0.8"/>
      </g>
     </g>
     <g id="text_6">
      <!-- 3.00 -->
      <g transform="translate(284.55142 322.182437) scale(0.1 -0.1)">
       <defs>
        <path id="DejaVuSans-33" d="M 2597 2516 
Q 3050 2419 3304 2112 
Q 3559 1806 3559 1356 
Q 3559 666 3084 287 
Q 2609 -91 1734 -91 
Q 1441 -91 1130 -33 
Q 819 25 488 141 
L 488 750 
Q 750 597 1062 519 
Q 1375 441 1716 441 
Q 2309 441 2620 675 
Q 2931 909 2931 1356 
Q 2931 1769 2642 2001 
Q 2353 2234 1838 2234 
L 1294 2234 
L 1294 2753 
L 1863 2753 
Q 2328 2753 2575 2939 
Q 2822 3125 2822 3475 
Q 2822 3834 2567 4026 
Q 2313 4219 1838 4219 
Q 1578 4219 1281 4162 
Q 984 4106 628 3988 
L 628 4550 
Q 988 4650 1302 4700 
Q 1616 4750 1894 4750 
Q 2613 4750 3031 4423 
Q 3450 4097 3450 3541 
Q 3450 3153 3228 2886 
Q 3006 2619 2597 2516 
z
" transform="scale(0.015625)"/>
       </defs>
       <use xlink:href="#DejaVuSans-33"/>
       <use xlink:href="#DejaVuSans-2e" x="63.623047"/>
       <use xlink:href="#DejaVuSans-30" x="95.410156"/>
       <use xlink:href="#DejaVuSans-30" x="159.033203"/>
      </g>
     </g>
    </g>
    <g id="xtick_7">
     <g id="line2d_7">
      <g>
       <use xlink:href="#m1361d43440" x="335.365836" y="307.584" style="stroke: #000000; stroke-width: 0.8"/>
      </g>
     </g>
     <g id="text_7">
      <!-- 3.25 -->
      <g transform="translate(324.233024 322.182437) scale(0.1 -0.1)">
       <use xlink:href="#DejaVuSans-33"/>
       <use xlink:href="#DejaVuSans-2e" x="63.623047"/>
       <use xlink:href="#DejaVuSans-32" x="95.410156"/>
       <use xlink:href="#DejaVuSans-35" x="159.033203"/>
      </g>
     </g>
    </g>
    <g id="xtick_8">
     <g id="line2d_8">
      <g>
       <use xlink:href="#m1361d43440" x="375.04744" y="307.584" style="stroke: #000000; stroke-width: 0.8"/>
      </g>
     </g>
     <g id="text_8">
      <!-- 3.50 -->
      <g transform="translate(363.914628 322.182437) scale(0.1 -0.1)">
       <use xlink:href="#DejaVuSans-33"/>
       <use xlink:href="#DejaVuSans-2e" x="63.623047"/>
       <use xlink:href="#DejaVuSans-35" x="95.410156"/>
       <use xlink:href="#DejaVuSans-30" x="159.033203"/>
      </g>
     </g>
    </g>
    <g id="text_9">
     <!-- Time [min] -->
     <g transform="translate(209.007656 335.860562) scale(0.1 -0.1)">
      <defs>
       <path id="DejaVuSans-54" d="M -19 4666 
L 3928 4666 
L 3928 4134 
L 2272 4134 
L 2272 0 
L 1638 0 
L 1638 4134 
L -19 4134 
L -19 4666 
z
" transform="scale(0.015625)"/>
       <path id="DejaVuSans-69" d="M 603 3500 
L 1178 3500 
L 1178 0 
L 603 0 
L 603 3500 
z
M 603 4863 
L 1178 4863 
L 1178 4134 
L 603 4134 
L 603 4863 
z
" transform="scale(0.015625)"/>
       <path id="DejaVuSans-6d" d="M 3328 2828 
Q 3544 3216 3844 3400 
Q 4144 3584 4550 3584 
Q 5097 3584 5394 3201 
Q 5691 2819 5691 2113 
L 5691 0 
L 5113 0 
L 5113 2094 
Q 5113 2597 4934 2840 
Q 4756 3084 4391 3084 
Q 3944 3084 3684 2787 
Q 3425 2491 3425 1978 
L 3425 0 
L 2847 0 
L 2847 2094 
Q 2847 2600 2669 2842 
Q 2491 3084 2119 3084 
Q 1678 3084 1418 2786 
Q 1159 2488 1159 1978 
L 1159 0 
L 581 0 
L 581 3500 
L 1159 3500 
L 1159 2956 
Q 1356 3278 1631 3431 
Q 1906 3584 2284 3584 
Q 2666 3584 2933 3390 
Q 3200 3197 3328 2828 
z
" transform="scale(0.015625)"/>
       <path id="DejaVuSans-65" d="M 3597 1894 
L 3597 1613 
L 953 1613 
Q 991 1019 1311 708 
Q 1631 397 2203 397 
Q 2534 397 2845 478 
Q 3156 559 3463 722 
L 3463 178 
Q 3153 47 2828 -22 
Q 2503 -91 2169 -91 
Q 1331 -91 842 396 
Q 353 884 353 1716 
Q 353 2575 817 3079 
Q 1281 3584 2069 3584 
Q 2775 3584 3186 3129 
Q 3597 2675 3597 1894 
z
M 3022 2063 
Q 3016 2534 2758 2815 
Q 2500 3097 2075 3097 
Q 1594 3097 1305 2825 
Q 1016 2553 972 2059 
L 3022 2063 
z
" transform="scale(0.015625)"/>
       <path id="DejaVuSans-20" transform="scale(0.015625)"/>
       <path id="DejaVuSans-5b" d="M 550 4863 
L 1875 4863 
L 1875 4416 
L 1125 4416 
L 1125 -397 
L 1875 -397 
L 1875 -844 
L 550 -844 
L 550 4863 
z
" transform="scale(0.015625)"/>
       <path id="DejaVuSans-6e" d="M 3513 2113 
L 3513 0 
L 2938 0 
L 2938 2094 
Q 2938 2591 2744 2837 
Q 2550 3084 2163 3084 
Q 1697 3084 1428 2787 
Q 1159 2491 1159 1978 
L 1159 0 
L 581 0 
L 581 3500 
L 1159 3500 
L 1159 2956 
Q 1366 3272 1645 3428 
Q 1925 3584 2291 3584 
Q 2894 3584 3203 3211 
Q 3513 2838 3513 2113 
z
" transform="scale(0.015625)"/>
       <path id="DejaVuSans-5d" d="M 1947 4863 
L 1947 -844 
L 622 -844 
L 622 -397 
L 1369 -397 
L 1369 4416 
L 622 4416 
L 622 4863 
L 1947 4863 
z
" transform="scale(0.015625)"/>
      </defs>
      <use xlink:href="#DejaVuSans-54"/>
      <use xlink:href="#DejaVuSans-69" x="57.958984"/>
      <use xlink:href="#DejaVuSans-6d" x="85.742188"/>
      <use xlink:href="#DejaVuSans-65" x="183.154297"/>
      <use xlink:href="#DejaVuSans-20" x="244.677734"/>
      <use xlink:href="#DejaVuSans-5b" x="276.464844"/>
      <use xlink:href="#DejaVuSans-6d" x="315.478516"/>
      <use xlink:href="#DejaVuSans-69" x="412.890625"/>
      <use xlink:href="#DejaVuSans-6e" x="440.673828"/>
      <use xlink:href="#DejaVuSans-5d" x="504.052734"/>
     </g>
    </g>
   </g>
   <g id="matplotlib.axis_2">
    <g id="ytick_1">
     <g id="line2d_9">
      <defs>
       <path id="m380d743069" d="M 0 0 
L -3.5 0 
" style="stroke: #000000; stroke-width: 0.8"/>
      </defs>
      <g>
       <use xlink:href="#m380d743069" x="57.6" y="294.840698" style="stroke: #000000; stroke-width: 0.8"/>
      </g>
     </g>
     <g id="text_10">
      <!-- 0 -->
      <g transform="translate(44.2375 298.639917) scale(0.1 -0.1)">
       <use xlink:href="#DejaVuSans-30"/>
      </g>
     </g>
    </g>
    <g id="ytick_2">
     <g id="line2d_10">
      <g>
       <use xlink:href="#m380d743069" x="57.6" y="247.752801" style="stroke: #000000; stroke-width: 0.8"/>
      </g>
     </g>
     <g id="text_11">
      <!-- 10 -->
      <g transform="translate(37.875 251.55202) scale(0.1 -0.1)">
       <use xlink:href="#DejaVuSans-31"/>
       <use xlink:href="#DejaVuSans-30" x="63.623047"/>
      </g>
     </g>
    </g>
    <g id="ytick_3">
     <g id="line2d_11">
      <g>
       <use xlink:href="#m380d743069" x="57.6" y="200.664904" style="stroke: #000000; stroke-width: 0.8"/>
      </g>
     </g>
     <g id="text_12">
      <!-- 20 -->
      <g transform="translate(37.875 204.464123) scale(0.1 -0.1)">
       <use xlink:href="#DejaVuSans-32"/>
       <use xlink:href="#DejaVuSans-30" x="63.623047"/>
      </g>
     </g>
    </g>
    <g id="ytick_4">
     <g id="line2d_12">
      <g>
       <use xlink:href="#m380d743069" x="57.6" y="153.577007" style="stroke: #000000; stroke-width: 0.8"/>
      </g>
     </g>
     <g id="text_13">
      <!-- 30 -->
      <g transform="translate(37.875 157.376226) scale(0.1 -0.1)">
       <use xlink:href="#DejaVuSans-33"/>
       <use xlink:href="#DejaVuSans-30" x="63.623047"/>
      </g>
     </g>
    </g>
    <g id="ytick_5">
     <g id="line2d_13">
      <g>
       <use xlink:href="#m380d743069" x="57.6" y="106.48911" style="stroke: #000000; stroke-width: 0.8"/>
      </g>
     </g>
     <g id="text_14">
      <!-- 40 -->
      <g transform="translate(37.875 110.288329) scale(0.1 -0.1)">
       <defs>
        <path id="DejaVuSans-34" d="M 2419 4116 
L 825 1625 
L 2419 1625 
L 2419 4116 
z
M 2253 4666 
L 3047 4666 
L 3047 1625 
L 3713 1625 
L 3713 1100 
L 3047 1100 
L 3047 0 
L 2419 0 
L 2419 1100 
L 313 1100 
L 313 1709 
L 2253 4666 
z
" transform="scale(0.015625)"/>
       </defs>
       <use xlink:href="#DejaVuSans-34"/>
       <use xlink:href="#DejaVuSans-30" x="63.623047"/>
      </g>
     </g>
    </g>
    <g id="ytick_6">
     <g id="line2d_14">
      <g>
       <use xlink:href="#m380d743069" x="57.6" y="59.401213" style="stroke: #000000; stroke-width: 0.8"/>
      </g>
     </g>
     <g id="text_15">
      <!-- 50 -->
      <g transform="translate(37.875 63.200432) scale(0.1 -0.1)">
       <use xlink:href="#DejaVuSans-35"/>
       <use xlink:href="#DejaVuSans-30" x="63.623047"/>
      </g>
     </g>
    </g>
    <g id="text_16">
     <!-- Absorbance [mAU] -->
     <g transform="translate(31.795312 221.5155) rotate(-90) scale(0.1 -0.1)">
      <defs>
       <path id="DejaVuSans-41" d="M 2188 4044 
L 1331 1722 
L 3047 1722 
L 2188 4044 
z
M 1831 4666 
L 2547 4666 
L 4325 0 
L 3669 0 
L 3244 1197 
L 1141 1197 
L 716 0 
L 50 0 
L 1831 4666 
z
" transform="scale(0.015625)"/>
       <path id="DejaVuSans-62" d="M 3116 1747 
Q 3116 2381 2855 2742 
Q 2594 3103 2138 3103 
Q 1681 3103 1420 2742 
Q 1159 2381 1159 1747 
Q 1159 1113 1420 752 
Q 1681 391 2138 391 
Q 2594 391 2855 752 
Q 3116 1113 3116 1747 
z
M 1159 2969 
Q 1341 3281 1617 3432 
Q 1894 3584 2278 3584 
Q 2916 3584 3314 3078 
Q 3713 2572 3713 1747 
Q 3713 922 3314 415 
Q 2916 -91 2278 -91 
Q 1894 -91 1617 61 
Q 1341 213 1159 525 
L 1159 0 
L 581 0 
L 581 4863 
L 1159 4863 
L 1159 2969 
z
" transform="scale(0.015625)"/>
       <path id="DejaVuSans-73" d="M 2834 3397 
L 2834 2853 
Q 2591 2978 2328 3040 
Q 2066 3103 1784 3103 
Q 1356 3103 1142 2972 
Q 928 2841 928 2578 
Q 928 2378 1081 2264 
Q 1234 2150 1697 2047 
L 1894 2003 
Q 2506 1872 2764 1633 
Q 3022 1394 3022 966 
Q 3022 478 2636 193 
Q 2250 -91 1575 -91 
Q 1294 -91 989 -36 
Q 684 19 347 128 
L 347 722 
Q 666 556 975 473 
Q 1284 391 1588 391 
Q 1994 391 2212 530 
Q 2431 669 2431 922 
Q 2431 1156 2273 1281 
Q 2116 1406 1581 1522 
L 1381 1569 
Q 847 1681 609 1914 
Q 372 2147 372 2553 
Q 372 3047 722 3315 
Q 1072 3584 1716 3584 
Q 2034 3584 2315 3537 
Q 2597 3491 2834 3397 
z
" transform="scale(0.015625)"/>
       <path id="DejaVuSans-6f" d="M 1959 3097 
Q 1497 3097 1228 2736 
Q 959 2375 959 1747 
Q 959 1119 1226 758 
Q 1494 397 1959 397 
Q 2419 397 2687 759 
Q 2956 1122 2956 1747 
Q 2956 2369 2687 2733 
Q 2419 3097 1959 3097 
z
M 1959 3584 
Q 2709 3584 3137 3096 
Q 3566 2609 3566 1747 
Q 3566 888 3137 398 
Q 2709 -91 1959 -91 
Q 1206 -91 779 398 
Q 353 888 353 1747 
Q 353 2609 779 3096 
Q 1206 3584 1959 3584 
z
" transform="scale(0.015625)"/>
       <path id="DejaVuSans-72" d="M 2631 2963 
Q 2534 3019 2420 3045 
Q 2306 3072 2169 3072 
Q 1681 3072 1420 2755 
Q 1159 2438 1159 1844 
L 1159 0 
L 581 0 
L 581 3500 
L 1159 3500 
L 1159 2956 
Q 1341 3275 1631 3429 
Q 1922 3584 2338 3584 
Q 2397 3584 2469 3576 
Q 2541 3569 2628 3553 
L 2631 2963 
z
" transform="scale(0.015625)"/>
       <path id="DejaVuSans-61" d="M 2194 1759 
Q 1497 1759 1228 1600 
Q 959 1441 959 1056 
Q 959 750 1161 570 
Q 1363 391 1709 391 
Q 2188 391 2477 730 
Q 2766 1069 2766 1631 
L 2766 1759 
L 2194 1759 
z
M 3341 1997 
L 3341 0 
L 2766 0 
L 2766 531 
Q 2569 213 2275 61 
Q 1981 -91 1556 -91 
Q 1019 -91 701 211 
Q 384 513 384 1019 
Q 384 1609 779 1909 
Q 1175 2209 1959 2209 
L 2766 2209 
L 2766 2266 
Q 2766 2663 2505 2880 
Q 2244 3097 1772 3097 
Q 1472 3097 1187 3025 
Q 903 2953 641 2809 
L 641 3341 
Q 956 3463 1253 3523 
Q 1550 3584 1831 3584 
Q 2591 3584 2966 3190 
Q 3341 2797 3341 1997 
z
" transform="scale(0.015625)"/>
       <path id="DejaVuSans-63" d="M 3122 3366 
L 3122 2828 
Q 2878 2963 2633 3030 
Q 2388 3097 2138 3097 
Q 1578 3097 1268 2742 
Q 959 2388 959 1747 
Q 959 1106 1268 751 
Q 1578 397 2138 397 
Q 2388 397 2633 464 
Q 2878 531 3122 666 
L 3122 134 
Q 2881 22 2623 -34 
Q 2366 -91 2075 -91 
Q 1284 -91 818 406 
Q 353 903 353 1747 
Q 353 2603 823 3093 
Q 1294 3584 2113 3584 
Q 2378 3584 2631 3529 
Q 2884 3475 3122 3366 
z
" transform="scale(0.015625)"/>
       <path id="DejaVuSans-55" d="M 556 4666 
L 1191 4666 
L 1191 1831 
Q 1191 1081 1462 751 
Q 1734 422 2344 422 
Q 2950 422 3222 751 
Q 3494 1081 3494 1831 
L 3494 4666 
L 4128 4666 
L 4128 1753 
Q 4128 841 3676 375 
Q 3225 -91 2344 -91 
Q 1459 -91 1007 375 
Q 556 841 556 1753 
L 556 4666 
z
" transform="scale(0.015625)"/>
      </defs>
      <use xlink:href="#DejaVuSans-41"/>
      <use xlink:href="#DejaVuSans-62" x="68.408203"/>
      <use xlink:href="#DejaVuSans-73" x="131.884766"/>
      <use xlink:href="#DejaVuSans-6f" x="183.984375"/>
      <use xlink:href="#DejaVuSans-72" x="245.166016"/>
      <use xlink:href="#DejaVuSans-62" x="286.279297"/>
      <use xlink:href="#DejaVuSans-61" x="349.755859"/>
      <use xlink:href="#DejaVuSans-6e" x="411.035156"/>
      <use xlink:href="#DejaVuSans-63" x="474.414062"/>
      <use xlink:href="#DejaVuSans-65" x="529.394531"/>
      <use xlink:href="#DejaVuSans-20" x="590.917969"/>
      <use xlink:href="#DejaVuSans-5b" x="622.705078"/>
      <use xlink:href="#DejaVuSans-6d" x="661.71875"/>
      <use xlink:href="#DejaVuSans-41" x="759.130859"/>
      <use xlink:href="#DejaVuSans-55" x="827.539062"/>
      <use xlink:href="#DejaVuSans-5d" x="900.732422"/>
     </g>
    </g>
   </g>
   <g id="line2d_15">
    <path d="M 57.6 294.600961 
L 58.526007 294.811299 
L 59.187433 294.677846 
L 59.84884 294.797267 
L 60.378041 294.800797 
L 60.907072 294.978489 
L 63.817318 294.879399 
L 64.610949 295.20939 
L 65.933782 294.739745 
L 67.785796 294.669717 
L 68.314827 294.87519 
L 69.108458 294.681264 
L 69.90226 294.55957 
L 70.431291 294.492604 
L 71.621899 294.516454 
L 72.41553 294.171362 
L 73.209313 293.500789 
L 74.002944 292.498455 
L 74.267545 292.596601 
L 74.796575 293.094463 
L 75.458001 293.505216 
L 76.119408 293.839188 
L 76.384008 293.634641 
L 76.648609 292.854429 
L 76.91319 291.195887 
L 77.17764 287.918375 
L 77.44224 282.084228 
L 77.839046 267.557642 
L 78.897278 221.632593 
L 79.161879 218.882778 
L 79.294255 219.34642 
L 79.558685 223.289437 
L 80.087886 237.685604 
L 81.013893 262.175621 
L 81.6753 273.632082 
L 82.336726 281.466231 
L 82.865756 285.434972 
L 83.659539 289.528472 
L 84.056364 290.785396 
L 84.717771 292.106955 
L 85.246821 292.690231 
L 85.643627 293.173698 
L 85.908227 293.480203 
L 86.172828 293.58635 
L 86.437429 293.378624 
L 86.70201 292.974972 
L 87.098835 291.662334 
L 87.627866 288.852706 
L 88.157067 286.262633 
L 88.553873 285.305321 
L 88.818474 285.320715 
L 89.083074 285.911481 
L 91.067314 291.999886 
L 91.860945 293.072739 
L 92.257751 293.364635 
L 92.654576 293.318995 
L 92.919177 292.878688 
L 93.183777 291.813274 
L 93.448359 289.708342 
L 93.712808 285.75434 
L 94.109785 275.081159 
L 94.638815 252.048887 
L 95.432447 216.09826 
L 95.829423 207.901347 
L 95.961648 207.384204 
L 96.093853 207.91904 
L 96.358454 211.699316 
L 96.887655 225.873268 
L 97.945887 256.050762 
L 98.607294 269.406852 
L 99.2687 278.101967 
L 99.930126 283.964405 
L 100.591533 287.722072 
L 101.385164 290.593764 
L 101.914365 291.740888 
L 102.840202 292.845371 
L 103.501628 293.39887 
L 104.03081 293.711727 
L 105.750449 293.783852 
L 106.015049 293.703086 
L 106.411874 293.826994 
L 106.808681 294.071367 
L 107.602482 294.259899 
L 108.528319 294.576855 
L 109.189745 294.949219 
L 111.173984 295.045103 
L 112.496797 294.678534 
L 113.422824 295.026095 
L 114.481037 294.965812 
L 115.142462 295.094943 
L 116.994325 294.871893 
L 117.523508 294.595364 
L 118.052709 294.023167 
L 118.317139 293.553 
L 118.581739 292.602341 
L 118.84634 291.003859 
L 119.110941 288.18326 
L 119.375371 283.535139 
L 119.772347 271.347025 
L 120.169172 250.570501 
L 120.698203 207.087767 
L 122.153412 66.756847 
L 122.417842 56.285886 
L 122.682442 53.568 
L 122.814818 54.908136 
L 123.079249 62.395813 
L 123.476225 82.825764 
L 125.592689 214.32994 
L 126.254096 238.010557 
L 126.915521 254.1172 
L 127.444552 262.004776 
L 127.841528 265.131107 
L 128.105959 266.196952 
L 128.238335 266.420133 
L 128.370559 266.397572 
L 128.63516 265.748516 
L 129.825597 261.115425 
L 130.090198 260.981613 
L 130.222574 261.13083 
L 130.487023 262.021706 
L 130.884 264.601924 
L 131.809836 272.862611 
L 132.603638 279.605676 
L 133.397269 284.679245 
L 134.587877 289.586821 
L 135.116908 290.624029 
L 135.778315 291.899523 
L 136.307516 292.753791 
L 136.836547 293.138242 
L 137.497953 293.46906 
L 139.349665 294.252491 
L 139.746339 294.450352 
L 140.143126 294.596031 
L 140.804552 294.534375 
L 141.465788 294.708032 
L 141.994838 294.671479 
L 144.243375 294.939014 
L 144.640011 295.032092 
L 145.169212 295.162105 
L 146.094898 295.055806 
L 146.888548 295.148652 
L 148.343435 294.853213 
L 149.137047 295.144019 
L 149.666097 295.202893 
L 150.327333 294.992744 
L 150.856383 294.95047 
L 151.253208 294.937063 
L 151.649995 295.023991 
L 152.57587 294.935529 
L 153.104882 294.778443 
L 153.766156 294.255521 
L 154.559769 293.446177 
L 154.824218 292.719146 
L 155.221043 290.868693 
L 155.617868 287.596498 
L 156.014655 282.142399 
L 156.41148 273.53624 
L 156.94053 255.726946 
L 157.601767 222.903676 
L 159.056653 145.950309 
L 159.453478 135.570086 
L 159.718079 132.808371 
L 159.850304 132.615938 
L 159.982528 133.150325 
L 160.247091 136.322558 
L 160.643765 145.849763 
L 161.30519 170.105435 
L 162.627852 221.097217 
L 163.421313 243.489273 
L 164.082739 256.956617 
L 164.8762 268.279164 
L 165.66985 276.663417 
L 166.331087 281.36588 
L 167.124737 285.476067 
L 167.785973 287.796853 
L 168.315023 289.019736 
L 168.579624 289.320823 
L 168.844035 289.346049 
L 169.24086 288.937799 
L 169.637685 288.137915 
L 170.298922 285.679153 
L 170.960347 282.588484 
L 172.018409 277.474414 
L 172.547459 275.959915 
L 172.812059 275.779554 
L 173.076471 275.939902 
L 173.473296 276.565571 
L 174.002345 278.100466 
L 175.589457 283.760094 
L 175.986244 284.242241 
L 176.250844 284.307809 
L 176.515294 284.206979 
L 176.779894 283.938818 
L 177.308944 282.961749 
L 177.837956 281.59575 
L 178.49923 280.201687 
L 178.896017 279.773672 
L 179.160618 279.552199 
L 179.557443 279.546957 
L 179.954117 280.158657 
L 180.879954 282.743553 
L 182.86389 288.906984 
L 184.318777 291.868203 
L 185.244614 292.868416 
L 186.964101 293.721347 
L 187.22855 293.707656 
L 187.889938 294.232269 
L 188.551212 294.099856 
L 189.609274 294.660568 
L 190.138324 294.609311 
L 190.402886 294.758234 
L 190.799711 294.98249 
L 191.064161 294.943731 
L 192.254598 294.655225 
L 192.783648 294.80097 
L 193.180473 294.857136 
L 193.841709 294.864138 
L 194.370759 294.957641 
L 194.899771 294.85647 
L 195.428821 294.883228 
L 197.809544 294.881238 
L 198.074145 294.859306 
L 198.735419 294.827583 
L 199.132206 294.716876 
L 199.925857 295.09548 
L 200.190306 294.989813 
L 200.454906 294.845195 
L 202.438805 294.874296 
L 203.629091 295.035318 
L 203.893692 295.119941 
L 204.951753 295.102775 
L 205.348578 295.15054 
L 206.40664 295.143139 
L 207.067914 294.912572 
L 207.993751 295.020898 
L 208.919626 294.625126 
L 209.448638 294.727277 
L 209.713238 294.579951 
L 210.242288 294.181952 
L 210.506699 294.263518 
L 211.035749 294.518769 
L 212.623012 294.279224 
L 214.077899 294.518515 
L 214.474724 294.660335 
L 215.92961 294.548568 
L 216.458622 294.398967 
L 217.119896 294.467348 
L 217.913509 294.358897 
L 218.310183 294.409269 
L 218.574783 294.415977 
L 218.971608 294.395821 
L 219.368396 294.357033 
L 219.765069 294.421195 
L 220.29427 294.596689 
L 221.484557 294.367918 
L 221.881382 294.381571 
L 222.278169 294.537219 
L 222.807219 294.581074 
L 223.204044 294.683056 
L 223.468493 294.599547 
L 223.733056 294.517419 
L 224.129729 294.59694 
L 224.658931 294.987305 
L 224.923342 294.981223 
L 225.452392 294.861777 
L 226.113817 295.105543 
L 226.510453 294.988432 
L 226.907278 294.93953 
L 229.552602 295.155815 
L 229.949276 295.298489 
L 230.478477 294.936736 
L 230.742889 294.746055 
L 232.5946 294.290641 
L 232.991426 294.245386 
L 234.313936 293.572767 
L 235.107549 292.715076 
L 235.636598 291.975305 
L 236.033424 291.481134 
L 236.69466 290.51346 
L 238.281923 289.317879 
L 238.678748 289.36272 
L 239.736809 290.196767 
L 240.530308 290.97766 
L 241.05932 291.333321 
L 242.249795 292.557925 
L 244.101469 294.076742 
L 245.291756 294.342059 
L 246.085406 294.73704 
L 246.349855 294.775277 
L 247.011243 294.502128 
L 247.804742 294.796241 
L 248.466129 294.725938 
L 250.317841 295.0565 
L 250.58229 295.016741 
L 250.846891 295.123749 
L 251.111302 295.302375 
L 252.037177 295.323505 
L 252.433964 295.486776 
L 252.698414 295.4362 
L 253.227615 295.093923 
L 253.888851 295.064708 
L 254.946951 295.040521 
L 256.005012 294.573035 
L 256.666438 294.686179 
L 257.19545 294.620447 
L 258.650336 294.677238 
L 259.708398 294.502582 
L 260.369672 294.63755 
L 261.163285 294.511593 
L 261.956935 294.550282 
L 264.205283 294.795565 
L 264.602108 294.601882 
L 264.866708 294.677943 
L 265.263344 294.870268 
L 265.660169 294.832519 
L 266.056994 294.808381 
L 266.586044 294.732483 
L 266.850645 294.71779 
L 267.247281 294.863275 
L 267.511881 294.84522 
L 268.040931 294.605746 
L 268.437718 294.642247 
L 268.966768 294.820227 
L 269.495818 294.665116 
L 269.76038 294.797602 
L 270.421655 294.945792 
L 271.215267 294.79268 
L 271.744317 294.706087 
L 272.141142 294.83368 
L 272.537778 294.94177 
L 273.066827 294.929058 
L 273.596028 294.858896 
L 274.12504 294.989088 
L 274.521714 294.895042 
L 275.447551 294.775304 
L 275.976601 294.998103 
L 276.505802 295.019487 
L 277.299263 294.799714 
L 277.563863 294.823337 
L 278.092913 294.521634 
L 278.621925 294.591513 
L 279.283199 294.358624 
L 280.341261 294.763454 
L 281.267098 294.70697 
L 282.325349 294.731191 
L 282.986585 294.784348 
L 283.647859 294.515234 
L 284.044647 294.557172 
L 284.573696 294.557429 
L 285.102746 294.889905 
L 285.367347 294.887749 
L 286.293184 294.804647 
L 286.690009 294.941246 
L 287.219021 295.077663 
L 288.012519 294.799883 
L 288.541531 294.866117 
L 289.202957 294.860038 
L 290.525468 294.533861 
L 291.31908 294.939157 
L 291.980354 294.833009 
L 292.509555 294.902956 
L 293.038567 294.708728 
L 293.435241 294.752721 
L 294.096667 294.840096 
L 295.022504 294.903822 
L 295.948341 294.672859 
L 296.609615 294.711914 
L 297.00644 294.721598 
L 297.932277 294.8829 
L 298.329102 294.902439 
L 298.858114 294.968564 
L 299.387164 294.96396 
L 300.0484 294.635259 
L 300.57745 294.86567 
L 300.974275 294.986438 
L 301.238876 294.9277 
L 301.635512 294.840385 
L 302.429162 294.831418 
L 302.958174 294.563467 
L 303.354999 294.728972 
L 303.619599 294.786795 
L 304.016273 294.572039 
L 304.41306 294.400857 
L 304.809885 294.575713 
L 305.206711 294.817054 
L 305.603536 294.870497 
L 306.000172 294.852923 
L 306.529373 294.738759 
L 308.513309 294.913339 
L 309.439146 294.992765 
L 310.232607 294.724331 
L 311.026257 294.777744 
L 311.555269 295.071461 
L 311.819718 295.093423 
L 312.745593 294.775839 
L 313.274605 294.917998 
L 313.936031 294.863836 
L 314.597267 294.717477 
L 316.184378 294.900157 
L 317.507041 295.010901 
L 317.903866 295.059922 
L 318.697516 294.987829 
L 320.284589 295.069527 
L 321.210464 295.160065 
L 323.723413 294.657166 
L 323.988013 294.481251 
L 324.517063 294.555449 
L 324.781474 294.445964 
L 325.178299 294.285171 
L 325.971949 294.106408 
L 326.500961 293.880929 
L 326.897786 293.71922 
L 327.559023 293.320243 
L 328.352673 293.341303 
L 328.749309 293.146795 
L 330.468796 293.078683 
L 330.865621 293.000358 
L 331.791458 293.101801 
L 332.188132 293.425214 
L 332.584957 293.598719 
L 333.113969 293.53377 
L 333.510794 293.741468 
L 333.775395 293.857949 
L 334.568856 293.909822 
L 335.097906 294.083788 
L 335.494731 294.144548 
L 336.685168 294.643684 
L 337.081993 294.759127 
L 337.611005 294.578544 
L 338.007679 294.704034 
L 338.404504 294.773526 
L 338.933516 294.634864 
L 339.330341 294.916317 
L 339.727166 295.045282 
L 340.520779 294.775249 
L 342.10789 294.85692 
L 342.372339 294.895134 
L 342.769164 295.067807 
L 343.165951 295.005372 
L 344.224051 294.632785 
L 345.149888 294.88504 
L 345.546713 294.691999 
L 345.943538 294.591158 
L 347.133824 294.496294 
L 347.530611 294.418522 
L 347.927437 294.530039 
L 350.572609 294.957777 
L 350.969435 294.981984 
L 355.863144 294.924706 
L 356.259932 294.922211 
L 357.053582 295.083761 
L 358.508469 294.615148 
L 359.434306 294.852589 
L 360.09558 294.8041 
L 360.624592 294.940825 
L 361.418242 294.810134 
L 361.682691 294.842695 
L 363.005353 294.567046 
L 364.328015 294.262907 
L 365.121476 293.853195 
L 365.915127 293.345394 
L 367.502238 291.208828 
L 368.8249 288.256765 
L 369.353912 286.486844 
L 371.073399 279.620693 
L 372.263685 275.13196 
L 373.057336 272.284264 
L 374.379998 269.187628 
L 374.776671 268.707442 
L 375.438059 268.374377 
L 375.702508 268.399781 
L 376.231558 268.902222 
L 377.55422 271.622116 
L 379.538119 277.268499 
L 380.067168 278.91778 
L 380.728594 280.672145 
L 381.389831 282.575256 
L 382.580117 285.008648 
L 384.299604 288.005526 
L 386.680328 290.668788 
L 387.077153 290.895004 
L 387.473978 291.133666 
L 388.00299 291.638468 
L 389.590101 292.49296 
L 390.383751 292.615183 
L 391.044988 292.937754 
L 391.309437 293.053953 
L 391.838638 293.475927 
L 392.103087 293.499426 
L 392.499874 293.507873 
L 393.557974 293.789252 
L 395.277423 294.153738 
L 396.599934 294.51877 
L 398.054821 294.627352 
L 400.964594 294.782927 
L 401.361419 294.785866 
L 401.890469 294.93427 
L 402.551857 294.873341 
L 402.94853 294.914728 
L 403.477732 294.979239 
L 403.874367 295.054104 
L 406.387505 294.887839 
L 407.048741 294.551354 
L 407.577791 294.809726 
L 407.974616 294.931223 
L 409.164902 294.573755 
L 410.619789 294.825203 
L 411.545626 294.962474 
L 412.339276 295.232862 
L 414.058574 294.807581 
L 414.455399 294.973701 
L 414.72 295.056922 
L 414.72 295.056922 
" clip-path="url(#p559cbefcd1)" style="fill: none; stroke: #000000; stroke-width: 1.5; stroke-linecap: square"/>
   </g>
   <g id="LineCollection_1">
    <path d="M 75.987183 294.840698 
L 86.172828 294.840698 
" clip-path="url(#p559cbefcd1)" style="fill: none; stroke: #1f77b4; stroke-width: 1.5"/>
   </g>
   <g id="line2d_16">
    <defs>
     <path id="m2376bef8e0" d="M 0 3 
L 0 -3 
" style="stroke: #1f77b4"/>
    </defs>
    <g clip-path="url(#p559cbefcd1)">
     <use xlink:href="#m2376bef8e0" x="75.987183" y="294.840698" style="fill: #1f77b4; stroke: #1f77b4"/>
    </g>
   </g>
   <g id="line2d_17">
    <g clip-path="url(#p559cbefcd1)">
     <use xlink:href="#m2376bef8e0" x="86.172828" y="294.840698" style="fill: #1f77b4; stroke: #1f77b4"/>
    </g>
   </g>
   <g id="LineCollection_2">
    <path d="M 79.161879 294.840698 
L 79.161879 218.882778 
" clip-path="url(#p559cbefcd1)" style="fill: none; stroke: #1f77b4"/>
   </g>
   <g id="LineCollection_3">
    <path d="M 92.389966 294.840698 
L 105.353633 294.840698 
" clip-path="url(#p559cbefcd1)" style="fill: none; stroke: #ff7f0e; stroke-width: 1.5"/>
   </g>
   <g id="line2d_18">
    <defs>
     <path id="m44a06bab64" d="M 0 3 
L 0 -3 
" style="stroke: #ff7f0e"/>
    </defs>
    <g clip-path="url(#p559cbefcd1)">
     <use xlink:href="#m44a06bab64" x="92.389966" y="294.840698" style="fill: #ff7f0e; stroke: #ff7f0e"/>
    </g>
   </g>
   <g id="line2d_19">
    <g clip-path="url(#p559cbefcd1)">
     <use xlink:href="#m44a06bab64" x="105.353633" y="294.840698" style="fill: #ff7f0e; stroke: #ff7f0e"/>
    </g>
   </g>
   <g id="LineCollection_4">
    <path d="M 95.961648 294.840698 
L 95.961648 207.384204 
" clip-path="url(#p559cbefcd1)" style="fill: none; stroke: #ff7f0e"/>
   </g>
   <g id="LineCollection_5">
    <path d="M 116.3329 294.840698 
L 139.217289 294.840698 
" clip-path="url(#p559cbefcd1)" style="fill: none; stroke: #2ca02c; stroke-width: 1.5"/>
   </g>
   <g id="line2d_20">
    <defs>
     <path id="m8b995d054e" d="M 0 3 
L 0 -3 
" style="stroke: #2ca02c"/>
    </defs>
    <g clip-path="url(#p559cbefcd1)">
     <use xlink:href="#m8b995d054e" x="116.3329" y="294.840698" style="fill: #2ca02c; stroke: #2ca02c"/>
    </g>
   </g>
   <g id="line2d_21">
    <g clip-path="url(#p559cbefcd1)">
     <use xlink:href="#m8b995d054e" x="139.217289" y="294.840698" style="fill: #2ca02c; stroke: #2ca02c"/>
    </g>
   </g>
   <g id="LineCollection_6">
    <path d="M 122.682442 294.840698 
L 122.682442 53.568 
" clip-path="url(#p559cbefcd1)" style="fill: none; stroke: #2ca02c"/>
   </g>
   <g id="LineCollection_7">
    <path d="M 151.51779 294.840698 
L 186.831858 294.840698 
" clip-path="url(#p559cbefcd1)" style="fill: none; stroke: #d62728; stroke-width: 1.5"/>
   </g>
   <g id="line2d_22">
    <defs>
     <path id="mf255f564df" d="M 0 3 
L 0 -3 
" style="stroke: #d62728"/>
    </defs>
    <g clip-path="url(#p559cbefcd1)">
     <use xlink:href="#mf255f564df" x="151.51779" y="294.840698" style="fill: #d62728; stroke: #d62728"/>
    </g>
   </g>
   <g id="line2d_23">
    <g clip-path="url(#p559cbefcd1)">
     <use xlink:href="#mf255f564df" x="186.831858" y="294.840698" style="fill: #d62728; stroke: #d62728"/>
    </g>
   </g>
   <g id="LineCollection_8">
    <path d="M 159.850304 294.840698 
L 159.850304 132.615938 
" clip-path="url(#p559cbefcd1)" style="fill: none; stroke: #d62728"/>
   </g>
   <g id="line2d_24">
    <path d="M 81.080006 294.840698 
" clip-path="url(#p559cbefcd1)" style="fill: none; stroke: #1f77b4; stroke-width: 1.5; stroke-linecap: square"/>
   </g>
   <g id="line2d_25">
    <path d="M 98.8718 294.840698 
" clip-path="url(#p559cbefcd1)" style="fill: none; stroke: #ff7f0e; stroke-width: 1.5; stroke-linecap: square"/>
   </g>
   <g id="line2d_26">
    <path d="M 127.775095 294.840698 
" clip-path="url(#p559cbefcd1)" style="fill: none; stroke: #2ca02c; stroke-width: 1.5; stroke-linecap: square"/>
   </g>
   <g id="line2d_27">
    <path d="M 169.174824 294.840698 
" clip-path="url(#p559cbefcd1)" style="fill: none; stroke: #d62728; stroke-width: 1.5; stroke-linecap: square"/>
   </g>
   <g id="patch_3">
    <path d="M 57.6 307.584 
L 57.6 41.472 
" style="fill: none; stroke: #000000; stroke-width: 0.8; stroke-linejoin: miter; stroke-linecap: square"/>
   </g>
   <g id="patch_4">
    <path d="M 57.6 307.584 
L 414.72 307.584 
" style="fill: none; stroke: #000000; stroke-width: 0.8; stroke-linejoin: miter; stroke-linecap: square"/>
   </g>
  </g>
 </g>
 <defs>
  <clipPath id="p559cbefcd1">
   <rect x="57.6" y="41.472" width="357.12" height="266.112"/>
  </clipPath>
 </defs>
</svg>
